<?xml version="1.0" encoding="UTF-8"?>
<svg width="840px" height="50px" viewBox="0 0 840 50" version="1.1" xmlns="http://www.w3.org/2000/svg" xmlns:xlink="http://www.w3.org/1999/xlink">
    <!-- Generator: Sketch 50.2 (55047) - http://www.bohemiancoding.com/sketch -->
    <title>buttons-sec</title>
    <desc>Created with Sketch.</desc>
    <defs></defs>
    <g id="Branding" stroke="none" stroke-width="1" fill="none" fill-rule="evenodd">
        <g id="buttons-sec">
            <rect id="Rectangle-6-Copy" stroke="#FE9518" x="0.5" y="0.5" width="179" height="49" rx="24.5"></rect>
            <rect id="Rectangle-6-Copy-5" stroke="#FE9518" fill="#FE9518" x="220.5" y="0.5" width="179" height="49" rx="24.5"></rect>
            <rect id="Rectangle-6-Copy-6" stroke="#FE9518" fill="#FE9518" x="440.5" y="0.5" width="179" height="49" rx="24.5"></rect>
            <path d="M59.09,18.4 C60.2420058,18.4 61.2109961,18.6849972 61.997,19.255 C62.7830039,19.8250029 63.3709981,20.5869952 63.761,21.541 C64.151002,22.4950048 64.346,23.5479942 64.346,24.7 C64.346,25.8880059 64.151002,26.9559953 63.761,27.904 C63.3709981,28.8520047 62.7830039,29.6049972 61.997,30.163 C61.2109961,30.7210028 60.2420058,31 59.09,31 L54.5,31 C54.3439992,31 54.2150005,30.9490005 54.113,30.847 C54.0109995,30.7449995 53.96,30.6160008 53.96,30.46 L53.96,18.94 C53.96,18.7839992 54.0109995,18.6550005 54.113,18.553 C54.2150005,18.4509995 54.3439992,18.4 54.5,18.4 L59.09,18.4 Z M58.91,29.938 C60.3500072,29.938 61.4239965,29.4550048 62.132,28.489 C62.8400035,27.5229952 63.194,26.2600078 63.194,24.7 C63.194,23.7279951 63.0440015,22.8490039 62.744,22.063 C62.4439985,21.2769961 61.9730032,20.6470024 61.331,20.173 C60.6889968,19.6989976 59.8820049,19.462 58.91,19.462 L55.094,19.462 L55.094,29.938 L58.91,29.938 Z M74.048,29.938 C74.2040008,29.938 74.3329995,29.9919995 74.435,30.1 C74.5370005,30.2080005 74.588,30.3339993 74.588,30.478 C74.588,30.6340008 74.5370005,30.7599995 74.435,30.856 C74.3329995,30.9520005 74.2040008,31 74.048,31 L67.442,31 C67.2859992,31 67.1570005,30.9490005 67.055,30.847 C66.9529995,30.7449995 66.902,30.6160008 66.902,30.46 L66.902,18.94 C66.902,18.7839992 66.9529995,18.6550005 67.055,18.553 C67.1570005,18.4509995 67.2859992,18.4 67.442,18.4 L74.048,18.4 C74.2040008,18.4 74.3329995,18.4509995 74.435,18.553 C74.5370005,18.6550005 74.588,18.7839992 74.588,18.94 C74.588,19.0960008 74.5370005,19.2219995 74.435,19.318 C74.3329995,19.4140005 74.2040008,19.462 74.048,19.462 L68.036,19.462 L68.036,23.98 L73.238,23.98 C73.3940008,23.98 73.5229995,24.0309995 73.625,24.133 C73.7270005,24.2350005 73.778,24.3639992 73.778,24.52 C73.778,24.6760008 73.7270005,24.8019995 73.625,24.898 C73.5229995,24.9940005 73.3940008,25.042 73.238,25.042 L68.036,25.042 L68.036,29.938 L74.048,29.938 Z M84.218,18.4 C84.3740008,18.4 84.5029995,18.4509995 84.605,18.553 C84.7070005,18.6550005 84.758,18.7839992 84.758,18.94 C84.758,19.0840007 84.7070005,19.2069995 84.605,19.309 C84.5029995,19.4110005 84.3740008,19.462 84.218,19.462 L78.224,19.462 L78.224,23.98 L83.408,23.98 C83.5640008,23.98 83.6929995,24.0279995 83.795,24.124 C83.8970005,24.2200005 83.948,24.3459992 83.948,24.502 C83.948,24.6580008 83.8970005,24.7839995 83.795,24.88 C83.6929995,24.9760005 83.5640008,25.024 83.408,25.024 L78.224,25.024 L78.224,30.46 C78.224,30.6160008 78.1730005,30.7449995 78.071,30.847 C77.9689995,30.9490005 77.8400008,31 77.684,31 C77.5159992,31 77.3810005,30.9490005 77.279,30.847 C77.1769995,30.7449995 77.126,30.6160008 77.126,30.46 L77.126,18.94 C77.126,18.7839992 77.1769995,18.6550005 77.279,18.553 C77.3810005,18.4509995 77.5099992,18.4 77.666,18.4 L84.218,18.4 Z M96.134,30.28 C96.1580001,30.3760005 96.17,30.4479998 96.17,30.496 C96.17,30.6520008 96.1160005,30.7779995 96.008,30.874 C95.8999995,30.9700005 95.7740007,31.018 95.63,31.018 C95.5099994,31.018 95.4050005,30.9850003 95.315,30.919 C95.2249996,30.8529997 95.1560002,30.7660005 95.108,30.658 L93.758,27.364 L87.908,27.364 L86.576,30.658 C86.4799995,30.8980012 86.3180011,31.018 86.09,31.018 C85.9219992,31.018 85.7960004,30.9760004 85.712,30.892 C85.6279996,30.8079996 85.5800001,30.6940007 85.568,30.55 L85.568,30.496 C85.568,30.4239996 85.5739999,30.3700002 85.586,30.334 L90.338,18.706 C90.4340005,18.4659988 90.6139987,18.346 90.878,18.346 C90.9980006,18.346 91.1029995,18.3789997 91.193,18.445 C91.2830004,18.5110003 91.3519998,18.5979995 91.4,18.706 L96.134,30.28 Z M88.322,26.302 L93.326,26.302 L90.806,20.146 L88.322,26.302 Z M107.114,18.4 C107.270001,18.4 107.398999,18.4509995 107.501,18.553 C107.603001,18.6550005 107.654,18.7839992 107.654,18.94 L107.654,26.392 C107.654,27.2680044 107.444002,28.0719963 107.024,28.804 C106.603998,29.5360037 106.034004,30.1119979 105.314,30.532 C104.593996,30.9520021 103.802004,31.162 102.938,31.162 C102.061996,31.162 101.264004,30.9520021 100.544,30.532 C99.8239964,30.1119979 99.2540021,29.5360037 98.834,28.804 C98.4139979,28.0719963 98.204,27.2680044 98.204,26.392 L98.204,18.94 C98.204,18.7839992 98.2549995,18.6550005 98.357,18.553 C98.4590005,18.4509995 98.5999991,18.4 98.78,18.4 C98.9240007,18.4 99.0499995,18.4509995 99.158,18.553 C99.2660005,18.6550005 99.32,18.7839992 99.32,18.94 L99.32,26.392 C99.32,27.0640034 99.4819984,27.6819972 99.806,28.246 C100.130002,28.8100028 100.570997,29.2569983 101.129,29.587 C101.687003,29.9170017 102.289997,30.082 102.938,30.082 C103.598003,30.082 104.206997,29.9170017 104.765,29.587 C105.323003,29.2569983 105.766998,28.8100028 106.097,28.246 C106.427002,27.6819972 106.592,27.0640034 106.592,26.392 L106.592,18.94 C106.592,18.7839992 106.64,18.6550005 106.736,18.553 C106.832,18.4509995 106.957999,18.4 107.114,18.4 Z M118.004,29.938 C118.160001,29.938 118.288999,29.9859995 118.391,30.082 C118.493001,30.1780005 118.544,30.3039992 118.544,30.46 C118.544,30.6160008 118.493001,30.7449995 118.391,30.847 C118.288999,30.9490005 118.160001,31 118.004,31 L111.578,31 C111.421999,31 111.293001,30.9490005 111.191,30.847 C111.088999,30.7449995 111.038,30.6160008 111.038,30.46 L111.038,18.94 C111.038,18.7839992 111.091999,18.6550005 111.2,18.553 C111.308001,18.4509995 111.445999,18.4 111.614,18.4 C111.770001,18.4 111.901999,18.4509995 112.01,18.553 C112.118001,18.6550005 112.172,18.7839992 112.172,18.94 L112.172,29.938 L118.004,29.938 Z M127.58,18.4 C127.736001,18.4 127.864999,18.4479995 127.967,18.544 C128.069001,18.6400005 128.12,18.7659992 128.12,18.922 C128.12,19.0780008 128.069001,19.2009995 127.967,19.291 C127.864999,19.3810005 127.736001,19.426 127.58,19.426 L123.854,19.426 L123.854,30.46 C123.854,30.6160008 123.800001,30.7449995 123.692,30.847 C123.583999,30.9490005 123.452001,31 123.296,31 C123.127999,31 122.993001,30.9490005 122.891,30.847 C122.788999,30.7449995 122.738,30.6160008 122.738,30.46 L122.738,19.426 L119.012,19.426 C118.855999,19.426 118.727001,19.3780005 118.625,19.282 C118.522999,19.1859995 118.472,19.0600008 118.472,18.904 C118.472,18.7599993 118.522999,18.6400005 118.625,18.544 C118.727001,18.4479995 118.855999,18.4 119.012,18.4 L127.58,18.4 Z" id="Default-Copy" fill="#FE9518"></path>
            <path d="M291.308,18.4 C291.476001,18.4 291.610999,18.4509995 291.713,18.553 C291.815001,18.6550005 291.866,18.7899992 291.866,18.958 L291.866,30.442 C291.854,30.6100008 291.794001,30.7449995 291.686,30.847 C291.577999,30.9490005 291.446001,31 291.29,31 C291.133999,31 291.002001,30.9460005 290.894,30.838 C290.785999,30.7299995 290.732,30.5980008 290.732,30.442 L290.732,25.078 L283.424,25.078 L283.424,30.442 C283.412,30.5980008 283.352001,30.7299995 283.244,30.838 C283.135999,30.9460005 283.004001,31 282.848,31 C282.679999,31 282.545001,30.9490005 282.443,30.847 C282.340999,30.7449995 282.29,30.6100008 282.29,30.442 L282.29,18.958 C282.29,18.7899992 282.343999,18.6550005 282.452,18.553 C282.560001,18.4509995 282.697999,18.4 282.866,18.4 C283.022001,18.4 283.153999,18.4539995 283.262,18.562 C283.370001,18.6700005 283.424,18.8019992 283.424,18.958 L283.424,24.034 L290.732,24.034 L290.732,18.958 C290.732,18.8019992 290.788999,18.6700005 290.903,18.562 C291.017001,18.4539995 291.151999,18.4 291.308,18.4 Z M306.482,24.7 C306.482,25.9360062 306.224003,27.0459951 305.708,28.03 C305.191997,29.0140049 304.478005,29.7849972 303.566,30.343 C302.653995,30.9010028 301.616006,31.18 300.452,31.18 C299.287994,31.18 298.250005,30.9010028 297.338,30.343 C296.425995,29.7849972 295.712003,29.0140049 295.196,28.03 C294.679997,27.0459951 294.422,25.9360062 294.422,24.7 C294.422,23.4519938 294.679997,22.3360049 295.196,21.352 C295.712003,20.3679951 296.425995,19.6000028 297.338,19.048 C298.250005,18.4959972 299.287994,18.22 300.452,18.22 C301.616006,18.22 302.653995,18.4959972 303.566,19.048 C304.478005,19.6000028 305.191997,20.3679951 305.708,21.352 C306.224003,22.3360049 306.482,23.4519938 306.482,24.7 Z M305.33,24.7 C305.33,23.6559948 305.123002,22.7230041 304.709,21.901 C304.294998,21.0789959 303.719004,20.4400023 302.981,19.984 C302.242996,19.5279977 301.400005,19.3 300.452,19.3 C299.503995,19.3 298.661004,19.5279977 297.923,19.984 C297.184996,20.4400023 296.609002,21.0789959 296.195,21.901 C295.780998,22.7230041 295.574,23.6559948 295.574,24.7 C295.574,25.7440052 295.780998,26.6769959 296.195,27.499 C296.609002,28.3210041 297.184996,28.9599977 297.923,29.416 C298.661004,29.8720023 299.503995,30.1 300.452,30.1 C301.400005,30.1 302.242996,29.8720023 302.981,29.416 C303.719004,28.9599977 304.294998,28.3210041 304.709,27.499 C305.123002,26.6769959 305.33,25.7440052 305.33,24.7 Z M317.948,18.382 C318.104001,18.382 318.235999,18.4329995 318.344,18.535 C318.452001,18.6370005 318.506,18.7539993 318.506,18.886 C318.506,18.9700004 318.488,19.0599995 318.452,19.156 L313.646,30.64 C313.598,30.7480005 313.526,30.8349997 313.43,30.901 C313.334,30.9670003 313.232001,31 313.124,31 C313.015999,31 312.917,30.9700003 312.827,30.91 C312.737,30.8499997 312.668,30.7660005 312.62,30.658 L307.832,19.192 C307.796,19.1199996 307.778,19.0240006 307.778,18.904 C307.778,18.7479992 307.831999,18.6220005 307.94,18.526 C308.048001,18.4299995 308.167999,18.382 308.3,18.382 C308.552001,18.382 308.731999,18.5139987 308.84,18.778 L313.178,29.146 L317.444,18.742 C317.504,18.6339995 317.579,18.5470003 317.669,18.481 C317.759,18.4149997 317.852,18.382 317.948,18.382 Z M327.956,29.938 C328.112001,29.938 328.240999,29.9919995 328.343,30.1 C328.445001,30.2080005 328.496,30.3339993 328.496,30.478 C328.496,30.6340008 328.445001,30.7599995 328.343,30.856 C328.240999,30.9520005 328.112001,31 327.956,31 L321.35,31 C321.193999,31 321.065001,30.9490005 320.963,30.847 C320.860999,30.7449995 320.81,30.6160008 320.81,30.46 L320.81,18.94 C320.81,18.7839992 320.860999,18.6550005 320.963,18.553 C321.065001,18.4509995 321.193999,18.4 321.35,18.4 L327.956,18.4 C328.112001,18.4 328.240999,18.4509995 328.343,18.553 C328.445001,18.6550005 328.496,18.7839992 328.496,18.94 C328.496,19.0960008 328.445001,19.2219995 328.343,19.318 C328.240999,19.4140005 328.112001,19.462 327.956,19.462 L321.944,19.462 L321.944,23.98 L327.146,23.98 C327.302001,23.98 327.430999,24.0309995 327.533,24.133 C327.635001,24.2350005 327.686,24.3639992 327.686,24.52 C327.686,24.6760008 327.635001,24.8019995 327.533,24.898 C327.430999,24.9940005 327.302001,25.042 327.146,25.042 L321.944,25.042 L321.944,29.938 L327.956,29.938 Z M340.232,30.028 C340.412001,30.1480006 340.502,30.2979991 340.502,30.478 C340.502,30.5380003 340.478,30.6159995 340.43,30.712 C340.382,30.7960004 340.316,30.8619998 340.232,30.91 C340.148,30.9580002 340.058,30.982 339.962,30.982 C339.841999,30.982 339.74,30.9580002 339.656,30.91 C339.319998,30.717999 339.050001,30.4060022 338.846,29.974 C338.641999,29.5419978 338.54,28.8520047 338.54,27.904 C338.54,27.0639958 338.306002,26.4730017 337.838,26.131 C337.369998,25.7889983 336.812003,25.618 336.164,25.618 L332.168,25.618 L332.168,30.46 C332.168,30.6160008 332.12,30.7449995 332.024,30.847 C331.928,30.9490005 331.802001,31 331.646,31 C331.477999,31 331.334001,30.9490005 331.214,30.847 C331.093999,30.7449995 331.034,30.6160008 331.034,30.46 L331.034,18.94 C331.034,18.7839992 331.084999,18.6550005 331.187,18.553 C331.289001,18.4509995 331.417999,18.4 331.574,18.4 L336.434,18.4 C337.118003,18.4 337.729997,18.5469985 338.27,18.841 C338.810003,19.1350015 339.232998,19.5399974 339.539,20.056 C339.845002,20.5720026 339.998,21.1539968 339.998,21.802 C339.998,22.5700038 339.797002,23.2449971 339.395,23.827 C338.992998,24.4090029 338.468003,24.8079989 337.82,25.024 C338.348003,25.228001 338.779998,25.5729976 339.116,26.059 C339.452002,26.5450024 339.626,27.1359965 339.638,27.832 C339.65,28.5760037 339.701,29.0979985 339.791,29.398 C339.881,29.6980015 340.027999,29.9079994 340.232,30.028 Z M336.488,24.628 C336.908002,24.5919998 337.297998,24.4540012 337.658,24.214 C338.018002,23.9739988 338.305999,23.650002 338.522,23.242 C338.738001,22.833998 338.846,22.3660026 338.846,21.838 C338.846,21.1539966 338.615002,20.5870022 338.153,20.137 C337.690998,19.6869978 337.088004,19.462 336.344,19.462 L332.168,19.462 L332.168,24.628 L336.488,24.628 Z" id="Hover" fill="#FFFFFF"></path>
            <path d="M498.793,18.4 C499.453003,18.4 500.046997,18.5529985 500.575,18.859 C501.103003,19.1650015 501.513999,19.5909973 501.808,20.137 C502.102001,20.6830027 502.249,21.2979966 502.249,21.982 C502.249,22.6660034 502.102001,23.2899972 501.808,23.854 C501.513999,24.4180028 501.103003,24.8619984 500.575,25.186 C500.046997,25.5100016 499.453003,25.672 498.793,25.672 L495.067,25.672 L495.067,30.46 C495.067,30.6160008 495.016001,30.7449995 494.914,30.847 C494.811999,30.9490005 494.683001,31 494.527,31 C494.370999,31 494.242001,30.9490005 494.14,30.847 C494.037999,30.7449995 493.987,30.6160008 493.987,30.46 L493.987,18.94 C493.987,18.7839992 494.037999,18.6550005 494.14,18.553 C494.242001,18.4509995 494.370999,18.4 494.527,18.4 L498.793,18.4 Z M498.793,24.628 C499.489003,24.628 500.052998,24.3760025 500.485,23.872 C500.917002,23.3679975 501.133,22.7380038 501.133,21.982 C501.133,21.2379963 500.917002,20.6320023 500.485,20.164 C500.052998,19.6959977 499.489003,19.462 498.793,19.462 L495.067,19.462 L495.067,24.628 L498.793,24.628 Z M513.913,30.028 C514.093001,30.1480006 514.183,30.2979991 514.183,30.478 C514.183,30.5380003 514.159,30.6159995 514.111,30.712 C514.063,30.7960004 513.997,30.8619998 513.913,30.91 C513.829,30.9580002 513.739,30.982 513.643,30.982 C513.522999,30.982 513.421,30.9580002 513.337,30.91 C513.000998,30.717999 512.731001,30.4060022 512.527,29.974 C512.322999,29.5419978 512.221,28.8520047 512.221,27.904 C512.221,27.0639958 511.987002,26.4730017 511.519,26.131 C511.050998,25.7889983 510.493003,25.618 509.845,25.618 L505.849,25.618 L505.849,30.46 C505.849,30.6160008 505.801,30.7449995 505.705,30.847 C505.609,30.9490005 505.483001,31 505.327,31 C505.158999,31 505.015001,30.9490005 504.895,30.847 C504.774999,30.7449995 504.715,30.6160008 504.715,30.46 L504.715,18.94 C504.715,18.7839992 504.765999,18.6550005 504.868,18.553 C504.970001,18.4509995 505.098999,18.4 505.255,18.4 L510.115,18.4 C510.799003,18.4 511.410997,18.5469985 511.951,18.841 C512.491003,19.1350015 512.913998,19.5399974 513.22,20.056 C513.526002,20.5720026 513.679,21.1539968 513.679,21.802 C513.679,22.5700038 513.478002,23.2449971 513.076,23.827 C512.673998,24.4090029 512.149003,24.8079989 511.501,25.024 C512.029003,25.228001 512.460998,25.5729976 512.797,26.059 C513.133002,26.5450024 513.307,27.1359965 513.319,27.832 C513.331,28.5760037 513.382,29.0979985 513.472,29.398 C513.562,29.6980015 513.708999,29.9079994 513.913,30.028 Z M510.169,24.628 C510.589002,24.5919998 510.978998,24.4540012 511.339,24.214 C511.699002,23.9739988 511.986999,23.650002 512.203,23.242 C512.419001,22.833998 512.527,22.3660026 512.527,21.838 C512.527,21.1539966 512.296002,20.5870022 511.834,20.137 C511.371998,19.6869978 510.769004,19.462 510.025,19.462 L505.849,19.462 L505.849,24.628 L510.169,24.628 Z M523.921,29.938 C524.077001,29.938 524.205999,29.9919995 524.308,30.1 C524.410001,30.2080005 524.461,30.3339993 524.461,30.478 C524.461,30.6340008 524.410001,30.7599995 524.308,30.856 C524.205999,30.9520005 524.077001,31 523.921,31 L517.315,31 C517.158999,31 517.030001,30.9490005 516.928,30.847 C516.825999,30.7449995 516.775,30.6160008 516.775,30.46 L516.775,18.94 C516.775,18.7839992 516.825999,18.6550005 516.928,18.553 C517.030001,18.4509995 517.158999,18.4 517.315,18.4 L523.921,18.4 C524.077001,18.4 524.205999,18.4509995 524.308,18.553 C524.410001,18.6550005 524.461,18.7839992 524.461,18.94 C524.461,19.0960008 524.410001,19.2219995 524.308,19.318 C524.205999,19.4140005 524.077001,19.462 523.921,19.462 L517.909,19.462 L517.909,23.98 L523.111,23.98 C523.267001,23.98 523.395999,24.0309995 523.498,24.133 C523.600001,24.2350005 523.651,24.3639992 523.651,24.52 C523.651,24.6760008 523.600001,24.8019995 523.498,24.898 C523.395999,24.9940005 523.267001,25.042 523.111,25.042 L517.909,25.042 L517.909,29.938 L523.921,29.938 Z M530.401,31.18 C529.536996,31.18 528.772003,31.0360014 528.106,30.748 C527.439997,30.4599986 526.795003,30.0100031 526.171,29.398 C526.026999,29.2779994 525.955,29.1340008 525.955,28.966 C525.955,28.8219993 526.011999,28.6900006 526.126,28.57 C526.240001,28.4499994 526.368999,28.39 526.513,28.39 C526.657001,28.39 526.788999,28.4499994 526.909,28.57 C527.845005,29.6020052 529.014993,30.118 530.419,30.118 C531.283004,30.118 531.999997,29.914002 532.57,29.506 C533.140003,29.097998 533.425,28.5640033 533.425,27.904 C533.425,27.3879974 533.284001,26.9590017 533.002,26.617 C532.719999,26.2749983 532.351002,25.9960011 531.895,25.78 C531.438998,25.5639989 530.857004,25.3420011 530.149,25.114 C529.380996,24.8859989 528.736003,24.6340014 528.214,24.358 C527.691997,24.0819986 527.269002,23.7130023 526.945,23.251 C526.620998,22.7889977 526.459,22.2040035 526.459,21.496 C526.459,20.8599968 526.629998,20.2960025 526.972,19.804 C527.314002,19.3119975 527.793997,18.9250014 528.412,18.643 C529.030003,18.3609986 529.740996,18.22 530.545,18.22 C531.277004,18.22 531.963997,18.3429988 532.606,18.589 C533.248003,18.8350012 533.760998,19.1859977 534.145,19.642 C534.325001,19.846001 534.415,20.0199993 534.415,20.164 C534.415,20.2960007 534.355001,20.4189994 534.235,20.533 C534.114999,20.6470006 533.983001,20.704 533.839,20.704 C533.718999,20.704 533.617,20.6620004 533.533,20.578 C533.208998,20.1939981 532.777003,19.8820012 532.237,19.642 C531.696997,19.4019988 531.133003,19.282 530.545,19.282 C529.668996,19.282 528.955003,19.4769981 528.403,19.867 C527.850997,20.2570019 527.575,20.7879966 527.575,21.46 C527.575,22.1560035 527.838997,22.6899981 528.367,23.062 C528.895003,23.4340019 529.650995,23.7759984 530.635,24.088 C531.487004,24.3400013 532.182997,24.5979987 532.723,24.862 C533.263003,25.1260013 533.703998,25.5009976 534.046,25.987 C534.388002,26.4730024 534.559,27.111996 534.559,27.904 C534.559,28.5160031 534.382002,29.0709975 534.028,29.569 C533.673998,30.0670025 533.182003,30.4599986 532.552,30.748 C531.921997,31.0360014 531.205004,31.18 530.401,31.18 Z M540.517,31.18 C539.652996,31.18 538.888003,31.0360014 538.222,30.748 C537.555997,30.4599986 536.911003,30.0100031 536.287,29.398 C536.142999,29.2779994 536.071,29.1340008 536.071,28.966 C536.071,28.8219993 536.127999,28.6900006 536.242,28.57 C536.356001,28.4499994 536.484999,28.39 536.629,28.39 C536.773001,28.39 536.904999,28.4499994 537.025,28.57 C537.961005,29.6020052 539.130993,30.118 540.535,30.118 C541.399004,30.118 542.115997,29.914002 542.686,29.506 C543.256003,29.097998 543.541,28.5640033 543.541,27.904 C543.541,27.3879974 543.400001,26.9590017 543.118,26.617 C542.835999,26.2749983 542.467002,25.9960011 542.011,25.78 C541.554998,25.5639989 540.973004,25.3420011 540.265,25.114 C539.496996,24.8859989 538.852003,24.6340014 538.33,24.358 C537.807997,24.0819986 537.385002,23.7130023 537.061,23.251 C536.736998,22.7889977 536.575,22.2040035 536.575,21.496 C536.575,20.8599968 536.745998,20.2960025 537.088,19.804 C537.430002,19.3119975 537.909997,18.9250014 538.528,18.643 C539.146003,18.3609986 539.856996,18.22 540.661,18.22 C541.393004,18.22 542.079997,18.3429988 542.722,18.589 C543.364003,18.8350012 543.876998,19.1859977 544.261,19.642 C544.441001,19.846001 544.531,20.0199993 544.531,20.164 C544.531,20.2960007 544.471001,20.4189994 544.351,20.533 C544.230999,20.6470006 544.099001,20.704 543.955,20.704 C543.834999,20.704 543.733,20.6620004 543.649,20.578 C543.324998,20.1939981 542.893003,19.8820012 542.353,19.642 C541.812997,19.4019988 541.249003,19.282 540.661,19.282 C539.784996,19.282 539.071003,19.4769981 538.519,19.867 C537.966997,20.2570019 537.691,20.7879966 537.691,21.46 C537.691,22.1560035 537.954997,22.6899981 538.483,23.062 C539.011003,23.4340019 539.766995,23.7759984 540.751,24.088 C541.603004,24.3400013 542.298997,24.5979987 542.839,24.862 C543.379003,25.1260013 543.819998,25.5009976 544.162,25.987 C544.504002,26.4730024 544.675,27.111996 544.675,27.904 C544.675,28.5160031 544.498002,29.0709975 544.144,29.569 C543.789998,30.0670025 543.298003,30.4599986 542.668,30.748 C542.037997,31.0360014 541.321004,31.18 540.517,31.18 Z M554.377,29.938 C554.533001,29.938 554.661999,29.9919995 554.764,30.1 C554.866001,30.2080005 554.917,30.3339993 554.917,30.478 C554.917,30.6340008 554.866001,30.7599995 554.764,30.856 C554.661999,30.9520005 554.533001,31 554.377,31 L547.771,31 C547.614999,31 547.486001,30.9490005 547.384,30.847 C547.281999,30.7449995 547.231,30.6160008 547.231,30.46 L547.231,18.94 C547.231,18.7839992 547.281999,18.6550005 547.384,18.553 C547.486001,18.4509995 547.614999,18.4 547.771,18.4 L554.377,18.4 C554.533001,18.4 554.661999,18.4509995 554.764,18.553 C554.866001,18.6550005 554.917,18.7839992 554.917,18.94 C554.917,19.0960008 554.866001,19.2219995 554.764,19.318 C554.661999,19.4140005 554.533001,19.462 554.377,19.462 L548.365,19.462 L548.365,23.98 L553.567,23.98 C553.723001,23.98 553.851999,24.0309995 553.954,24.133 C554.056001,24.2350005 554.107,24.3639992 554.107,24.52 C554.107,24.6760008 554.056001,24.8019995 553.954,24.898 C553.851999,24.9940005 553.723001,25.042 553.567,25.042 L548.365,25.042 L548.365,29.938 L554.377,29.938 Z M562.585,18.4 C563.737006,18.4 564.705996,18.6849972 565.492,19.255 C566.278004,19.8250029 566.865998,20.5869952 567.256,21.541 C567.646002,22.4950048 567.841,23.5479942 567.841,24.7 C567.841,25.8880059 567.646002,26.9559953 567.256,27.904 C566.865998,28.8520047 566.278004,29.6049972 565.492,30.163 C564.705996,30.7210028 563.737006,31 562.585,31 L557.995,31 C557.838999,31 557.710001,30.9490005 557.608,30.847 C557.505999,30.7449995 557.455,30.6160008 557.455,30.46 L557.455,18.94 C557.455,18.7839992 557.505999,18.6550005 557.608,18.553 C557.710001,18.4509995 557.838999,18.4 557.995,18.4 L562.585,18.4 Z M562.405,29.938 C563.845007,29.938 564.918996,29.4550048 565.627,28.489 C566.335004,27.5229952 566.689,26.2600078 566.689,24.7 C566.689,23.7279951 566.539001,22.8490039 566.239,22.063 C565.938998,21.2769961 565.468003,20.6470024 564.826,20.173 C564.183997,19.6989976 563.377005,19.462 562.405,19.462 L558.589,19.462 L558.589,29.938 L562.405,29.938 Z" id="Pressed" fill="#FFFFFF" opacity="0.900000036"></path>
            <rect id="Rectangle-6-Copy-7" stroke="#FE9518" x="660.5" y="0.5" width="179" height="49" rx="24.5"></rect>
            <path d="M715.99,18.4 C717.142006,18.4 718.110996,18.6849972 718.897,19.255 C719.683004,19.8250029 720.270998,20.5869952 720.661,21.541 C721.051002,22.4950048 721.246,23.5479942 721.246,24.7 C721.246,25.8880059 721.051002,26.9559953 720.661,27.904 C720.270998,28.8520047 719.683004,29.6049972 718.897,30.163 C718.110996,30.7210028 717.142006,31 715.99,31 L711.4,31 C711.243999,31 711.115001,30.9490005 711.013,30.847 C710.910999,30.7449995 710.86,30.6160008 710.86,30.46 L710.86,18.94 C710.86,18.7839992 710.910999,18.6550005 711.013,18.553 C711.115001,18.4509995 711.243999,18.4 711.4,18.4 L715.99,18.4 Z M715.81,29.938 C717.250007,29.938 718.323996,29.4550048 719.032,28.489 C719.740004,27.5229952 720.094,26.2600078 720.094,24.7 C720.094,23.7279951 719.944002,22.8490039 719.644,22.063 C719.343999,21.2769961 718.873003,20.6470024 718.231,20.173 C717.588997,19.6989976 716.782005,19.462 715.81,19.462 L711.994,19.462 L711.994,29.938 L715.81,29.938 Z M724.936,30.442 C724.924,30.5980008 724.864001,30.7299995 724.756,30.838 C724.647999,30.9460005 724.516001,31 724.36,31 C724.191999,31 724.057001,30.9490005 723.955,30.847 C723.852999,30.7449995 723.802,30.6100008 723.802,30.442 L723.802,18.958 C723.802,18.7899992 723.855999,18.6550005 723.964,18.553 C724.072001,18.4509995 724.209999,18.4 724.378,18.4 C724.534001,18.4 724.665999,18.4539995 724.774,18.562 C724.882001,18.6700005 724.936,18.8019992 724.936,18.958 L724.936,30.442 Z M731.704,31.18 C730.839996,31.18 730.075003,31.0360014 729.409,30.748 C728.742997,30.4599986 728.098003,30.0100031 727.474,29.398 C727.329999,29.2779994 727.258,29.1340008 727.258,28.966 C727.258,28.8219993 727.314999,28.6900006 727.429,28.57 C727.543001,28.4499994 727.671999,28.39 727.816,28.39 C727.960001,28.39 728.091999,28.4499994 728.212,28.57 C729.148005,29.6020052 730.317993,30.118 731.722,30.118 C732.586004,30.118 733.302997,29.914002 733.873,29.506 C734.443003,29.097998 734.728,28.5640033 734.728,27.904 C734.728,27.3879974 734.587001,26.9590017 734.305,26.617 C734.022999,26.2749983 733.654002,25.9960011 733.198,25.78 C732.741998,25.5639989 732.160004,25.3420011 731.452,25.114 C730.683996,24.8859989 730.039003,24.6340014 729.517,24.358 C728.994997,24.0819986 728.572002,23.7130023 728.248,23.251 C727.923998,22.7889977 727.762,22.2040035 727.762,21.496 C727.762,20.8599968 727.932998,20.2960025 728.275,19.804 C728.617002,19.3119975 729.096997,18.9250014 729.715,18.643 C730.333003,18.3609986 731.043996,18.22 731.848,18.22 C732.580004,18.22 733.266997,18.3429988 733.909,18.589 C734.551003,18.8350012 735.063998,19.1859977 735.448,19.642 C735.628001,19.846001 735.718,20.0199993 735.718,20.164 C735.718,20.2960007 735.658001,20.4189994 735.538,20.533 C735.417999,20.6470006 735.286001,20.704 735.142,20.704 C735.021999,20.704 734.92,20.6620004 734.836,20.578 C734.511998,20.1939981 734.080003,19.8820012 733.54,19.642 C732.999997,19.4019988 732.436003,19.282 731.848,19.282 C730.971996,19.282 730.258003,19.4769981 729.706,19.867 C729.153997,20.2570019 728.878,20.7879966 728.878,21.46 C728.878,22.1560035 729.141997,22.6899981 729.67,23.062 C730.198003,23.4340019 730.953995,23.7759984 731.938,24.088 C732.790004,24.3400013 733.485997,24.5979987 734.026,24.862 C734.566003,25.1260013 735.006998,25.5009976 735.349,25.987 C735.691002,26.4730024 735.862,27.111996 735.862,27.904 C735.862,28.5160031 735.685002,29.0709975 735.331,29.569 C734.976998,30.0670025 734.485003,30.4599986 733.855,30.748 C733.224997,31.0360014 732.508004,31.18 731.704,31.18 Z M747.814,30.28 C747.838,30.3760005 747.85,30.4479998 747.85,30.496 C747.85,30.6520008 747.796001,30.7779995 747.688,30.874 C747.579999,30.9700005 747.454001,31.018 747.31,31.018 C747.189999,31.018 747.085,30.9850003 746.995,30.919 C746.905,30.8529997 746.836,30.7660005 746.788,30.658 L745.438,27.364 L739.588,27.364 L738.256,30.658 C738.16,30.8980012 737.998001,31.018 737.77,31.018 C737.601999,31.018 737.476,30.9760004 737.392,30.892 C737.308,30.8079996 737.26,30.6940007 737.248,30.55 L737.248,30.496 C737.248,30.4239996 737.254,30.3700002 737.266,30.334 L742.018,18.706 C742.114,18.4659988 742.293999,18.346 742.558,18.346 C742.678001,18.346 742.783,18.3789997 742.873,18.445 C742.963,18.5110003 743.032,18.5979995 743.08,18.706 L747.814,30.28 Z M740.002,26.302 L745.006,26.302 L742.486,20.146 L740.002,26.302 Z M756.796,24.304 C757.516004,24.4840009 758.103998,24.8439973 758.56,25.384 C759.016002,25.9240027 759.244,26.6259957 759.244,27.49 C759.244,28.6660059 758.881004,29.5449971 758.155,30.127 C757.428996,30.7090029 756.526005,31 755.446,31 L750.604,31 C750.447999,31 750.319001,30.9490005 750.217,30.847 C750.114999,30.7449995 750.064,30.6160008 750.064,30.46 L750.064,18.94 C750.064,18.7839992 750.114999,18.6550005 750.217,18.553 C750.319001,18.4509995 750.447999,18.4 750.604,18.4 L755.374,18.4 C756.382005,18.4 757.170997,18.6759972 757.741,19.228 C758.311003,19.7800028 758.596,20.5359952 758.596,21.496 C758.596,22.1320032 758.440002,22.7019975 758.128,23.206 C757.815998,23.7100025 757.372003,24.0759989 756.796,24.304 Z M757.444,21.586 C757.444,20.9259967 757.249002,20.4070019 756.859,20.029 C756.468998,19.6509981 755.926003,19.462 755.23,19.462 L751.216,19.462 L751.216,23.962 L755.23,23.962 C755.878003,23.9499999 756.408998,23.740002 756.823,23.332 C757.237002,22.923998 757.444,22.3420038 757.444,21.586 Z M755.392,29.938 C756.196004,29.938 756.846998,29.734002 757.345,29.326 C757.843002,28.917998 758.092,28.3060041 758.092,27.49 C758.092,26.6499958 757.837003,26.032002 757.327,25.636 C756.816997,25.239998 756.160004,25.042 755.356,25.042 L751.216,25.042 L751.216,29.938 L755.392,29.938 Z M768.748,29.938 C768.904001,29.938 769.032999,29.9859995 769.135,30.082 C769.237001,30.1780005 769.288,30.3039992 769.288,30.46 C769.288,30.6160008 769.237001,30.7449995 769.135,30.847 C769.032999,30.9490005 768.904001,31 768.748,31 L762.322,31 C762.165999,31 762.037001,30.9490005 761.935,30.847 C761.832999,30.7449995 761.782,30.6160008 761.782,30.46 L761.782,18.94 C761.782,18.7839992 761.835999,18.6550005 761.944,18.553 C762.052001,18.4509995 762.189999,18.4 762.358,18.4 C762.514001,18.4 762.645999,18.4509995 762.754,18.553 C762.862001,18.6550005 762.916,18.7839992 762.916,18.94 L762.916,29.938 L768.748,29.938 Z M778.504,29.938 C778.660001,29.938 778.788999,29.9919995 778.891,30.1 C778.993001,30.2080005 779.044,30.3339993 779.044,30.478 C779.044,30.6340008 778.993001,30.7599995 778.891,30.856 C778.788999,30.9520005 778.660001,31 778.504,31 L771.898,31 C771.741999,31 771.613001,30.9490005 771.511,30.847 C771.408999,30.7449995 771.358,30.6160008 771.358,30.46 L771.358,18.94 C771.358,18.7839992 771.408999,18.6550005 771.511,18.553 C771.613001,18.4509995 771.741999,18.4 771.898,18.4 L778.504,18.4 C778.660001,18.4 778.788999,18.4509995 778.891,18.553 C778.993001,18.6550005 779.044,18.7839992 779.044,18.94 C779.044,19.0960008 778.993001,19.2219995 778.891,19.318 C778.788999,19.4140005 778.660001,19.462 778.504,19.462 L772.492,19.462 L772.492,23.98 L777.694,23.98 C777.850001,23.98 777.978999,24.0309995 778.081,24.133 C778.183001,24.2350005 778.234,24.3639992 778.234,24.52 C778.234,24.6760008 778.183001,24.8019995 778.081,24.898 C777.978999,24.9940005 777.850001,25.042 777.694,25.042 L772.492,25.042 L772.492,29.938 L778.504,29.938 Z M786.712,18.4 C787.864006,18.4 788.832996,18.6849972 789.619,19.255 C790.405004,19.8250029 790.992998,20.5869952 791.383,21.541 C791.773002,22.4950048 791.968,23.5479942 791.968,24.7 C791.968,25.8880059 791.773002,26.9559953 791.383,27.904 C790.992998,28.8520047 790.405004,29.6049972 789.619,30.163 C788.832996,30.7210028 787.864006,31 786.712,31 L782.122,31 C781.965999,31 781.837001,30.9490005 781.735,30.847 C781.632999,30.7449995 781.582,30.6160008 781.582,30.46 L781.582,18.94 C781.582,18.7839992 781.632999,18.6550005 781.735,18.553 C781.837001,18.4509995 781.965999,18.4 782.122,18.4 L786.712,18.4 Z M786.532,29.938 C787.972007,29.938 789.045996,29.4550048 789.754,28.489 C790.462004,27.5229952 790.816,26.2600078 790.816,24.7 C790.816,23.7279951 790.666001,22.8490039 790.366,22.063 C790.065999,21.2769961 789.595003,20.6470024 788.953,20.173 C788.310997,19.6989976 787.504005,19.462 786.532,19.462 L782.716,19.462 L782.716,29.938 L786.532,29.938 Z" id="Disabled" fill="#FE9518" opacity="0.900000036"></path>
        </g>
    </g>
</svg>