<?xml version="1.0" encoding="UTF-8"?>
<svg width="841px" height="51px" viewBox="0 0 841 51" version="1.1" xmlns="http://www.w3.org/2000/svg" xmlns:xlink="http://www.w3.org/1999/xlink">
    <!-- Generator: Sketch 50.2 (55047) - http://www.bohemiancoding.com/sketch -->
    <title>buttons-neg-sec</title>
    <desc>Created with Sketch.</desc>
    <defs></defs>
    <g id="Branding" stroke="none" stroke-width="1" fill="none" fill-rule="evenodd">
        <g id="buttons-neg-sec">
            <rect id="Rectangle-6-Copy" stroke="#FFFFFF" x="1" y="0.856299177" width="179" height="49" rx="24.5"></rect>
            <rect id="Rectangle-6-Copy-5" stroke="#FFFFFF" fill="#FFFFFF" x="221" y="0.856299177" width="179" height="49" rx="24.5"></rect>
            <rect id="Rectangle-6-Copy-6" stroke="#FFFFFF" fill="#FFFFFF" x="441" y="0.856299177" width="179" height="49" rx="24.5"></rect>
            <path d="M59.59,18.7562992 C60.7420058,18.7562992 61.7109961,19.0412963 62.497,19.6112992 C63.2830039,20.181302 63.8709981,20.9432944 64.261,21.8972992 C64.651002,22.8513039 64.846,23.9042934 64.846,25.0562992 C64.846,26.2443051 64.651002,27.3122944 64.261,28.2602992 C63.8709981,29.2083039 63.2830039,29.9612964 62.497,30.5192992 C61.7109961,31.077302 60.7420058,31.3562992 59.59,31.3562992 L55,31.3562992 C54.8439992,31.3562992 54.7150005,31.3052997 54.613,31.2032992 C54.5109995,31.1012987 54.46,30.9723 54.46,30.8162992 L54.46,19.2962992 C54.46,19.1402984 54.5109995,19.0112997 54.613,18.9092992 C54.7150005,18.8072987 54.8439992,18.7562992 55,18.7562992 L59.59,18.7562992 Z M59.41,30.2942992 C60.8500072,30.2942992 61.9239965,29.811304 62.632,28.8452992 C63.3400035,27.8792943 63.694,26.616307 63.694,25.0562992 C63.694,24.0842943 63.5440015,23.2053031 63.244,22.4192992 C62.9439985,21.6332952 62.4730032,21.0033015 61.831,20.5292992 C61.1889968,20.0552968 60.3820049,19.8182992 59.41,19.8182992 L55.594,19.8182992 L55.594,30.2942992 L59.41,30.2942992 Z M74.548,30.2942992 C74.7040008,30.2942992 74.8329995,30.3482986 74.935,30.4562992 C75.0370005,30.5642997 75.088,30.6902985 75.088,30.8342992 C75.088,30.9903 75.0370005,31.1162987 74.935,31.2122992 C74.8329995,31.3082997 74.7040008,31.3562992 74.548,31.3562992 L67.942,31.3562992 C67.7859992,31.3562992 67.6570005,31.3052997 67.555,31.2032992 C67.4529995,31.1012987 67.402,30.9723 67.402,30.8162992 L67.402,19.2962992 C67.402,19.1402984 67.4529995,19.0112997 67.555,18.9092992 C67.6570005,18.8072987 67.7859992,18.7562992 67.942,18.7562992 L74.548,18.7562992 C74.7040008,18.7562992 74.8329995,18.8072987 74.935,18.9092992 C75.0370005,19.0112997 75.088,19.1402984 75.088,19.2962992 C75.088,19.4523 75.0370005,19.5782987 74.935,19.6742992 C74.8329995,19.7702997 74.7040008,19.8182992 74.548,19.8182992 L68.536,19.8182992 L68.536,24.3362992 L73.738,24.3362992 C73.8940008,24.3362992 74.0229995,24.3872987 74.125,24.4892992 C74.2270005,24.5912997 74.278,24.7202984 74.278,24.8762992 C74.278,25.0323 74.2270005,25.1582987 74.125,25.2542992 C74.0229995,25.3502997 73.8940008,25.3982992 73.738,25.3982992 L68.536,25.3982992 L68.536,30.2942992 L74.548,30.2942992 Z M84.718,18.7562992 C84.8740008,18.7562992 85.0029995,18.8072987 85.105,18.9092992 C85.2070005,19.0112997 85.258,19.1402984 85.258,19.2962992 C85.258,19.4402999 85.2070005,19.5632987 85.105,19.6652992 C85.0029995,19.7672997 84.8740008,19.8182992 84.718,19.8182992 L78.724,19.8182992 L78.724,24.3362992 L83.908,24.3362992 C84.0640008,24.3362992 84.1929995,24.3842987 84.295,24.4802992 C84.3970005,24.5762997 84.448,24.7022984 84.448,24.8582992 C84.448,25.0143 84.3970005,25.1402987 84.295,25.2362992 C84.1929995,25.3322997 84.0640008,25.3802992 83.908,25.3802992 L78.724,25.3802992 L78.724,30.8162992 C78.724,30.9723 78.6730005,31.1012987 78.571,31.2032992 C78.4689995,31.3052997 78.3400008,31.3562992 78.184,31.3562992 C78.0159992,31.3562992 77.8810005,31.3052997 77.779,31.2032992 C77.6769995,31.1012987 77.626,30.9723 77.626,30.8162992 L77.626,19.2962992 C77.626,19.1402984 77.6769995,19.0112997 77.779,18.9092992 C77.8810005,18.8072987 78.0099992,18.7562992 78.166,18.7562992 L84.718,18.7562992 Z M96.634,30.6362992 C96.6580001,30.7322997 96.67,30.8042989 96.67,30.8522992 C96.67,31.0083 96.6160005,31.1342987 96.508,31.2302992 C96.3999995,31.3262997 96.2740007,31.3742992 96.13,31.3742992 C96.0099994,31.3742992 95.9050005,31.3412995 95.815,31.2752992 C95.7249996,31.2092988 95.6560002,31.1222997 95.608,31.0142992 L94.258,27.7202992 L88.408,27.7202992 L87.076,31.0142992 C86.9799995,31.2543004 86.8180011,31.3742992 86.59,31.3742992 C86.4219992,31.3742992 86.2960004,31.3322996 86.212,31.2482992 C86.1279996,31.1642988 86.0800001,31.0502999 86.068,30.9062992 L86.068,30.8522992 C86.068,30.7802988 86.0739999,30.7262994 86.086,30.6902992 L90.838,19.0622992 C90.9340005,18.822298 91.1139987,18.7022992 91.378,18.7022992 C91.4980006,18.7022992 91.6029995,18.7352988 91.693,18.8012992 C91.7830004,18.8672995 91.8519998,18.9542986 91.9,19.0622992 L96.634,30.6362992 Z M88.822,26.6582992 L93.826,26.6582992 L91.306,20.5022992 L88.822,26.6582992 Z M107.614,18.7562992 C107.770001,18.7562992 107.898999,18.8072987 108.001,18.9092992 C108.103001,19.0112997 108.154,19.1402984 108.154,19.2962992 L108.154,26.7482992 C108.154,27.6243036 107.944002,28.4282955 107.524,29.1602992 C107.103998,29.8923028 106.534004,30.4682971 105.814,30.8882992 C105.093996,31.3083013 104.302004,31.5182992 103.438,31.5182992 C102.561996,31.5182992 101.764004,31.3083013 101.044,30.8882992 C100.323996,30.4682971 99.7540021,29.8923028 99.334,29.1602992 C98.9139979,28.4282955 98.704,27.6243036 98.704,26.7482992 L98.704,19.2962992 C98.704,19.1402984 98.7549995,19.0112997 98.857,18.9092992 C98.9590005,18.8072987 99.0999991,18.7562992 99.28,18.7562992 C99.4240007,18.7562992 99.5499995,18.8072987 99.658,18.9092992 C99.7660005,19.0112997 99.82,19.1402984 99.82,19.2962992 L99.82,26.7482992 C99.82,27.4203025 99.9819984,28.0382964 100.306,28.6022992 C100.630002,29.166302 101.070997,29.6132975 101.629,29.9432992 C102.187003,30.2733008 102.789997,30.4382992 103.438,30.4382992 C104.098003,30.4382992 104.706997,30.2733008 105.265,29.9432992 C105.823003,29.6132975 106.266998,29.166302 106.597,28.6022992 C106.927002,28.0382964 107.092,27.4203025 107.092,26.7482992 L107.092,19.2962992 C107.092,19.1402984 107.14,19.0112997 107.236,18.9092992 C107.332,18.8072987 107.457999,18.7562992 107.614,18.7562992 Z M118.504,30.2942992 C118.660001,30.2942992 118.788999,30.3422987 118.891,30.4382992 C118.993001,30.5342997 119.044,30.6602984 119.044,30.8162992 C119.044,30.9723 118.993001,31.1012987 118.891,31.2032992 C118.788999,31.3052997 118.660001,31.3562992 118.504,31.3562992 L112.078,31.3562992 C111.921999,31.3562992 111.793001,31.3052997 111.691,31.2032992 C111.588999,31.1012987 111.538,30.9723 111.538,30.8162992 L111.538,19.2962992 C111.538,19.1402984 111.591999,19.0112997 111.7,18.9092992 C111.808001,18.8072987 111.945999,18.7562992 112.114,18.7562992 C112.270001,18.7562992 112.401999,18.8072987 112.51,18.9092992 C112.618001,19.0112997 112.672,19.1402984 112.672,19.2962992 L112.672,30.2942992 L118.504,30.2942992 Z M128.08,18.7562992 C128.236001,18.7562992 128.364999,18.8042987 128.467,18.9002992 C128.569001,18.9962997 128.62,19.1222984 128.62,19.2782992 C128.62,19.4343 128.569001,19.5572987 128.467,19.6472992 C128.364999,19.7372996 128.236001,19.7822992 128.08,19.7822992 L124.354,19.7822992 L124.354,30.8162992 C124.354,30.9723 124.300001,31.1012987 124.192,31.2032992 C124.083999,31.3052997 123.952001,31.3562992 123.796,31.3562992 C123.627999,31.3562992 123.493001,31.3052997 123.391,31.2032992 C123.288999,31.1012987 123.238,30.9723 123.238,30.8162992 L123.238,19.7822992 L119.512,19.7822992 C119.355999,19.7822992 119.227001,19.7342997 119.125,19.6382992 C119.022999,19.5422987 118.972,19.4163 118.972,19.2602992 C118.972,19.1162985 119.022999,18.9962997 119.125,18.9002992 C119.227001,18.8042987 119.355999,18.7562992 119.512,18.7562992 L128.08,18.7562992 Z" id="Default-Copy" fill="#FFFFFF"></path>
            <path d="M291.808,18.7562992 C291.976001,18.7562992 292.110999,18.8072987 292.213,18.9092992 C292.315001,19.0112997 292.366,19.1462983 292.366,19.3142992 L292.366,30.7982992 C292.354,30.9663 292.294001,31.1012987 292.186,31.2032992 C292.077999,31.3052997 291.946001,31.3562992 291.79,31.3562992 C291.633999,31.3562992 291.502001,31.3022997 291.394,31.1942992 C291.285999,31.0862986 291.232,30.9543 291.232,30.7982992 L291.232,25.4342992 L283.924,25.4342992 L283.924,30.7982992 C283.912,30.9543 283.852001,31.0862986 283.744,31.1942992 C283.635999,31.3022997 283.504001,31.3562992 283.348,31.3562992 C283.179999,31.3562992 283.045001,31.3052997 282.943,31.2032992 C282.840999,31.1012987 282.79,30.9663 282.79,30.7982992 L282.79,19.3142992 C282.79,19.1462983 282.843999,19.0112997 282.952,18.9092992 C283.060001,18.8072987 283.197999,18.7562992 283.366,18.7562992 C283.522001,18.7562992 283.653999,18.8102986 283.762,18.9182992 C283.870001,19.0262997 283.924,19.1582984 283.924,19.3142992 L283.924,24.3902992 L291.232,24.3902992 L291.232,19.3142992 C291.232,19.1582984 291.288999,19.0262997 291.403,18.9182992 C291.517001,18.8102986 291.651999,18.7562992 291.808,18.7562992 Z M306.982,25.0562992 C306.982,26.2923054 306.724003,27.4022943 306.208,28.3862992 C305.691997,29.3703041 304.978005,30.1412964 304.066,30.6992992 C303.153995,31.257302 302.116006,31.5362992 300.952,31.5362992 C299.787994,31.5362992 298.750005,31.257302 297.838,30.6992992 C296.925995,30.1412964 296.212003,29.3703041 295.696,28.3862992 C295.179997,27.4022943 294.922,26.2923054 294.922,25.0562992 C294.922,23.8082929 295.179997,22.6923041 295.696,21.7082992 C296.212003,20.7242943 296.925995,19.9563019 297.838,19.4042992 C298.750005,18.8522964 299.787994,18.5762992 300.952,18.5762992 C302.116006,18.5762992 303.153995,18.8522964 304.066,19.4042992 C304.978005,19.9563019 305.691997,20.7242943 306.208,21.7082992 C306.724003,22.6923041 306.982,23.8082929 306.982,25.0562992 Z M305.83,25.0562992 C305.83,24.012294 305.623002,23.0793033 305.209,22.2572992 C304.794998,21.4352951 304.219004,20.7963015 303.481,20.3402992 C302.742996,19.8842969 301.900005,19.6562992 300.952,19.6562992 C300.003995,19.6562992 299.161004,19.8842969 298.423,20.3402992 C297.684996,20.7963015 297.109002,21.4352951 296.695,22.2572992 C296.280998,23.0793033 296.074,24.012294 296.074,25.0562992 C296.074,26.1003044 296.280998,27.0332951 296.695,27.8552992 C297.109002,28.6773033 297.684996,29.3162969 298.423,29.7722992 C299.161004,30.2283015 300.003995,30.4562992 300.952,30.4562992 C301.900005,30.4562992 302.742996,30.2283015 303.481,29.7722992 C304.219004,29.3162969 304.794998,28.6773033 305.209,27.8552992 C305.623002,27.0332951 305.83,26.1003044 305.83,25.0562992 Z M318.448,18.7382992 C318.604001,18.7382992 318.735999,18.7892987 318.844,18.8912992 C318.952001,18.9932997 319.006,19.1102985 319.006,19.2422992 C319.006,19.3262996 318.988,19.4162987 318.952,19.5122992 L314.146,30.9962992 C314.098,31.1042997 314.026,31.1912988 313.93,31.2572992 C313.834,31.3232995 313.732001,31.3562992 313.624,31.3562992 C313.515999,31.3562992 313.417,31.3262995 313.327,31.2662992 C313.237,31.2062989 313.168,31.1222997 313.12,31.0142992 L308.332,19.5482992 C308.296,19.4762988 308.278,19.3802998 308.278,19.2602992 C308.278,19.1042984 308.331999,18.9782997 308.44,18.8822992 C308.548001,18.7862987 308.667999,18.7382992 308.8,18.7382992 C309.052001,18.7382992 309.231999,18.8702979 309.34,19.1342992 L313.678,29.5022992 L317.944,19.0982992 C318.004,18.9902986 318.079,18.9032995 318.169,18.8372992 C318.259,18.7712988 318.352,18.7382992 318.448,18.7382992 Z M328.456,30.2942992 C328.612001,30.2942992 328.740999,30.3482986 328.843,30.4562992 C328.945001,30.5642997 328.996,30.6902985 328.996,30.8342992 C328.996,30.9903 328.945001,31.1162987 328.843,31.2122992 C328.740999,31.3082997 328.612001,31.3562992 328.456,31.3562992 L321.85,31.3562992 C321.693999,31.3562992 321.565001,31.3052997 321.463,31.2032992 C321.360999,31.1012987 321.31,30.9723 321.31,30.8162992 L321.31,19.2962992 C321.31,19.1402984 321.360999,19.0112997 321.463,18.9092992 C321.565001,18.8072987 321.693999,18.7562992 321.85,18.7562992 L328.456,18.7562992 C328.612001,18.7562992 328.740999,18.8072987 328.843,18.9092992 C328.945001,19.0112997 328.996,19.1402984 328.996,19.2962992 C328.996,19.4523 328.945001,19.5782987 328.843,19.6742992 C328.740999,19.7702997 328.612001,19.8182992 328.456,19.8182992 L322.444,19.8182992 L322.444,24.3362992 L327.646,24.3362992 C327.802001,24.3362992 327.930999,24.3872987 328.033,24.4892992 C328.135001,24.5912997 328.186,24.7202984 328.186,24.8762992 C328.186,25.0323 328.135001,25.1582987 328.033,25.2542992 C327.930999,25.3502997 327.802001,25.3982992 327.646,25.3982992 L322.444,25.3982992 L322.444,30.2942992 L328.456,30.2942992 Z M340.732,30.3842992 C340.912001,30.5042998 341.002,30.6542983 341.002,30.8342992 C341.002,30.8942995 340.978,30.9722987 340.93,31.0682992 C340.882,31.1522996 340.816,31.2182989 340.732,31.2662992 C340.648,31.3142994 340.558,31.3382992 340.462,31.3382992 C340.341999,31.3382992 340.24,31.3142994 340.156,31.2662992 C339.819998,31.0742982 339.550001,30.7623013 339.346,30.3302992 C339.141999,29.898297 339.04,29.2083039 339.04,28.2602992 C339.04,27.420295 338.806002,26.8293009 338.338,26.4872992 C337.869998,26.1452975 337.312003,25.9742992 336.664,25.9742992 L332.668,25.9742992 L332.668,30.8162992 C332.668,30.9723 332.62,31.1012987 332.524,31.2032992 C332.428,31.3052997 332.302001,31.3562992 332.146,31.3562992 C331.977999,31.3562992 331.834001,31.3052997 331.714,31.2032992 C331.593999,31.1012987 331.534,30.9723 331.534,30.8162992 L331.534,19.2962992 C331.534,19.1402984 331.584999,19.0112997 331.687,18.9092992 C331.789001,18.8072987 331.917999,18.7562992 332.074,18.7562992 L336.934,18.7562992 C337.618003,18.7562992 338.229997,18.9032977 338.77,19.1972992 C339.310003,19.4913006 339.732998,19.8962966 340.039,20.4122992 C340.345002,20.9283018 340.498,21.5102959 340.498,22.1582992 C340.498,22.926303 340.297002,23.6012963 339.895,24.1832992 C339.492998,24.7653021 338.968003,25.1642981 338.32,25.3802992 C338.848003,25.5843002 339.279998,25.9292967 339.616,26.4152992 C339.952002,26.9013016 340.126,27.4922957 340.138,28.1882992 C340.15,28.9323029 340.201,29.4542977 340.291,29.7542992 C340.381,30.0543007 340.527999,30.2642986 340.732,30.3842992 Z M336.988,24.9842992 C337.408002,24.948299 337.797998,24.8103004 338.158,24.5702992 C338.518002,24.330298 338.805999,24.0063012 339.022,23.5982992 C339.238001,23.1902971 339.346,22.7223018 339.346,22.1942992 C339.346,21.5102958 339.115002,20.9433014 338.653,20.4932992 C338.190998,20.0432969 337.588004,19.8182992 336.844,19.8182992 L332.668,19.8182992 L332.668,24.9842992 L336.988,24.9842992 Z" id="Hover" fill="#FE9518"></path>
            <path d="M499.293,18.7562992 C499.953003,18.7562992 500.546997,18.9092976 501.075,19.2152992 C501.603003,19.5213007 502.013999,19.9472964 502.308,20.4932992 C502.602001,21.0393019 502.749,21.6542958 502.749,22.3382992 C502.749,23.0223026 502.602001,23.6462964 502.308,24.2102992 C502.013999,24.774302 501.603003,25.2182976 501.075,25.5422992 C500.546997,25.8663008 499.953003,26.0282992 499.293,26.0282992 L495.567,26.0282992 L495.567,30.8162992 C495.567,30.9723 495.516001,31.1012987 495.414,31.2032992 C495.311999,31.3052997 495.183001,31.3562992 495.027,31.3562992 C494.870999,31.3562992 494.742001,31.3052997 494.64,31.2032992 C494.537999,31.1012987 494.487,30.9723 494.487,30.8162992 L494.487,19.2962992 C494.487,19.1402984 494.537999,19.0112997 494.64,18.9092992 C494.742001,18.8072987 494.870999,18.7562992 495.027,18.7562992 L499.293,18.7562992 Z M499.293,24.9842992 C499.989003,24.9842992 500.552998,24.7323017 500.985,24.2282992 C501.417002,23.7242967 501.633,23.094303 501.633,22.3382992 C501.633,21.5942955 501.417002,20.9883015 500.985,20.5202992 C500.552998,20.0522968 499.989003,19.8182992 499.293,19.8182992 L495.567,19.8182992 L495.567,24.9842992 L499.293,24.9842992 Z M514.413,30.3842992 C514.593001,30.5042998 514.683,30.6542983 514.683,30.8342992 C514.683,30.8942995 514.659,30.9722987 514.611,31.0682992 C514.563,31.1522996 514.497,31.2182989 514.413,31.2662992 C514.329,31.3142994 514.239,31.3382992 514.143,31.3382992 C514.022999,31.3382992 513.921,31.3142994 513.837,31.2662992 C513.500998,31.0742982 513.231001,30.7623013 513.027,30.3302992 C512.822999,29.898297 512.721,29.2083039 512.721,28.2602992 C512.721,27.420295 512.487002,26.8293009 512.019,26.4872992 C511.550998,26.1452975 510.993003,25.9742992 510.345,25.9742992 L506.349,25.9742992 L506.349,30.8162992 C506.349,30.9723 506.301,31.1012987 506.205,31.2032992 C506.109,31.3052997 505.983001,31.3562992 505.827,31.3562992 C505.658999,31.3562992 505.515001,31.3052997 505.395,31.2032992 C505.274999,31.1012987 505.215,30.9723 505.215,30.8162992 L505.215,19.2962992 C505.215,19.1402984 505.265999,19.0112997 505.368,18.9092992 C505.470001,18.8072987 505.598999,18.7562992 505.755,18.7562992 L510.615,18.7562992 C511.299003,18.7562992 511.910997,18.9032977 512.451,19.1972992 C512.991003,19.4913006 513.413998,19.8962966 513.72,20.4122992 C514.026002,20.9283018 514.179,21.5102959 514.179,22.1582992 C514.179,22.926303 513.978002,23.6012963 513.576,24.1832992 C513.173998,24.7653021 512.649003,25.1642981 512.001,25.3802992 C512.529003,25.5843002 512.960998,25.9292967 513.297,26.4152992 C513.633002,26.9013016 513.807,27.4922957 513.819,28.1882992 C513.831,28.9323029 513.882,29.4542977 513.972,29.7542992 C514.062,30.0543007 514.208999,30.2642986 514.413,30.3842992 Z M510.669,24.9842992 C511.089002,24.948299 511.478998,24.8103004 511.839,24.5702992 C512.199002,24.330298 512.486999,24.0063012 512.703,23.5982992 C512.919001,23.1902971 513.027,22.7223018 513.027,22.1942992 C513.027,21.5102958 512.796002,20.9433014 512.334,20.4932992 C511.871998,20.0432969 511.269004,19.8182992 510.525,19.8182992 L506.349,19.8182992 L506.349,24.9842992 L510.669,24.9842992 Z M524.421,30.2942992 C524.577001,30.2942992 524.705999,30.3482986 524.808,30.4562992 C524.910001,30.5642997 524.961,30.6902985 524.961,30.8342992 C524.961,30.9903 524.910001,31.1162987 524.808,31.2122992 C524.705999,31.3082997 524.577001,31.3562992 524.421,31.3562992 L517.815,31.3562992 C517.658999,31.3562992 517.530001,31.3052997 517.428,31.2032992 C517.325999,31.1012987 517.275,30.9723 517.275,30.8162992 L517.275,19.2962992 C517.275,19.1402984 517.325999,19.0112997 517.428,18.9092992 C517.530001,18.8072987 517.658999,18.7562992 517.815,18.7562992 L524.421,18.7562992 C524.577001,18.7562992 524.705999,18.8072987 524.808,18.9092992 C524.910001,19.0112997 524.961,19.1402984 524.961,19.2962992 C524.961,19.4523 524.910001,19.5782987 524.808,19.6742992 C524.705999,19.7702997 524.577001,19.8182992 524.421,19.8182992 L518.409,19.8182992 L518.409,24.3362992 L523.611,24.3362992 C523.767001,24.3362992 523.895999,24.3872987 523.998,24.4892992 C524.100001,24.5912997 524.151,24.7202984 524.151,24.8762992 C524.151,25.0323 524.100001,25.1582987 523.998,25.2542992 C523.895999,25.3502997 523.767001,25.3982992 523.611,25.3982992 L518.409,25.3982992 L518.409,30.2942992 L524.421,30.2942992 Z M530.901,31.5362992 C530.036996,31.5362992 529.272003,31.3923006 528.606,31.1042992 C527.939997,30.8162977 527.295003,30.3663022 526.671,29.7542992 C526.526999,29.6342986 526.455,29.4903 526.455,29.3222992 C526.455,29.1782985 526.511999,29.0462998 526.626,28.9262992 C526.740001,28.8062986 526.868999,28.7462992 527.013,28.7462992 C527.157001,28.7462992 527.288999,28.8062986 527.409,28.9262992 C528.345005,29.9583043 529.514993,30.4742992 530.919,30.4742992 C531.783004,30.4742992 532.499997,30.2703012 533.07,29.8622992 C533.640003,29.4542971 533.925,28.9203025 533.925,28.2602992 C533.925,27.7442966 533.784001,27.3153009 533.502,26.9732992 C533.219999,26.6312975 532.851002,26.3523003 532.395,26.1362992 C531.938998,25.9202981 531.357004,25.6983003 530.649,25.4702992 C529.880996,25.242298 529.236003,24.9903006 528.714,24.7142992 C528.191997,24.4382978 527.769002,24.0693015 527.445,23.6072992 C527.120998,23.1452969 526.959,22.5603027 526.959,21.8522992 C526.959,21.216296 527.129998,20.6523016 527.472,20.1602992 C527.814002,19.6682967 528.293997,19.2813006 528.912,18.9992992 C529.530003,18.7172978 530.240996,18.5762992 531.045,18.5762992 C531.777004,18.5762992 532.463997,18.6992979 533.106,18.9452992 C533.748003,19.1913004 534.260998,19.5422969 534.645,19.9982992 C534.825001,20.2023002 534.915,20.3762985 534.915,20.5202992 C534.915,20.6522998 534.855001,20.7752986 534.735,20.8892992 C534.614999,21.0032997 534.483001,21.0602992 534.339,21.0602992 C534.218999,21.0602992 534.117,21.0182996 534.033,20.9342992 C533.708998,20.5502973 533.277003,20.2383004 532.737,19.9982992 C532.196997,19.758298 531.633003,19.6382992 531.045,19.6382992 C530.168996,19.6382992 529.455003,19.8332972 528.903,20.2232992 C528.350997,20.6133011 528.075,21.1442958 528.075,21.8162992 C528.075,22.5123027 528.338997,23.0462973 528.867,23.4182992 C529.395003,23.790301 530.150995,24.1322976 531.135,24.4442992 C531.987004,24.6963004 532.682997,24.9542979 533.223,25.2182992 C533.763003,25.4823005 534.203998,25.8572967 534.546,26.3432992 C534.888002,26.8293016 535.059,27.4682952 535.059,28.2602992 C535.059,28.8723022 534.882002,29.4272967 534.528,29.9252992 C534.173998,30.4233017 533.682003,30.8162977 533.052,31.1042992 C532.421997,31.3923006 531.705004,31.5362992 530.901,31.5362992 Z M541.017,31.5362992 C540.152996,31.5362992 539.388003,31.3923006 538.722,31.1042992 C538.055997,30.8162977 537.411003,30.3663022 536.787,29.7542992 C536.642999,29.6342986 536.571,29.4903 536.571,29.3222992 C536.571,29.1782985 536.627999,29.0462998 536.742,28.9262992 C536.856001,28.8062986 536.984999,28.7462992 537.129,28.7462992 C537.273001,28.7462992 537.404999,28.8062986 537.525,28.9262992 C538.461005,29.9583043 539.630993,30.4742992 541.035,30.4742992 C541.899004,30.4742992 542.615997,30.2703012 543.186,29.8622992 C543.756003,29.4542971 544.041,28.9203025 544.041,28.2602992 C544.041,27.7442966 543.900001,27.3153009 543.618,26.9732992 C543.335999,26.6312975 542.967002,26.3523003 542.511,26.1362992 C542.054998,25.9202981 541.473004,25.6983003 540.765,25.4702992 C539.996996,25.242298 539.352003,24.9903006 538.83,24.7142992 C538.307997,24.4382978 537.885002,24.0693015 537.561,23.6072992 C537.236998,23.1452969 537.075,22.5603027 537.075,21.8522992 C537.075,21.216296 537.245998,20.6523016 537.588,20.1602992 C537.930002,19.6682967 538.409997,19.2813006 539.028,18.9992992 C539.646003,18.7172978 540.356996,18.5762992 541.161,18.5762992 C541.893004,18.5762992 542.579997,18.6992979 543.222,18.9452992 C543.864003,19.1913004 544.376998,19.5422969 544.761,19.9982992 C544.941001,20.2023002 545.031,20.3762985 545.031,20.5202992 C545.031,20.6522998 544.971001,20.7752986 544.851,20.8892992 C544.730999,21.0032997 544.599001,21.0602992 544.455,21.0602992 C544.334999,21.0602992 544.233,21.0182996 544.149,20.9342992 C543.824998,20.5502973 543.393003,20.2383004 542.853,19.9982992 C542.312997,19.758298 541.749003,19.6382992 541.161,19.6382992 C540.284996,19.6382992 539.571003,19.8332972 539.019,20.2232992 C538.466997,20.6133011 538.191,21.1442958 538.191,21.8162992 C538.191,22.5123027 538.454997,23.0462973 538.983,23.4182992 C539.511003,23.790301 540.266995,24.1322976 541.251,24.4442992 C542.103004,24.6963004 542.798997,24.9542979 543.339,25.2182992 C543.879003,25.4823005 544.319998,25.8572967 544.662,26.3432992 C545.004002,26.8293016 545.175,27.4682952 545.175,28.2602992 C545.175,28.8723022 544.998002,29.4272967 544.644,29.9252992 C544.289998,30.4233017 543.798003,30.8162977 543.168,31.1042992 C542.537997,31.3923006 541.821004,31.5362992 541.017,31.5362992 Z M554.877,30.2942992 C555.033001,30.2942992 555.161999,30.3482986 555.264,30.4562992 C555.366001,30.5642997 555.417,30.6902985 555.417,30.8342992 C555.417,30.9903 555.366001,31.1162987 555.264,31.2122992 C555.161999,31.3082997 555.033001,31.3562992 554.877,31.3562992 L548.271,31.3562992 C548.114999,31.3562992 547.986001,31.3052997 547.884,31.2032992 C547.781999,31.1012987 547.731,30.9723 547.731,30.8162992 L547.731,19.2962992 C547.731,19.1402984 547.781999,19.0112997 547.884,18.9092992 C547.986001,18.8072987 548.114999,18.7562992 548.271,18.7562992 L554.877,18.7562992 C555.033001,18.7562992 555.161999,18.8072987 555.264,18.9092992 C555.366001,19.0112997 555.417,19.1402984 555.417,19.2962992 C555.417,19.4523 555.366001,19.5782987 555.264,19.6742992 C555.161999,19.7702997 555.033001,19.8182992 554.877,19.8182992 L548.865,19.8182992 L548.865,24.3362992 L554.067,24.3362992 C554.223001,24.3362992 554.351999,24.3872987 554.454,24.4892992 C554.556001,24.5912997 554.607,24.7202984 554.607,24.8762992 C554.607,25.0323 554.556001,25.1582987 554.454,25.2542992 C554.351999,25.3502997 554.223001,25.3982992 554.067,25.3982992 L548.865,25.3982992 L548.865,30.2942992 L554.877,30.2942992 Z M563.085,18.7562992 C564.237006,18.7562992 565.205996,19.0412963 565.992,19.6112992 C566.778004,20.181302 567.365998,20.9432944 567.756,21.8972992 C568.146002,22.8513039 568.341,23.9042934 568.341,25.0562992 C568.341,26.2443051 568.146002,27.3122944 567.756,28.2602992 C567.365998,29.2083039 566.778004,29.9612964 565.992,30.5192992 C565.205996,31.077302 564.237006,31.3562992 563.085,31.3562992 L558.495,31.3562992 C558.338999,31.3562992 558.210001,31.3052997 558.108,31.2032992 C558.005999,31.1012987 557.955,30.9723 557.955,30.8162992 L557.955,19.2962992 C557.955,19.1402984 558.005999,19.0112997 558.108,18.9092992 C558.210001,18.8072987 558.338999,18.7562992 558.495,18.7562992 L563.085,18.7562992 Z M562.905,30.2942992 C564.345007,30.2942992 565.418996,29.811304 566.127,28.8452992 C566.835004,27.8792943 567.189,26.616307 567.189,25.0562992 C567.189,24.0842943 567.039001,23.2053031 566.739,22.4192992 C566.438998,21.6332952 565.968003,21.0033015 565.326,20.5292992 C564.683997,20.0552968 563.877005,19.8182992 562.905,19.8182992 L559.089,19.8182992 L559.089,30.2942992 L562.905,30.2942992 Z" id="Pressed" fill="#FE9518" opacity="0.900000036"></path>
            <g id="Group-6" opacity="0.5" transform="translate(660.500000, 0.356299)">
                <rect id="Rectangle-6-Copy-7" stroke="#FFFFFF" x="0.5" y="0.5" width="179" height="49" rx="24.5"></rect>
                <path d="M55.99,18.4 C57.1420058,18.4 58.1109961,18.6849972 58.897,19.255 C59.6830039,19.8250028 60.270998,20.5869952 60.661,21.541 C61.0510019,22.4950048 61.246,23.5479942 61.246,24.7 C61.246,25.8880059 61.0510019,26.9559953 60.661,27.904 C60.270998,28.8520047 59.6830039,29.6049972 58.897,30.163 C58.1109961,30.7210028 57.1420058,31 55.99,31 L51.4,31 C51.2439992,31 51.1150005,30.9490005 51.013,30.847 C50.9109995,30.7449995 50.86,30.6160008 50.86,30.46 L50.86,18.94 C50.86,18.7839992 50.9109995,18.6550005 51.013,18.553 C51.1150005,18.4509995 51.2439992,18.4 51.4,18.4 L55.99,18.4 Z M55.81,29.938 C57.2500072,29.938 58.3239965,29.4550048 59.032,28.489 C59.7400035,27.5229952 60.094,26.2600078 60.094,24.7 C60.094,23.7279951 59.9440015,22.8490039 59.644,22.063 C59.3439985,21.2769961 58.8730032,20.6470024 58.231,20.173 C57.5889968,19.6989976 56.7820049,19.462 55.81,19.462 L51.994,19.462 L51.994,29.938 L55.81,29.938 Z M64.936,30.442 C64.9239999,30.5980008 64.8640005,30.7299995 64.756,30.838 C64.6479995,30.9460005 64.5160008,31 64.36,31 C64.1919992,31 64.0570005,30.9490005 63.955,30.847 C63.8529995,30.7449995 63.802,30.6100008 63.802,30.442 L63.802,18.958 C63.802,18.7899992 63.8559995,18.6550005 63.964,18.553 C64.0720005,18.4509995 64.2099992,18.4 64.378,18.4 C64.5340008,18.4 64.6659995,18.4539995 64.774,18.562 C64.8820005,18.6700005 64.936,18.8019992 64.936,18.958 L64.936,30.442 Z M71.704,31.18 C70.8399957,31.18 70.0750033,31.0360014 69.409,30.748 C68.7429967,30.4599986 68.0980031,30.0100031 67.474,29.398 C67.3299993,29.2779994 67.258,29.1340008 67.258,28.966 C67.258,28.8219993 67.3149994,28.6900006 67.429,28.57 C67.5430006,28.4499994 67.6719993,28.39 67.816,28.39 C67.9600007,28.39 68.0919994,28.4499994 68.212,28.57 C69.1480047,29.6020052 70.317993,30.118 71.722,30.118 C72.5860043,30.118 73.3029971,29.914002 73.873,29.506 C74.4430028,29.097998 74.728,28.5640033 74.728,27.904 C74.728,27.3879974 74.5870014,26.9590017 74.305,26.617 C74.0229986,26.2749983 73.6540023,25.9960011 73.198,25.78 C72.7419977,25.5639989 72.1600035,25.3420011 71.452,25.114 C70.6839962,24.8859989 70.0390026,24.6340014 69.517,24.358 C68.9949974,24.0819986 68.5720016,23.7130023 68.248,23.251 C67.9239984,22.7889977 67.762,22.2040035 67.762,21.496 C67.762,20.8599968 67.9329983,20.2960025 68.275,19.804 C68.6170017,19.3119975 69.0969969,18.9250014 69.715,18.643 C70.3330031,18.3609986 71.043996,18.22 71.848,18.22 C72.5800037,18.22 73.2669968,18.3429988 73.909,18.589 C74.5510032,18.8350012 75.0639981,19.1859977 75.448,19.642 C75.6280009,19.846001 75.718,20.0199993 75.718,20.164 C75.718,20.2960007 75.6580006,20.4189994 75.538,20.533 C75.4179994,20.6470006 75.2860007,20.704 75.142,20.704 C75.0219994,20.704 74.9200004,20.6620004 74.836,20.578 C74.5119984,20.1939981 74.0800027,19.8820012 73.54,19.642 C72.9999973,19.4019988 72.4360029,19.282 71.848,19.282 C70.9719956,19.282 70.2580028,19.476998 69.706,19.867 C69.1539972,20.2570019 68.878,20.7879966 68.878,21.46 C68.878,22.1560035 69.1419974,22.6899981 69.67,23.062 C70.1980026,23.4340019 70.9539951,23.7759984 71.938,24.088 C72.7900043,24.3400013 73.4859973,24.5979987 74.026,24.862 C74.5660027,25.1260013 75.0069983,25.5009976 75.349,25.987 C75.6910017,26.4730024 75.862,27.111996 75.862,27.904 C75.862,28.5160031 75.6850018,29.0709975 75.331,29.569 C74.9769982,30.0670025 74.4850031,30.4599986 73.855,30.748 C73.2249968,31.0360014 72.508004,31.18 71.704,31.18 Z M87.814,30.28 C87.8380001,30.3760005 87.85,30.4479998 87.85,30.496 C87.85,30.6520008 87.7960005,30.7779995 87.688,30.874 C87.5799995,30.9700005 87.4540007,31.018 87.31,31.018 C87.1899994,31.018 87.0850004,30.9850003 86.995,30.919 C86.9049995,30.8529997 86.8360002,30.7660005 86.788,30.658 L85.438,27.364 L79.588,27.364 L78.256,30.658 C78.1599995,30.8980012 77.9980011,31.018 77.77,31.018 C77.6019992,31.018 77.4760004,30.9760004 77.392,30.892 C77.3079996,30.8079996 77.2600001,30.6940007 77.248,30.55 L77.248,30.496 C77.248,30.4239996 77.2539999,30.3700002 77.266,30.334 L82.018,18.706 C82.1140005,18.4659988 82.2939987,18.346 82.558,18.346 C82.6780006,18.346 82.7829995,18.3789997 82.873,18.445 C82.9630005,18.5110003 83.0319998,18.5979995 83.08,18.706 L87.814,30.28 Z M80.002,26.302 L85.006,26.302 L82.486,20.146 L80.002,26.302 Z M96.796,24.304 C97.5160036,24.4840009 98.1039977,24.8439973 98.56,25.384 C99.0160023,25.9240027 99.244,26.6259957 99.244,27.49 C99.244,28.6660059 98.8810036,29.5449971 98.155,30.127 C97.4289964,30.7090029 96.5260054,31 95.446,31 L90.604,31 C90.4479992,31 90.3190005,30.9490005 90.217,30.847 C90.1149995,30.7449995 90.064,30.6160008 90.064,30.46 L90.064,18.94 C90.064,18.7839992 90.1149995,18.6550005 90.217,18.553 C90.3190005,18.4509995 90.4479992,18.4 90.604,18.4 L95.374,18.4 C96.382005,18.4 97.1709972,18.6759972 97.741,19.228 C98.3110028,19.7800028 98.596,20.5359952 98.596,21.496 C98.596,22.1320032 98.4400016,22.7019975 98.128,23.206 C97.8159984,23.7100025 97.3720029,24.0759989 96.796,24.304 Z M97.444,21.586 C97.444,20.9259967 97.249002,20.4070019 96.859,20.029 C96.4689981,19.6509981 95.9260035,19.462 95.23,19.462 L91.216,19.462 L91.216,23.962 L95.23,23.962 C95.8780032,23.9499999 96.4089979,23.740002 96.823,23.332 C97.2370021,22.923998 97.444,22.3420038 97.444,21.586 Z M95.392,29.938 C96.196004,29.938 96.8469975,29.734002 97.345,29.326 C97.8430025,28.917998 98.092,28.3060041 98.092,27.49 C98.092,26.6499958 97.8370025,26.032002 97.327,25.636 C96.8169975,25.239998 96.160004,25.042 95.356,25.042 L91.216,25.042 L91.216,29.938 L95.392,29.938 Z M108.748,29.938 C108.904001,29.938 109.032999,29.9859995 109.135,30.082 C109.237001,30.1780005 109.288,30.3039992 109.288,30.46 C109.288,30.6160008 109.237001,30.7449995 109.135,30.847 C109.032999,30.9490005 108.904001,31 108.748,31 L102.322,31 C102.165999,31 102.037001,30.9490005 101.935,30.847 C101.832999,30.7449995 101.782,30.6160008 101.782,30.46 L101.782,18.94 C101.782,18.7839992 101.835999,18.6550005 101.944,18.553 C102.052001,18.4509995 102.189999,18.4 102.358,18.4 C102.514001,18.4 102.645999,18.4509995 102.754,18.553 C102.862001,18.6550005 102.916,18.7839992 102.916,18.94 L102.916,29.938 L108.748,29.938 Z M118.504,29.938 C118.660001,29.938 118.788999,29.9919995 118.891,30.1 C118.993001,30.2080005 119.044,30.3339993 119.044,30.478 C119.044,30.6340008 118.993001,30.7599995 118.891,30.856 C118.788999,30.9520005 118.660001,31 118.504,31 L111.898,31 C111.741999,31 111.613001,30.9490005 111.511,30.847 C111.408999,30.7449995 111.358,30.6160008 111.358,30.46 L111.358,18.94 C111.358,18.7839992 111.408999,18.6550005 111.511,18.553 C111.613001,18.4509995 111.741999,18.4 111.898,18.4 L118.504,18.4 C118.660001,18.4 118.788999,18.4509995 118.891,18.553 C118.993001,18.6550005 119.044,18.7839992 119.044,18.94 C119.044,19.0960008 118.993001,19.2219995 118.891,19.318 C118.788999,19.4140005 118.660001,19.462 118.504,19.462 L112.492,19.462 L112.492,23.98 L117.694,23.98 C117.850001,23.98 117.978999,24.0309995 118.081,24.133 C118.183001,24.2350005 118.234,24.3639992 118.234,24.52 C118.234,24.6760008 118.183001,24.8019995 118.081,24.898 C117.978999,24.9940005 117.850001,25.042 117.694,25.042 L112.492,25.042 L112.492,29.938 L118.504,29.938 Z M126.712,18.4 C127.864006,18.4 128.832996,18.6849972 129.619,19.255 C130.405004,19.8250028 130.992998,20.5869952 131.383,21.541 C131.773002,22.4950048 131.968,23.5479942 131.968,24.7 C131.968,25.8880059 131.773002,26.9559953 131.383,27.904 C130.992998,28.8520047 130.405004,29.6049972 129.619,30.163 C128.832996,30.7210028 127.864006,31 126.712,31 L122.122,31 C121.965999,31 121.837001,30.9490005 121.735,30.847 C121.632999,30.7449995 121.582,30.6160008 121.582,30.46 L121.582,18.94 C121.582,18.7839992 121.632999,18.6550005 121.735,18.553 C121.837001,18.4509995 121.965999,18.4 122.122,18.4 L126.712,18.4 Z M126.532,29.938 C127.972007,29.938 129.045996,29.4550048 129.754,28.489 C130.462004,27.5229952 130.816,26.2600078 130.816,24.7 C130.816,23.7279951 130.666001,22.8490039 130.366,22.063 C130.065998,21.2769961 129.595003,20.6470024 128.953,20.173 C128.310997,19.6989976 127.504005,19.462 126.532,19.462 L122.716,19.462 L122.716,29.938 L126.532,29.938 Z" id="Disabled" fill="#FFFFFF" opacity="0.900000036"></path>
            </g>
        </g>
    </g>
</svg>