<?xml version="1.0" encoding="UTF-8"?>
<svg width="848px" height="74px" viewBox="0 0 848 74" version="1.1" xmlns="http://www.w3.org/2000/svg" xmlns:xlink="http://www.w3.org/1999/xlink">
    <!-- Generator: Sketch 50.2 (55047) - http://www.bohemiancoding.com/sketch -->
    <title>buttons-neg</title>
    <desc>Created with Sketch.</desc>
    <defs>
        <rect id="path-1" x="0.5" y="0.356299177" width="180" height="50" rx="25"></rect>
        <filter x="-8.9%" y="-22.0%" width="117.8%" height="164.0%" filterUnits="objectBoundingBox" id="filter-2">
            <feOffset dx="0" dy="1" in="SourceAlpha" result="shadowOffsetOuter1"></feOffset>
            <feGaussianBlur stdDeviation="1" in="shadowOffsetOuter1" result="shadowBlurOuter1"></feGaussianBlur>
            <feColorMatrix values="0 0 0 0 0   0 0 0 0 0   0 0 0 0 0  0 0 0 0.3 0" type="matrix" in="shadowBlurOuter1" result="shadowMatrixOuter1"></feColorMatrix>
            <feOffset dx="0" dy="4" in="SourceAlpha" result="shadowOffsetOuter2"></feOffset>
            <feGaussianBlur stdDeviation="4" in="shadowOffsetOuter2" result="shadowBlurOuter2"></feGaussianBlur>
            <feColorMatrix values="0 0 0 0 0   0 0 0 0 0   0 0 0 0 0  0 0 0 0.1 0" type="matrix" in="shadowBlurOuter2" result="shadowMatrixOuter2"></feColorMatrix>
            <feMerge>
                <feMergeNode in="shadowMatrixOuter1"></feMergeNode>
                <feMergeNode in="shadowMatrixOuter2"></feMergeNode>
            </feMerge>
        </filter>
        <rect id="path-3" x="220.5" y="0.356299177" width="180" height="50" rx="25"></rect>
        <filter x="-13.9%" y="-36.0%" width="127.8%" height="200.0%" filterUnits="objectBoundingBox" id="filter-4">
            <feOffset dx="0" dy="1" in="SourceAlpha" result="shadowOffsetOuter1"></feOffset>
            <feGaussianBlur stdDeviation="2" in="shadowOffsetOuter1" result="shadowBlurOuter1"></feGaussianBlur>
            <feColorMatrix values="0 0 0 0 0   0 0 0 0 0   0 0 0 0 0  0 0 0 0.3 0" type="matrix" in="shadowBlurOuter1" result="shadowMatrixOuter1"></feColorMatrix>
            <feOffset dx="0" dy="6" in="SourceAlpha" result="shadowOffsetOuter2"></feOffset>
            <feGaussianBlur stdDeviation="6" in="shadowOffsetOuter2" result="shadowBlurOuter2"></feGaussianBlur>
            <feColorMatrix values="0 0 0 0 0   0 0 0 0 0   0 0 0 0 0  0 0 0 0.2 0" type="matrix" in="shadowBlurOuter2" result="shadowMatrixOuter2"></feColorMatrix>
            <feMerge>
                <feMergeNode in="shadowMatrixOuter1"></feMergeNode>
                <feMergeNode in="shadowMatrixOuter2"></feMergeNode>
            </feMerge>
        </filter>
        <rect id="path-5" x="440.5" y="0.356299177" width="180" height="50" rx="25"></rect>
        <filter x="-5.6%" y="-14.0%" width="111.1%" height="140.0%" filterUnits="objectBoundingBox" id="filter-6">
            <feOffset dx="0" dy="1" in="SourceAlpha" result="shadowOffsetOuter1"></feOffset>
            <feGaussianBlur stdDeviation="1.5" in="shadowOffsetOuter1" result="shadowBlurOuter1"></feGaussianBlur>
            <feColorMatrix values="0 0 0 0 0   0 0 0 0 0   0 0 0 0 0  0 0 0 0.3 0" type="matrix" in="shadowBlurOuter1" result="shadowMatrixOuter1"></feColorMatrix>
            <feOffset dx="0" dy="2" in="SourceAlpha" result="shadowOffsetOuter2"></feOffset>
            <feGaussianBlur stdDeviation="2" in="shadowOffsetOuter2" result="shadowBlurOuter2"></feGaussianBlur>
            <feColorMatrix values="0 0 0 0 0   0 0 0 0 0   0 0 0 0 0  0 0 0 0.2 0" type="matrix" in="shadowBlurOuter2" result="shadowMatrixOuter2"></feColorMatrix>
            <feMerge>
                <feMergeNode in="shadowMatrixOuter1"></feMergeNode>
                <feMergeNode in="shadowMatrixOuter2"></feMergeNode>
            </feMerge>
        </filter>
    </defs>
    <g id="Branding" stroke="none" stroke-width="1" fill="none" fill-rule="evenodd">
        <g id="buttons-neg" transform="translate(7.000000, 6.000000)">
            <g id="Rectangle-6">
                <use fill="black" fill-opacity="1" filter="url(#filter-2)" xlink:href="#path-1"></use>
                <use fill="#FFFFFF" fill-rule="evenodd" xlink:href="#path-1"></use>
            </g>
            <g id="Rectangle-6-Copy-2">
                <use fill="black" fill-opacity="1" filter="url(#filter-4)" xlink:href="#path-3"></use>
                <use fill="#FFFFFF" fill-rule="evenodd" xlink:href="#path-3"></use>
            </g>
            <rect id="Rectangle-6-Copy-2" fill-opacity="0.1" fill="#FFFFFF" x="220.5" y="0.356299177" width="180" height="50" rx="25"></rect>
            <g id="Rectangle-6-Copy-3">
                <use fill="black" fill-opacity="1" filter="url(#filter-6)" xlink:href="#path-5"></use>
                <use fill="#FFFFFF" fill-rule="evenodd" xlink:href="#path-5"></use>
            </g>
            <rect id="Rectangle-6-Copy-3" fill-opacity="0.204285553" fill="#000000" x="440.5" y="0.356299177" width="180" height="50" rx="25"></rect>
            <rect id="Rectangle-6-Copy-4" fill="#FFFFFF" opacity="0.300000012" x="660.5" y="0.356299177" width="180" height="50" rx="25"></rect>
            <path d="M59.59,17.7562992 C60.7420058,17.7562992 61.7109961,18.0412963 62.497,18.6112992 C63.2830039,19.181302 63.8709981,19.9432944 64.261,20.8972992 C64.651002,21.8513039 64.846,22.9042934 64.846,24.0562992 C64.846,25.2443051 64.651002,26.3122944 64.261,27.2602992 C63.8709981,28.2083039 63.2830039,28.9612964 62.497,29.5192992 C61.7109961,30.077302 60.7420058,30.3562992 59.59,30.3562992 L55,30.3562992 C54.8439992,30.3562992 54.7150005,30.3052997 54.613,30.2032992 C54.5109995,30.1012987 54.46,29.9723 54.46,29.8162992 L54.46,18.2962992 C54.46,18.1402984 54.5109995,18.0112997 54.613,17.9092992 C54.7150005,17.8072987 54.8439992,17.7562992 55,17.7562992 L59.59,17.7562992 Z M59.41,29.2942992 C60.8500072,29.2942992 61.9239965,28.811304 62.632,27.8452992 C63.3400035,26.8792943 63.694,25.616307 63.694,24.0562992 C63.694,23.0842943 63.5440015,22.2053031 63.244,21.4192992 C62.9439985,20.6332952 62.4730032,20.0033015 61.831,19.5292992 C61.1889968,19.0552968 60.3820049,18.8182992 59.41,18.8182992 L55.594,18.8182992 L55.594,29.2942992 L59.41,29.2942992 Z M74.548,29.2942992 C74.7040008,29.2942992 74.8329995,29.3482986 74.935,29.4562992 C75.0370005,29.5642997 75.088,29.6902985 75.088,29.8342992 C75.088,29.9903 75.0370005,30.1162987 74.935,30.2122992 C74.8329995,30.3082997 74.7040008,30.3562992 74.548,30.3562992 L67.942,30.3562992 C67.7859992,30.3562992 67.6570005,30.3052997 67.555,30.2032992 C67.4529995,30.1012987 67.402,29.9723 67.402,29.8162992 L67.402,18.2962992 C67.402,18.1402984 67.4529995,18.0112997 67.555,17.9092992 C67.6570005,17.8072987 67.7859992,17.7562992 67.942,17.7562992 L74.548,17.7562992 C74.7040008,17.7562992 74.8329995,17.8072987 74.935,17.9092992 C75.0370005,18.0112997 75.088,18.1402984 75.088,18.2962992 C75.088,18.4523 75.0370005,18.5782987 74.935,18.6742992 C74.8329995,18.7702997 74.7040008,18.8182992 74.548,18.8182992 L68.536,18.8182992 L68.536,23.3362992 L73.738,23.3362992 C73.8940008,23.3362992 74.0229995,23.3872987 74.125,23.4892992 C74.2270005,23.5912997 74.278,23.7202984 74.278,23.8762992 C74.278,24.0323 74.2270005,24.1582987 74.125,24.2542992 C74.0229995,24.3502997 73.8940008,24.3982992 73.738,24.3982992 L68.536,24.3982992 L68.536,29.2942992 L74.548,29.2942992 Z M84.718,17.7562992 C84.8740008,17.7562992 85.0029995,17.8072987 85.105,17.9092992 C85.2070005,18.0112997 85.258,18.1402984 85.258,18.2962992 C85.258,18.4402999 85.2070005,18.5632987 85.105,18.6652992 C85.0029995,18.7672997 84.8740008,18.8182992 84.718,18.8182992 L78.724,18.8182992 L78.724,23.3362992 L83.908,23.3362992 C84.0640008,23.3362992 84.1929995,23.3842987 84.295,23.4802992 C84.3970005,23.5762997 84.448,23.7022984 84.448,23.8582992 C84.448,24.0143 84.3970005,24.1402987 84.295,24.2362992 C84.1929995,24.3322997 84.0640008,24.3802992 83.908,24.3802992 L78.724,24.3802992 L78.724,29.8162992 C78.724,29.9723 78.6730005,30.1012987 78.571,30.2032992 C78.4689995,30.3052997 78.3400008,30.3562992 78.184,30.3562992 C78.0159992,30.3562992 77.8810005,30.3052997 77.779,30.2032992 C77.6769995,30.1012987 77.626,29.9723 77.626,29.8162992 L77.626,18.2962992 C77.626,18.1402984 77.6769995,18.0112997 77.779,17.9092992 C77.8810005,17.8072987 78.0099992,17.7562992 78.166,17.7562992 L84.718,17.7562992 Z M96.634,29.6362992 C96.6580001,29.7322997 96.67,29.8042989 96.67,29.8522992 C96.67,30.0083 96.6160005,30.1342987 96.508,30.2302992 C96.3999995,30.3262997 96.2740007,30.3742992 96.13,30.3742992 C96.0099994,30.3742992 95.9050005,30.3412995 95.815,30.2752992 C95.7249996,30.2092988 95.6560002,30.1222997 95.608,30.0142992 L94.258,26.7202992 L88.408,26.7202992 L87.076,30.0142992 C86.9799995,30.2543004 86.8180011,30.3742992 86.59,30.3742992 C86.4219992,30.3742992 86.2960004,30.3322996 86.212,30.2482992 C86.1279996,30.1642988 86.0800001,30.0502999 86.068,29.9062992 L86.068,29.8522992 C86.068,29.7802988 86.0739999,29.7262994 86.086,29.6902992 L90.838,18.0622992 C90.9340005,17.822298 91.1139987,17.7022992 91.378,17.7022992 C91.4980006,17.7022992 91.6029995,17.7352988 91.693,17.8012992 C91.7830004,17.8672995 91.8519998,17.9542986 91.9,18.0622992 L96.634,29.6362992 Z M88.822,25.6582992 L93.826,25.6582992 L91.306,19.5022992 L88.822,25.6582992 Z M107.614,17.7562992 C107.770001,17.7562992 107.898999,17.8072987 108.001,17.9092992 C108.103001,18.0112997 108.154,18.1402984 108.154,18.2962992 L108.154,25.7482992 C108.154,26.6243036 107.944002,27.4282955 107.524,28.1602992 C107.103998,28.8923028 106.534004,29.4682971 105.814,29.8882992 C105.093996,30.3083013 104.302004,30.5182992 103.438,30.5182992 C102.561996,30.5182992 101.764004,30.3083013 101.044,29.8882992 C100.323996,29.4682971 99.7540021,28.8923028 99.334,28.1602992 C98.9139979,27.4282955 98.704,26.6243036 98.704,25.7482992 L98.704,18.2962992 C98.704,18.1402984 98.7549995,18.0112997 98.857,17.9092992 C98.9590005,17.8072987 99.0999991,17.7562992 99.28,17.7562992 C99.4240007,17.7562992 99.5499995,17.8072987 99.658,17.9092992 C99.7660005,18.0112997 99.82,18.1402984 99.82,18.2962992 L99.82,25.7482992 C99.82,26.4203025 99.9819984,27.0382964 100.306,27.6022992 C100.630002,28.166302 101.070997,28.6132975 101.629,28.9432992 C102.187003,29.2733008 102.789997,29.4382992 103.438,29.4382992 C104.098003,29.4382992 104.706997,29.2733008 105.265,28.9432992 C105.823003,28.6132975 106.266998,28.166302 106.597,27.6022992 C106.927002,27.0382964 107.092,26.4203025 107.092,25.7482992 L107.092,18.2962992 C107.092,18.1402984 107.14,18.0112997 107.236,17.9092992 C107.332,17.8072987 107.457999,17.7562992 107.614,17.7562992 Z M118.504,29.2942992 C118.660001,29.2942992 118.788999,29.3422987 118.891,29.4382992 C118.993001,29.5342997 119.044,29.6602984 119.044,29.8162992 C119.044,29.9723 118.993001,30.1012987 118.891,30.2032992 C118.788999,30.3052997 118.660001,30.3562992 118.504,30.3562992 L112.078,30.3562992 C111.921999,30.3562992 111.793001,30.3052997 111.691,30.2032992 C111.588999,30.1012987 111.538,29.9723 111.538,29.8162992 L111.538,18.2962992 C111.538,18.1402984 111.591999,18.0112997 111.7,17.9092992 C111.808001,17.8072987 111.945999,17.7562992 112.114,17.7562992 C112.270001,17.7562992 112.401999,17.8072987 112.51,17.9092992 C112.618001,18.0112997 112.672,18.1402984 112.672,18.2962992 L112.672,29.2942992 L118.504,29.2942992 Z M128.08,17.7562992 C128.236001,17.7562992 128.364999,17.8042987 128.467,17.9002992 C128.569001,17.9962997 128.62,18.1222984 128.62,18.2782992 C128.62,18.4343 128.569001,18.5572987 128.467,18.6472992 C128.364999,18.7372996 128.236001,18.7822992 128.08,18.7822992 L124.354,18.7822992 L124.354,29.8162992 C124.354,29.9723 124.300001,30.1012987 124.192,30.2032992 C124.083999,30.3052997 123.952001,30.3562992 123.796,30.3562992 C123.627999,30.3562992 123.493001,30.3052997 123.391,30.2032992 C123.288999,30.1012987 123.238,29.9723 123.238,29.8162992 L123.238,18.7822992 L119.512,18.7822992 C119.355999,18.7822992 119.227001,18.7342997 119.125,18.6382992 C119.022999,18.5422987 118.972,18.4163 118.972,18.2602992 C118.972,18.1162985 119.022999,17.9962997 119.125,17.9002992 C119.227001,17.8042987 119.355999,17.7562992 119.512,17.7562992 L128.08,17.7562992 Z" id="Default" fill="#FE9518"></path>
            <path d="M291.808,17.7562992 C291.976001,17.7562992 292.110999,17.8072987 292.213,17.9092992 C292.315001,18.0112997 292.366,18.1462983 292.366,18.3142992 L292.366,29.7982992 C292.354,29.9663 292.294001,30.1012987 292.186,30.2032992 C292.077999,30.3052997 291.946001,30.3562992 291.79,30.3562992 C291.633999,30.3562992 291.502001,30.3022997 291.394,30.1942992 C291.285999,30.0862986 291.232,29.9543 291.232,29.7982992 L291.232,24.4342992 L283.924,24.4342992 L283.924,29.7982992 C283.912,29.9543 283.852001,30.0862986 283.744,30.1942992 C283.635999,30.3022997 283.504001,30.3562992 283.348,30.3562992 C283.179999,30.3562992 283.045001,30.3052997 282.943,30.2032992 C282.840999,30.1012987 282.79,29.9663 282.79,29.7982992 L282.79,18.3142992 C282.79,18.1462983 282.843999,18.0112997 282.952,17.9092992 C283.060001,17.8072987 283.197999,17.7562992 283.366,17.7562992 C283.522001,17.7562992 283.653999,17.8102986 283.762,17.9182992 C283.870001,18.0262997 283.924,18.1582984 283.924,18.3142992 L283.924,23.3902992 L291.232,23.3902992 L291.232,18.3142992 C291.232,18.1582984 291.288999,18.0262997 291.403,17.9182992 C291.517001,17.8102986 291.651999,17.7562992 291.808,17.7562992 Z M306.982,24.0562992 C306.982,25.2923054 306.724003,26.4022943 306.208,27.3862992 C305.691997,28.3703041 304.978005,29.1412964 304.066,29.6992992 C303.153995,30.257302 302.116006,30.5362992 300.952,30.5362992 C299.787994,30.5362992 298.750005,30.257302 297.838,29.6992992 C296.925995,29.1412964 296.212003,28.3703041 295.696,27.3862992 C295.179997,26.4022943 294.922,25.2923054 294.922,24.0562992 C294.922,22.8082929 295.179997,21.6923041 295.696,20.7082992 C296.212003,19.7242943 296.925995,18.9563019 297.838,18.4042992 C298.750005,17.8522964 299.787994,17.5762992 300.952,17.5762992 C302.116006,17.5762992 303.153995,17.8522964 304.066,18.4042992 C304.978005,18.9563019 305.691997,19.7242943 306.208,20.7082992 C306.724003,21.6923041 306.982,22.8082929 306.982,24.0562992 Z M305.83,24.0562992 C305.83,23.012294 305.623002,22.0793033 305.209,21.2572992 C304.794998,20.4352951 304.219004,19.7963015 303.481,19.3402992 C302.742996,18.8842969 301.900005,18.6562992 300.952,18.6562992 C300.003995,18.6562992 299.161004,18.8842969 298.423,19.3402992 C297.684996,19.7963015 297.109002,20.4352951 296.695,21.2572992 C296.280998,22.0793033 296.074,23.012294 296.074,24.0562992 C296.074,25.1003044 296.280998,26.0332951 296.695,26.8552992 C297.109002,27.6773033 297.684996,28.3162969 298.423,28.7722992 C299.161004,29.2283015 300.003995,29.4562992 300.952,29.4562992 C301.900005,29.4562992 302.742996,29.2283015 303.481,28.7722992 C304.219004,28.3162969 304.794998,27.6773033 305.209,26.8552992 C305.623002,26.0332951 305.83,25.1003044 305.83,24.0562992 Z M318.448,17.7382992 C318.604001,17.7382992 318.735999,17.7892987 318.844,17.8912992 C318.952001,17.9932997 319.006,18.1102985 319.006,18.2422992 C319.006,18.3262996 318.988,18.4162987 318.952,18.5122992 L314.146,29.9962992 C314.098,30.1042997 314.026,30.1912988 313.93,30.2572992 C313.834,30.3232995 313.732001,30.3562992 313.624,30.3562992 C313.515999,30.3562992 313.417,30.3262995 313.327,30.2662992 C313.237,30.2062989 313.168,30.1222997 313.12,30.0142992 L308.332,18.5482992 C308.296,18.4762988 308.278,18.3802998 308.278,18.2602992 C308.278,18.1042984 308.331999,17.9782997 308.44,17.8822992 C308.548001,17.7862987 308.667999,17.7382992 308.8,17.7382992 C309.052001,17.7382992 309.231999,17.8702979 309.34,18.1342992 L313.678,28.5022992 L317.944,18.0982992 C318.004,17.9902986 318.079,17.9032995 318.169,17.8372992 C318.259,17.7712988 318.352,17.7382992 318.448,17.7382992 Z M328.456,29.2942992 C328.612001,29.2942992 328.740999,29.3482986 328.843,29.4562992 C328.945001,29.5642997 328.996,29.6902985 328.996,29.8342992 C328.996,29.9903 328.945001,30.1162987 328.843,30.2122992 C328.740999,30.3082997 328.612001,30.3562992 328.456,30.3562992 L321.85,30.3562992 C321.693999,30.3562992 321.565001,30.3052997 321.463,30.2032992 C321.360999,30.1012987 321.31,29.9723 321.31,29.8162992 L321.31,18.2962992 C321.31,18.1402984 321.360999,18.0112997 321.463,17.9092992 C321.565001,17.8072987 321.693999,17.7562992 321.85,17.7562992 L328.456,17.7562992 C328.612001,17.7562992 328.740999,17.8072987 328.843,17.9092992 C328.945001,18.0112997 328.996,18.1402984 328.996,18.2962992 C328.996,18.4523 328.945001,18.5782987 328.843,18.6742992 C328.740999,18.7702997 328.612001,18.8182992 328.456,18.8182992 L322.444,18.8182992 L322.444,23.3362992 L327.646,23.3362992 C327.802001,23.3362992 327.930999,23.3872987 328.033,23.4892992 C328.135001,23.5912997 328.186,23.7202984 328.186,23.8762992 C328.186,24.0323 328.135001,24.1582987 328.033,24.2542992 C327.930999,24.3502997 327.802001,24.3982992 327.646,24.3982992 L322.444,24.3982992 L322.444,29.2942992 L328.456,29.2942992 Z M340.732,29.3842992 C340.912001,29.5042998 341.002,29.6542983 341.002,29.8342992 C341.002,29.8942995 340.978,29.9722987 340.93,30.0682992 C340.882,30.1522996 340.816,30.2182989 340.732,30.2662992 C340.648,30.3142994 340.558,30.3382992 340.462,30.3382992 C340.341999,30.3382992 340.24,30.3142994 340.156,30.2662992 C339.819998,30.0742982 339.550001,29.7623013 339.346,29.3302992 C339.141999,28.898297 339.04,28.2083039 339.04,27.2602992 C339.04,26.420295 338.806002,25.8293009 338.338,25.4872992 C337.869998,25.1452975 337.312003,24.9742992 336.664,24.9742992 L332.668,24.9742992 L332.668,29.8162992 C332.668,29.9723 332.62,30.1012987 332.524,30.2032992 C332.428,30.3052997 332.302001,30.3562992 332.146,30.3562992 C331.977999,30.3562992 331.834001,30.3052997 331.714,30.2032992 C331.593999,30.1012987 331.534,29.9723 331.534,29.8162992 L331.534,18.2962992 C331.534,18.1402984 331.584999,18.0112997 331.687,17.9092992 C331.789001,17.8072987 331.917999,17.7562992 332.074,17.7562992 L336.934,17.7562992 C337.618003,17.7562992 338.229997,17.9032977 338.77,18.1972992 C339.310003,18.4913006 339.732998,18.8962966 340.039,19.4122992 C340.345002,19.9283018 340.498,20.5102959 340.498,21.1582992 C340.498,21.926303 340.297002,22.6012963 339.895,23.1832992 C339.492998,23.7653021 338.968003,24.1642981 338.32,24.3802992 C338.848003,24.5843002 339.279998,24.9292967 339.616,25.4152992 C339.952002,25.9013016 340.126,26.4922957 340.138,27.1882992 C340.15,27.9323029 340.201,28.4542977 340.291,28.7542992 C340.381,29.0543007 340.527999,29.2642986 340.732,29.3842992 Z M336.988,23.9842992 C337.408002,23.948299 337.797998,23.8103004 338.158,23.5702992 C338.518002,23.330298 338.805999,23.0063012 339.022,22.5982992 C339.238001,22.1902971 339.346,21.7223018 339.346,21.1942992 C339.346,20.5102958 339.115002,19.9433014 338.653,19.4932992 C338.190998,19.0432969 337.588004,18.8182992 336.844,18.8182992 L332.668,18.8182992 L332.668,23.9842992 L336.988,23.9842992 Z" id="Hover" fill="#FE9518"></path>
            <path d="M499.293,17.7562992 C499.953003,17.7562992 500.546997,17.9092976 501.075,18.2152992 C501.603003,18.5213007 502.013999,18.9472964 502.308,19.4932992 C502.602001,20.0393019 502.749,20.6542958 502.749,21.3382992 C502.749,22.0223026 502.602001,22.6462964 502.308,23.2102992 C502.013999,23.774302 501.603003,24.2182976 501.075,24.5422992 C500.546997,24.8663008 499.953003,25.0282992 499.293,25.0282992 L495.567,25.0282992 L495.567,29.8162992 C495.567,29.9723 495.516001,30.1012987 495.414,30.2032992 C495.311999,30.3052997 495.183001,30.3562992 495.027,30.3562992 C494.870999,30.3562992 494.742001,30.3052997 494.64,30.2032992 C494.537999,30.1012987 494.487,29.9723 494.487,29.8162992 L494.487,18.2962992 C494.487,18.1402984 494.537999,18.0112997 494.64,17.9092992 C494.742001,17.8072987 494.870999,17.7562992 495.027,17.7562992 L499.293,17.7562992 Z M499.293,23.9842992 C499.989003,23.9842992 500.552998,23.7323017 500.985,23.2282992 C501.417002,22.7242967 501.633,22.094303 501.633,21.3382992 C501.633,20.5942955 501.417002,19.9883015 500.985,19.5202992 C500.552998,19.0522968 499.989003,18.8182992 499.293,18.8182992 L495.567,18.8182992 L495.567,23.9842992 L499.293,23.9842992 Z M514.413,29.3842992 C514.593001,29.5042998 514.683,29.6542983 514.683,29.8342992 C514.683,29.8942995 514.659,29.9722987 514.611,30.0682992 C514.563,30.1522996 514.497,30.2182989 514.413,30.2662992 C514.329,30.3142994 514.239,30.3382992 514.143,30.3382992 C514.022999,30.3382992 513.921,30.3142994 513.837,30.2662992 C513.500998,30.0742982 513.231001,29.7623013 513.027,29.3302992 C512.822999,28.898297 512.721,28.2083039 512.721,27.2602992 C512.721,26.420295 512.487002,25.8293009 512.019,25.4872992 C511.550998,25.1452975 510.993003,24.9742992 510.345,24.9742992 L506.349,24.9742992 L506.349,29.8162992 C506.349,29.9723 506.301,30.1012987 506.205,30.2032992 C506.109,30.3052997 505.983001,30.3562992 505.827,30.3562992 C505.658999,30.3562992 505.515001,30.3052997 505.395,30.2032992 C505.274999,30.1012987 505.215,29.9723 505.215,29.8162992 L505.215,18.2962992 C505.215,18.1402984 505.265999,18.0112997 505.368,17.9092992 C505.470001,17.8072987 505.598999,17.7562992 505.755,17.7562992 L510.615,17.7562992 C511.299003,17.7562992 511.910997,17.9032977 512.451,18.1972992 C512.991003,18.4913006 513.413998,18.8962966 513.72,19.4122992 C514.026002,19.9283018 514.179,20.5102959 514.179,21.1582992 C514.179,21.926303 513.978002,22.6012963 513.576,23.1832992 C513.173998,23.7653021 512.649003,24.1642981 512.001,24.3802992 C512.529003,24.5843002 512.960998,24.9292967 513.297,25.4152992 C513.633002,25.9013016 513.807,26.4922957 513.819,27.1882992 C513.831,27.9323029 513.882,28.4542977 513.972,28.7542992 C514.062,29.0543007 514.208999,29.2642986 514.413,29.3842992 Z M510.669,23.9842992 C511.089002,23.948299 511.478998,23.8103004 511.839,23.5702992 C512.199002,23.330298 512.486999,23.0063012 512.703,22.5982992 C512.919001,22.1902971 513.027,21.7223018 513.027,21.1942992 C513.027,20.5102958 512.796002,19.9433014 512.334,19.4932992 C511.871998,19.0432969 511.269004,18.8182992 510.525,18.8182992 L506.349,18.8182992 L506.349,23.9842992 L510.669,23.9842992 Z M524.421,29.2942992 C524.577001,29.2942992 524.705999,29.3482986 524.808,29.4562992 C524.910001,29.5642997 524.961,29.6902985 524.961,29.8342992 C524.961,29.9903 524.910001,30.1162987 524.808,30.2122992 C524.705999,30.3082997 524.577001,30.3562992 524.421,30.3562992 L517.815,30.3562992 C517.658999,30.3562992 517.530001,30.3052997 517.428,30.2032992 C517.325999,30.1012987 517.275,29.9723 517.275,29.8162992 L517.275,18.2962992 C517.275,18.1402984 517.325999,18.0112997 517.428,17.9092992 C517.530001,17.8072987 517.658999,17.7562992 517.815,17.7562992 L524.421,17.7562992 C524.577001,17.7562992 524.705999,17.8072987 524.808,17.9092992 C524.910001,18.0112997 524.961,18.1402984 524.961,18.2962992 C524.961,18.4523 524.910001,18.5782987 524.808,18.6742992 C524.705999,18.7702997 524.577001,18.8182992 524.421,18.8182992 L518.409,18.8182992 L518.409,23.3362992 L523.611,23.3362992 C523.767001,23.3362992 523.895999,23.3872987 523.998,23.4892992 C524.100001,23.5912997 524.151,23.7202984 524.151,23.8762992 C524.151,24.0323 524.100001,24.1582987 523.998,24.2542992 C523.895999,24.3502997 523.767001,24.3982992 523.611,24.3982992 L518.409,24.3982992 L518.409,29.2942992 L524.421,29.2942992 Z M530.901,30.5362992 C530.036996,30.5362992 529.272003,30.3923006 528.606,30.1042992 C527.939997,29.8162977 527.295003,29.3663022 526.671,28.7542992 C526.526999,28.6342986 526.455,28.4903 526.455,28.3222992 C526.455,28.1782985 526.511999,28.0462998 526.626,27.9262992 C526.740001,27.8062986 526.868999,27.7462992 527.013,27.7462992 C527.157001,27.7462992 527.288999,27.8062986 527.409,27.9262992 C528.345005,28.9583043 529.514993,29.4742992 530.919,29.4742992 C531.783004,29.4742992 532.499997,29.2703012 533.07,28.8622992 C533.640003,28.4542971 533.925,27.9203025 533.925,27.2602992 C533.925,26.7442966 533.784001,26.3153009 533.502,25.9732992 C533.219999,25.6312975 532.851002,25.3523003 532.395,25.1362992 C531.938998,24.9202981 531.357004,24.6983003 530.649,24.4702992 C529.880996,24.242298 529.236003,23.9903006 528.714,23.7142992 C528.191997,23.4382978 527.769002,23.0693015 527.445,22.6072992 C527.120998,22.1452969 526.959,21.5603027 526.959,20.8522992 C526.959,20.216296 527.129998,19.6523016 527.472,19.1602992 C527.814002,18.6682967 528.293997,18.2813006 528.912,17.9992992 C529.530003,17.7172978 530.240996,17.5762992 531.045,17.5762992 C531.777004,17.5762992 532.463997,17.6992979 533.106,17.9452992 C533.748003,18.1913004 534.260998,18.5422969 534.645,18.9982992 C534.825001,19.2023002 534.915,19.3762985 534.915,19.5202992 C534.915,19.6522998 534.855001,19.7752986 534.735,19.8892992 C534.614999,20.0032997 534.483001,20.0602992 534.339,20.0602992 C534.218999,20.0602992 534.117,20.0182996 534.033,19.9342992 C533.708998,19.5502973 533.277003,19.2383004 532.737,18.9982992 C532.196997,18.758298 531.633003,18.6382992 531.045,18.6382992 C530.168996,18.6382992 529.455003,18.8332972 528.903,19.2232992 C528.350997,19.6133011 528.075,20.1442958 528.075,20.8162992 C528.075,21.5123027 528.338997,22.0462973 528.867,22.4182992 C529.395003,22.790301 530.150995,23.1322976 531.135,23.4442992 C531.987004,23.6963004 532.682997,23.9542979 533.223,24.2182992 C533.763003,24.4823005 534.203998,24.8572967 534.546,25.3432992 C534.888002,25.8293016 535.059,26.4682952 535.059,27.2602992 C535.059,27.8723022 534.882002,28.4272967 534.528,28.9252992 C534.173998,29.4233017 533.682003,29.8162977 533.052,30.1042992 C532.421997,30.3923006 531.705004,30.5362992 530.901,30.5362992 Z M541.017,30.5362992 C540.152996,30.5362992 539.388003,30.3923006 538.722,30.1042992 C538.055997,29.8162977 537.411003,29.3663022 536.787,28.7542992 C536.642999,28.6342986 536.571,28.4903 536.571,28.3222992 C536.571,28.1782985 536.627999,28.0462998 536.742,27.9262992 C536.856001,27.8062986 536.984999,27.7462992 537.129,27.7462992 C537.273001,27.7462992 537.404999,27.8062986 537.525,27.9262992 C538.461005,28.9583043 539.630993,29.4742992 541.035,29.4742992 C541.899004,29.4742992 542.615997,29.2703012 543.186,28.8622992 C543.756003,28.4542971 544.041,27.9203025 544.041,27.2602992 C544.041,26.7442966 543.900001,26.3153009 543.618,25.9732992 C543.335999,25.6312975 542.967002,25.3523003 542.511,25.1362992 C542.054998,24.9202981 541.473004,24.6983003 540.765,24.4702992 C539.996996,24.242298 539.352003,23.9903006 538.83,23.7142992 C538.307997,23.4382978 537.885002,23.0693015 537.561,22.6072992 C537.236998,22.1452969 537.075,21.5603027 537.075,20.8522992 C537.075,20.216296 537.245998,19.6523016 537.588,19.1602992 C537.930002,18.6682967 538.409997,18.2813006 539.028,17.9992992 C539.646003,17.7172978 540.356996,17.5762992 541.161,17.5762992 C541.893004,17.5762992 542.579997,17.6992979 543.222,17.9452992 C543.864003,18.1913004 544.376998,18.5422969 544.761,18.9982992 C544.941001,19.2023002 545.031,19.3762985 545.031,19.5202992 C545.031,19.6522998 544.971001,19.7752986 544.851,19.8892992 C544.730999,20.0032997 544.599001,20.0602992 544.455,20.0602992 C544.334999,20.0602992 544.233,20.0182996 544.149,19.9342992 C543.824998,19.5502973 543.393003,19.2383004 542.853,18.9982992 C542.312997,18.758298 541.749003,18.6382992 541.161,18.6382992 C540.284996,18.6382992 539.571003,18.8332972 539.019,19.2232992 C538.466997,19.6133011 538.191,20.1442958 538.191,20.8162992 C538.191,21.5123027 538.454997,22.0462973 538.983,22.4182992 C539.511003,22.790301 540.266995,23.1322976 541.251,23.4442992 C542.103004,23.6963004 542.798997,23.9542979 543.339,24.2182992 C543.879003,24.4823005 544.319998,24.8572967 544.662,25.3432992 C545.004002,25.8293016 545.175,26.4682952 545.175,27.2602992 C545.175,27.8723022 544.998002,28.4272967 544.644,28.9252992 C544.289998,29.4233017 543.798003,29.8162977 543.168,30.1042992 C542.537997,30.3923006 541.821004,30.5362992 541.017,30.5362992 Z M554.877,29.2942992 C555.033001,29.2942992 555.161999,29.3482986 555.264,29.4562992 C555.366001,29.5642997 555.417,29.6902985 555.417,29.8342992 C555.417,29.9903 555.366001,30.1162987 555.264,30.2122992 C555.161999,30.3082997 555.033001,30.3562992 554.877,30.3562992 L548.271,30.3562992 C548.114999,30.3562992 547.986001,30.3052997 547.884,30.2032992 C547.781999,30.1012987 547.731,29.9723 547.731,29.8162992 L547.731,18.2962992 C547.731,18.1402984 547.781999,18.0112997 547.884,17.9092992 C547.986001,17.8072987 548.114999,17.7562992 548.271,17.7562992 L554.877,17.7562992 C555.033001,17.7562992 555.161999,17.8072987 555.264,17.9092992 C555.366001,18.0112997 555.417,18.1402984 555.417,18.2962992 C555.417,18.4523 555.366001,18.5782987 555.264,18.6742992 C555.161999,18.7702997 555.033001,18.8182992 554.877,18.8182992 L548.865,18.8182992 L548.865,23.3362992 L554.067,23.3362992 C554.223001,23.3362992 554.351999,23.3872987 554.454,23.4892992 C554.556001,23.5912997 554.607,23.7202984 554.607,23.8762992 C554.607,24.0323 554.556001,24.1582987 554.454,24.2542992 C554.351999,24.3502997 554.223001,24.3982992 554.067,24.3982992 L548.865,24.3982992 L548.865,29.2942992 L554.877,29.2942992 Z M563.085,17.7562992 C564.237006,17.7562992 565.205996,18.0412963 565.992,18.6112992 C566.778004,19.181302 567.365998,19.9432944 567.756,20.8972992 C568.146002,21.8513039 568.341,22.9042934 568.341,24.0562992 C568.341,25.2443051 568.146002,26.3122944 567.756,27.2602992 C567.365998,28.2083039 566.778004,28.9612964 565.992,29.5192992 C565.205996,30.077302 564.237006,30.3562992 563.085,30.3562992 L558.495,30.3562992 C558.338999,30.3562992 558.210001,30.3052997 558.108,30.2032992 C558.005999,30.1012987 557.955,29.9723 557.955,29.8162992 L557.955,18.2962992 C557.955,18.1402984 558.005999,18.0112997 558.108,17.9092992 C558.210001,17.8072987 558.338999,17.7562992 558.495,17.7562992 L563.085,17.7562992 Z M562.905,29.2942992 C564.345007,29.2942992 565.418996,28.811304 566.127,27.8452992 C566.835004,26.8792943 567.189,25.616307 567.189,24.0562992 C567.189,23.0842943 567.039001,22.2053031 566.739,21.4192992 C566.438998,20.6332952 565.968003,20.0033015 565.326,19.5292992 C564.683997,19.0552968 563.877005,18.8182992 562.905,18.8182992 L559.089,18.8182992 L559.089,29.2942992 L562.905,29.2942992 Z" id="Pressed" fill="#FFFFFF" opacity="0.900000036"></path>
            <path d="M715.49,17.7562992 C716.642006,17.7562992 717.610996,18.0412963 718.397,18.6112992 C719.183004,19.181302 719.770998,19.9432944 720.161,20.8972992 C720.551002,21.8513039 720.746,22.9042934 720.746,24.0562992 C720.746,25.2443051 720.551002,26.3122944 720.161,27.2602992 C719.770998,28.2083039 719.183004,28.9612964 718.397,29.5192992 C717.610996,30.077302 716.642006,30.3562992 715.49,30.3562992 L710.9,30.3562992 C710.743999,30.3562992 710.615001,30.3052997 710.513,30.2032992 C710.410999,30.1012987 710.36,29.9723 710.36,29.8162992 L710.36,18.2962992 C710.36,18.1402984 710.410999,18.0112997 710.513,17.9092992 C710.615001,17.8072987 710.743999,17.7562992 710.9,17.7562992 L715.49,17.7562992 Z M715.31,29.2942992 C716.750007,29.2942992 717.823996,28.811304 718.532,27.8452992 C719.240004,26.8792943 719.594,25.616307 719.594,24.0562992 C719.594,23.0842943 719.444002,22.2053031 719.144,21.4192992 C718.843999,20.6332952 718.373003,20.0033015 717.731,19.5292992 C717.088997,19.0552968 716.282005,18.8182992 715.31,18.8182992 L711.494,18.8182992 L711.494,29.2942992 L715.31,29.2942992 Z M724.436,29.7982992 C724.424,29.9543 724.364001,30.0862986 724.256,30.1942992 C724.147999,30.3022997 724.016001,30.3562992 723.86,30.3562992 C723.691999,30.3562992 723.557001,30.3052997 723.455,30.2032992 C723.352999,30.1012987 723.302,29.9663 723.302,29.7982992 L723.302,18.3142992 C723.302,18.1462983 723.355999,18.0112997 723.464,17.9092992 C723.572001,17.8072987 723.709999,17.7562992 723.878,17.7562992 C724.034001,17.7562992 724.165999,17.8102986 724.274,17.9182992 C724.382001,18.0262997 724.436,18.1582984 724.436,18.3142992 L724.436,29.7982992 Z M731.204,30.5362992 C730.339996,30.5362992 729.575003,30.3923006 728.909,30.1042992 C728.242997,29.8162977 727.598003,29.3663022 726.974,28.7542992 C726.829999,28.6342986 726.758,28.4903 726.758,28.3222992 C726.758,28.1782985 726.814999,28.0462998 726.929,27.9262992 C727.043001,27.8062986 727.171999,27.7462992 727.316,27.7462992 C727.460001,27.7462992 727.591999,27.8062986 727.712,27.9262992 C728.648005,28.9583043 729.817993,29.4742992 731.222,29.4742992 C732.086004,29.4742992 732.802997,29.2703012 733.373,28.8622992 C733.943003,28.4542971 734.228,27.9203025 734.228,27.2602992 C734.228,26.7442966 734.087001,26.3153009 733.805,25.9732992 C733.522999,25.6312975 733.154002,25.3523003 732.698,25.1362992 C732.241998,24.9202981 731.660004,24.6983003 730.952,24.4702992 C730.183996,24.242298 729.539003,23.9903006 729.017,23.7142992 C728.494997,23.4382978 728.072002,23.0693015 727.748,22.6072992 C727.423998,22.1452969 727.262,21.5603027 727.262,20.8522992 C727.262,20.216296 727.432998,19.6523016 727.775,19.1602992 C728.117002,18.6682967 728.596997,18.2813006 729.215,17.9992992 C729.833003,17.7172978 730.543996,17.5762992 731.348,17.5762992 C732.080004,17.5762992 732.766997,17.6992979 733.409,17.9452992 C734.051003,18.1913004 734.563998,18.5422969 734.948,18.9982992 C735.128001,19.2023002 735.218,19.3762985 735.218,19.5202992 C735.218,19.6522998 735.158001,19.7752986 735.038,19.8892992 C734.917999,20.0032997 734.786001,20.0602992 734.642,20.0602992 C734.521999,20.0602992 734.42,20.0182996 734.336,19.9342992 C734.011998,19.5502973 733.580003,19.2383004 733.04,18.9982992 C732.499997,18.758298 731.936003,18.6382992 731.348,18.6382992 C730.471996,18.6382992 729.758003,18.8332972 729.206,19.2232992 C728.653997,19.6133011 728.378,20.1442958 728.378,20.8162992 C728.378,21.5123027 728.641997,22.0462973 729.17,22.4182992 C729.698003,22.790301 730.453995,23.1322976 731.438,23.4442992 C732.290004,23.6963004 732.985997,23.9542979 733.526,24.2182992 C734.066003,24.4823005 734.506998,24.8572967 734.849,25.3432992 C735.191002,25.8293016 735.362,26.4682952 735.362,27.2602992 C735.362,27.8723022 735.185002,28.4272967 734.831,28.9252992 C734.476998,29.4233017 733.985003,29.8162977 733.355,30.1042992 C732.724997,30.3923006 732.008004,30.5362992 731.204,30.5362992 Z M747.314,29.6362992 C747.338,29.7322997 747.35,29.8042989 747.35,29.8522992 C747.35,30.0083 747.296001,30.1342987 747.188,30.2302992 C747.079999,30.3262997 746.954001,30.3742992 746.81,30.3742992 C746.689999,30.3742992 746.585,30.3412995 746.495,30.2752992 C746.405,30.2092988 746.336,30.1222997 746.288,30.0142992 L744.938,26.7202992 L739.088,26.7202992 L737.756,30.0142992 C737.66,30.2543004 737.498001,30.3742992 737.27,30.3742992 C737.101999,30.3742992 736.976,30.3322996 736.892,30.2482992 C736.808,30.1642988 736.76,30.0502999 736.748,29.9062992 L736.748,29.8522992 C736.748,29.7802988 736.754,29.7262994 736.766,29.6902992 L741.518,18.0622992 C741.614,17.822298 741.793999,17.7022992 742.058,17.7022992 C742.178001,17.7022992 742.283,17.7352988 742.373,17.8012992 C742.463,17.8672995 742.532,17.9542986 742.58,18.0622992 L747.314,29.6362992 Z M739.502,25.6582992 L744.506,25.6582992 L741.986,19.5022992 L739.502,25.6582992 Z M756.296,23.6602992 C757.016004,23.8403001 757.603998,24.2002965 758.06,24.7402992 C758.516002,25.2803019 758.744,25.9822949 758.744,26.8462992 C758.744,28.0223051 758.381004,28.9012963 757.655,29.4832992 C756.928996,30.0653021 756.026005,30.3562992 754.946,30.3562992 L750.104,30.3562992 C749.947999,30.3562992 749.819001,30.3052997 749.717,30.2032992 C749.614999,30.1012987 749.564,29.9723 749.564,29.8162992 L749.564,18.2962992 C749.564,18.1402984 749.614999,18.0112997 749.717,17.9092992 C749.819001,17.8072987 749.947999,17.7562992 750.104,17.7562992 L754.874,17.7562992 C755.882005,17.7562992 756.670997,18.0322964 757.241,18.5842992 C757.811003,19.1363019 758.096,19.8922944 758.096,20.8522992 C758.096,21.4883024 757.940002,22.0582967 757.628,22.5622992 C757.315998,23.0663017 756.872003,23.432298 756.296,23.6602992 Z M756.944,20.9422992 C756.944,20.2822959 756.749002,19.7633011 756.359,19.3852992 C755.968998,19.0072973 755.426003,18.8182992 754.73,18.8182992 L750.716,18.8182992 L750.716,23.3182992 L754.73,23.3182992 C755.378003,23.3062991 755.908998,23.0963012 756.323,22.6882992 C756.737002,22.2802971 756.944,21.698303 756.944,20.9422992 Z M754.892,29.2942992 C755.696004,29.2942992 756.346998,29.0903012 756.845,28.6822992 C757.343002,28.2742971 757.592,27.6623033 757.592,26.8462992 C757.592,26.006295 757.337003,25.3883012 756.827,24.9922992 C756.316997,24.5962972 755.660004,24.3982992 754.856,24.3982992 L750.716,24.3982992 L750.716,29.2942992 L754.892,29.2942992 Z M768.248,29.2942992 C768.404001,29.2942992 768.532999,29.3422987 768.635,29.4382992 C768.737001,29.5342997 768.788,29.6602984 768.788,29.8162992 C768.788,29.9723 768.737001,30.1012987 768.635,30.2032992 C768.532999,30.3052997 768.404001,30.3562992 768.248,30.3562992 L761.822,30.3562992 C761.665999,30.3562992 761.537001,30.3052997 761.435,30.2032992 C761.332999,30.1012987 761.282,29.9723 761.282,29.8162992 L761.282,18.2962992 C761.282,18.1402984 761.335999,18.0112997 761.444,17.9092992 C761.552001,17.8072987 761.689999,17.7562992 761.858,17.7562992 C762.014001,17.7562992 762.145999,17.8072987 762.254,17.9092992 C762.362001,18.0112997 762.416,18.1402984 762.416,18.2962992 L762.416,29.2942992 L768.248,29.2942992 Z M778.004,29.2942992 C778.160001,29.2942992 778.288999,29.3482986 778.391,29.4562992 C778.493001,29.5642997 778.544,29.6902985 778.544,29.8342992 C778.544,29.9903 778.493001,30.1162987 778.391,30.2122992 C778.288999,30.3082997 778.160001,30.3562992 778.004,30.3562992 L771.398,30.3562992 C771.241999,30.3562992 771.113001,30.3052997 771.011,30.2032992 C770.908999,30.1012987 770.858,29.9723 770.858,29.8162992 L770.858,18.2962992 C770.858,18.1402984 770.908999,18.0112997 771.011,17.9092992 C771.113001,17.8072987 771.241999,17.7562992 771.398,17.7562992 L778.004,17.7562992 C778.160001,17.7562992 778.288999,17.8072987 778.391,17.9092992 C778.493001,18.0112997 778.544,18.1402984 778.544,18.2962992 C778.544,18.4523 778.493001,18.5782987 778.391,18.6742992 C778.288999,18.7702997 778.160001,18.8182992 778.004,18.8182992 L771.992,18.8182992 L771.992,23.3362992 L777.194,23.3362992 C777.350001,23.3362992 777.478999,23.3872987 777.581,23.4892992 C777.683001,23.5912997 777.734,23.7202984 777.734,23.8762992 C777.734,24.0323 777.683001,24.1582987 777.581,24.2542992 C777.478999,24.3502997 777.350001,24.3982992 777.194,24.3982992 L771.992,24.3982992 L771.992,29.2942992 L778.004,29.2942992 Z M786.212,17.7562992 C787.364006,17.7562992 788.332996,18.0412963 789.119,18.6112992 C789.905004,19.181302 790.492998,19.9432944 790.883,20.8972992 C791.273002,21.8513039 791.468,22.9042934 791.468,24.0562992 C791.468,25.2443051 791.273002,26.3122944 790.883,27.2602992 C790.492998,28.2083039 789.905004,28.9612964 789.119,29.5192992 C788.332996,30.077302 787.364006,30.3562992 786.212,30.3562992 L781.622,30.3562992 C781.465999,30.3562992 781.337001,30.3052997 781.235,30.2032992 C781.132999,30.1012987 781.082,29.9723 781.082,29.8162992 L781.082,18.2962992 C781.082,18.1402984 781.132999,18.0112997 781.235,17.9092992 C781.337001,17.8072987 781.465999,17.7562992 781.622,17.7562992 L786.212,17.7562992 Z M786.032,29.2942992 C787.472007,29.2942992 788.545996,28.811304 789.254,27.8452992 C789.962004,26.8792943 790.316,25.616307 790.316,24.0562992 C790.316,23.0842943 790.166001,22.2053031 789.866,21.4192992 C789.565999,20.6332952 789.095003,20.0033015 788.453,19.5292992 C787.810997,19.0552968 787.004005,18.8182992 786.032,18.8182992 L782.216,18.8182992 L782.216,29.2942992 L786.032,29.2942992 Z" id="Disabled" fill="#FE9518"></path>
        </g>
    </g>
</svg>