<?xml version="1.0" encoding="UTF-8"?>
<svg width="848px" height="73px" viewBox="0 0 848 73" version="1.1" xmlns="http://www.w3.org/2000/svg" xmlns:xlink="http://www.w3.org/1999/xlink">
    <!-- Generator: Sketch 50.2 (55047) - http://www.bohemiancoding.com/sketch -->
    <title>buttons</title>
    <desc>Created with Sketch.</desc>
    <defs>
        <rect id="path-1" x="0.43134843" y="0.38674883" width="180" height="50" rx="25"></rect>
        <filter x="-8.9%" y="-22.0%" width="117.8%" height="164.0%" filterUnits="objectBoundingBox" id="filter-2">
            <feOffset dx="0" dy="1" in="SourceAlpha" result="shadowOffsetOuter1"></feOffset>
            <feGaussianBlur stdDeviation="1" in="shadowOffsetOuter1" result="shadowBlurOuter1"></feGaussianBlur>
            <feColorMatrix values="0 0 0 0 0   0 0 0 0 0   0 0 0 0 0  0 0 0 0.3 0" type="matrix" in="shadowBlurOuter1" result="shadowMatrixOuter1"></feColorMatrix>
            <feOffset dx="0" dy="4" in="SourceAlpha" result="shadowOffsetOuter2"></feOffset>
            <feGaussianBlur stdDeviation="4" in="shadowOffsetOuter2" result="shadowBlurOuter2"></feGaussianBlur>
            <feColorMatrix values="0 0 0 0 0   0 0 0 0 0   0 0 0 0 0  0 0 0 0.1 0" type="matrix" in="shadowBlurOuter2" result="shadowMatrixOuter2"></feColorMatrix>
            <feMerge>
                <feMergeNode in="shadowMatrixOuter1"></feMergeNode>
                <feMergeNode in="shadowMatrixOuter2"></feMergeNode>
            </feMerge>
        </filter>
        <rect id="path-3" x="220.431348" y="0.38674883" width="180" height="50" rx="25"></rect>
        <filter x="-13.9%" y="-36.0%" width="127.8%" height="200.0%" filterUnits="objectBoundingBox" id="filter-4">
            <feOffset dx="0" dy="1" in="SourceAlpha" result="shadowOffsetOuter1"></feOffset>
            <feGaussianBlur stdDeviation="2" in="shadowOffsetOuter1" result="shadowBlurOuter1"></feGaussianBlur>
            <feColorMatrix values="0 0 0 0 0   0 0 0 0 0   0 0 0 0 0  0 0 0 0.3 0" type="matrix" in="shadowBlurOuter1" result="shadowMatrixOuter1"></feColorMatrix>
            <feOffset dx="0" dy="6" in="SourceAlpha" result="shadowOffsetOuter2"></feOffset>
            <feGaussianBlur stdDeviation="6" in="shadowOffsetOuter2" result="shadowBlurOuter2"></feGaussianBlur>
            <feColorMatrix values="0 0 0 0 0   0 0 0 0 0   0 0 0 0 0  0 0 0 0.2 0" type="matrix" in="shadowBlurOuter2" result="shadowMatrixOuter2"></feColorMatrix>
            <feMerge>
                <feMergeNode in="shadowMatrixOuter1"></feMergeNode>
                <feMergeNode in="shadowMatrixOuter2"></feMergeNode>
            </feMerge>
        </filter>
        <rect id="path-5" x="440.431348" y="0.38674883" width="180" height="50" rx="25"></rect>
        <filter x="-5.6%" y="-14.0%" width="111.1%" height="140.0%" filterUnits="objectBoundingBox" id="filter-6">
            <feOffset dx="0" dy="1" in="SourceAlpha" result="shadowOffsetOuter1"></feOffset>
            <feGaussianBlur stdDeviation="1.5" in="shadowOffsetOuter1" result="shadowBlurOuter1"></feGaussianBlur>
            <feColorMatrix values="0 0 0 0 0   0 0 0 0 0   0 0 0 0 0  0 0 0 0.3 0" type="matrix" in="shadowBlurOuter1" result="shadowMatrixOuter1"></feColorMatrix>
            <feOffset dx="0" dy="2" in="SourceAlpha" result="shadowOffsetOuter2"></feOffset>
            <feGaussianBlur stdDeviation="2" in="shadowOffsetOuter2" result="shadowBlurOuter2"></feGaussianBlur>
            <feColorMatrix values="0 0 0 0 0   0 0 0 0 0   0 0 0 0 0  0 0 0 0.2 0" type="matrix" in="shadowBlurOuter2" result="shadowMatrixOuter2"></feColorMatrix>
            <feMerge>
                <feMergeNode in="shadowMatrixOuter1"></feMergeNode>
                <feMergeNode in="shadowMatrixOuter2"></feMergeNode>
            </feMerge>
        </filter>
    </defs>
    <g id="Branding" stroke="none" stroke-width="1" fill="none" fill-rule="evenodd">
        <g id="buttons" transform="translate(7.000000, 5.000000)">
            <g id="Rectangle-6-Copy-8">
                <use fill="black" fill-opacity="1" filter="url(#filter-2)" xlink:href="#path-1"></use>
                <use fill="#FE9518" fill-rule="evenodd" xlink:href="#path-1"></use>
            </g>
            <g id="Rectangle-6-Copy-9">
                <use fill="black" fill-opacity="1" filter="url(#filter-4)" xlink:href="#path-3"></use>
                <use fill="#FE9518" fill-rule="evenodd" xlink:href="#path-3"></use>
            </g>
            <rect id="Rectangle-6-Copy-10" fill-opacity="0.1" fill="#FFFFFF" x="220.431348" y="0.38674883" width="180" height="50" rx="25"></rect>
            <g id="Rectangle-6-Copy-11">
                <use fill="black" fill-opacity="1" filter="url(#filter-6)" xlink:href="#path-5"></use>
                <use fill="#FE9518" fill-rule="evenodd" xlink:href="#path-5"></use>
            </g>
            <rect id="Rectangle-6-Copy-12" fill-opacity="0.204285553" fill="#000000" x="440.431348" y="0.38674883" width="180" height="50" rx="25"></rect>
            <rect id="Rectangle-6-Copy-13" fill="#FE9518" opacity="0.300000012" x="660.431348" y="0.38674883" width="180" height="50" rx="25"></rect>
            <path d="M59.5213484,17.7867488 C60.6733542,17.7867488 61.6423445,18.071746 62.4283484,18.6417488 C63.2143524,19.2117517 63.8023465,19.9737441 64.1923484,20.9277488 C64.5823504,21.8817536 64.7773484,22.9347431 64.7773484,24.0867488 C64.7773484,25.2747548 64.5823504,26.3427441 64.1923484,27.2907488 C63.8023465,28.2387536 63.2143524,28.991746 62.4283484,29.5497488 C61.6423445,30.1077516 60.6733542,30.3867488 59.5213484,30.3867488 L54.9313484,30.3867488 C54.7753476,30.3867488 54.6463489,30.3357493 54.5443484,30.2337488 C54.4423479,30.1317483 54.3913484,30.0027496 54.3913484,29.8467488 L54.3913484,18.3267488 C54.3913484,18.1707481 54.4423479,18.0417493 54.5443484,17.9397488 C54.6463489,17.8377483 54.7753476,17.7867488 54.9313484,17.7867488 L59.5213484,17.7867488 Z M59.3413484,29.3247488 C60.7813556,29.3247488 61.8553449,28.8417537 62.5633484,27.8757488 C63.271352,26.909744 63.6253484,25.6467566 63.6253484,24.0867488 C63.6253484,23.114744 63.4753499,22.2357528 63.1753484,21.4497488 C62.8753469,20.6637449 62.4043516,20.0337512 61.7623484,19.5597488 C61.1203452,19.0857465 60.3133533,18.8487488 59.3413484,18.8487488 L55.5253484,18.8487488 L55.5253484,29.3247488 L59.3413484,29.3247488 Z M74.4793484,29.3247488 C74.6353492,29.3247488 74.7643479,29.3787483 74.8663484,29.4867488 C74.9683489,29.5947494 75.0193484,29.7207481 75.0193484,29.8647488 C75.0193484,30.0207496 74.9683489,30.1467484 74.8663484,30.2427488 C74.7643479,30.3387493 74.6353492,30.3867488 74.4793484,30.3867488 L67.8733484,30.3867488 C67.7173476,30.3867488 67.5883489,30.3357493 67.4863484,30.2337488 C67.3843479,30.1317483 67.3333484,30.0027496 67.3333484,29.8467488 L67.3333484,18.3267488 C67.3333484,18.1707481 67.3843479,18.0417493 67.4863484,17.9397488 C67.5883489,17.8377483 67.7173476,17.7867488 67.8733484,17.7867488 L74.4793484,17.7867488 C74.6353492,17.7867488 74.7643479,17.8377483 74.8663484,17.9397488 C74.9683489,18.0417493 75.0193484,18.1707481 75.0193484,18.3267488 C75.0193484,18.4827496 74.9683489,18.6087484 74.8663484,18.7047488 C74.7643479,18.8007493 74.6353492,18.8487488 74.4793484,18.8487488 L68.4673484,18.8487488 L68.4673484,23.3667488 L73.6693484,23.3667488 C73.8253492,23.3667488 73.9543479,23.4177483 74.0563484,23.5197488 C74.1583489,23.6217493 74.2093484,23.7507481 74.2093484,23.9067488 C74.2093484,24.0627496 74.1583489,24.1887484 74.0563484,24.2847488 C73.9543479,24.3807493 73.8253492,24.4287488 73.6693484,24.4287488 L68.4673484,24.4287488 L68.4673484,29.3247488 L74.4793484,29.3247488 Z M84.6493484,17.7867488 C84.8053492,17.7867488 84.9343479,17.8377483 85.0363484,17.9397488 C85.1383489,18.0417493 85.1893484,18.1707481 85.1893484,18.3267488 C85.1893484,18.4707496 85.1383489,18.5937483 85.0363484,18.6957488 C84.9343479,18.7977493 84.8053492,18.8487488 84.6493484,18.8487488 L78.6553484,18.8487488 L78.6553484,23.3667488 L83.8393484,23.3667488 C83.9953492,23.3667488 84.1243479,23.4147484 84.2263484,23.5107488 C84.3283489,23.6067493 84.3793484,23.7327481 84.3793484,23.8887488 C84.3793484,24.0447496 84.3283489,24.1707484 84.2263484,24.2667488 C84.1243479,24.3627493 83.9953492,24.4107488 83.8393484,24.4107488 L78.6553484,24.4107488 L78.6553484,29.8467488 C78.6553484,30.0027496 78.6043489,30.1317483 78.5023484,30.2337488 C78.4003479,30.3357493 78.2713492,30.3867488 78.1153484,30.3867488 C77.9473476,30.3867488 77.8123489,30.3357493 77.7103484,30.2337488 C77.6083479,30.1317483 77.5573484,30.0027496 77.5573484,29.8467488 L77.5573484,18.3267488 C77.5573484,18.1707481 77.6083479,18.0417493 77.7103484,17.9397488 C77.8123489,17.8377483 77.9413476,17.7867488 78.0973484,17.7867488 L84.6493484,17.7867488 Z M96.5653484,29.6667488 C96.5893485,29.7627493 96.6013484,29.8347486 96.6013484,29.8827488 C96.6013484,30.0387496 96.547349,30.1647484 96.4393484,30.2607488 C96.3313479,30.3567493 96.2053491,30.4047488 96.0613484,30.4047488 C95.9413478,30.4047488 95.8363489,30.3717492 95.7463484,30.3057488 C95.656348,30.2397485 95.5873487,30.1527494 95.5393484,30.0447488 L94.1893484,26.7507488 L88.3393484,26.7507488 L87.0073484,30.0447488 C86.9113479,30.28475 86.7493496,30.4047488 86.5213484,30.4047488 C86.3533476,30.4047488 86.2273488,30.3627493 86.1433484,30.2787488 C86.059348,30.1947484 86.0113485,30.0807496 85.9993484,29.9367488 L85.9993484,29.8827488 C85.9993484,29.8107485 86.0053484,29.756749 86.0173484,29.7207488 L90.7693484,18.0927488 C90.8653489,17.8527476 91.0453471,17.7327488 91.3093484,17.7327488 C91.429349,17.7327488 91.534348,17.7657485 91.6243484,17.8317488 C91.7143489,17.8977492 91.7833482,17.9847483 91.8313484,18.0927488 L96.5653484,29.6667488 Z M88.7533484,25.6887488 L93.7573484,25.6887488 L91.2373484,19.5327488 L88.7533484,25.6887488 Z M107.545348,17.7867488 C107.701349,17.7867488 107.830348,17.8377483 107.932348,17.9397488 C108.034349,18.0417493 108.085348,18.1707481 108.085348,18.3267488 L108.085348,25.7787488 C108.085348,26.6547532 107.875351,27.4587452 107.455348,28.1907488 C107.035346,28.9227525 106.465352,29.4987467 105.745348,29.9187488 C105.025345,30.3387509 104.233353,30.5487488 103.369348,30.5487488 C102.493344,30.5487488 101.695352,30.3387509 100.975348,29.9187488 C100.255345,29.4987467 99.6853505,28.9227525 99.2653484,28.1907488 C98.8453463,27.4587452 98.6353484,26.6547532 98.6353484,25.7787488 L98.6353484,18.3267488 C98.6353484,18.1707481 98.6863479,18.0417493 98.7883484,17.9397488 C98.8903489,17.8377483 99.0313475,17.7867488 99.2113484,17.7867488 C99.3553491,17.7867488 99.4813479,17.8377483 99.5893484,17.9397488 C99.697349,18.0417493 99.7513484,18.1707481 99.7513484,18.3267488 L99.7513484,25.7787488 C99.7513484,26.4507522 99.9133468,27.068746 100.237348,27.6327488 C100.56135,28.1967517 101.002346,28.6437472 101.560348,28.9737488 C102.118351,29.3037505 102.721345,29.4687488 103.369348,29.4687488 C104.029352,29.4687488 104.638346,29.3037505 105.196348,28.9737488 C105.754351,28.6437472 106.198347,28.1967517 106.528348,27.6327488 C106.85835,27.068746 107.023348,26.4507522 107.023348,25.7787488 L107.023348,18.3267488 C107.023348,18.1707481 107.071348,18.0417493 107.167348,17.9397488 C107.263349,17.8377483 107.389348,17.7867488 107.545348,17.7867488 Z M118.435348,29.3247488 C118.591349,29.3247488 118.720348,29.3727484 118.822348,29.4687488 C118.924349,29.5647493 118.975348,29.6907481 118.975348,29.8467488 C118.975348,30.0027496 118.924349,30.1317483 118.822348,30.2337488 C118.720348,30.3357493 118.591349,30.3867488 118.435348,30.3867488 L112.009348,30.3867488 C111.853348,30.3867488 111.724349,30.3357493 111.622348,30.2337488 C111.520348,30.1317483 111.469348,30.0027496 111.469348,29.8467488 L111.469348,18.3267488 C111.469348,18.1707481 111.523348,18.0417493 111.631348,17.9397488 C111.739349,17.8377483 111.877348,17.7867488 112.045348,17.7867488 C112.201349,17.7867488 112.333348,17.8377483 112.441348,17.9397488 C112.549349,18.0417493 112.603348,18.1707481 112.603348,18.3267488 L112.603348,29.3247488 L118.435348,29.3247488 Z M128.011348,17.7867488 C128.167349,17.7867488 128.296348,17.8347484 128.398348,17.9307488 C128.500349,18.0267493 128.551348,18.1527481 128.551348,18.3087488 C128.551348,18.4647496 128.500349,18.5877484 128.398348,18.6777488 C128.296348,18.7677493 128.167349,18.8127488 128.011348,18.8127488 L124.285348,18.8127488 L124.285348,29.8467488 C124.285348,30.0027496 124.231349,30.1317483 124.123348,30.2337488 C124.015348,30.3357493 123.883349,30.3867488 123.727348,30.3867488 C123.559348,30.3867488 123.424349,30.3357493 123.322348,30.2337488 C123.220348,30.1317483 123.169348,30.0027496 123.169348,29.8467488 L123.169348,18.8127488 L119.443348,18.8127488 C119.287348,18.8127488 119.158349,18.7647493 119.056348,18.6687488 C118.954348,18.5727484 118.903348,18.4467496 118.903348,18.2907488 C118.903348,18.1467481 118.954348,18.0267493 119.056348,17.9307488 C119.158349,17.8347484 119.287348,17.7867488 119.443348,17.7867488 L128.011348,17.7867488 Z" id="Default-Copy-2" fill="#FFFFFF"></path>
            <path d="M291.739348,17.7867488 C291.907349,17.7867488 292.042348,17.8377483 292.144348,17.9397488 C292.246349,18.0417493 292.297348,18.176748 292.297348,18.3447488 L292.297348,29.8287488 C292.285348,29.9967497 292.225349,30.1317483 292.117348,30.2337488 C292.009348,30.3357493 291.877349,30.3867488 291.721348,30.3867488 C291.565348,30.3867488 291.433349,30.3327494 291.325348,30.2247488 C291.217348,30.1167483 291.163348,29.9847496 291.163348,29.8287488 L291.163348,24.4647488 L283.855348,24.4647488 L283.855348,29.8287488 C283.843348,29.9847496 283.783349,30.1167483 283.675348,30.2247488 C283.567348,30.3327494 283.435349,30.3867488 283.279348,30.3867488 C283.111348,30.3867488 282.976349,30.3357493 282.874348,30.2337488 C282.772348,30.1317483 282.721348,29.9967497 282.721348,29.8287488 L282.721348,18.3447488 C282.721348,18.176748 282.775348,18.0417493 282.883348,17.9397488 C282.991349,17.8377483 283.129348,17.7867488 283.297348,17.7867488 C283.453349,17.7867488 283.585348,17.8407483 283.693348,17.9487488 C283.801349,18.0567494 283.855348,18.1887481 283.855348,18.3447488 L283.855348,23.4207488 L291.163348,23.4207488 L291.163348,18.3447488 C291.163348,18.1887481 291.220348,18.0567494 291.334348,17.9487488 C291.448349,17.8407483 291.583348,17.7867488 291.739348,17.7867488 Z M306.913348,24.0867488 C306.913348,25.322755 306.655351,26.4327439 306.139348,27.4167488 C305.623346,28.4007538 304.909353,29.171746 303.997348,29.7297488 C303.085344,30.2877516 302.047354,30.5667488 300.883348,30.5667488 C299.719343,30.5667488 298.681353,30.2877516 297.769348,29.7297488 C296.857344,29.171746 296.143351,28.4007538 295.627348,27.4167488 C295.111346,26.4327439 294.853348,25.322755 294.853348,24.0867488 C294.853348,22.8387426 295.111346,21.7227538 295.627348,20.7387488 C296.143351,19.7547439 296.857344,18.9867516 297.769348,18.4347488 C298.681353,17.8827461 299.719343,17.6067488 300.883348,17.6067488 C302.047354,17.6067488 303.085344,17.8827461 303.997348,18.4347488 C304.909353,18.9867516 305.623346,19.7547439 306.139348,20.7387488 C306.655351,21.7227538 306.913348,22.8387426 306.913348,24.0867488 Z M305.761348,24.0867488 C305.761348,23.0427436 305.55435,22.1097529 305.140348,21.2877488 C304.726346,20.4657447 304.150352,19.8267511 303.412348,19.3707488 C302.674345,18.9147466 301.831353,18.6867488 300.883348,18.6867488 C299.935344,18.6867488 299.092352,18.9147466 298.354348,19.3707488 C297.616345,19.8267511 297.04035,20.4657447 296.626348,21.2877488 C296.212346,22.1097529 296.005348,23.0427436 296.005348,24.0867488 C296.005348,25.1307541 296.212346,26.0637447 296.626348,26.8857488 C297.04035,27.7077529 297.616345,28.3467466 298.354348,28.8027488 C299.092352,29.2587511 299.935344,29.4867488 300.883348,29.4867488 C301.831353,29.4867488 302.674345,29.2587511 303.412348,28.8027488 C304.150352,28.3467466 304.726346,27.7077529 305.140348,26.8857488 C305.55435,26.0637447 305.761348,25.1307541 305.761348,24.0867488 Z M318.379348,17.7687488 C318.535349,17.7687488 318.667348,17.8197483 318.775348,17.9217488 C318.883349,18.0237493 318.937348,18.1407482 318.937348,18.2727488 C318.937348,18.3567493 318.919349,18.4467484 318.883348,18.5427488 L314.077348,30.0267488 C314.029348,30.1347494 313.957349,30.2217485 313.861348,30.2877488 C313.765348,30.3537492 313.663349,30.3867488 313.555348,30.3867488 C313.447348,30.3867488 313.348349,30.3567491 313.258348,30.2967488 C313.168348,30.2367485 313.099349,30.1527494 313.051348,30.0447488 L308.263348,18.5787488 C308.227348,18.5067485 308.209348,18.4107494 308.209348,18.2907488 C308.209348,18.1347481 308.263348,18.0087493 308.371348,17.9127488 C308.479349,17.8167484 308.599348,17.7687488 308.731348,17.7687488 C308.98335,17.7687488 309.163348,17.9007475 309.271348,18.1647488 L313.609348,28.5327488 L317.875348,18.1287488 C317.935349,18.0207483 318.010348,17.9337492 318.100348,17.8677488 C318.190349,17.8017485 318.283348,17.7687488 318.379348,17.7687488 Z M328.387348,29.3247488 C328.543349,29.3247488 328.672348,29.3787483 328.774348,29.4867488 C328.876349,29.5947494 328.927348,29.7207481 328.927348,29.8647488 C328.927348,30.0207496 328.876349,30.1467484 328.774348,30.2427488 C328.672348,30.3387493 328.543349,30.3867488 328.387348,30.3867488 L321.781348,30.3867488 C321.625348,30.3867488 321.496349,30.3357493 321.394348,30.2337488 C321.292348,30.1317483 321.241348,30.0027496 321.241348,29.8467488 L321.241348,18.3267488 C321.241348,18.1707481 321.292348,18.0417493 321.394348,17.9397488 C321.496349,17.8377483 321.625348,17.7867488 321.781348,17.7867488 L328.387348,17.7867488 C328.543349,17.7867488 328.672348,17.8377483 328.774348,17.9397488 C328.876349,18.0417493 328.927348,18.1707481 328.927348,18.3267488 C328.927348,18.4827496 328.876349,18.6087484 328.774348,18.7047488 C328.672348,18.8007493 328.543349,18.8487488 328.387348,18.8487488 L322.375348,18.8487488 L322.375348,23.3667488 L327.577348,23.3667488 C327.733349,23.3667488 327.862348,23.4177483 327.964348,23.5197488 C328.066349,23.6217493 328.117348,23.7507481 328.117348,23.9067488 C328.117348,24.0627496 328.066349,24.1887484 327.964348,24.2847488 C327.862348,24.3807493 327.733349,24.4287488 327.577348,24.4287488 L322.375348,24.4287488 L322.375348,29.3247488 L328.387348,29.3247488 Z M340.663348,29.4147488 C340.843349,29.5347494 340.933348,29.6847479 340.933348,29.8647488 C340.933348,29.9247491 340.909349,30.0027484 340.861348,30.0987488 C340.813348,30.1827493 340.747349,30.2487486 340.663348,30.2967488 C340.579348,30.3447491 340.489349,30.3687488 340.393348,30.3687488 C340.273348,30.3687488 340.171349,30.3447491 340.087348,30.2967488 C339.751347,30.1047479 339.481349,29.792751 339.277348,29.3607488 C339.073347,28.9287467 338.971348,28.2387536 338.971348,27.2907488 C338.971348,26.4507446 338.737351,25.8597505 338.269348,25.5177488 C337.801346,25.1757471 337.243352,25.0047488 336.595348,25.0047488 L332.599348,25.0047488 L332.599348,29.8467488 C332.599348,30.0027496 332.551349,30.1317483 332.455348,30.2337488 C332.359348,30.3357493 332.233349,30.3867488 332.077348,30.3867488 C331.909348,30.3867488 331.765349,30.3357493 331.645348,30.2337488 C331.525348,30.1317483 331.465348,30.0027496 331.465348,29.8467488 L331.465348,18.3267488 C331.465348,18.1707481 331.516348,18.0417493 331.618348,17.9397488 C331.720349,17.8377483 331.849348,17.7867488 332.005348,17.7867488 L336.865348,17.7867488 C337.549352,17.7867488 338.161346,17.9337474 338.701348,18.2277488 C339.241351,18.5217503 339.664347,18.9267463 339.970348,19.4427488 C340.27635,19.9587514 340.429348,20.5407456 340.429348,21.1887488 C340.429348,21.9567527 340.22835,22.6317459 339.826348,23.2137488 C339.424346,23.7957517 338.899352,24.1947478 338.251348,24.4107488 C338.779351,24.6147499 339.211347,24.9597464 339.547348,25.4457488 C339.88335,25.9317513 340.057348,26.5227454 340.069348,27.2187488 C340.081348,27.9627526 340.132348,28.4847473 340.222348,28.7847488 C340.312349,29.0847503 340.459347,29.2947482 340.663348,29.4147488 Z M336.919348,24.0147488 C337.339351,23.9787487 337.729347,23.84075 338.089348,23.6007488 C338.44935,23.3607476 338.737347,23.0367509 338.953348,22.6287488 C339.16935,22.2207468 339.277348,21.7527515 339.277348,21.2247488 C339.277348,20.5407454 339.046351,19.9737511 338.584348,19.5237488 C338.122346,19.0737466 337.519352,18.8487488 336.775348,18.8487488 L332.599348,18.8487488 L332.599348,24.0147488 L336.919348,24.0147488 Z" id="Hover-Copy-2" fill="#FFFFFF"></path>
            <path d="M499.224348,17.7867488 C499.884352,17.7867488 500.478346,17.9397473 501.006348,18.2457488 C501.534351,18.5517504 501.945347,18.9777461 502.239348,19.5237488 C502.53335,20.0697516 502.680348,20.6847454 502.680348,21.3687488 C502.680348,22.0527523 502.53335,22.676746 502.239348,23.2407488 C501.945347,23.8047517 501.534351,24.2487472 501.006348,24.5727488 C500.478346,24.8967505 499.884352,25.0587488 499.224348,25.0587488 L495.498348,25.0587488 L495.498348,29.8467488 C495.498348,30.0027496 495.447349,30.1317483 495.345348,30.2337488 C495.243348,30.3357493 495.114349,30.3867488 494.958348,30.3867488 C494.802348,30.3867488 494.673349,30.3357493 494.571348,30.2337488 C494.469348,30.1317483 494.418348,30.0027496 494.418348,29.8467488 L494.418348,18.3267488 C494.418348,18.1707481 494.469348,18.0417493 494.571348,17.9397488 C494.673349,17.8377483 494.802348,17.7867488 494.958348,17.7867488 L499.224348,17.7867488 Z M499.224348,24.0147488 C499.920352,24.0147488 500.484346,23.7627514 500.916348,23.2587488 C501.348351,22.7547463 501.564348,22.1247526 501.564348,21.3687488 C501.564348,20.6247451 501.348351,20.0187512 500.916348,19.5507488 C500.484346,19.0827465 499.920352,18.8487488 499.224348,18.8487488 L495.498348,18.8487488 L495.498348,24.0147488 L499.224348,24.0147488 Z M514.344348,29.4147488 C514.524349,29.5347494 514.614348,29.6847479 514.614348,29.8647488 C514.614348,29.9247491 514.590349,30.0027484 514.542348,30.0987488 C514.494348,30.1827493 514.428349,30.2487486 514.344348,30.2967488 C514.260348,30.3447491 514.170349,30.3687488 514.074348,30.3687488 C513.954348,30.3687488 513.852349,30.3447491 513.768348,30.2967488 C513.432347,30.1047479 513.162349,29.792751 512.958348,29.3607488 C512.754347,28.9287467 512.652348,28.2387536 512.652348,27.2907488 C512.652348,26.4507446 512.418351,25.8597505 511.950348,25.5177488 C511.482346,25.1757471 510.924352,25.0047488 510.276348,25.0047488 L506.280348,25.0047488 L506.280348,29.8467488 C506.280348,30.0027496 506.232349,30.1317483 506.136348,30.2337488 C506.040348,30.3357493 505.914349,30.3867488 505.758348,30.3867488 C505.590348,30.3867488 505.446349,30.3357493 505.326348,30.2337488 C505.206348,30.1317483 505.146348,30.0027496 505.146348,29.8467488 L505.146348,18.3267488 C505.146348,18.1707481 505.197348,18.0417493 505.299348,17.9397488 C505.401349,17.8377483 505.530348,17.7867488 505.686348,17.7867488 L510.546348,17.7867488 C511.230352,17.7867488 511.842346,17.9337474 512.382348,18.2277488 C512.922351,18.5217503 513.345347,18.9267463 513.651348,19.4427488 C513.95735,19.9587514 514.110348,20.5407456 514.110348,21.1887488 C514.110348,21.9567527 513.90935,22.6317459 513.507348,23.2137488 C513.105346,23.7957517 512.580352,24.1947478 511.932348,24.4107488 C512.460351,24.6147499 512.892347,24.9597464 513.228348,25.4457488 C513.56435,25.9317513 513.738348,26.5227454 513.750348,27.2187488 C513.762348,27.9627526 513.813348,28.4847473 513.903348,28.7847488 C513.993349,29.0847503 514.140347,29.2947482 514.344348,29.4147488 Z M510.600348,24.0147488 C511.020351,23.9787487 511.410347,23.84075 511.770348,23.6007488 C512.13035,23.3607476 512.418347,23.0367509 512.634348,22.6287488 C512.85035,22.2207468 512.958348,21.7527515 512.958348,21.2247488 C512.958348,20.5407454 512.727351,19.9737511 512.265348,19.5237488 C511.803346,19.0737466 511.200352,18.8487488 510.456348,18.8487488 L506.280348,18.8487488 L506.280348,24.0147488 L510.600348,24.0147488 Z M524.352348,29.3247488 C524.508349,29.3247488 524.637348,29.3787483 524.739348,29.4867488 C524.841349,29.5947494 524.892348,29.7207481 524.892348,29.8647488 C524.892348,30.0207496 524.841349,30.1467484 524.739348,30.2427488 C524.637348,30.3387493 524.508349,30.3867488 524.352348,30.3867488 L517.746348,30.3867488 C517.590348,30.3867488 517.461349,30.3357493 517.359348,30.2337488 C517.257348,30.1317483 517.206348,30.0027496 517.206348,29.8467488 L517.206348,18.3267488 C517.206348,18.1707481 517.257348,18.0417493 517.359348,17.9397488 C517.461349,17.8377483 517.590348,17.7867488 517.746348,17.7867488 L524.352348,17.7867488 C524.508349,17.7867488 524.637348,17.8377483 524.739348,17.9397488 C524.841349,18.0417493 524.892348,18.1707481 524.892348,18.3267488 C524.892348,18.4827496 524.841349,18.6087484 524.739348,18.7047488 C524.637348,18.8007493 524.508349,18.8487488 524.352348,18.8487488 L518.340348,18.8487488 L518.340348,23.3667488 L523.542348,23.3667488 C523.698349,23.3667488 523.827348,23.4177483 523.929348,23.5197488 C524.031349,23.6217493 524.082348,23.7507481 524.082348,23.9067488 C524.082348,24.0627496 524.031349,24.1887484 523.929348,24.2847488 C523.827348,24.3807493 523.698349,24.4287488 523.542348,24.4287488 L518.340348,24.4287488 L518.340348,29.3247488 L524.352348,29.3247488 Z M530.832348,30.5667488 C529.968344,30.5667488 529.203352,30.4227503 528.537348,30.1347488 C527.871345,29.8467474 527.226352,29.3967519 526.602348,28.7847488 C526.458348,28.6647482 526.386348,28.5207497 526.386348,28.3527488 C526.386348,28.2087481 526.443348,28.0767494 526.557348,27.9567488 C526.671349,27.8367482 526.800348,27.7767488 526.944348,27.7767488 C527.088349,27.7767488 527.220348,27.8367482 527.340348,27.9567488 C528.276353,28.988754 529.446341,29.5047488 530.850348,29.5047488 C531.714353,29.5047488 532.431346,29.3007509 533.001348,28.8927488 C533.571351,28.4847468 533.856348,27.9507521 533.856348,27.2907488 C533.856348,26.7747463 533.71535,26.3457505 533.433348,26.0037488 C533.151347,25.6617471 532.782351,25.3827499 532.326348,25.1667488 C531.870346,24.9507478 531.288352,24.72875 530.580348,24.5007488 C529.812345,24.2727477 529.167351,24.0207502 528.645348,23.7447488 C528.123346,23.4687475 527.70035,23.0997511 527.376348,22.6377488 C527.052347,22.1757465 526.890348,21.5907524 526.890348,20.8827488 C526.890348,20.2467457 527.061347,19.6827513 527.403348,19.1907488 C527.74535,18.6987464 528.225345,18.3117502 528.843348,18.0297488 C529.461352,17.7477474 530.172344,17.6067488 530.976348,17.6067488 C531.708352,17.6067488 532.395345,17.7297476 533.037348,17.9757488 C533.679352,18.2217501 534.192347,18.5727466 534.576348,19.0287488 C534.756349,19.2327499 534.846348,19.4067481 534.846348,19.5507488 C534.846348,19.6827495 534.786349,19.8057483 534.666348,19.9197488 C534.546348,20.0337494 534.414349,20.0907488 534.270348,20.0907488 C534.150348,20.0907488 534.048349,20.0487493 533.964348,19.9647488 C533.640347,19.5807469 533.208351,19.26875 532.668348,19.0287488 C532.128346,18.7887476 531.564351,18.6687488 530.976348,18.6687488 C530.100344,18.6687488 529.386351,18.8637469 528.834348,19.2537488 C528.282346,19.6437508 528.006348,20.1747455 528.006348,20.8467488 C528.006348,21.5427523 528.270346,22.076747 528.798348,22.4487488 C529.326351,22.8207507 530.082344,23.1627473 531.066348,23.4747488 C531.918353,23.7267501 532.614346,23.9847475 533.154348,24.2487488 C533.694351,24.5127502 534.135347,24.8877464 534.477348,25.3737488 C534.81935,25.8597513 534.990348,26.4987449 534.990348,27.2907488 C534.990348,27.9027519 534.81335,28.4577463 534.459348,28.9557488 C534.105347,29.4537513 533.613352,29.8467474 532.983348,30.1347488 C532.353345,30.4227503 531.636352,30.5667488 530.832348,30.5667488 Z M540.948348,30.5667488 C540.084344,30.5667488 539.319352,30.4227503 538.653348,30.1347488 C537.987345,29.8467474 537.342352,29.3967519 536.718348,28.7847488 C536.574348,28.6647482 536.502348,28.5207497 536.502348,28.3527488 C536.502348,28.2087481 536.559348,28.0767494 536.673348,27.9567488 C536.787349,27.8367482 536.916348,27.7767488 537.060348,27.7767488 C537.204349,27.7767488 537.336348,27.8367482 537.456348,27.9567488 C538.392353,28.988754 539.562341,29.5047488 540.966348,29.5047488 C541.830353,29.5047488 542.547346,29.3007509 543.117348,28.8927488 C543.687351,28.4847468 543.972348,27.9507521 543.972348,27.2907488 C543.972348,26.7747463 543.83135,26.3457505 543.549348,26.0037488 C543.267347,25.6617471 542.898351,25.3827499 542.442348,25.1667488 C541.986346,24.9507478 541.404352,24.72875 540.696348,24.5007488 C539.928345,24.2727477 539.283351,24.0207502 538.761348,23.7447488 C538.239346,23.4687475 537.81635,23.0997511 537.492348,22.6377488 C537.168347,22.1757465 537.006348,21.5907524 537.006348,20.8827488 C537.006348,20.2467457 537.177347,19.6827513 537.519348,19.1907488 C537.86135,18.6987464 538.341345,18.3117502 538.959348,18.0297488 C539.577352,17.7477474 540.288344,17.6067488 541.092348,17.6067488 C541.824352,17.6067488 542.511345,17.7297476 543.153348,17.9757488 C543.795352,18.2217501 544.308347,18.5727466 544.692348,19.0287488 C544.872349,19.2327499 544.962348,19.4067481 544.962348,19.5507488 C544.962348,19.6827495 544.902349,19.8057483 544.782348,19.9197488 C544.662348,20.0337494 544.530349,20.0907488 544.386348,20.0907488 C544.266348,20.0907488 544.164349,20.0487493 544.080348,19.9647488 C543.756347,19.5807469 543.324351,19.26875 542.784348,19.0287488 C542.244346,18.7887476 541.680351,18.6687488 541.092348,18.6687488 C540.216344,18.6687488 539.502351,18.8637469 538.950348,19.2537488 C538.398346,19.6437508 538.122348,20.1747455 538.122348,20.8467488 C538.122348,21.5427523 538.386346,22.076747 538.914348,22.4487488 C539.442351,22.8207507 540.198344,23.1627473 541.182348,23.4747488 C542.034353,23.7267501 542.730346,23.9847475 543.270348,24.2487488 C543.810351,24.5127502 544.251347,24.8877464 544.593348,25.3737488 C544.93535,25.8597513 545.106348,26.4987449 545.106348,27.2907488 C545.106348,27.9027519 544.92935,28.4577463 544.575348,28.9557488 C544.221347,29.4537513 543.729352,29.8467474 543.099348,30.1347488 C542.469345,30.4227503 541.752352,30.5667488 540.948348,30.5667488 Z M554.808348,29.3247488 C554.964349,29.3247488 555.093348,29.3787483 555.195348,29.4867488 C555.297349,29.5947494 555.348348,29.7207481 555.348348,29.8647488 C555.348348,30.0207496 555.297349,30.1467484 555.195348,30.2427488 C555.093348,30.3387493 554.964349,30.3867488 554.808348,30.3867488 L548.202348,30.3867488 C548.046348,30.3867488 547.917349,30.3357493 547.815348,30.2337488 C547.713348,30.1317483 547.662348,30.0027496 547.662348,29.8467488 L547.662348,18.3267488 C547.662348,18.1707481 547.713348,18.0417493 547.815348,17.9397488 C547.917349,17.8377483 548.046348,17.7867488 548.202348,17.7867488 L554.808348,17.7867488 C554.964349,17.7867488 555.093348,17.8377483 555.195348,17.9397488 C555.297349,18.0417493 555.348348,18.1707481 555.348348,18.3267488 C555.348348,18.4827496 555.297349,18.6087484 555.195348,18.7047488 C555.093348,18.8007493 554.964349,18.8487488 554.808348,18.8487488 L548.796348,18.8487488 L548.796348,23.3667488 L553.998348,23.3667488 C554.154349,23.3667488 554.283348,23.4177483 554.385348,23.5197488 C554.487349,23.6217493 554.538348,23.7507481 554.538348,23.9067488 C554.538348,24.0627496 554.487349,24.1887484 554.385348,24.2847488 C554.283348,24.3807493 554.154349,24.4287488 553.998348,24.4287488 L548.796348,24.4287488 L548.796348,29.3247488 L554.808348,29.3247488 Z M563.016348,17.7867488 C564.168354,17.7867488 565.137344,18.071746 565.923348,18.6417488 C566.709352,19.2117517 567.297346,19.9737441 567.687348,20.9277488 C568.07735,21.8817536 568.272348,22.9347431 568.272348,24.0867488 C568.272348,25.2747548 568.07735,26.3427441 567.687348,27.2907488 C567.297346,28.2387536 566.709352,28.991746 565.923348,29.5497488 C565.137344,30.1077516 564.168354,30.3867488 563.016348,30.3867488 L558.426348,30.3867488 C558.270348,30.3867488 558.141349,30.3357493 558.039348,30.2337488 C557.937348,30.1317483 557.886348,30.0027496 557.886348,29.8467488 L557.886348,18.3267488 C557.886348,18.1707481 557.937348,18.0417493 558.039348,17.9397488 C558.141349,17.8377483 558.270348,17.7867488 558.426348,17.7867488 L563.016348,17.7867488 Z M562.836348,29.3247488 C564.276356,29.3247488 565.350345,28.8417537 566.058348,27.8757488 C566.766352,26.909744 567.120348,25.6467566 567.120348,24.0867488 C567.120348,23.114744 566.97035,22.2357528 566.670348,21.4497488 C566.370347,20.6637449 565.899352,20.0337512 565.257348,19.5597488 C564.615345,19.0857465 563.808353,18.8487488 562.836348,18.8487488 L559.020348,18.8487488 L559.020348,29.3247488 L562.836348,29.3247488 Z" id="Pressed-Copy-2" fill="#FFFFFF" opacity="0.900000036"></path>
            <path d="M715.421348,17.7867488 C716.573354,17.7867488 717.542344,18.071746 718.328348,18.6417488 C719.114352,19.2117517 719.702346,19.9737441 720.092348,20.9277488 C720.48235,21.8817536 720.677348,22.9347431 720.677348,24.0867488 C720.677348,25.2747548 720.48235,26.3427441 720.092348,27.2907488 C719.702346,28.2387536 719.114352,28.991746 718.328348,29.5497488 C717.542344,30.1077516 716.573354,30.3867488 715.421348,30.3867488 L710.831348,30.3867488 C710.675348,30.3867488 710.546349,30.3357493 710.444348,30.2337488 C710.342348,30.1317483 710.291348,30.0027496 710.291348,29.8467488 L710.291348,18.3267488 C710.291348,18.1707481 710.342348,18.0417493 710.444348,17.9397488 C710.546349,17.8377483 710.675348,17.7867488 710.831348,17.7867488 L715.421348,17.7867488 Z M715.241348,29.3247488 C716.681356,29.3247488 717.755345,28.8417537 718.463348,27.8757488 C719.171352,26.909744 719.525348,25.6467566 719.525348,24.0867488 C719.525348,23.114744 719.37535,22.2357528 719.075348,21.4497488 C718.775347,20.6637449 718.304352,20.0337512 717.662348,19.5597488 C717.020345,19.0857465 716.213353,18.8487488 715.241348,18.8487488 L711.425348,18.8487488 L711.425348,29.3247488 L715.241348,29.3247488 Z M724.367348,29.8287488 C724.355348,29.9847496 724.295349,30.1167483 724.187348,30.2247488 C724.079348,30.3327494 723.947349,30.3867488 723.791348,30.3867488 C723.623348,30.3867488 723.488349,30.3357493 723.386348,30.2337488 C723.284348,30.1317483 723.233348,29.9967497 723.233348,29.8287488 L723.233348,18.3447488 C723.233348,18.176748 723.287348,18.0417493 723.395348,17.9397488 C723.503349,17.8377483 723.641348,17.7867488 723.809348,17.7867488 C723.965349,17.7867488 724.097348,17.8407483 724.205348,17.9487488 C724.313349,18.0567494 724.367348,18.1887481 724.367348,18.3447488 L724.367348,29.8287488 Z M731.135348,30.5667488 C730.271344,30.5667488 729.506352,30.4227503 728.840348,30.1347488 C728.174345,29.8467474 727.529352,29.3967519 726.905348,28.7847488 C726.761348,28.6647482 726.689348,28.5207497 726.689348,28.3527488 C726.689348,28.2087481 726.746348,28.0767494 726.860348,27.9567488 C726.974349,27.8367482 727.103348,27.7767488 727.247348,27.7767488 C727.391349,27.7767488 727.523348,27.8367482 727.643348,27.9567488 C728.579353,28.988754 729.749341,29.5047488 731.153348,29.5047488 C732.017353,29.5047488 732.734346,29.3007509 733.304348,28.8927488 C733.874351,28.4847468 734.159348,27.9507521 734.159348,27.2907488 C734.159348,26.7747463 734.01835,26.3457505 733.736348,26.0037488 C733.454347,25.6617471 733.085351,25.3827499 732.629348,25.1667488 C732.173346,24.9507478 731.591352,24.72875 730.883348,24.5007488 C730.115345,24.2727477 729.470351,24.0207502 728.948348,23.7447488 C728.426346,23.4687475 728.00335,23.0997511 727.679348,22.6377488 C727.355347,22.1757465 727.193348,21.5907524 727.193348,20.8827488 C727.193348,20.2467457 727.364347,19.6827513 727.706348,19.1907488 C728.04835,18.6987464 728.528345,18.3117502 729.146348,18.0297488 C729.764352,17.7477474 730.475344,17.6067488 731.279348,17.6067488 C732.011352,17.6067488 732.698345,17.7297476 733.340348,17.9757488 C733.982352,18.2217501 734.495347,18.5727466 734.879348,19.0287488 C735.059349,19.2327499 735.149348,19.4067481 735.149348,19.5507488 C735.149348,19.6827495 735.089349,19.8057483 734.969348,19.9197488 C734.849348,20.0337494 734.717349,20.0907488 734.573348,20.0907488 C734.453348,20.0907488 734.351349,20.0487493 734.267348,19.9647488 C733.943347,19.5807469 733.511351,19.26875 732.971348,19.0287488 C732.431346,18.7887476 731.867351,18.6687488 731.279348,18.6687488 C730.403344,18.6687488 729.689351,18.8637469 729.137348,19.2537488 C728.585346,19.6437508 728.309348,20.1747455 728.309348,20.8467488 C728.309348,21.5427523 728.573346,22.076747 729.101348,22.4487488 C729.629351,22.8207507 730.385344,23.1627473 731.369348,23.4747488 C732.221353,23.7267501 732.917346,23.9847475 733.457348,24.2487488 C733.997351,24.5127502 734.438347,24.8877464 734.780348,25.3737488 C735.12235,25.8597513 735.293348,26.4987449 735.293348,27.2907488 C735.293348,27.9027519 735.11635,28.4577463 734.762348,28.9557488 C734.408347,29.4537513 733.916352,29.8467474 733.286348,30.1347488 C732.656345,30.4227503 731.939352,30.5667488 731.135348,30.5667488 Z M747.245348,29.6667488 C747.269349,29.7627493 747.281348,29.8347486 747.281348,29.8827488 C747.281348,30.0387496 747.227349,30.1647484 747.119348,30.2607488 C747.011348,30.3567493 746.885349,30.4047488 746.741348,30.4047488 C746.621348,30.4047488 746.516349,30.3717492 746.426348,30.3057488 C746.336348,30.2397485 746.267349,30.1527494 746.219348,30.0447488 L744.869348,26.7507488 L739.019348,26.7507488 L737.687348,30.0447488 C737.591348,30.28475 737.42935,30.4047488 737.201348,30.4047488 C737.033348,30.4047488 736.907349,30.3627493 736.823348,30.2787488 C736.739348,30.1947484 736.691348,30.0807496 736.679348,29.9367488 L736.679348,29.8827488 C736.679348,29.8107485 736.685348,29.756749 736.697348,29.7207488 L741.449348,18.0927488 C741.545349,17.8527476 741.725347,17.7327488 741.989348,17.7327488 C742.109349,17.7327488 742.214348,17.7657485 742.304348,17.8317488 C742.394349,17.8977492 742.463348,17.9847483 742.511348,18.0927488 L747.245348,29.6667488 Z M739.433348,25.6887488 L744.437348,25.6887488 L741.917348,19.5327488 L739.433348,25.6887488 Z M756.227348,23.6907488 C756.947352,23.8707497 757.535346,24.2307461 757.991348,24.7707488 C758.447351,25.3107515 758.675348,26.0127445 758.675348,26.8767488 C758.675348,28.0527547 758.312352,28.9317459 757.586348,29.5137488 C756.860345,30.0957517 755.957354,30.3867488 754.877348,30.3867488 L750.035348,30.3867488 C749.879348,30.3867488 749.750349,30.3357493 749.648348,30.2337488 C749.546348,30.1317483 749.495348,30.0027496 749.495348,29.8467488 L749.495348,18.3267488 C749.495348,18.1707481 749.546348,18.0417493 749.648348,17.9397488 C749.750349,17.8377483 749.879348,17.7867488 750.035348,17.7867488 L754.805348,17.7867488 C755.813353,17.7867488 756.602346,18.0627461 757.172348,18.6147488 C757.742351,19.1667516 758.027348,19.922744 758.027348,20.8827488 C758.027348,21.518752 757.87135,22.0887463 757.559348,22.5927488 C757.247347,23.0967514 756.803351,23.4627477 756.227348,23.6907488 Z M756.875348,20.9727488 C756.875348,20.3127455 756.68035,19.7937507 756.290348,19.4157488 C755.900346,19.0377469 755.357352,18.8487488 754.661348,18.8487488 L750.647348,18.8487488 L750.647348,23.3487488 L754.661348,23.3487488 C755.309352,23.3367488 755.840346,23.1267509 756.254348,22.7187488 C756.66835,22.3107468 756.875348,21.7287526 756.875348,20.9727488 Z M754.823348,29.3247488 C755.627352,29.3247488 756.278346,29.1207509 756.776348,28.7127488 C757.274351,28.3047468 757.523348,27.6927529 757.523348,26.8767488 C757.523348,26.0367446 757.268351,25.4187508 756.758348,25.0227488 C756.248346,24.6267469 755.591352,24.4287488 754.787348,24.4287488 L750.647348,24.4287488 L750.647348,29.3247488 L754.823348,29.3247488 Z M768.179348,29.3247488 C768.335349,29.3247488 768.464348,29.3727484 768.566348,29.4687488 C768.668349,29.5647493 768.719348,29.6907481 768.719348,29.8467488 C768.719348,30.0027496 768.668349,30.1317483 768.566348,30.2337488 C768.464348,30.3357493 768.335349,30.3867488 768.179348,30.3867488 L761.753348,30.3867488 C761.597348,30.3867488 761.468349,30.3357493 761.366348,30.2337488 C761.264348,30.1317483 761.213348,30.0027496 761.213348,29.8467488 L761.213348,18.3267488 C761.213348,18.1707481 761.267348,18.0417493 761.375348,17.9397488 C761.483349,17.8377483 761.621348,17.7867488 761.789348,17.7867488 C761.945349,17.7867488 762.077348,17.8377483 762.185348,17.9397488 C762.293349,18.0417493 762.347348,18.1707481 762.347348,18.3267488 L762.347348,29.3247488 L768.179348,29.3247488 Z M777.935348,29.3247488 C778.091349,29.3247488 778.220348,29.3787483 778.322348,29.4867488 C778.424349,29.5947494 778.475348,29.7207481 778.475348,29.8647488 C778.475348,30.0207496 778.424349,30.1467484 778.322348,30.2427488 C778.220348,30.3387493 778.091349,30.3867488 777.935348,30.3867488 L771.329348,30.3867488 C771.173348,30.3867488 771.044349,30.3357493 770.942348,30.2337488 C770.840348,30.1317483 770.789348,30.0027496 770.789348,29.8467488 L770.789348,18.3267488 C770.789348,18.1707481 770.840348,18.0417493 770.942348,17.9397488 C771.044349,17.8377483 771.173348,17.7867488 771.329348,17.7867488 L777.935348,17.7867488 C778.091349,17.7867488 778.220348,17.8377483 778.322348,17.9397488 C778.424349,18.0417493 778.475348,18.1707481 778.475348,18.3267488 C778.475348,18.4827496 778.424349,18.6087484 778.322348,18.7047488 C778.220348,18.8007493 778.091349,18.8487488 777.935348,18.8487488 L771.923348,18.8487488 L771.923348,23.3667488 L777.125348,23.3667488 C777.281349,23.3667488 777.410348,23.4177483 777.512348,23.5197488 C777.614349,23.6217493 777.665348,23.7507481 777.665348,23.9067488 C777.665348,24.0627496 777.614349,24.1887484 777.512348,24.2847488 C777.410348,24.3807493 777.281349,24.4287488 777.125348,24.4287488 L771.923348,24.4287488 L771.923348,29.3247488 L777.935348,29.3247488 Z M786.143348,17.7867488 C787.295354,17.7867488 788.264344,18.071746 789.050348,18.6417488 C789.836352,19.2117517 790.424346,19.9737441 790.814348,20.9277488 C791.20435,21.8817536 791.399348,22.9347431 791.399348,24.0867488 C791.399348,25.2747548 791.20435,26.3427441 790.814348,27.2907488 C790.424346,28.2387536 789.836352,28.991746 789.050348,29.5497488 C788.264344,30.1077516 787.295354,30.3867488 786.143348,30.3867488 L781.553348,30.3867488 C781.397348,30.3867488 781.268349,30.3357493 781.166348,30.2337488 C781.064348,30.1317483 781.013348,30.0027496 781.013348,29.8467488 L781.013348,18.3267488 C781.013348,18.1707481 781.064348,18.0417493 781.166348,17.9397488 C781.268349,17.8377483 781.397348,17.7867488 781.553348,17.7867488 L786.143348,17.7867488 Z M785.963348,29.3247488 C787.403356,29.3247488 788.477345,28.8417537 789.185348,27.8757488 C789.893352,26.909744 790.247348,25.6467566 790.247348,24.0867488 C790.247348,23.114744 790.09735,22.2357528 789.797348,21.4497488 C789.497347,20.6637449 789.026352,20.0337512 788.384348,19.5597488 C787.742345,19.0857465 786.935353,18.8487488 785.963348,18.8487488 L782.147348,18.8487488 L782.147348,29.3247488 L785.963348,29.3247488 Z" id="Disabled-Copy-2" fill="#FFFFFF"></path>
        </g>
    </g>
</svg>