<?xml version="1.0" encoding="utf-8"?>
<!-- Generator: Adobe Illustrator 19.0.0, SVG Export Plug-In . SVG Version: 6.00 Build 0)  -->
<svg version="1.1" id="Layer_1" xmlns="http://www.w3.org/2000/svg" xmlns:xlink="http://www.w3.org/1999/xlink" x="0px" y="0px"
	 viewBox="0 0 1000 450" enable-background="new 0 0 1000 450" xml:space="preserve">
<g id="XMLID_15_">
	<g id="XMLID_14_">
		<g id="XMLID_423_">
			<path id="XMLID_426_" d="M353.1,202c-6.4-56.2-54-99.8-111.7-99.8c-18.6,0-36.2,4.5-51.7,12.6c3.3-1.8,6.7-3.4,10.2-4.8
				c-41.7,16.5-71.1,57.3-71.1,104.9c0,59.8,48.7,112.7,112.7,112.6v-33.9c9.6-0.2,18.9-1.8,27.7-4.7v35.4
				C317,310.4,354,268.8,354,216.4C354,211.5,353.7,206.7,353.1,202z"/>
			<polygon id="XMLID_429_" fill="#A01D27" points="269.2,230.9 269.2,230.9 255.4,214.8 255.4,308.5 269.2,324.2 			"/>
			<path id="XMLID_428_" fill="#EC1C24" d="M255.4,214.8l13.8,16.1c27.7-14.9,47.5-48.6,27.4-88.5
				C306.9,182.4,279.3,210.1,255.4,214.8z"/>
			<path id="XMLID_425_" fill="#EC1C24" d="M228.9,270l12.6,14.2c-50.3,0-90.2-41.8-84.7-95.7C160.2,238.7,193.2,263.6,228.9,270z"
				/>
		</g>
	</g>
	<g id="XMLID_16_">
		<path id="XMLID_18_" d="M436.6,314.6c0.4,0,0.7,0.1,1,0.4l2.3,2.4c-1.7,1.8-3.5,3.4-5.4,4.8c-2,1.4-4.1,2.6-6.4,3.6
			c-2.3,1-4.8,1.8-7.6,2.3c-2.8,0.5-5.8,0.8-9.1,0.8c-5.5,0-10.6-1-15.2-2.9c-4.6-1.9-8.5-4.7-11.8-8.2c-3.3-3.5-5.9-7.8-7.7-12.9
			c-1.8-5-2.8-10.6-2.8-16.8c0-6,0.9-11.6,2.8-16.6c1.9-5,4.6-9.3,8-12.9c3.4-3.6,7.5-6.4,12.3-8.3c4.8-2,10.1-3,15.9-3
			c2.9,0,5.5,0.2,7.9,0.6c2.4,0.4,4.6,1.1,6.7,1.9c2.1,0.8,4,1.8,5.9,3c1.8,1.2,3.6,2.6,5.4,4.2l-1.7,2.5c-0.3,0.5-0.8,0.7-1.4,0.7
			c-0.3,0-0.8-0.2-1.3-0.6c-0.5-0.4-1.2-0.9-2-1.5c-0.8-0.6-1.8-1.2-2.9-1.9c-1.1-0.7-2.5-1.3-4.1-1.9c-1.6-0.6-3.4-1.1-5.5-1.5
			c-2.1-0.4-4.4-0.6-7-0.6c-4.8,0-9.3,0.8-13.4,2.5c-4.1,1.7-7.5,4.1-10.5,7.2c-2.9,3.1-5.2,6.9-6.8,11.3c-1.6,4.4-2.5,9.4-2.5,14.8
			c0,5.6,0.8,10.7,2.4,15.1c1.6,4.4,3.8,8.2,6.7,11.2c2.9,3.1,6.2,5.4,10.1,7c3.9,1.6,8.1,2.5,12.6,2.5c2.9,0,5.4-0.2,7.6-0.6
			c2.2-0.4,4.3-0.9,6.2-1.7c1.9-0.8,3.6-1.7,5.2-2.8c1.6-1.1,3.2-2.4,4.8-3.8c0.2-0.1,0.4-0.3,0.5-0.4
			C436.2,314.6,436.4,314.6,436.6,314.6z"/>
		<path id="XMLID_20_" d="M455.3,328v-56.1h2.8c0.6,0,1.1,0.1,1.4,0.4c0.3,0.3,0.4,0.7,0.5,1.4l0.5,11.8c1.8-4.5,4.2-8.1,7.2-10.7
			c3-2.6,6.7-3.9,11.1-3.9c1.7,0,3.2,0.2,4.7,0.5c1.4,0.4,2.8,0.9,4.1,1.5l-0.7,3.7c-0.1,0.6-0.5,0.9-1.1,0.9c-0.2,0-0.5-0.1-1-0.2
			c-0.4-0.1-0.9-0.3-1.5-0.5c-0.6-0.2-1.4-0.4-2.3-0.5c-0.9-0.1-1.9-0.2-3.1-0.2c-4.2,0-7.7,1.3-10.5,3.9c-2.7,2.6-4.9,6.4-6.6,11.4
			V328H455.3z"/>
		<path id="XMLID_22_" d="M512.2,346c-0.2,0.5-0.5,1-0.9,1.3c-0.4,0.3-0.9,0.5-1.5,0.5H506l9.9-21.9l-23.7-54h4.5
			c0.6,0,1,0.1,1.3,0.4c0.3,0.3,0.6,0.6,0.7,0.9l18.9,43.6c0.2,0.6,0.4,1.1,0.6,1.7c0.2,0.6,0.3,1.2,0.5,1.8
			c0.2-0.6,0.4-1.2,0.6-1.8c0.2-0.6,0.4-1.2,0.6-1.7l18.6-43.6c0.2-0.4,0.5-0.7,0.8-1c0.3-0.2,0.7-0.4,1.1-0.4h4.1L512.2,346z"/>
		<path id="XMLID_24_" d="M554.9,347.8v-75.9h2.9c0.5,0,0.9,0.1,1.2,0.3c0.3,0.2,0.5,0.6,0.5,1.1l0.5,8.7c2.5-3.4,5.4-6.1,8.7-8.1
			c3.3-2,7.1-3,11.2-3c6.9,0,12.3,2.4,16.1,7.2c3.8,4.8,5.7,11.9,5.7,21.5c0,4.1-0.5,7.9-1.6,11.5c-1.1,3.5-2.6,6.6-4.7,9.2
			c-2.1,2.6-4.6,4.7-7.6,6.2c-3,1.5-6.5,2.3-10.5,2.3c-3.8,0-7.1-0.7-9.9-2.1c-2.8-1.4-5.2-3.5-7.2-6.2v27.4H554.9z M578.4,275.3
			c-3.7,0-7.1,1-10.1,2.9c-3,1.9-5.7,4.6-8,8.1v29.4c2.1,3.2,4.5,5.5,7.1,6.8c2.6,1.3,5.6,2,8.9,2c3.3,0,6.2-0.6,8.7-1.8
			c2.5-1.2,4.6-2.9,6.2-5.1c1.7-2.2,2.9-4.8,3.8-7.9c0.8-3.1,1.3-6.4,1.3-10.1c0-8.3-1.5-14.5-4.6-18.4
			C588.6,277.3,584.1,275.3,578.4,275.3z"/>
		<path id="XMLID_27_" d="M630.4,328.9c-3.8,0-6.7-1.1-8.8-3.2c-2.1-2.1-3.2-5.4-3.2-9.7v-38.3h-8.1c-0.4,0-0.8-0.1-1-0.3
			c-0.3-0.2-0.4-0.5-0.4-1v-2.1l9.6-0.7l1.3-20.1c0-0.3,0.2-0.6,0.4-0.9c0.2-0.3,0.6-0.4,1-0.4h2.5v21.4h17.6v4h-17.6v38
			c0,1.5,0.2,2.9,0.6,4c0.4,1.1,0.9,2,1.6,2.7c0.7,0.7,1.5,1.2,2.5,1.6c0.9,0.3,2,0.5,3,0.5c1.4,0,2.5-0.2,3.5-0.6
			c1-0.4,1.8-0.8,2.5-1.3c0.7-0.5,1.3-0.9,1.7-1.3c0.5-0.4,0.8-0.6,1.1-0.6c0.3,0,0.6,0.2,0.9,0.6l1.5,2.4c-1.4,1.6-3.2,2.8-5.4,3.8
			C635.1,328.4,632.8,328.9,630.4,328.9z"/>
		<path id="XMLID_29_" d="M676.7,271c4,0,7.6,0.7,10.8,2.1c3.2,1.4,5.8,3.3,8,5.8c2.2,2.5,3.8,5.5,5,9.1c1.1,3.5,1.7,7.5,1.7,11.9
			s-0.6,8.4-1.7,11.9c-1.1,3.5-2.8,6.6-5,9.1c-2.2,2.5-4.9,4.5-8,5.8c-3.2,1.4-6.8,2-10.8,2c-4,0-7.6-0.7-10.8-2
			c-3.2-1.4-5.9-3.3-8.1-5.8c-2.2-2.5-3.9-5.5-5-9.1c-1.1-3.5-1.7-7.5-1.7-11.9s0.6-8.4,1.7-11.9c1.1-3.5,2.8-6.6,5-9.1
			c2.2-2.5,4.9-4.5,8.1-5.8C669.1,271.7,672.6,271,676.7,271z M676.7,324.5c3.3,0,6.3-0.6,8.8-1.7c2.5-1.1,4.6-2.8,6.3-4.9
			c1.7-2.1,2.9-4.7,3.7-7.7c0.8-3,1.2-6.4,1.2-10.2c0-3.7-0.4-7.1-1.2-10.1c-0.8-3-2.1-5.6-3.7-7.8c-1.7-2.2-3.8-3.8-6.3-5
			c-2.5-1.2-5.4-1.7-8.8-1.7c-3.3,0-6.3,0.6-8.8,1.7c-2.5,1.2-4.6,2.8-6.3,5c-1.7,2.2-2.9,4.8-3.8,7.8c-0.8,3-1.3,6.4-1.3,10.1
			c0,3.8,0.4,7.1,1.3,10.2c0.8,3,2.1,5.6,3.8,7.7c1.7,2.1,3.8,3.8,6.3,4.9C670.4,323.9,673.3,324.5,676.7,324.5z"/>
		<path id="XMLID_32_" d="M732.9,300.6V328h-19v-82.1h29c5.8,0,10.7,0.7,14.9,2.1c4.1,1.4,7.6,3.3,10.3,5.7c2.7,2.4,4.7,5.2,5.9,8.5
			c1.3,3.3,1.9,6.8,1.9,10.6c0,4.1-0.7,7.9-2,11.3c-1.3,3.4-3.3,6.3-6,8.8c-2.7,2.4-6.1,4.3-10.3,5.7c-4.2,1.4-9.1,2.1-14.7,2.1
			H732.9z M732.9,286.2h9.9c5,0,8.5-1.2,10.7-3.5s3.3-5.7,3.3-9.9c0-1.9-0.3-3.6-0.8-5.1c-0.6-1.5-1.4-2.9-2.6-4
			c-1.1-1.1-2.6-2-4.3-2.6c-1.7-0.6-3.8-0.9-6.2-0.9h-9.9V286.2z"/>
		<path id="XMLID_35_" d="M785.8,328v-84.3h17.5v31c2.1-1.8,4.4-3.3,6.8-4.4c2.5-1.1,5.4-1.7,8.8-1.7c3.2,0,6,0.6,8.5,1.7
			c2.5,1.1,4.5,2.6,6.2,4.6c1.7,2,3,4.3,3.8,7c0.9,2.7,1.3,5.7,1.3,8.9V328h-17.5v-37.1c0-2.9-0.7-5.1-2-6.7
			c-1.3-1.6-3.2-2.4-5.8-2.4c-1.9,0-3.7,0.4-5.4,1.2c-1.7,0.8-3.3,1.9-4.8,3.3V328H785.8z"/>
		<path id="XMLID_37_" d="M871.2,253.6c0,1.4-0.3,2.7-0.8,3.9c-0.6,1.2-1.3,2.3-2.3,3.2c-1,0.9-2.1,1.7-3.4,2.2
			c-1.3,0.5-2.7,0.8-4.1,0.8c-1.4,0-2.8-0.3-4-0.8c-1.2-0.5-2.3-1.3-3.3-2.2c-1-0.9-1.7-2-2.3-3.2c-0.5-1.2-0.8-2.5-0.8-3.9
			c0-1.4,0.3-2.8,0.8-4c0.5-1.2,1.3-2.3,2.3-3.3c1-0.9,2.1-1.7,3.3-2.2c1.2-0.5,2.6-0.8,4-0.8c1.5,0,2.8,0.3,4.1,0.8
			c1.3,0.5,2.4,1.3,3.4,2.2c1,0.9,1.7,2,2.3,3.3C870.9,250.8,871.2,252.2,871.2,253.6z M869.2,269.6V328h-17.5v-58.4H869.2z"/>
	</g>
</g>
<g id="XMLID_17_">
</g>
<g id="XMLID_40_">
</g>
<g id="XMLID_41_">
</g>
<g id="XMLID_42_">
</g>
<g id="XMLID_43_">
</g>
<g id="XMLID_44_">
</g>
</svg>
