<?xml version="1.0" encoding="UTF-8"?>
<svg width="215px" height="175px" viewBox="0 0 215 175" version="1.1" xmlns="http://www.w3.org/2000/svg" xmlns:xlink="http://www.w3.org/1999/xlink">
    <!-- Generator: Sketch 50.2 (55047) - http://www.bohemiancoding.com/sketch -->
    <title>ICON-DIMENTIONS</title>
    <desc>Created with Sketch.</desc>
    <defs>
        <path d="M78.0757402,79.0665519 L148.628137,79.0665519 L148.628137,149.618949 L78.0757402,149.618949 L78.0757402,79.0665519 Z" id="path-1"></path>
        <mask id="mask-2" maskContentUnits="userSpaceOnUse" maskUnits="objectBoundingBox" x="0" y="0" width="70.5523972" height="70.5523972" fill="white">
            <use xlink:href="#path-1"></use>
        </mask>
    </defs>
    <g id="Branding" stroke="none" stroke-width="1" fill="none" fill-rule="evenodd">
        <g id="07" transform="translate(-909.000000, -483.000000)">
            <g id="ICON-DIMENTIONS" transform="translate(908.000000, 474.000000)">
                <g id="Group-5-Copy" transform="translate(43.351939, 43.061905)">
                    <circle id="Oval-Copy-2" fill="#FE9518" cx="70" cy="70.7632211" r="70"></circle>
                    <path d="M70,35.7632211 C59,35.7632211 50,44.7632211 50,55.7632211 L50,65.7632211 L40,65.7632211 L40,105.763221 L100,105.763221 L100,65.7632211 L90,65.7632211 L90,55.7632211 C90,44.7632211 81,35.7632211 70,35.7632211 Z M70,45.7632211 C75.6,45.7632211 80,50.1632211 80,55.7632211 L80,65.7632211 L60,65.7632211 L60,55.7632211 C60,50.1632211 64.4,45.7632211 70,45.7632211 Z" id="Shape" fill="#FFFFFF" fill-rule="nonzero"></path>
                </g>
                <use id="Rectangle-4" stroke="#000000" mask="url(#mask-2)" stroke-dasharray="4,4" xlink:href="#path-1"></use>
                <path d="M30.1449698,43.061905 L30.1449698,181.061905" id="Line" stroke="#000000" stroke-width="0.5" stroke-linecap="square"></path>
                <path id="Line-decoration-1" d="M33.1449698,43.061905 L27.1449698,43.061905" stroke="#000000" stroke-width="0.5" stroke-linecap="square"></path>
                <path id="Line-decoration-2" d="M33.1449698,181.061905 L27.1449698,181.061905" stroke="#000000" stroke-width="0.5" stroke-linecap="square"></path>
                <path d="M9.9296331,120.061905 L1.6327581,120.061905 L1.6327581,118.875382 L5.82514091,114.217178 C6.57514466,113.379284 7.08344036,112.714251 7.35004325,112.222061 C7.61664615,111.729871 7.7499456,111.22597 7.7499456,110.710343 C7.7499456,110.071667 7.5639123,109.534075 7.19184013,109.09755 C6.81976795,108.661024 6.32612055,108.442764 5.7108831,108.442764 C4.82611305,108.442764 4.1742641,108.669813 3.75531669,109.123917 C3.33636928,109.578021 3.12689872,110.215221 3.12689872,111.035538 L1.46576591,111.035538 L1.44818778,110.982803 C1.41889076,109.881235 1.78509804,108.955463 2.5468206,108.20546 C3.30854315,107.455456 4.36322011,107.08046 5.7108831,107.08046 C6.85932634,107.08046 7.77484453,107.415906 8.45746513,108.086807 C9.14008573,108.757709 9.48139091,109.611705 9.48139091,110.648819 C9.48139091,111.346088 9.27485,112.044812 8.861762,112.74501 C8.448674,113.445209 7.8700665,114.196667 7.12592216,114.999405 L3.75971122,118.664444 L3.77728935,118.708389 L9.9296331,118.708389 L9.9296331,120.061905 Z M15.2118597,114.058975 L17.233344,110.552139 L19.2548284,110.552139 L16.1698675,115.254288 L19.342719,120.061905 L17.3563909,120.061905 L15.2470159,116.467178 L13.1376409,120.061905 L11.1337347,120.061905 L14.3065862,115.254288 L11.2216253,110.552139 L13.2167425,110.552139 L15.2118597,114.058975 Z" id="2x" fill="#000000"></path>
                <polygon id="x" fill="#000000" points="211.078071 114.313622 213.099555 110.806786 215.121039 110.806786 212.036078 115.508935 215.20893 120.316552 213.222602 120.316552 211.113227 116.721825 209.003852 120.316552 206.999946 120.316552 210.172797 115.508935 207.087836 110.806786 209.082953 110.806786"></polygon>
                <polygon id="x-copy" fill="#000000" points="111.834361 13.0589753 113.855845 9.55213938 115.877329 9.55213938 112.792369 14.2542878 115.96522 19.061905 113.978892 19.061905 111.869517 15.4671784 109.760142 19.061905 107.756236 19.061905 110.929087 14.2542878 107.844126 9.55213938 109.839244 9.55213938"></polygon>
                <g id="Group-2" transform="translate(143.000000, 79.061905)" stroke="#000000" stroke-linecap="square" stroke-width="0.5">
                    <path d="M56.5956487,0.754646897 L56.5956487,70.2349484" id="Line-Copy"></path>
                    <path id="Line-Copy-decoration-1" d="M59.5956487,0.754646897 L53.5956487,0.754646897"></path>
                    <path id="Line-Copy-decoration-2" d="M59.5956487,70.2349484 L53.5956487,70.2349484"></path>
                    <path d="M0.386411084,0.254646897 L48.3077955,0.254646897" id="Line-2" stroke-dasharray="4,4"></path>
                    <path d="M0.386411084,70.3070441 L48.3077955,70.3070441" id="Line-2-Copy" stroke-dasharray="4,4"></path>
                </g>
                <g id="Group" transform="translate(113.128137, 50.161849) rotate(-90.000000) translate(-113.128137, -50.161849) translate(83.628137, 14.661849)" stroke="#000000" stroke-linecap="square" stroke-width="0.5">
                    <path d="M56.5956487,1.19760276 L56.5956487,70.6779042" id="Line-Copy-2"></path>
                    <path id="Line-Copy-2-decoration-1" d="M59.5956487,1.19760276 L53.5956487,1.19760276"></path>
                    <path id="Line-Copy-2-decoration-2" d="M59.5956487,70.6779042 L53.5956487,70.6779042"></path>
                    <path d="M0.386411084,0.697602758 L48.3077955,0.697602758" id="Line-2-Copy-2" stroke-dasharray="4,4"></path>
                    <path d="M0.386411084,70.75 L48.3077955,70.75" id="Line-2-Copy-3" stroke-dasharray="4,4"></path>
                </g>
            </g>
        </g>
    </g>
</svg>