<?xml version="1.0" encoding="UTF-8"?>
<svg width="377px" height="68px" viewBox="0 0 377 68" version="1.1" xmlns="http://www.w3.org/2000/svg" xmlns:xlink="http://www.w3.org/1999/xlink">
    <!-- Generator: Sketch 50.2 (55047) - http://www.bohemiancoding.com/sketch -->
    <title>ICONS-INV</title>
    <desc>Created with Sketch.</desc>
    <defs>
        <linearGradient x1="100%" y1="100%" x2="5.95580182e-15%" y2="0%" id="linearGradient-1">
            <stop stop-color="#FE9518" offset="0%"></stop>
            <stop stop-color="#FEB518" offset="100%"></stop>
        </linearGradient>
    </defs>
    <g id="Branding" stroke="none" stroke-width="1" fill="none" fill-rule="evenodd">
        <g id="07" transform="translate(-400.000000, -673.000000)">
            <g id="ICONS-INV" transform="translate(400.000000, 673.000000)">
                <rect id="Rectangle-3" fill="url(#linearGradient-1)" x="0" y="0.061905008" width="377" height="67" rx="10"></rect>
                <g id="bug" transform="translate(27.500000, 13.080179)">
                    <circle id="Oval" fill="#FFFFFF" cx="19" cy="19.4889428" r="19"></circle>
                    <path d="M18.9906445,9.79950714 C15.9918334,9.79950714 14.0010261,14.0583228 15.9918334,16.0995303 C15.7650326,16.275931 15.4878316,16.4523316 15.2862308,16.6539324 L11.9850187,14.9907263 C11.7264298,14.8401922 11.4227099,14.7865946 11.1282155,14.8395257 C10.6075161,14.9668864 10.2244034,15.4097519 10.1733132,15.9433607 C10.122223,16.4769696 10.4143418,16.9844849 10.9014147,17.2083344 L13.8246254,18.6195396 C13.5978246,19.0227411 13.3458237,19.4511427 13.1946231,19.8795443 L11.4558167,19.8795443 C11.3803701,19.8727264 11.3044624,19.8727264 11.2290159,19.8795443 C10.7788596,19.9200583 10.384512,20.1976504 10.19452,20.6077542 C10.0045281,21.0178581 10.0477561,21.4981691 10.3079204,21.8677589 C10.5680848,22.2373486 11.0056604,22.4400676 11.4558167,22.3995536 L12.7158213,22.3995536 C12.7158213,22.9791557 12.7662215,23.5335577 12.8670219,24.0627597 L10.9014147,25.0959635 C10.4170135,25.2372472 10.0636138,25.6538904 10.0032577,26.1548522 C9.94290174,26.655814 10.1872306,27.1444717 10.6242136,27.396764 C11.0611967,27.6490562 11.6065511,27.6163224 12.0102187,27.3135717 L13.6734249,26.4567685 C14.3034272,27.6159728 15.2358306,28.5987764 16.2690344,29.2035786 C17.1510377,28.7247769 17.7558399,28.0947745 17.7558399,27.3891719 L17.7558399,23.7603586 C17.7626578,23.684912 17.7626578,23.6090043 17.7558399,23.5335577 L17.7558399,21.4923502 C17.7970003,21.3098414 17.7970003,21.120457 17.7558399,20.9379482 C17.8818404,20.358346 18.4110423,19.9047444 19.0158446,19.9047444 C19.7214472,19.9047444 20.2758492,20.4591464 20.2758492,21.164749 L20.2758492,23.3823572 C20.2690313,23.4578037 20.2690313,23.5337114 20.2758492,23.609158 L20.2758492,23.7603586 C20.2690313,23.8358051 20.2690313,23.9117128 20.2758492,23.9871594 L20.2758492,27.3639718 C20.2758492,28.0443743 20.8806514,28.6995768 21.7626547,29.1783785 C22.7958585,28.5483762 23.753462,27.5907727 24.3582642,26.4315684 L26.0214704,27.2883716 C26.425138,27.5911223 26.9704924,27.6238562 27.4074755,27.3715639 C27.8444585,27.1192716 28.0887874,26.6306139 28.0284314,26.1296521 C27.9680754,25.6286903 27.6146756,25.2120471 27.1302744,25.0707634 L25.1646672,24.0375596 C25.2654676,23.5083576 25.3158678,22.9539556 25.3158678,22.3743535 L26.5758724,22.3743535 C27.2717537,22.3743535 27.835877,21.8102302 27.835877,21.1143488 C27.835877,20.4184675 27.2717537,19.8543442 26.5758724,19.8543442 L24.837066,19.8543442 C24.6858654,19.4259426 24.4338645,18.997541 24.2070637,18.5943395 L27.1302744,17.1831343 C27.6912556,16.9041339 27.9620208,16.2553377 27.7657943,15.6603283 C27.5695677,15.0653188 26.9659687,14.7048768 26.3490716,14.8143256 C26.2331831,14.8487487 26.1228517,14.8996709 26.0214704,14.9655262 L22.7202582,16.6287323 C22.4934574,16.4271316 22.2414564,16.2507309 22.0146556,16.0743303 C23.9802628,13.9827225 22.0146556,9.77430704 19.0158446,9.77430704 L18.9906445,9.79950714 Z" id="Shape" fill="#FE9518" fill-rule="nonzero"></path>
                </g>
                <g id="yen" transform="translate(240.500000, 13.080179)">
                    <circle id="Oval-Copy-3" fill="#FFFFFF" cx="19" cy="19.4889428" r="19"></circle>
                    <polygon id="Shape" fill="#FE9518" fill-rule="nonzero" points="10.6875 9.98894283 16.03125 17.1139428 10.6875 17.1139428 10.6875 19.4889428 17.8125 19.4889428 17.8125 21.8639428 10.6875 21.8639428 10.6875 24.2389428 17.8125 24.2389428 17.8125 28.9889428 20.1875 28.9889428 20.1875 24.2389428 27.3125 24.2389428 27.3125 21.8639428 20.1875 21.8639428 20.1875 19.4889428 27.3125 19.4889428 27.3125 17.1139428 21.96875 17.1139428 27.3125 9.98894283 24.9375 9.98894283 19.45125 17.1139428 18.54875 17.1139428 13.0625 9.98894283"></polygon>
                </g>
                <g id="key" transform="translate(311.500000, 13.080179)">
                    <circle id="Oval-Copy-4" fill="#FFFFFF" cx="19" cy="19.4889428" r="19"></circle>
                    <path d="M22.5625,9.98894283 C19.285,9.98894283 16.625,12.6489428 16.625,15.9264428 C16.625,16.3064428 16.625,16.6864428 16.69625,17.0426928 L9.5,24.2389428 L9.5,28.9889428 L16.625,28.9889428 L16.625,24.2389428 L21.375,24.2389428 L21.375,21.8639428 L21.44625,21.7926928 C21.8025,21.8639428 22.1825,21.8639428 22.5625,21.8639428 C25.84,21.8639428 28.5,19.2039428 28.5,15.9264428 C28.5,12.6489428 25.84,9.98894283 22.5625,9.98894283 Z M23.75,12.3639428 C25.05625,12.3639428 26.125,13.4326928 26.125,14.7389428 C26.125,16.0451928 25.05625,17.1139428 23.75,17.1139428 C22.44375,17.1139428 21.375,16.0451928 21.375,14.7389428 C21.375,13.4326928 22.44375,12.3639428 23.75,12.3639428 Z" id="Shape" fill="#FE9518" fill-rule="nonzero"></path>
                </g>
                <g id="script" transform="translate(169.500000, 13.080179)">
                    <circle id="Oval-Copy-2" fill="#FFFFFF" cx="19" cy="19.4889428" r="19"></circle>
                    <path d="M16.6990385,10.285097 C15.4335097,10.285097 14.3980771,11.3205296 14.3980771,12.5860584 L14.3980771,25.2413465 C14.3980771,25.8856157 13.8918656,26.3918272 13.2475963,26.3918272 C12.6033271,26.3918272 12.0971156,25.8856157 12.0971156,25.2413465 L12.0971156,21.7899043 L9.79615416,21.7899043 L9.79615416,26.3918272 C9.79615416,27.657356 10.8315868,28.6927887 12.0971156,28.6927887 L23.6019229,28.6927887 C24.8674517,28.6927887 25.9028844,27.657356 25.9028844,26.3918272 L25.9028844,19.4889428 L16.6990385,19.4889428 L16.6990385,13.7365392 C16.6990385,13.09227 17.2052501,12.5860584 17.8495193,12.5860584 C18.4937885,12.5860584 19,13.09227 19,13.7365392 L19,17.1879814 L28.2038458,17.1879814 L28.2038458,12.5860584 C28.2038458,11.3205296 27.1684132,10.285097 25.9028844,10.285097 L16.6990385,10.285097 Z" id="Shape" fill="#FE9518" fill-rule="nonzero"></path>
                </g>
                <g id="fork" transform="translate(98.500000, 13.080179)">
                    <circle id="Oval-Copy" fill="#FFFFFF" cx="19" cy="19.4889428" r="19"></circle>
                    <path d="M14.3543485,10.1860258 C12.4264032,10.1860258 10.87011,11.742319 10.87011,13.6702644 C10.87011,15.2033294 11.8224685,16.4576553 13.1929357,16.9454487 L13.1929357,22.032437 C11.8224685,22.4970021 10.87011,23.7745563 10.87011,25.3076213 C10.87011,27.2355666 12.4264032,28.7918599 14.3543485,28.7918599 C16.2822939,28.7918599 17.8385871,27.2355666 17.8385871,25.3076213 C17.8385871,23.9139258 17.0488264,22.752513 15.8874135,22.1950348 C16.0964678,21.9859805 16.3752069,21.8233827 16.6771743,21.8233827 L21.3228257,21.8233827 C23.2275428,21.8233827 24.8070643,20.2438612 24.8070643,18.3391441 L24.8070643,16.9686769 C26.1775315,16.5041118 27.12989,15.2265576 27.12989,13.6934926 C27.12989,11.7655473 25.5735968,10.209254 23.6456515,10.209254 C21.7177061,10.209254 20.1614129,11.7655473 20.1614129,13.6934926 C20.1614129,15.2265576 21.1137714,16.4808835 22.4842386,16.9686769 L22.4842386,18.3391441 C22.4842386,18.9895353 21.9732169,19.500557 21.3228257,19.500557 L16.6771743,19.500557 C16.2822939,19.500557 15.8641853,19.59347 15.5157614,19.7096113 L15.5157614,16.9454487 C16.8862286,16.4808835 17.8385871,15.2033294 17.8385871,13.6702644 C17.8385871,11.742319 16.2822939,10.1860258 14.3543485,10.1860258 Z" id="Shape" fill="#FE9518" fill-rule="nonzero"></path>
                </g>
            </g>
        </g>
    </g>
</svg>