<?xml version="1.0" encoding="UTF-8"?>
<svg width="322px" height="39px" viewBox="0 0 322 39" version="1.1" xmlns="http://www.w3.org/2000/svg" xmlns:xlink="http://www.w3.org/1999/xlink">
    <!-- Generator: Sketch 50.2 (55047) - http://www.bohemiancoding.com/sketch -->
    <title>ICONS</title>
    <desc>Created with Sketch.</desc>
    <defs></defs>
    <g id="Branding" stroke="none" stroke-width="1" fill="none" fill-rule="evenodd">
        <g id="07" transform="translate(-400.000000, -492.000000)">
            <g id="ICONS" transform="translate(400.000000, 492.000000)">
                <g id="email" transform="translate(0.000000, 0.326957)">
                    <circle id="Oval" fill="#FE9518" cx="19" cy="19.4889428" r="19"></circle>
                    <path d="M9.5,12.375 L9.5,14.75 L19,19.5 L28.5,14.75 L28.5,12.375 L9.5,12.375 Z M9.5,17.125 L9.5,26.625 L28.5,26.625 L28.5,17.125 L19,21.875 L9.5,17.125 Z" id="Shape" fill="#FFFFFF" fill-rule="nonzero"></path>
                </g>
                <g id="security" transform="translate(213.000000, 0.326957)">
                    <circle id="Oval-Copy-3" fill="#FE9518" cx="19" cy="19.4889428" r="19"></circle>
                    <path d="M19,9.98894283 L18.54875,10.2026928 L10.23625,13.6939428 L9.5,14.0026928 L9.5,14.7389428 C9.5,18.6814428 11.09125,22.1489428 12.99125,24.6901928 C13.94125,25.9489428 14.9625,26.9939428 15.96,27.7301928 C16.9575,28.4664428 17.93125,28.9889428 19,28.9889428 C20.0925,28.9889428 21.0425,28.4664428 22.04,27.7301928 C23.0375,26.9939428 24.05875,25.9489428 25.00875,24.6901928 C26.90875,22.1489428 28.5,18.6814428 28.5,14.7389428 L28.5,14.0026928 L27.76375,13.6939428 L19.45125,10.2026928 L19,9.98894283 Z M19,12.5776928 L19,26.6139428 C18.905,26.6139428 18.21625,26.4476928 17.4325,25.8776928 C16.64875,25.3076928 15.74625,24.3814428 14.915,23.2889428 C13.395,21.2701928 12.2075,18.4676928 12.0175,15.4989428 L19,12.6014428 L19,12.5776928 Z" id="Shape" fill="#FFFFFF" fill-rule="nonzero"></path>
                </g>
                <g id="Group-7" transform="translate(284.000000, 0.326957)">
                    <circle id="Oval-Copy-4" fill="#FE9518" cx="19" cy="19.4889428" r="19"></circle>
                    <path d="M10.1168658,10.4010757 C9.9803772,10.4010757 9.91213289,10.4920681 9.91213289,10.6058086 L9.91213289,28.372077 C9.91213289,28.4858175 10.0031253,28.5768099 10.1168658,28.5768099 L27.8831342,28.5768099 C27.9968747,28.5768099 28.0878671,28.4858175 28.0878671,28.372077 L28.0878671,10.6058086 C28.0878671,10.46932 27.9968747,10.4010757 27.8831342,10.4010757 L10.1168658,10.4010757 Z M13.3243483,12.1754277 L17.237022,16.0881014 L13.3243483,20.0007751 L11.6864849,18.3629117 L13.9612952,16.0881014 L11.6864849,13.8132912 L13.3243483,12.1754277 Z M19.0113741,17.2255066 L25.8358049,17.2255066 L25.8358049,19.5003169 L19.0113741,19.5003169 L19.0113741,17.2255066 Z" id="Shape" fill="#FFFFFF" fill-rule="nonzero"></path>
                </g>
                <g id="heart" transform="translate(142.000000, 0.326957)">
                    <circle id="Oval-Copy-2" fill="#FE9518" cx="19" cy="19.4889428" r="19"></circle>
                    <path d="M14.2470387,11.3460857 C12.941603,11.3460857 11.7785786,11.8919951 10.9003764,12.7464621 C10.0459094,13.6009291 9.5,14.7639535 9.5,16.0931244 C9.5,17.39856 10.0459094,18.5615845 10.9003764,19.4397866 L18.9940773,27.5334876 L27.0877783,19.4397866 C27.9422452,18.5853197 28.4881547,17.4222952 28.4881547,16.0931244 C28.4881547,14.7876887 27.9422452,13.6246642 27.0877783,12.7464621 C26.2333113,11.8919951 25.0702868,11.3460857 23.741116,11.3460857 C22.4356804,11.3460857 21.2726559,11.8919951 20.3944537,12.7464621 C19.5399868,13.6009291 18.9940773,14.7639535 18.9940773,16.0931244 C18.9940773,14.7876887 18.4481679,13.6246642 17.5937009,12.7464621 C16.739234,11.8919951 15.5762095,11.3460857 14.2470387,11.3460857 Z" fill="#FFFFFF" fill-rule="nonzero"></path>
                </g>
                <g id="phone" transform="translate(71.000000, 0.326957)">
                    <circle id="Oval-Copy" fill="#FE9518" cx="19" cy="19.4889428" r="19"></circle>
                    <path d="M13.5087391,10 C13.2478152,10 13.0580524,10.1897628 13.0580524,10.4506866 L13.0580524,28.5493134 C13.0580524,28.8102372 13.2478152,29 13.5087391,29 L24.4912609,29 C24.7521848,29 24.9419476,28.8102372 24.9419476,28.5493134 L24.9419476,10.4506866 C24.9419476,10.1897628 24.7521848,10 24.4912609,10 L13.5087391,10 Z M15.4300874,12.372035 L22.5461923,12.372035 L22.5461923,24.2322097 L15.4300874,24.2322097 L15.4300874,12.372035 Z M18.9881398,25.4182272 C19.6523096,25.4182272 20.1741573,25.9400749 20.1741573,26.6042447 C20.1741573,27.2684145 19.6523096,27.7902622 18.9881398,27.7902622 C18.32397,27.7902622 17.8021223,27.2684145 17.8021223,26.6042447 C17.8021223,25.9400749 18.32397,25.4182272 18.9881398,25.4182272 Z" id="Shape" fill="#FFFFFF" fill-rule="nonzero"></path>
                </g>
            </g>
        </g>
    </g>
</svg>