<?xml version="1.0" encoding="UTF-8"?>
<svg width="231px" height="181px" viewBox="0 0 231 181" version="1.1" xmlns="http://www.w3.org/2000/svg" xmlns:xlink="http://www.w3.org/1999/xlink">
    <!-- Generator: Sketch 50.2 (55047) - http://www.bohemiancoding.com/sketch -->
    <title>logo-square</title>
    <desc>Created with Sketch.</desc>
    <defs>
        <path d="M0.645405134,0.359765824 L230.93641,0.359765824 L230.93641,180.359766 L0.645405134,180.359766 L0.645405134,0.359765824 Z" id="path-1"></path>
        <mask id="mask-2" maskContentUnits="userSpaceOnUse" maskUnits="objectBoundingBox" x="0" y="0" width="230.291005" height="180" fill="white">
            <use xlink:href="#path-1"></use>
        </mask>
    </defs>
    <g id="Branding" stroke="none" stroke-width="1" fill="none" fill-rule="evenodd">
        <g id="09" transform="translate(-826.000000, -358.000000)">
            <g id="logo-square" transform="translate(826.000000, 358.000000)">
                <use id="Rectangle-3-Copy" stroke="#979797" mask="url(#mask-2)" stroke-width="2" stroke-dasharray="5,5" xlink:href="#path-1"></use>
                <g id="MUE-logo-square" transform="translate(40.790908, 25.359766)">
                    <path d="M70.1299402,94.7489407 C47.9811011,92.1681954 30.6746498,74.6793362 28.3404977,52.5190765 C26.0442214,30.7183965 39.6577013,9.7140107 60.5041283,2.89346676 C89.257768,-6.51416485 119.202781,12.8904246 122.372626,42.9847122 C124.814834,66.1708306 109.423862,88.0316452 86.7326573,93.6065382 C81.5208468,94.8869909 75.1040338,95.3285249 70.1299402,94.7489407 Z M59.3396439,65.9631001 L64.731131,46.407147 L75.2278057,58.1167803 L85.4844439,46.4030536 L91.1099074,65.9623963 L99.0987772,65.9628008 L90.5246968,28.2229668 L75.2274923,45.729512 L59.8467277,28.214329 L51.28305,65.9639677 L59.3396439,65.9631001 Z M77.9649648,32.1197857 C81.170004,28.9990369 84.0305224,26.7026554 87.9334672,24.1172241 C89.7287909,22.9279439 90.1349205,22.4716847 89.3982046,22.4716847 C88.3792665,22.4716847 81.0379583,27.4226742 76.8934702,30.9048977 L74.511945,32.9058688 L73.3542409,31.663306 C72.7175032,30.979899 71.069462,29.1919026 69.6919252,27.6899791 C68.3143884,26.1880596 66.9208178,24.7846014 66.5950995,24.5711839 C66.0599053,24.2205109 65.9420328,24.2230208 65.3708801,24.5972548 C65.0232772,24.8250133 64.7388748,25.2400416 64.7388748,25.5195416 C64.7388748,27.2229019 69.1578838,32.9262669 71.8036276,34.6376157 C73.8370079,35.9528702 74.1667347,35.8181267 77.9649648,32.1197857 Z" id="path3666" fill="#FE9518" fill-rule="nonzero"></path>
                    <path d="M18.1657616,106.968331 C18.2937622,106.984331 18.3977612,107.03633 18.4777616,107.124331 C18.557762,107.212331 18.5977616,107.32033 18.5977616,107.448331 L18.5977616,123.288331 C18.5977616,123.416331 18.5457621,123.52833 18.4417616,123.624331 C18.337761,123.720331 18.2217622,123.768331 18.0937616,123.768331 C17.9497608,123.768331 17.829762,123.720331 17.7337616,123.624331 C17.6377611,123.52833 17.5897616,123.416331 17.5897616,123.288331 L17.5897616,108.936331 L11.3977616,118.296331 C11.3177612,118.424331 11.2057623,118.488331 11.0617616,118.488331 C10.8857607,118.488331 10.757762,118.424331 10.6777616,118.296331 L4.46176157,108.912331 L4.46176157,123.288331 C4.46176157,123.416331 4.41376205,123.52833 4.31776157,123.624331 C4.22176109,123.720331 4.10976221,123.768331 3.98176157,123.768331 C3.83776085,123.768331 3.72176201,123.720331 3.63376157,123.624331 C3.54576113,123.52833 3.50176157,123.416331 3.50176157,123.288331 L3.50176157,107.448331 C3.50176157,107.33633 3.54576113,107.228331 3.63376157,107.124331 C3.72176201,107.02033 3.82976093,106.968331 3.95776157,106.968331 C4.16576261,106.968331 4.31776109,107.04033 4.41376157,107.184331 L11.0617616,117.072331 L17.7097616,107.184331 C17.8377622,107.00833 17.9897607,106.936331 18.1657616,106.968331 Z M33.9817616,117.720331 C33.9817616,118.904337 33.7257641,119.972326 33.2137616,120.924331 C32.701759,121.876335 31.9937661,122.628328 31.0897616,123.180331 C30.185757,123.732333 29.1817671,124.008331 28.0777616,124.008331 C26.973756,124.008331 25.9697661,123.732333 25.0657616,123.180331 C24.161757,122.628328 23.4497642,121.872335 22.9297616,120.912331 C22.409759,119.952326 22.1497616,118.888337 22.1497616,117.720331 C22.1497616,116.536325 22.409759,115.464335 22.9297616,114.504331 C23.4497642,113.544326 24.1577571,112.788333 25.0537616,112.236331 C25.949766,111.684328 26.957756,111.408331 28.0777616,111.408331 C29.1817671,111.408331 30.185757,111.684328 31.0897616,112.236331 C31.9937661,112.788333 32.701759,113.544326 33.2137616,114.504331 C33.7257641,115.464335 33.9817616,116.536325 33.9817616,117.720331 Z M33.0217616,117.720331 C33.0217616,116.696326 32.8097637,115.776335 32.3857616,114.960331 C31.9617594,114.144327 31.3737653,113.500333 30.6217616,113.028331 C29.8697578,112.556328 29.0217663,112.320331 28.0777616,112.320331 C27.1497569,112.320331 26.3057654,112.556328 25.5457616,113.028331 C24.7857578,113.500333 24.1897637,114.144327 23.7577616,114.960331 C23.3257594,115.776335 23.1097616,116.696326 23.1097616,117.720331 C23.1097616,118.728336 23.3257594,119.640327 23.7577616,120.456331 C24.1897637,121.272335 24.7857578,121.916328 25.5457616,122.388331 C26.3057654,122.860333 27.1497569,123.096331 28.0777616,123.096331 C29.0217663,123.096331 29.8697578,122.864333 30.6217616,122.400331 C31.3737653,121.936328 31.9617594,121.292335 32.3857616,120.468331 C32.8097637,119.644327 33.0217616,118.728336 33.0217616,117.720331 Z M42.5737616,111.408331 C43.9977687,111.408331 45.069758,111.828326 45.7897616,112.668331 C46.5097652,113.508335 46.8697616,114.600324 46.8697616,115.944331 L46.8697616,123.288331 C46.8697616,123.416331 46.821762,123.52833 46.7257616,123.624331 C46.6297611,123.720331 46.5177622,123.768331 46.3897616,123.768331 C46.2457608,123.768331 46.129762,123.720331 46.0417616,123.624331 C45.9537611,123.52833 45.9097616,123.416331 45.9097616,123.288331 L45.9097616,116.040331 C45.9097616,114.952325 45.6257644,114.060334 45.0577616,113.364331 C44.4897587,112.668327 43.6297673,112.320331 42.4777616,112.320331 C41.773758,112.320331 41.081765,112.488329 40.4017616,112.824331 C39.7217582,113.160332 39.1657637,113.616328 38.7337616,114.192331 C38.3017594,114.768334 38.0857616,115.384327 38.0857616,116.040331 L38.0857616,123.288331 C38.0857616,123.416331 38.037762,123.52833 37.9417616,123.624331 C37.8457611,123.720331 37.7337622,123.768331 37.6057616,123.768331 C37.4617608,123.768331 37.345762,123.720331 37.2577616,123.624331 C37.1697611,123.52833 37.1257616,123.416331 37.1257616,123.288331 L37.1257616,112.272331 C37.1257616,112.14433 37.1737611,112.032331 37.2697616,111.936331 C37.365762,111.84033 37.4777609,111.792331 37.6057616,111.792331 C37.7497623,111.792331 37.8657611,111.84033 37.9537616,111.936331 C38.041762,112.032331 38.0857616,112.14433 38.0857616,112.272331 L38.0857616,113.880331 C38.5497639,113.160327 39.2017574,112.568333 40.0417616,112.104331 C40.8817658,111.640328 41.7257573,111.408331 42.5737616,111.408331 Z M60.3337616,120.888331 C60.4457621,120.888331 60.5417612,120.93233 60.6217616,121.020331 C60.701762,121.108331 60.7417616,121.20833 60.7417616,121.320331 C60.7417616,121.432331 60.7097619,121.52833 60.6457616,121.608331 C60.1177589,122.312334 59.4617655,122.888328 58.6777616,123.336331 C57.8937576,123.784333 57.053766,124.008331 56.1577616,124.008331 C54.9577556,124.008331 53.8937662,123.752333 52.9657616,123.240331 C52.0377569,122.728328 51.3137642,122.000335 50.7937616,121.056331 C50.273759,120.112326 50.0137616,119.016337 50.0137616,117.768331 C50.0137616,116.488324 50.265759,115.364336 50.7697616,114.396331 C51.2737641,113.428326 51.9417574,112.688333 52.7737616,112.176331 C53.6057657,111.664328 54.4937568,111.408331 55.4377616,111.408331 C56.3817663,111.408331 57.2577575,111.612329 58.0657616,112.020331 C58.8737656,112.428333 59.533759,113.040327 60.0457616,113.856331 C60.5577641,114.672335 60.8297614,115.680325 60.8617616,116.880331 C60.8617616,117.008331 60.813762,117.12433 60.7177616,117.228331 C60.6217611,117.332331 60.5097622,117.384331 60.3817616,117.384331 L50.9497616,117.384331 L50.9497616,117.696331 C50.9497616,118.688336 51.1497596,119.596327 51.5497616,120.420331 C51.9497636,121.244335 52.5417576,121.896328 53.3257616,122.376331 C54.1097655,122.856333 55.053756,123.096331 56.1577616,123.096331 C56.9257654,123.096331 57.6497582,122.908333 58.3297616,122.532331 C59.009765,122.156329 59.5417596,121.680334 59.9257616,121.104331 C60.0377621,120.96033 60.1737608,120.888331 60.3337616,120.888331 Z M55.4377616,112.368331 C54.8457586,112.368331 54.2417646,112.524329 53.6257616,112.836331 C53.0097585,113.148332 52.4657639,113.612328 51.9937616,114.228331 C51.5217592,114.844334 51.2057624,115.592326 51.0457616,116.472331 L59.8777616,116.472331 L59.8777616,116.256331 C59.7977612,115.440327 59.5377638,114.740334 59.0977616,114.156331 C58.6577594,113.572328 58.1137648,113.128332 57.4657616,112.824331 C56.8177583,112.520329 56.1417651,112.368331 55.4377616,112.368331 Z M68.4697616,111.696331 C68.5817621,111.696331 68.6857611,111.74433 68.7817616,111.840331 C68.877762,111.936331 68.9257616,112.04033 68.9257616,112.152331 C68.9257616,112.280331 68.881762,112.38833 68.7937616,112.476331 C68.7057611,112.564331 68.5977622,112.608331 68.4697616,112.608331 L65.8297616,112.608331 L65.8297616,121.152331 C65.8297616,121.856334 65.9537603,122.32433 66.2017616,122.556331 C66.4497628,122.788332 66.7657596,122.904331 67.1497616,122.904331 C67.2137619,122.904331 67.305761,122.888331 67.4257616,122.856331 C67.5457622,122.824331 67.6457612,122.808331 67.7257616,122.808331 C67.8377621,122.808331 67.9337612,122.85233 68.0137616,122.940331 C68.093762,123.028331 68.1337616,123.12833 68.1337616,123.240331 C68.1337616,123.384331 68.0377625,123.50833 67.8457616,123.612331 C67.6537606,123.716331 67.4297628,123.768331 67.1737616,123.768331 C66.7737596,123.768331 66.4377629,123.740331 66.1657616,123.684331 C65.8937602,123.62833 65.609763,123.412333 65.3137616,123.036331 C65.0177601,122.660329 64.8697616,122.048335 64.8697616,121.200331 L64.8697616,112.608331 L62.9017616,112.608331 C62.789761,112.608331 62.685762,112.560331 62.5897616,112.464331 C62.4937611,112.36833 62.4457616,112.264331 62.4457616,112.152331 C62.4457616,112.02433 62.4897611,111.916331 62.5777616,111.828331 C62.665762,111.74033 62.7737609,111.696331 62.9017616,111.696331 L64.8697616,111.696331 L64.8697616,108.648331 C64.8697616,108.52033 64.9177611,108.408331 65.0137616,108.312331 C65.109762,108.21633 65.2217609,108.168331 65.3497616,108.168331 C65.4937623,108.168331 65.6097611,108.21633 65.6977616,108.312331 C65.785762,108.408331 65.8297616,108.52033 65.8297616,108.648331 L65.8297616,111.696331 L68.4697616,111.696331 Z M81.4057616,111.792331 C81.5497623,111.792331 81.6657611,111.84033 81.7537616,111.936331 C81.841762,112.032331 81.8857616,112.14433 81.8857616,112.272331 L81.8857616,123.288331 C81.8857616,123.416331 81.837762,123.52833 81.7417616,123.624331 C81.6457611,123.720331 81.5337622,123.768331 81.4057616,123.768331 C81.2617608,123.768331 81.145762,123.720331 81.0577616,123.624331 C80.9697611,123.52833 80.9257616,123.416331 80.9257616,123.288331 L80.9257616,121.128331 C80.5257596,121.944335 79.9097657,122.628328 79.0777616,123.180331 C78.2457574,123.732333 77.3257666,124.008331 76.3177616,124.008331 C75.2617563,124.008331 74.3097658,123.732333 73.4617616,123.180331 C72.6137573,122.628328 71.949764,121.868336 71.4697616,120.900331 C70.9897592,119.932326 70.7497616,118.848337 70.7497616,117.648331 C70.7497616,116.464325 70.9937591,115.396335 71.4817616,114.444331 C71.969764,113.492326 72.6377573,112.748333 73.4857616,112.212331 C74.3337658,111.676328 75.2777564,111.408331 76.3177616,111.408331 C77.3577668,111.408331 78.2937574,111.680328 79.1257616,112.224331 C79.9577657,112.768333 80.5577597,113.496326 80.9257616,114.408331 L80.9257616,112.272331 C80.9257616,112.14433 80.9697611,112.032331 81.0577616,111.936331 C81.145762,111.84033 81.2617608,111.792331 81.4057616,111.792331 Z M76.3657616,123.096331 C77.245766,123.096331 78.041758,122.860333 78.7537616,122.388331 C79.4657651,121.916328 80.0217596,121.264335 80.4217616,120.432331 C80.8217636,119.600327 81.0217616,118.672336 81.0217616,117.648331 C81.0217616,116.672326 80.8217636,115.776335 80.4217616,114.960331 C80.0217596,114.144327 79.4657651,113.500333 78.7537616,113.028331 C78.041758,112.556328 77.245766,112.320331 76.3657616,112.320331 C75.4857572,112.320331 74.6897651,112.548328 73.9777616,113.004331 C73.265758,113.460333 72.7097636,114.092327 72.3097616,114.900331 C71.9097596,115.708335 71.7097616,116.624326 71.7097616,117.648331 C71.7097616,118.672336 71.9097596,119.600327 72.3097616,120.432331 C72.7097636,121.264335 73.261758,121.916328 73.9657616,122.388331 C74.6697651,122.860333 75.4697571,123.096331 76.3657616,123.096331 Z M91.2937616,111.408331 C92.0297652,111.408331 92.3977616,111.592329 92.3977616,111.960331 C92.3977616,112.104331 92.357762,112.22433 92.2777616,112.320331 C92.1977612,112.416331 92.0937622,112.464331 91.9657616,112.464331 C91.9177613,112.464331 91.8017625,112.428331 91.6177616,112.356331 C91.4337606,112.28433 91.2377626,112.248331 91.0297616,112.248331 C90.3737583,112.248331 89.7177648,112.508328 89.0617616,113.028331 C88.4057583,113.548333 87.8697636,114.204327 87.4537616,114.996331 C87.0377595,115.788335 86.8297616,116.552327 86.8297616,117.288331 L86.8297616,123.288331 C86.8297616,123.416331 86.781762,123.52833 86.6857616,123.624331 C86.5897611,123.720331 86.4777622,123.768331 86.3497616,123.768331 C86.2057608,123.768331 86.089762,123.720331 86.0017616,123.624331 C85.9137611,123.52833 85.8697616,123.416331 85.8697616,123.288331 L85.8697616,112.272331 C85.8697616,112.14433 85.9177611,112.032331 86.0137616,111.936331 C86.109762,111.84033 86.2217609,111.792331 86.3497616,111.792331 C86.4937623,111.792331 86.6097611,111.84033 86.6977616,111.936331 C86.785762,112.032331 86.8297616,112.14433 86.8297616,112.272331 L86.8297616,114.816331 C87.1977634,113.840326 87.7697577,113.032334 88.5457616,112.392331 C89.3217654,111.752327 90.2377563,111.424331 91.2937616,111.408331 Z M103.725762,111.408331 C103.869762,111.408331 103.985761,111.45633 104.073762,111.552331 C104.161762,111.648331 104.205762,111.76033 104.205762,111.888331 L104.205762,122.592331 C104.205762,123.792337 103.961764,124.844326 103.473762,125.748331 C102.985759,126.652335 102.313766,127.348328 101.457762,127.836331 C100.601757,128.324333 99.629767,128.568331 98.5417616,128.568331 C97.837758,128.568331 97.1937645,128.484332 96.6097616,128.316331 C96.0257586,128.14833 95.5337636,127.928332 95.1337616,127.656331 C94.8457601,127.46433 94.757761,127.248332 94.8697616,127.008331 C94.9817621,126.81633 95.1177608,126.720331 95.2777616,126.720331 C95.357762,126.720331 95.4297612,126.74433 95.4937616,126.792331 C95.8777635,127.032332 96.3377589,127.24433 96.8737616,127.428331 C97.4097642,127.612332 97.9817585,127.704331 98.5897616,127.704331 C99.5017661,127.704331 100.309758,127.488333 101.013762,127.056331 C101.717765,126.624329 102.26576,126.020335 102.657762,125.244331 C103.049764,124.468327 103.245762,123.584336 103.245762,122.592331 L103.245762,121.512331 C102.87776,122.232334 102.289766,122.828328 101.481762,123.300331 C100.673758,123.772333 99.8377659,124.008331 98.9737616,124.008331 C97.5337544,124.008331 96.4617651,123.596335 95.7577616,122.772331 C95.053758,121.948327 94.7017616,120.816338 94.7017616,119.376331 L94.7017616,111.888331 C94.7017616,111.76033 94.7457611,111.648331 94.8337616,111.552331 C94.921762,111.45633 95.0377608,111.408331 95.1817616,111.408331 C95.3257623,111.408331 95.4417611,111.45633 95.5297616,111.552331 C95.617762,111.648331 95.6617616,111.76033 95.6617616,111.888331 L95.6617616,119.376331 C95.6617616,121.856343 96.7657505,123.096331 98.9737616,123.096331 C99.661765,123.096331 100.337758,122.916332 101.001762,122.556331 C101.665765,122.196329 102.205759,121.728334 102.621762,121.152331 C103.037764,120.576328 103.245762,119.984334 103.245762,119.376331 L103.245762,111.888331 C103.245762,111.76033 103.289761,111.648331 103.377762,111.552331 C103.465762,111.45633 103.581761,111.408331 103.725762,111.408331 Z M120.477762,106.968331 C120.621762,106.968331 120.737761,107.01633 120.825762,107.112331 C120.913762,107.208331 120.957762,107.32033 120.957762,107.448331 L120.957762,117.816331 C120.957762,118.936336 120.677764,119.968326 120.117762,120.912331 C119.557759,121.856335 118.805766,122.608328 117.861762,123.168331 C116.917757,123.728333 115.893767,124.008331 114.789762,124.008331 C113.669756,124.008331 112.637766,123.728333 111.693762,123.168331 C110.749757,122.608328 109.997764,121.856335 109.437762,120.912331 C108.877759,119.968326 108.597762,118.936336 108.597762,117.816331 L108.597762,107.448331 C108.597762,107.30433 108.645761,107.188331 108.741762,107.100331 C108.837762,107.01233 108.957761,106.968331 109.101762,106.968331 C109.245762,106.968331 109.365761,107.01633 109.461762,107.112331 C109.557762,107.208331 109.605762,107.32033 109.605762,107.448331 L109.605762,117.816331 C109.605762,118.760335 109.837759,119.632327 110.301762,120.432331 C110.765764,121.232335 111.393758,121.868328 112.185762,122.340331 C112.977766,122.812333 113.845757,123.048331 114.789762,123.048331 C115.733766,123.048331 116.601758,122.812333 117.393762,122.340331 C118.185766,121.868328 118.817759,121.232335 119.289762,120.432331 C119.761764,119.632327 119.997762,118.760335 119.997762,117.816331 L119.997762,107.448331 C119.997762,107.32033 120.041761,107.208331 120.129762,107.112331 C120.217762,107.01633 120.333761,106.968331 120.477762,106.968331 Z M130.797762,111.408331 C132.221769,111.408331 133.293758,111.828326 134.013762,112.668331 C134.733765,113.508335 135.093762,114.600324 135.093762,115.944331 L135.093762,123.288331 C135.093762,123.416331 135.045762,123.52833 134.949762,123.624331 C134.853761,123.720331 134.741762,123.768331 134.613762,123.768331 C134.469761,123.768331 134.353762,123.720331 134.265762,123.624331 C134.177761,123.52833 134.133762,123.416331 134.133762,123.288331 L134.133762,116.040331 C134.133762,114.952325 133.849764,114.060334 133.281762,113.364331 C132.713759,112.668327 131.853767,112.320331 130.701762,112.320331 C129.997758,112.320331 129.305765,112.488329 128.625762,112.824331 C127.945758,113.160332 127.389764,113.616328 126.957762,114.192331 C126.525759,114.768334 126.309762,115.384327 126.309762,116.040331 L126.309762,123.288331 C126.309762,123.416331 126.261762,123.52833 126.165762,123.624331 C126.069761,123.720331 125.957762,123.768331 125.829762,123.768331 C125.685761,123.768331 125.569762,123.720331 125.481762,123.624331 C125.393761,123.52833 125.349762,123.416331 125.349762,123.288331 L125.349762,112.272331 C125.349762,112.14433 125.397761,112.032331 125.493762,111.936331 C125.589762,111.84033 125.701761,111.792331 125.829762,111.792331 C125.973762,111.792331 126.089761,111.84033 126.177762,111.936331 C126.265762,112.032331 126.309762,112.14433 126.309762,112.272331 L126.309762,113.880331 C126.773764,113.160327 127.425757,112.568333 128.265762,112.104331 C129.105766,111.640328 129.949757,111.408331 130.797762,111.408331 Z M140.037762,123.288331 C140.037762,123.416331 139.989762,123.52833 139.893762,123.624331 C139.797761,123.720331 139.685762,123.768331 139.557762,123.768331 C139.413761,123.768331 139.297762,123.720331 139.209762,123.624331 C139.121761,123.52833 139.077762,123.416331 139.077762,123.288331 L139.077762,111.888331 C139.077762,111.76033 139.125761,111.648331 139.221762,111.552331 C139.317762,111.45633 139.429761,111.408331 139.557762,111.408331 C139.701762,111.408331 139.817761,111.45633 139.905762,111.552331 C139.993762,111.648331 140.037762,111.76033 140.037762,111.888331 L140.037762,123.288331 Z M139.557762,109.776331 C139.30176,109.776331 139.097762,109.704331 138.945762,109.560331 C138.793761,109.41633 138.717762,109.232332 138.717762,109.008331 L138.717762,108.816331 C138.717762,108.59233 138.797761,108.408331 138.957762,108.264331 C139.117762,108.12033 139.32576,108.048331 139.581762,108.048331 C139.805763,108.048331 139.993761,108.12033 140.145762,108.264331 C140.297762,108.408331 140.373762,108.59233 140.373762,108.816331 L140.373762,109.008331 C140.373762,109.232332 140.297762,109.41633 140.145762,109.560331 C139.993761,109.704331 139.797763,109.776331 139.557762,109.776331 Z M148.485762,111.696331 C148.597762,111.696331 148.701761,111.74433 148.797762,111.840331 C148.893762,111.936331 148.941762,112.04033 148.941762,112.152331 C148.941762,112.280331 148.897762,112.38833 148.809762,112.476331 C148.721761,112.564331 148.613762,112.608331 148.485762,112.608331 L145.845762,112.608331 L145.845762,121.152331 C145.845762,121.856334 145.96976,122.32433 146.217762,122.556331 C146.465763,122.788332 146.78176,122.904331 147.165762,122.904331 C147.229762,122.904331 147.321761,122.888331 147.441762,122.856331 C147.561762,122.824331 147.661761,122.808331 147.741762,122.808331 C147.853762,122.808331 147.949761,122.85233 148.029762,122.940331 C148.109762,123.028331 148.149762,123.12833 148.149762,123.240331 C148.149762,123.384331 148.053763,123.50833 147.861762,123.612331 C147.669761,123.716331 147.445763,123.768331 147.189762,123.768331 C146.78976,123.768331 146.453763,123.740331 146.181762,123.684331 C145.90976,123.62833 145.625763,123.412333 145.329762,123.036331 C145.03376,122.660329 144.885762,122.048335 144.885762,121.200331 L144.885762,112.608331 L142.917762,112.608331 C142.805761,112.608331 142.701762,112.560331 142.605762,112.464331 C142.509761,112.36833 142.461762,112.264331 142.461762,112.152331 C142.461762,112.02433 142.505761,111.916331 142.593762,111.828331 C142.681762,111.74033 142.789761,111.696331 142.917762,111.696331 L144.885762,111.696331 L144.885762,108.648331 C144.885762,108.52033 144.933761,108.408331 145.029762,108.312331 C145.125762,108.21633 145.237761,108.168331 145.365762,108.168331 C145.509762,108.168331 145.625761,108.21633 145.713762,108.312331 C145.801762,108.408331 145.845762,108.52033 145.845762,108.648331 L145.845762,111.696331 L148.485762,111.696331 Z" id="MonetaryUnit" fill="#000000"></path>
                </g>
            </g>
        </g>
    </g>
</svg>