<?xml version="1.0" encoding="UTF-8"?>
<svg width="341px" height="146px" viewBox="0 0 341 146" version="1.1" xmlns="http://www.w3.org/2000/svg" xmlns:xlink="http://www.w3.org/1999/xlink">
    <!-- Generator: Sketch 50.2 (55047) - http://www.bohemiancoding.com/sketch -->
    <title>logo-main</title>
    <desc>Created with Sketch.</desc>
    <defs>
        <path d="M0.788543837,0.456079281 L340.5,0.456079281 L340.5,145.499518 L0.788543837,145.499518 L0.788543837,0.456079281 Z" id="path-1"></path>
        <mask id="mask-2" maskContentUnits="userSpaceOnUse" maskUnits="objectBoundingBox" x="0" y="0" width="339.711456" height="145.043439" fill="white">
            <use xlink:href="#path-1"></use>
        </mask>
    </defs>
    <g id="Branding" stroke="none" stroke-width="1" fill="none" fill-rule="evenodd">
        <g id="09" transform="translate(-403.000000, -358.000000)">
            <g id="logo-main" transform="translate(403.000000, 358.000000)">
                <use id="Rectangle-3" stroke="#979797" mask="url(#mask-2)" stroke-width="2" stroke-dasharray="5,5" xlink:href="#path-1"></use>
                <g id="MUE-Logo-Wide" transform="translate(39.644272, 25.477799)">
                    <path d="M42.0413759,94.2449116 C19.8925368,91.6641662 2.58608544,74.1753071 0.251933349,52.0150474 C-2.04434292,30.2143673 11.5691369,9.20998155 32.4155639,2.38943761 C61.1692036,-7.018194 91.1142166,12.3863954 94.2840617,42.480683 C96.7262695,65.6668015 81.3352976,87.5276161 58.6440929,93.102509 C53.4322824,94.3829618 47.0154695,94.8244958 42.0413759,94.2449116 Z M31.2510796,65.459071 L36.6425666,45.9031178 L47.1392414,57.6127512 L57.3958795,45.8990245 L63.021343,65.4583672 L71.0102128,65.4587717 L62.4361324,27.7189376 L47.1389279,45.2254828 L31.7581634,27.7102999 L23.1944856,65.4599386 L31.2510796,65.459071 Z M49.8764005,31.6157566 C53.0814396,28.4950077 55.941958,26.1986263 59.8449028,23.6131949 C61.6402265,22.4239148 62.0463561,21.9676555 61.3096402,21.9676555 C60.2907021,21.9676555 52.949394,26.9186451 48.8049058,30.4008686 L46.4233807,32.4018396 L45.2656765,31.1592769 C44.6289388,30.4758699 42.9808977,28.6878735 41.6033608,27.1859499 C40.225824,25.6840304 38.8322535,24.2805723 38.5065351,24.0671547 C37.971341,23.7164818 37.8534685,23.7189916 37.2823157,24.0932257 C36.9347128,24.3209842 36.6503105,24.7360124 36.6503105,25.0155124 C36.6503105,26.7188728 41.0693194,32.4222377 43.7150633,34.1335866 C45.7484436,35.448841 46.0781703,35.3140975 49.8764005,31.6157566 Z" id="path3666" fill="#FE9518" fill-rule="nonzero"></path>
                    <path d="M129.90649,7.2 C130.034491,7.21600008 130.13849,7.26799956 130.21849,7.356 C130.29849,7.44400044 130.33849,7.55199936 130.33849,7.68 L130.33849,23.52 C130.33849,23.6480006 130.286491,23.7599995 130.18249,23.856 C130.07849,23.9520005 129.962491,24 129.83449,24 C129.690489,24 129.570491,23.9520005 129.47449,23.856 C129.37849,23.7599995 129.33049,23.6480006 129.33049,23.52 L129.33049,9.168 L123.13849,18.528 C123.05849,18.6560006 122.946491,18.72 122.80249,18.72 C122.626489,18.72 122.49849,18.6560006 122.41849,18.528 L116.20249,9.144 L116.20249,23.52 C116.20249,23.6480006 116.154491,23.7599995 116.05849,23.856 C115.96249,23.9520005 115.850491,24 115.72249,24 C115.578489,24 115.462491,23.9520005 115.37449,23.856 C115.28649,23.7599995 115.24249,23.6480006 115.24249,23.52 L115.24249,7.68 C115.24249,7.56799944 115.28649,7.46000052 115.37449,7.356 C115.462491,7.25199948 115.570489,7.2 115.69849,7.2 C115.906491,7.2 116.05849,7.27199928 116.15449,7.416 L122.80249,17.304 L129.45049,7.416 C129.578491,7.23999912 129.730489,7.16799984 129.90649,7.2 Z M145.72249,17.952 C145.72249,19.1360059 145.466493,20.2039952 144.95449,21.156 C144.442488,22.1080048 143.734495,22.8599972 142.83049,23.412 C141.926486,23.9640028 140.922496,24.24 139.81849,24.24 C138.714485,24.24 137.710495,23.9640028 136.80649,23.412 C135.902486,22.8599972 135.190493,22.1040048 134.67049,21.144 C134.150487,20.1839952 133.89049,19.1200058 133.89049,17.952 C133.89049,16.7679941 134.150487,15.6960048 134.67049,14.736 C135.190493,13.7759952 135.898486,13.0200028 136.79449,12.468 C137.690495,11.9159972 138.698484,11.64 139.81849,11.64 C140.922496,11.64 141.926486,11.9159972 142.83049,12.468 C143.734495,13.0200028 144.442488,13.7759952 144.95449,14.736 C145.466493,15.6960048 145.72249,16.7679941 145.72249,17.952 Z M144.76249,17.952 C144.76249,16.9279949 144.550492,16.0080041 144.12649,15.192 C143.702488,14.3759959 143.114494,13.7320024 142.36249,13.26 C141.610486,12.7879976 140.762495,12.552 139.81849,12.552 C138.890485,12.552 138.046494,12.7879976 137.28649,13.26 C136.526486,13.7320024 135.930492,14.3759959 135.49849,15.192 C135.066488,16.0080041 134.85049,16.9279949 134.85049,17.952 C134.85049,18.960005 135.066488,19.8719959 135.49849,20.688 C135.930492,21.5040041 136.526486,22.1479976 137.28649,22.62 C138.046494,23.0920024 138.890485,23.328 139.81849,23.328 C140.762495,23.328 141.610486,23.0960023 142.36249,22.632 C143.114494,22.1679977 143.702488,21.5240041 144.12649,20.7 C144.550492,19.8759959 144.76249,18.960005 144.76249,17.952 Z M154.31449,11.64 C155.738497,11.64 156.810486,12.0599958 157.53049,12.9 C158.250494,13.7400042 158.61049,14.8319933 158.61049,16.176 L158.61049,23.52 C158.61049,23.6480006 158.562491,23.7599995 158.46649,23.856 C158.37049,23.9520005 158.258491,24 158.13049,24 C157.986489,24 157.870491,23.9520005 157.78249,23.856 C157.69449,23.7599995 157.65049,23.6480006 157.65049,23.52 L157.65049,16.272 C157.65049,15.1839946 157.366493,14.2920035 156.79849,13.596 C156.230487,12.8999965 155.370496,12.552 154.21849,12.552 C153.514487,12.552 152.822493,12.7199983 152.14249,13.056 C151.462487,13.3920017 150.906492,13.8479971 150.47449,14.424 C150.042488,15.0000029 149.82649,15.6159967 149.82649,16.272 L149.82649,23.52 C149.82649,23.6480006 149.778491,23.7599995 149.68249,23.856 C149.58649,23.9520005 149.474491,24 149.34649,24 C149.202489,24 149.086491,23.9520005 148.99849,23.856 C148.91049,23.7599995 148.86649,23.6480006 148.86649,23.52 L148.86649,12.504 C148.86649,12.3759994 148.91449,12.2640005 149.01049,12.168 C149.106491,12.0719995 149.218489,12.024 149.34649,12.024 C149.490491,12.024 149.60649,12.0719995 149.69449,12.168 C149.782491,12.2640005 149.82649,12.3759994 149.82649,12.504 L149.82649,14.112 C150.290492,13.3919964 150.942486,12.8000023 151.78249,12.336 C152.622494,11.8719977 153.466486,11.64 154.31449,11.64 Z M172.07449,21.12 C172.186491,21.12 172.28249,21.1639996 172.36249,21.252 C172.44249,21.3400004 172.48249,21.4399994 172.48249,21.552 C172.48249,21.6640006 172.45049,21.7599996 172.38649,21.84 C171.858487,22.5440035 171.202494,23.1199978 170.41849,23.568 C169.634486,24.0160022 168.794495,24.24 167.89849,24.24 C166.698484,24.24 165.634495,23.9840026 164.70649,23.472 C163.778485,22.9599974 163.054493,22.2320047 162.53449,21.288 C162.014487,20.3439953 161.75449,19.2480062 161.75449,18 C161.75449,16.7199936 162.006488,15.5960048 162.51049,14.628 C163.014493,13.6599952 163.682486,12.9200026 164.51449,12.408 C165.346494,11.8959974 166.234485,11.64 167.17849,11.64 C168.122495,11.64 168.998486,11.843998 169.80649,12.252 C170.614494,12.660002 171.274488,13.2719959 171.78649,14.088 C172.298493,14.9040041 172.57049,15.911994 172.60249,17.112 C172.60249,17.2400006 172.554491,17.3559995 172.45849,17.46 C172.36249,17.5640005 172.250491,17.616 172.12249,17.616 L162.69049,17.616 L162.69049,17.928 C162.69049,18.920005 162.890488,19.8279959 163.29049,20.652 C163.690492,21.4760041 164.282486,22.1279976 165.06649,22.608 C165.850494,23.0880024 166.794485,23.328 167.89849,23.328 C168.666494,23.328 169.390487,23.1400019 170.07049,22.764 C170.750493,22.3879981 171.282488,21.9120029 171.66649,21.336 C171.778491,21.1919993 171.914489,21.12 172.07449,21.12 Z M167.17849,12.6 C166.586487,12.6 165.982493,12.7559984 165.36649,13.068 C164.750487,13.3800016 164.206492,13.8439969 163.73449,14.46 C163.262488,15.0760031 162.946491,15.8239956 162.78649,16.704 L171.61849,16.704 L171.61849,16.488 C171.53849,15.6719959 171.278492,14.9720029 170.83849,14.388 C170.398488,13.8039971 169.854493,13.3600015 169.20649,13.056 C168.558487,12.7519985 167.882494,12.6 167.17849,12.6 Z M180.21049,11.928 C180.322491,11.928 180.42649,11.9759995 180.52249,12.072 C180.618491,12.1680005 180.66649,12.2719994 180.66649,12.384 C180.66649,12.5120006 180.622491,12.6199996 180.53449,12.708 C180.44649,12.7960004 180.338491,12.84 180.21049,12.84 L177.57049,12.84 L177.57049,21.384 C177.57049,22.0880035 177.694489,22.5559988 177.94249,22.788 C178.190491,23.0200012 178.506488,23.136 178.89049,23.136 C178.95449,23.136 179.046489,23.1200002 179.16649,23.088 C179.286491,23.0559998 179.38649,23.04 179.46649,23.04 C179.578491,23.04 179.67449,23.0839996 179.75449,23.172 C179.83449,23.2600004 179.87449,23.3599994 179.87449,23.472 C179.87449,23.6160007 179.778491,23.7399995 179.58649,23.844 C179.394489,23.9480005 179.170491,24 178.91449,24 C178.514488,24 178.178491,23.9720003 177.90649,23.916 C177.634489,23.8599997 177.350492,23.6440019 177.05449,23.268 C176.758489,22.8919981 176.61049,22.2800042 176.61049,21.432 L176.61049,12.84 L174.64249,12.84 C174.53049,12.84 174.426491,12.7920005 174.33049,12.696 C174.23449,12.5999995 174.18649,12.4960006 174.18649,12.384 C174.18649,12.2559994 174.23049,12.1480004 174.31849,12.06 C174.406491,11.9719996 174.514489,11.928 174.64249,11.928 L176.61049,11.928 L176.61049,8.88 C176.61049,8.75199936 176.65849,8.64000048 176.75449,8.544 C176.850491,8.44799952 176.962489,8.4 177.09049,8.4 C177.234491,8.4 177.35049,8.44799952 177.43849,8.544 C177.526491,8.64000048 177.57049,8.75199936 177.57049,8.88 L177.57049,11.928 L180.21049,11.928 Z M193.14649,12.024 C193.290491,12.024 193.40649,12.0719995 193.49449,12.168 C193.582491,12.2640005 193.62649,12.3759994 193.62649,12.504 L193.62649,23.52 C193.62649,23.6480006 193.578491,23.7599995 193.48249,23.856 C193.38649,23.9520005 193.274491,24 193.14649,24 C193.002489,24 192.886491,23.9520005 192.79849,23.856 C192.71049,23.7599995 192.66649,23.6480006 192.66649,23.52 L192.66649,21.36 C192.266488,22.1760041 191.650494,22.8599972 190.81849,23.412 C189.986486,23.9640028 189.066495,24.24 188.05849,24.24 C187.002485,24.24 186.050494,23.9640028 185.20249,23.412 C184.354486,22.8599972 183.690492,22.1000048 183.21049,21.132 C182.730488,20.1639952 182.49049,19.080006 182.49049,17.88 C182.49049,16.6959941 182.734488,15.6280048 183.22249,14.676 C183.710493,13.7239952 184.378486,12.9800027 185.22649,12.444 C186.074494,11.9079973 187.018485,11.64 188.05849,11.64 C189.098495,11.64 190.034486,11.9119973 190.86649,12.456 C191.698494,13.0000027 192.298488,13.7279954 192.66649,14.64 L192.66649,12.504 C192.66649,12.3759994 192.71049,12.2640005 192.79849,12.168 C192.886491,12.0719995 193.002489,12.024 193.14649,12.024 Z M188.10649,23.328 C188.986494,23.328 189.782487,23.0920024 190.49449,22.62 C191.206494,22.1479976 191.762488,21.4960042 192.16249,20.664 C192.562492,19.8319958 192.76249,18.9040051 192.76249,17.88 C192.76249,16.9039951 192.562492,16.0080041 192.16249,15.192 C191.762488,14.3759959 191.206494,13.7320024 190.49449,13.26 C189.782487,12.7879976 188.986494,12.552 188.10649,12.552 C187.226486,12.552 186.430494,12.7799977 185.71849,13.236 C185.006487,13.6920023 184.450492,14.323996 184.05049,15.132 C183.650488,15.940004 183.45049,16.8559949 183.45049,17.88 C183.45049,18.9040051 183.650488,19.8319958 184.05049,20.664 C184.450492,21.4960042 185.002487,22.1479976 185.70649,22.62 C186.410494,23.0920024 187.210486,23.328 188.10649,23.328 Z M203.03449,11.64 C203.770494,11.64 204.13849,11.8239982 204.13849,12.192 C204.13849,12.3360007 204.09849,12.4559995 204.01849,12.552 C203.93849,12.6480005 203.834491,12.696 203.70649,12.696 C203.65849,12.696 203.542491,12.6600004 203.35849,12.588 C203.174489,12.5159996 202.978491,12.48 202.77049,12.48 C202.114487,12.48 201.458493,12.7399974 200.80249,13.26 C200.146487,13.7800026 199.610492,14.435996 199.19449,15.228 C198.778488,16.020004 198.57049,16.7839963 198.57049,17.52 L198.57049,23.52 C198.57049,23.6480006 198.522491,23.7599995 198.42649,23.856 C198.33049,23.9520005 198.218491,24 198.09049,24 C197.946489,24 197.830491,23.9520005 197.74249,23.856 C197.65449,23.7599995 197.61049,23.6480006 197.61049,23.52 L197.61049,12.504 C197.61049,12.3759994 197.65849,12.2640005 197.75449,12.168 C197.850491,12.0719995 197.962489,12.024 198.09049,12.024 C198.234491,12.024 198.35049,12.0719995 198.43849,12.168 C198.526491,12.2640005 198.57049,12.3759994 198.57049,12.504 L198.57049,15.048 C198.938492,14.0719951 199.510486,13.2640032 200.28649,12.624 C201.062494,11.9839968 201.978485,11.6560001 203.03449,11.64 Z M215.46649,11.64 C215.610491,11.64 215.72649,11.6879995 215.81449,11.784 C215.902491,11.8800005 215.94649,11.9919994 215.94649,12.12 L215.94649,22.824 C215.94649,24.024006 215.702493,25.0759955 215.21449,25.98 C214.726488,26.8840045 214.054494,27.5799976 213.19849,28.068 C212.342486,28.5560024 211.370496,28.8 210.28249,28.8 C209.578487,28.8 208.934493,28.7160008 208.35049,28.548 C207.766487,28.3799992 207.274492,28.1600014 206.87449,27.888 C206.586489,27.695999 206.49849,27.4800012 206.61049,27.24 C206.722491,27.047999 206.858489,26.952 207.01849,26.952 C207.09849,26.952 207.17049,26.9759998 207.23449,27.024 C207.618492,27.2640012 208.078487,27.4759991 208.61449,27.66 C209.150493,27.8440009 209.722487,27.936 210.33049,27.936 C211.242495,27.936 212.050487,27.7200022 212.75449,27.288 C213.458494,26.8559978 214.006488,26.2520039 214.39849,25.476 C214.790492,24.6999961 214.98649,23.816005 214.98649,22.824 L214.98649,21.744 C214.618488,22.4640036 214.030494,23.0599976 213.22249,23.532 C212.414486,24.0040024 211.578494,24.24 210.71449,24.24 C209.274483,24.24 208.202494,23.8280041 207.49849,23.004 C206.794487,22.1799959 206.44249,21.0480072 206.44249,19.608 L206.44249,12.12 C206.44249,11.9919994 206.48649,11.8800005 206.57449,11.784 C206.662491,11.6879995 206.778489,11.64 206.92249,11.64 C207.066491,11.64 207.18249,11.6879995 207.27049,11.784 C207.358491,11.8800005 207.40249,11.9919994 207.40249,12.12 L207.40249,19.608 C207.40249,22.0880124 208.506479,23.328 210.71449,23.328 C211.402494,23.328 212.078487,23.1480018 212.74249,22.788 C213.406493,22.4279982 213.946488,21.9600029 214.36249,21.384 C214.778492,20.8079971 214.98649,20.216003 214.98649,19.608 L214.98649,12.12 C214.98649,11.9919994 215.03049,11.8800005 215.11849,11.784 C215.206491,11.6879995 215.322489,11.64 215.46649,11.64 Z M232.21849,7.2 C232.362491,7.2 232.47849,7.24799952 232.56649,7.344 C232.654491,7.44000048 232.69849,7.55199936 232.69849,7.68 L232.69849,18.048 C232.69849,19.1680056 232.418493,20.1999953 231.85849,21.144 C231.298487,22.0880047 230.546495,22.8399972 229.60249,23.4 C228.658485,23.9600028 227.634496,24.24 226.53049,24.24 C225.410484,24.24 224.378495,23.9600028 223.43449,23.4 C222.490485,22.8399972 221.738493,22.0880047 221.17849,21.144 C220.618487,20.1999953 220.33849,19.1680056 220.33849,18.048 L220.33849,7.68 C220.33849,7.53599928 220.38649,7.42000044 220.48249,7.332 C220.578491,7.24399956 220.698489,7.2 220.84249,7.2 C220.986491,7.2 221.10649,7.24799952 221.20249,7.344 C221.298491,7.44000048 221.34649,7.55199936 221.34649,7.68 L221.34649,18.048 C221.34649,18.9920047 221.578488,19.863996 222.04249,20.664 C222.506492,21.464004 223.134486,22.0999976 223.92649,22.572 C224.718494,23.0440024 225.586485,23.28 226.53049,23.28 C227.474495,23.28 228.342486,23.0440024 229.13449,22.572 C229.926494,22.0999976 230.558488,21.464004 231.03049,20.664 C231.502492,19.863996 231.73849,18.9920047 231.73849,18.048 L231.73849,7.68 C231.73849,7.55199936 231.78249,7.44000048 231.87049,7.344 C231.958491,7.24799952 232.074489,7.2 232.21849,7.2 Z M242.53849,11.64 C243.962497,11.64 245.034486,12.0599958 245.75449,12.9 C246.474494,13.7400042 246.83449,14.8319933 246.83449,16.176 L246.83449,23.52 C246.83449,23.6480006 246.786491,23.7599995 246.69049,23.856 C246.59449,23.9520005 246.482491,24 246.35449,24 C246.210489,24 246.094491,23.9520005 246.00649,23.856 C245.91849,23.7599995 245.87449,23.6480006 245.87449,23.52 L245.87449,16.272 C245.87449,15.1839946 245.590493,14.2920035 245.02249,13.596 C244.454487,12.8999965 243.594496,12.552 242.44249,12.552 C241.738487,12.552 241.046493,12.7199983 240.36649,13.056 C239.686487,13.3920017 239.130492,13.8479971 238.69849,14.424 C238.266488,15.0000029 238.05049,15.6159967 238.05049,16.272 L238.05049,23.52 C238.05049,23.6480006 238.002491,23.7599995 237.90649,23.856 C237.81049,23.9520005 237.698491,24 237.57049,24 C237.426489,24 237.310491,23.9520005 237.22249,23.856 C237.13449,23.7599995 237.09049,23.6480006 237.09049,23.52 L237.09049,12.504 C237.09049,12.3759994 237.13849,12.2640005 237.23449,12.168 C237.330491,12.0719995 237.442489,12.024 237.57049,12.024 C237.714491,12.024 237.83049,12.0719995 237.91849,12.168 C238.006491,12.2640005 238.05049,12.3759994 238.05049,12.504 L238.05049,14.112 C238.514492,13.3919964 239.166486,12.8000023 240.00649,12.336 C240.846494,11.8719977 241.690486,11.64 242.53849,11.64 Z M251.77849,23.52 C251.77849,23.6480006 251.730491,23.7599995 251.63449,23.856 C251.53849,23.9520005 251.426491,24 251.29849,24 C251.154489,24 251.038491,23.9520005 250.95049,23.856 C250.86249,23.7599995 250.81849,23.6480006 250.81849,23.52 L250.81849,12.12 C250.81849,11.9919994 250.86649,11.8800005 250.96249,11.784 C251.058491,11.6879995 251.170489,11.64 251.29849,11.64 C251.442491,11.64 251.55849,11.6879995 251.64649,11.784 C251.734491,11.8800005 251.77849,11.9919994 251.77849,12.12 L251.77849,23.52 Z M251.29849,10.008 C251.042489,10.008 250.838491,9.93600072 250.68649,9.792 C250.534489,9.64799928 250.45849,9.46400112 250.45849,9.24 L250.45849,9.048 C250.45849,8.82399888 250.538489,8.64000072 250.69849,8.496 C250.858491,8.35199928 251.066489,8.28 251.32249,8.28 C251.546491,8.28 251.734489,8.35199928 251.88649,8.496 C252.038491,8.64000072 252.11449,8.82399888 252.11449,9.048 L252.11449,9.24 C252.11449,9.46400112 252.038491,9.64799928 251.88649,9.792 C251.734489,9.93600072 251.538491,10.008 251.29849,10.008 Z M260.22649,11.928 C260.338491,11.928 260.44249,11.9759995 260.53849,12.072 C260.634491,12.1680005 260.68249,12.2719994 260.68249,12.384 C260.68249,12.5120006 260.638491,12.6199996 260.55049,12.708 C260.46249,12.7960004 260.354491,12.84 260.22649,12.84 L257.58649,12.84 L257.58649,21.384 C257.58649,22.0880035 257.710489,22.5559988 257.95849,22.788 C258.206491,23.0200012 258.522488,23.136 258.90649,23.136 C258.97049,23.136 259.062489,23.1200002 259.18249,23.088 C259.302491,23.0559998 259.40249,23.04 259.48249,23.04 C259.594491,23.04 259.69049,23.0839996 259.77049,23.172 C259.85049,23.2600004 259.89049,23.3599994 259.89049,23.472 C259.89049,23.6160007 259.794491,23.7399995 259.60249,23.844 C259.410489,23.9480005 259.186491,24 258.93049,24 C258.530488,24 258.194491,23.9720003 257.92249,23.916 C257.650489,23.8599997 257.366492,23.6440019 257.07049,23.268 C256.774489,22.8919981 256.62649,22.2800042 256.62649,21.432 L256.62649,12.84 L254.65849,12.84 C254.54649,12.84 254.442491,12.7920005 254.34649,12.696 C254.25049,12.5999995 254.20249,12.4960006 254.20249,12.384 C254.20249,12.2559994 254.24649,12.1480004 254.33449,12.06 C254.422491,11.9719996 254.530489,11.928 254.65849,11.928 L256.62649,11.928 L256.62649,8.88 C256.62649,8.75199936 256.67449,8.64000048 256.77049,8.544 C256.866491,8.44799952 256.978489,8.4 257.10649,8.4 C257.250491,8.4 257.36649,8.44799952 257.45449,8.544 C257.542491,8.64000048 257.58649,8.75199936 257.58649,8.88 L257.58649,11.928 L260.22649,11.928 Z" id="MonetaryUnit" fill="#000000"></path>
                </g>
            </g>
        </g>
    </g>
</svg>