<?xml version="1.0" encoding="UTF-8"?>
<svg width="180px" height="180px" viewBox="0 0 180 180" version="1.1" xmlns="http://www.w3.org/2000/svg" xmlns:xlink="http://www.w3.org/1999/xlink">
    <!-- Generator: Sketch 50.2 (55047) - http://www.bohemiancoding.com/sketch -->
    <title>logo=emblem</title>
    <desc>Created with Sketch.</desc>
    <defs>
        <path d="M0,0 L180,0 L180,180 L0,180 L0,0 Z" id="path-1"></path>
        <mask id="mask-2" maskContentUnits="userSpaceOnUse" maskUnits="objectBoundingBox" x="0" y="0" width="180" height="180" fill="white">
            <use xlink:href="#path-1"></use>
        </mask>
    </defs>
    <g id="Branding" stroke="none" stroke-width="1" fill="none" fill-rule="evenodd">
        <g id="09" transform="translate(-1140.000000, -358.000000)">
            <g id="logo=emblem" transform="translate(1140.000000, 358.000000)">
                <use id="Rectangle-3-Copy-2" stroke="#979797" mask="url(#mask-2)" stroke-width="2" stroke-dasharray="5,5" xlink:href="#path-1"></use>
                <path d="M82.8111667,154.625981 C52.3540598,151.077171 28.5557725,127.028052 25.3460548,96.555241 C22.1884206,66.5768914 40.9084632,37.6935347 69.5746091,28.3145313 C109.114048,15.3779959 150.291758,42.0614555 154.650646,83.4444341 C158.008952,115.327915 136.844661,145.388956 105.641741,153.055051 C98.4749247,154.815816 89.6510963,155.422974 82.8111667,154.625981 Z M67.9733142,115.042262 L75.387206,88.150661 L89.8212963,104.252704 L103.92531,88.1450321 L111.660945,115.041295 L122.646526,115.041851 L110.856216,63.1453992 L89.8208653,87.2188378 L68.6706106,63.1335213 L56.8946052,115.043456 L67.9733142,115.042262 Z M93.5851932,68.5039568 C97.992477,64.2125815 101.926007,61.0548027 107.292988,57.4995483 C109.761757,55.8641564 110.32023,55.2367494 109.307164,55.2367494 C107.906011,55.2367494 97.8108997,62.0449083 92.1117695,66.8333513 L88.8369086,69.5849081 L87.2449371,67.8762467 C86.3693523,66.9364864 84.1031132,64.4777933 82.2088475,62.4124821 C80.3145818,60.3471764 78.3982679,58.417266 77.9503692,58.1237932 C77.2144179,57.6415791 77.0523301,57.6450304 76.2669319,58.1596437 C75.7889394,58.4728369 75.3978547,59.0435467 75.3978547,59.4278902 C75.3978547,61.7701992 81.4744814,69.6129577 85.1126722,71.9662519 C87.9087953,73.7748725 88.3622061,73.5895853 93.5851932,68.5039568 Z" id="MUE-emblem" fill="#FE9518" fill-rule="nonzero"></path>
            </g>
        </g>
    </g>
</svg>