<?xml version="1.0" encoding="UTF-8"?>
<svg width="261px" height="95px" viewBox="0 0 261 95" version="1.1" xmlns="http://www.w3.org/2000/svg" xmlns:xlink="http://www.w3.org/1999/xlink">
    <!-- Generator: Sketch 50.2 (55047) - http://www.bohemiancoding.com/sketch -->
    <title>MUE Logo</title>
    <desc>Created with Sketch.</desc>
    <defs/>
    <g id="Branding" stroke="none" stroke-width="1" fill="none" fill-rule="evenodd">
        <g id="09" transform="translate(-54.000000, -39.000000)">
            <g id="Side-Bar">
                <g id="MUE-Logo" transform="translate(50.000000, 35.000000)">
                    <path d="M46.0413759,98.2449116 C23.8925368,95.6641662 6.58608544,78.1753071 4.25193335,56.0150474 C1.95565708,34.2143673 15.5691369,13.2099816 36.4155639,6.38943761 C65.1692036,-3.018194 95.1142166,16.3863954 98.2840617,46.480683 C100.726269,69.6668015 85.3352976,91.5276161 62.6440929,97.102509 C57.4322824,98.3829618 51.0154695,98.8244958 46.0413759,98.2449116 Z M35.2510796,69.459071 L40.6425666,49.9031178 L51.1392414,61.6127512 L61.3958795,49.8990245 L67.021343,69.4583672 L75.0102128,69.4587717 L66.4361324,31.7189376 L51.1389279,49.2254828 L35.7581634,31.7102999 L27.1944856,69.4599386 L35.2510796,69.459071 Z M53.8764005,35.6157566 C57.0814396,32.4950077 59.941958,30.1986263 63.8449028,27.6131949 C65.6402265,26.4239148 66.0463561,25.9676555 65.3096402,25.9676555 C64.2907021,25.9676555 56.949394,30.9186451 52.8049058,34.4008686 L50.4233807,36.4018396 L49.2656765,35.1592769 C48.6289388,34.4758699 46.9808977,32.6878735 45.6033608,31.1859499 C44.225824,29.6840304 42.8322535,28.2805723 42.5065351,28.0671547 C41.971341,27.7164818 41.8534685,27.7189916 41.2823157,28.0932257 C40.9347128,28.3209842 40.6503105,28.7360124 40.6503105,29.0155124 C40.6503105,30.7188728 45.0693194,36.4222377 47.7150633,38.1335866 C49.7484436,39.448841 50.0781703,39.3140975 53.8764005,35.6157566 Z" id="path3666" fill="#FE9518" fill-rule="nonzero"/>
                    <path d="M133.66249,11.2 C133.790491,11.2160001 133.89449,11.2679996 133.97449,11.356 C134.05449,11.4440004 134.09449,11.5519994 134.09449,11.68 L134.09449,27.52 C134.09449,27.6480006 134.042491,27.7599995 133.93849,27.856 C133.83449,27.9520005 133.718491,28 133.59049,28 C133.446489,28 133.326491,27.9520005 133.23049,27.856 C133.13449,27.7599995 133.08649,27.6480006 133.08649,27.52 L133.08649,13.168 L126.89449,22.528 C126.81449,22.6560006 126.702491,22.72 126.55849,22.72 C126.382489,22.72 126.25449,22.6560006 126.17449,22.528 L119.95849,13.144 L119.95849,27.52 C119.95849,27.6480006 119.910491,27.7599995 119.81449,27.856 C119.71849,27.9520005 119.606491,28 119.47849,28 C119.334489,28 119.218491,27.9520005 119.13049,27.856 C119.04249,27.7599995 118.99849,27.6480006 118.99849,27.52 L118.99849,11.68 C118.99849,11.5679994 119.04249,11.4600005 119.13049,11.356 C119.218491,11.2519995 119.326489,11.2 119.45449,11.2 C119.662491,11.2 119.81449,11.2719993 119.91049,11.416 L126.55849,21.304 L133.20649,11.416 C133.334491,11.2399991 133.486489,11.1679998 133.66249,11.2 Z M149.47849,21.952 C149.47849,23.1360059 149.222493,24.2039952 148.71049,25.156 C148.198488,26.1080048 147.490495,26.8599972 146.58649,27.412 C145.682486,27.9640028 144.678496,28.24 143.57449,28.24 C142.470485,28.24 141.466495,27.9640028 140.56249,27.412 C139.658486,26.8599972 138.946493,26.1040048 138.42649,25.144 C137.906487,24.1839952 137.64649,23.1200058 137.64649,21.952 C137.64649,20.7679941 137.906487,19.6960048 138.42649,18.736 C138.946493,17.7759952 139.654486,17.0200028 140.55049,16.468 C141.446495,15.9159972 142.454484,15.64 143.57449,15.64 C144.678496,15.64 145.682486,15.9159972 146.58649,16.468 C147.490495,17.0200028 148.198488,17.7759952 148.71049,18.736 C149.222493,19.6960048 149.47849,20.7679941 149.47849,21.952 Z M148.51849,21.952 C148.51849,20.9279949 148.306492,20.0080041 147.88249,19.192 C147.458488,18.3759959 146.870494,17.7320024 146.11849,17.26 C145.366486,16.7879976 144.518495,16.552 143.57449,16.552 C142.646485,16.552 141.802494,16.7879976 141.04249,17.26 C140.282486,17.7320024 139.686492,18.3759959 139.25449,19.192 C138.822488,20.0080041 138.60649,20.9279949 138.60649,21.952 C138.60649,22.960005 138.822488,23.8719959 139.25449,24.688 C139.686492,25.5040041 140.282486,26.1479976 141.04249,26.62 C141.802494,27.0920024 142.646485,27.328 143.57449,27.328 C144.518495,27.328 145.366486,27.0960023 146.11849,26.632 C146.870494,26.1679977 147.458488,25.5240041 147.88249,24.7 C148.306492,23.8759959 148.51849,22.960005 148.51849,21.952 Z M158.07049,15.64 C159.494497,15.64 160.566486,16.0599958 161.28649,16.9 C162.006494,17.7400042 162.36649,18.8319933 162.36649,20.176 L162.36649,27.52 C162.36649,27.6480006 162.318491,27.7599995 162.22249,27.856 C162.12649,27.9520005 162.014491,28 161.88649,28 C161.742489,28 161.626491,27.9520005 161.53849,27.856 C161.45049,27.7599995 161.40649,27.6480006 161.40649,27.52 L161.40649,20.272 C161.40649,19.1839946 161.122493,18.2920035 160.55449,17.596 C159.986487,16.8999965 159.126496,16.552 157.97449,16.552 C157.270487,16.552 156.578493,16.7199983 155.89849,17.056 C155.218487,17.3920017 154.662492,17.8479971 154.23049,18.424 C153.798488,19.0000029 153.58249,19.6159967 153.58249,20.272 L153.58249,27.52 C153.58249,27.6480006 153.534491,27.7599995 153.43849,27.856 C153.34249,27.9520005 153.230491,28 153.10249,28 C152.958489,28 152.842491,27.9520005 152.75449,27.856 C152.66649,27.7599995 152.62249,27.6480006 152.62249,27.52 L152.62249,16.504 C152.62249,16.3759994 152.67049,16.2640005 152.76649,16.168 C152.862491,16.0719995 152.974489,16.024 153.10249,16.024 C153.246491,16.024 153.36249,16.0719995 153.45049,16.168 C153.538491,16.2640005 153.58249,16.3759994 153.58249,16.504 L153.58249,18.112 C154.046492,17.3919964 154.698486,16.8000023 155.53849,16.336 C156.378494,15.8719977 157.222486,15.64 158.07049,15.64 Z M175.83049,25.12 C175.942491,25.12 176.03849,25.1639996 176.11849,25.252 C176.19849,25.3400004 176.23849,25.4399994 176.23849,25.552 C176.23849,25.6640006 176.20649,25.7599996 176.14249,25.84 C175.614487,26.5440035 174.958494,27.1199978 174.17449,27.568 C173.390486,28.0160022 172.550495,28.24 171.65449,28.24 C170.454484,28.24 169.390495,27.9840026 168.46249,27.472 C167.534485,26.9599974 166.810493,26.2320047 166.29049,25.288 C165.770487,24.3439953 165.51049,23.2480062 165.51049,22 C165.51049,20.7199936 165.762488,19.5960048 166.26649,18.628 C166.770493,17.6599952 167.438486,16.9200026 168.27049,16.408 C169.102494,15.8959974 169.990485,15.64 170.93449,15.64 C171.878495,15.64 172.754486,15.843998 173.56249,16.252 C174.370494,16.660002 175.030488,17.2719959 175.54249,18.088 C176.054493,18.9040041 176.32649,19.911994 176.35849,21.112 C176.35849,21.2400006 176.310491,21.3559995 176.21449,21.46 C176.11849,21.5640005 176.006491,21.616 175.87849,21.616 L166.44649,21.616 L166.44649,21.928 C166.44649,22.920005 166.646488,23.8279959 167.04649,24.652 C167.446492,25.4760041 168.038486,26.1279976 168.82249,26.608 C169.606494,27.0880024 170.550485,27.328 171.65449,27.328 C172.422494,27.328 173.146487,27.1400019 173.82649,26.764 C174.506493,26.3879981 175.038488,25.9120029 175.42249,25.336 C175.534491,25.1919993 175.670489,25.12 175.83049,25.12 Z M170.93449,16.6 C170.342487,16.6 169.738493,16.7559984 169.12249,17.068 C168.506487,17.3800016 167.962492,17.8439969 167.49049,18.46 C167.018488,19.0760031 166.702491,19.8239956 166.54249,20.704 L175.37449,20.704 L175.37449,20.488 C175.29449,19.6719959 175.034492,18.9720029 174.59449,18.388 C174.154488,17.8039971 173.610493,17.3600015 172.96249,17.056 C172.314487,16.7519985 171.638494,16.6 170.93449,16.6 Z M183.96649,15.928 C184.078491,15.928 184.18249,15.9759995 184.27849,16.072 C184.374491,16.1680005 184.42249,16.2719994 184.42249,16.384 C184.42249,16.5120006 184.378491,16.6199996 184.29049,16.708 C184.20249,16.7960004 184.094491,16.84 183.96649,16.84 L181.32649,16.84 L181.32649,25.384 C181.32649,26.0880035 181.450489,26.5559988 181.69849,26.788 C181.946491,27.0200012 182.262488,27.136 182.64649,27.136 C182.71049,27.136 182.802489,27.1200002 182.92249,27.088 C183.042491,27.0559998 183.14249,27.04 183.22249,27.04 C183.334491,27.04 183.43049,27.0839996 183.51049,27.172 C183.59049,27.2600004 183.63049,27.3599994 183.63049,27.472 C183.63049,27.6160007 183.534491,27.7399995 183.34249,27.844 C183.150489,27.9480005 182.926491,28 182.67049,28 C182.270488,28 181.934491,27.9720003 181.66249,27.916 C181.390489,27.8599997 181.106492,27.6440019 180.81049,27.268 C180.514489,26.8919981 180.36649,26.2800042 180.36649,25.432 L180.36649,16.84 L178.39849,16.84 C178.28649,16.84 178.182491,16.7920005 178.08649,16.696 C177.99049,16.5999995 177.94249,16.4960006 177.94249,16.384 C177.94249,16.2559994 177.98649,16.1480004 178.07449,16.06 C178.162491,15.9719996 178.270489,15.928 178.39849,15.928 L180.36649,15.928 L180.36649,12.88 C180.36649,12.7519994 180.41449,12.6400005 180.51049,12.544 C180.606491,12.4479995 180.718489,12.4 180.84649,12.4 C180.990491,12.4 181.10649,12.4479995 181.19449,12.544 C181.282491,12.6400005 181.32649,12.7519994 181.32649,12.88 L181.32649,15.928 L183.96649,15.928 Z M196.90249,16.024 C197.046491,16.024 197.16249,16.0719995 197.25049,16.168 C197.338491,16.2640005 197.38249,16.3759994 197.38249,16.504 L197.38249,27.52 C197.38249,27.6480006 197.334491,27.7599995 197.23849,27.856 C197.14249,27.9520005 197.030491,28 196.90249,28 C196.758489,28 196.642491,27.9520005 196.55449,27.856 C196.46649,27.7599995 196.42249,27.6480006 196.42249,27.52 L196.42249,25.36 C196.022488,26.1760041 195.406494,26.8599972 194.57449,27.412 C193.742486,27.9640028 192.822495,28.24 191.81449,28.24 C190.758485,28.24 189.806494,27.9640028 188.95849,27.412 C188.110486,26.8599972 187.446492,26.1000048 186.96649,25.132 C186.486488,24.1639952 186.24649,23.080006 186.24649,21.88 C186.24649,20.6959941 186.490488,19.6280048 186.97849,18.676 C187.466493,17.7239952 188.134486,16.9800027 188.98249,16.444 C189.830494,15.9079973 190.774485,15.64 191.81449,15.64 C192.854495,15.64 193.790486,15.9119973 194.62249,16.456 C195.454494,17.0000027 196.054488,17.7279954 196.42249,18.64 L196.42249,16.504 C196.42249,16.3759994 196.46649,16.2640005 196.55449,16.168 C196.642491,16.0719995 196.758489,16.024 196.90249,16.024 Z M191.86249,27.328 C192.742494,27.328 193.538487,27.0920024 194.25049,26.62 C194.962494,26.1479976 195.518488,25.4960042 195.91849,24.664 C196.318492,23.8319958 196.51849,22.9040051 196.51849,21.88 C196.51849,20.9039951 196.318492,20.0080041 195.91849,19.192 C195.518488,18.3759959 194.962494,17.7320024 194.25049,17.26 C193.538487,16.7879976 192.742494,16.552 191.86249,16.552 C190.982486,16.552 190.186494,16.7799977 189.47449,17.236 C188.762487,17.6920023 188.206492,18.323996 187.80649,19.132 C187.406488,19.940004 187.20649,20.8559949 187.20649,21.88 C187.20649,22.9040051 187.406488,23.8319958 187.80649,24.664 C188.206492,25.4960042 188.758487,26.1479976 189.46249,26.62 C190.166494,27.0920024 190.966486,27.328 191.86249,27.328 Z M206.79049,15.64 C207.526494,15.64 207.89449,15.8239982 207.89449,16.192 C207.89449,16.3360007 207.85449,16.4559995 207.77449,16.552 C207.69449,16.6480005 207.590491,16.696 207.46249,16.696 C207.41449,16.696 207.298491,16.6600004 207.11449,16.588 C206.930489,16.5159996 206.734491,16.48 206.52649,16.48 C205.870487,16.48 205.214493,16.7399974 204.55849,17.26 C203.902487,17.7800026 203.366492,18.435996 202.95049,19.228 C202.534488,20.020004 202.32649,20.7839963 202.32649,21.52 L202.32649,27.52 C202.32649,27.6480006 202.278491,27.7599995 202.18249,27.856 C202.08649,27.9520005 201.974491,28 201.84649,28 C201.702489,28 201.586491,27.9520005 201.49849,27.856 C201.41049,27.7599995 201.36649,27.6480006 201.36649,27.52 L201.36649,16.504 C201.36649,16.3759994 201.41449,16.2640005 201.51049,16.168 C201.606491,16.0719995 201.718489,16.024 201.84649,16.024 C201.990491,16.024 202.10649,16.0719995 202.19449,16.168 C202.282491,16.2640005 202.32649,16.3759994 202.32649,16.504 L202.32649,19.048 C202.694492,18.0719951 203.266486,17.2640032 204.04249,16.624 C204.818494,15.9839968 205.734485,15.6560001 206.79049,15.64 Z M219.22249,15.64 C219.366491,15.64 219.48249,15.6879995 219.57049,15.784 C219.658491,15.8800005 219.70249,15.9919994 219.70249,16.12 L219.70249,26.824 C219.70249,28.024006 219.458493,29.0759955 218.97049,29.98 C218.482488,30.8840045 217.810494,31.5799976 216.95449,32.068 C216.098486,32.5560024 215.126496,32.8 214.03849,32.8 C213.334487,32.8 212.690493,32.7160008 212.10649,32.548 C211.522487,32.3799992 211.030492,32.1600014 210.63049,31.888 C210.342489,31.695999 210.25449,31.4800012 210.36649,31.24 C210.478491,31.047999 210.614489,30.952 210.77449,30.952 C210.85449,30.952 210.92649,30.9759998 210.99049,31.024 C211.374492,31.2640012 211.834487,31.4759991 212.37049,31.66 C212.906493,31.8440009 213.478487,31.936 214.08649,31.936 C214.998495,31.936 215.806487,31.7200022 216.51049,31.288 C217.214494,30.8559978 217.762488,30.2520039 218.15449,29.476 C218.546492,28.6999961 218.74249,27.816005 218.74249,26.824 L218.74249,25.744 C218.374488,26.4640036 217.786494,27.0599976 216.97849,27.532 C216.170486,28.0040024 215.334494,28.24 214.47049,28.24 C213.030483,28.24 211.958494,27.8280041 211.25449,27.004 C210.550487,26.1799959 210.19849,25.0480072 210.19849,23.608 L210.19849,16.12 C210.19849,15.9919994 210.24249,15.8800005 210.33049,15.784 C210.418491,15.6879995 210.534489,15.64 210.67849,15.64 C210.822491,15.64 210.93849,15.6879995 211.02649,15.784 C211.114491,15.8800005 211.15849,15.9919994 211.15849,16.12 L211.15849,23.608 C211.15849,26.0880124 212.262479,27.328 214.47049,27.328 C215.158494,27.328 215.834487,27.1480018 216.49849,26.788 C217.162493,26.4279982 217.702488,25.9600029 218.11849,25.384 C218.534492,24.8079971 218.74249,24.216003 218.74249,23.608 L218.74249,16.12 C218.74249,15.9919994 218.78649,15.8800005 218.87449,15.784 C218.962491,15.6879995 219.078489,15.64 219.22249,15.64 Z M235.97449,11.2 C236.118491,11.2 236.23449,11.2479995 236.32249,11.344 C236.410491,11.4400005 236.45449,11.5519994 236.45449,11.68 L236.45449,22.048 C236.45449,23.1680056 236.174493,24.1999953 235.61449,25.144 C235.054487,26.0880047 234.302495,26.8399972 233.35849,27.4 C232.414485,27.9600028 231.390496,28.24 230.28649,28.24 C229.166484,28.24 228.134495,27.9600028 227.19049,27.4 C226.246485,26.8399972 225.494493,26.0880047 224.93449,25.144 C224.374487,24.1999953 224.09449,23.1680056 224.09449,22.048 L224.09449,11.68 C224.09449,11.5359993 224.14249,11.4200004 224.23849,11.332 C224.334491,11.2439996 224.454489,11.2 224.59849,11.2 C224.742491,11.2 224.86249,11.2479995 224.95849,11.344 C225.054491,11.4400005 225.10249,11.5519994 225.10249,11.68 L225.10249,22.048 C225.10249,22.9920047 225.334488,23.863996 225.79849,24.664 C226.262492,25.464004 226.890486,26.0999976 227.68249,26.572 C228.474494,27.0440024 229.342485,27.28 230.28649,27.28 C231.230495,27.28 232.098486,27.0440024 232.89049,26.572 C233.682494,26.0999976 234.314488,25.464004 234.78649,24.664 C235.258492,23.863996 235.49449,22.9920047 235.49449,22.048 L235.49449,11.68 C235.49449,11.5519994 235.53849,11.4400005 235.62649,11.344 C235.714491,11.2479995 235.830489,11.2 235.97449,11.2 Z M246.29449,15.64 C247.718497,15.64 248.790486,16.0599958 249.51049,16.9 C250.230494,17.7400042 250.59049,18.8319933 250.59049,20.176 L250.59049,27.52 C250.59049,27.6480006 250.542491,27.7599995 250.44649,27.856 C250.35049,27.9520005 250.238491,28 250.11049,28 C249.966489,28 249.850491,27.9520005 249.76249,27.856 C249.67449,27.7599995 249.63049,27.6480006 249.63049,27.52 L249.63049,20.272 C249.63049,19.1839946 249.346493,18.2920035 248.77849,17.596 C248.210487,16.8999965 247.350496,16.552 246.19849,16.552 C245.494487,16.552 244.802493,16.7199983 244.12249,17.056 C243.442487,17.3920017 242.886492,17.8479971 242.45449,18.424 C242.022488,19.0000029 241.80649,19.6159967 241.80649,20.272 L241.80649,27.52 C241.80649,27.6480006 241.758491,27.7599995 241.66249,27.856 C241.56649,27.9520005 241.454491,28 241.32649,28 C241.182489,28 241.066491,27.9520005 240.97849,27.856 C240.89049,27.7599995 240.84649,27.6480006 240.84649,27.52 L240.84649,16.504 C240.84649,16.3759994 240.89449,16.2640005 240.99049,16.168 C241.086491,16.0719995 241.198489,16.024 241.32649,16.024 C241.470491,16.024 241.58649,16.0719995 241.67449,16.168 C241.762491,16.2640005 241.80649,16.3759994 241.80649,16.504 L241.80649,18.112 C242.270492,17.3919964 242.922486,16.8000023 243.76249,16.336 C244.602494,15.8719977 245.446486,15.64 246.29449,15.64 Z M255.53449,27.52 C255.53449,27.6480006 255.486491,27.7599995 255.39049,27.856 C255.29449,27.9520005 255.182491,28 255.05449,28 C254.910489,28 254.794491,27.9520005 254.70649,27.856 C254.61849,27.7599995 254.57449,27.6480006 254.57449,27.52 L254.57449,16.12 C254.57449,15.9919994 254.62249,15.8800005 254.71849,15.784 C254.814491,15.6879995 254.926489,15.64 255.05449,15.64 C255.198491,15.64 255.31449,15.6879995 255.40249,15.784 C255.490491,15.8800005 255.53449,15.9919994 255.53449,16.12 L255.53449,27.52 Z M255.05449,14.008 C254.798489,14.008 254.594491,13.9360007 254.44249,13.792 C254.290489,13.6479993 254.21449,13.4640011 254.21449,13.24 L254.21449,13.048 C254.21449,12.8239989 254.294489,12.6400007 254.45449,12.496 C254.614491,12.3519993 254.822489,12.28 255.07849,12.28 C255.302491,12.28 255.490489,12.3519993 255.64249,12.496 C255.794491,12.6400007 255.87049,12.8239989 255.87049,13.048 L255.87049,13.24 C255.87049,13.4640011 255.794491,13.6479993 255.64249,13.792 C255.490489,13.9360007 255.294491,14.008 255.05449,14.008 Z M263.98249,15.928 C264.094491,15.928 264.19849,15.9759995 264.29449,16.072 C264.390491,16.1680005 264.43849,16.2719994 264.43849,16.384 C264.43849,16.5120006 264.394491,16.6199996 264.30649,16.708 C264.21849,16.7960004 264.110491,16.84 263.98249,16.84 L261.34249,16.84 L261.34249,25.384 C261.34249,26.0880035 261.466489,26.5559988 261.71449,26.788 C261.962491,27.0200012 262.278488,27.136 262.66249,27.136 C262.72649,27.136 262.818489,27.1200002 262.93849,27.088 C263.058491,27.0559998 263.15849,27.04 263.23849,27.04 C263.350491,27.04 263.44649,27.0839996 263.52649,27.172 C263.60649,27.2600004 263.64649,27.3599994 263.64649,27.472 C263.64649,27.6160007 263.550491,27.7399995 263.35849,27.844 C263.166489,27.9480005 262.942491,28 262.68649,28 C262.286488,28 261.950491,27.9720003 261.67849,27.916 C261.406489,27.8599997 261.122492,27.6440019 260.82649,27.268 C260.530489,26.8919981 260.38249,26.2800042 260.38249,25.432 L260.38249,16.84 L258.41449,16.84 C258.30249,16.84 258.198491,16.7920005 258.10249,16.696 C258.00649,16.5999995 257.95849,16.4960006 257.95849,16.384 C257.95849,16.2559994 258.00249,16.1480004 258.09049,16.06 C258.178491,15.9719996 258.286489,15.928 258.41449,15.928 L260.38249,15.928 L260.38249,12.88 C260.38249,12.7519994 260.43049,12.6400005 260.52649,12.544 C260.622491,12.4479995 260.734489,12.4 260.86249,12.4 C261.006491,12.4 261.12249,12.4479995 261.21049,12.544 C261.298491,12.6400005 261.34249,12.7519994 261.34249,12.88 L261.34249,15.928 L263.98249,15.928 Z" id="MonetaryUnit" fill="#000000" fill-rule="evenodd"/>
                </g>
            </g>
        </g>
    </g>
</svg>