<?xml version="1.0" encoding="UTF-8"?>
<svg width="294px" height="112px" viewBox="0 0 294 112" version="1.1" xmlns="http://www.w3.org/2000/svg" xmlns:xlink="http://www.w3.org/1999/xlink">
    <!-- Generator: Sketch 50.2 (55047) - http://www.bohemiancoding.com/sketch -->
    <title>MUE Logo white</title>
    <desc>Created with Sketch.</desc>
    <defs></defs>
    <g id="Branding" stroke="none" stroke-width="1" fill="none" fill-rule="evenodd">
        <g id="09" transform="translate(-458.000000, -697.000000)" fill="#FFFFFF">
            <g id="MUE-Logo-white" transform="translate(458.000000, 697.551387)">
                <path d="M49.2698515,110.449116 C23.3128035,107.424644 3.03072968,86.9288002 0.295250059,60.958368 C-2.39584148,35.4093405 13.5583017,10.7935198 37.9890046,2.80027078 C71.686464,-8.22488249 106.780138,14.5160773 110.494997,49.7846919 C113.357112,76.9573662 95.3198594,102.576868 68.7271929,109.110292 C62.6192784,110.610902 55.0991767,111.128352 49.2698515,110.449116 Z M36.6243021,76.7139191 L42.9427862,53.7955705 L55.2442296,67.5185252 L67.2643652,53.7907733 L73.857055,76.7130943 L83.2195086,76.7135683 L73.171225,32.4848536 L55.2438622,53.0014248 L37.2185724,32.4747307 L27.1824801,76.7149359 L36.6243021,76.7139191 Z M58.4520081,37.0516806 C62.2081126,33.394359 65.5604605,30.7031442 70.1344667,27.6731811 C72.2384732,26.2794195 72.7144316,25.7447123 71.8510469,25.7447123 C70.6569155,25.7447123 62.0533635,31.546961 57.1962837,35.6279082 L54.4052858,37.9729206 L53.0485293,36.5167151 C52.3023127,35.715805 50.370912,33.6203855 48.7565254,31.8602255 C47.1421388,30.1000702 45.5089616,28.4553054 45.1272402,28.2051934 C44.5000263,27.7942268 44.3618871,27.7971682 43.692532,28.235747 C43.2851632,28.5026656 42.9518615,28.9890527 42.9518615,29.3166091 C42.9518615,31.3128404 48.1306624,37.9968258 51.231308,40.0024192 C53.6143019,41.5438148 54.000721,41.3859039 58.4520081,37.0516806 Z" id="path3666" fill-rule="nonzero"></path>
                <path d="M160.635677,9.77905771 C160.827678,9.77905771 160.991676,9.84705703 161.127677,9.98305771 C161.263678,10.1190584 161.331677,10.2910567 161.331677,10.4990577 L161.331677,25.8590577 C161.331677,26.0670587 161.259678,26.239057 161.115677,26.3750577 C160.971676,26.5110584 160.795678,26.5790577 160.587677,26.5790577 C160.363676,26.5790577 160.179678,26.5110584 160.035677,26.3750577 C159.891676,26.239057 159.819677,26.0670587 159.819677,25.8590577 L159.819677,12.6590577 L154.179677,21.2030577 C154.019676,21.4110587 153.835678,21.5070578 153.627677,21.4910577 L153.579677,21.4910577 C153.387676,21.4910577 153.211678,21.3950587 153.051677,21.2030577 L147.411677,12.6110577 L147.411677,25.8590577 C147.411677,26.0670587 147.343678,26.239057 147.207677,26.3750577 C147.071676,26.5110584 146.899678,26.5790577 146.691677,26.5790577 C146.483676,26.5790577 146.315678,26.5110584 146.187677,26.3750577 C146.059676,26.239057 145.995677,26.0670587 145.995677,25.8590577 L145.995677,10.4990577 C145.995677,10.3070567 146.063676,10.1390584 146.199677,9.99505771 C146.335678,9.85105699 146.507676,9.77905771 146.715677,9.77905771 C146.827677,9.77905771 146.947676,9.80705743 147.075677,9.86305771 C147.203678,9.91905799 147.299677,9.99505723 147.363677,10.0910577 L153.651677,19.5230577 L159.987677,10.0910577 C160.163678,9.85105651 160.379676,9.74705755 160.635677,9.77905771 Z M176.811677,20.4350577 C176.811677,21.6350637 176.54768,22.7230528 176.019677,23.6990577 C175.491674,24.6750626 174.763682,25.4390549 173.835677,25.9910577 C172.907672,26.5430605 171.875683,26.8190577 170.739677,26.8190577 C169.603671,26.8190577 168.571682,26.5430605 167.643677,25.9910577 C166.715672,25.4390549 165.98768,24.6750626 165.459677,23.6990577 C164.931674,22.7230528 164.667677,21.6350637 164.667677,20.4350577 C164.667677,19.2350517 164.931674,18.1470626 165.459677,17.1710577 C165.98768,16.1950528 166.715672,15.4270605 167.643677,14.8670577 C168.571682,14.3070549 169.603671,14.0270577 170.739677,14.0270577 C171.875683,14.0270577 172.907672,14.3070549 173.835677,14.8670577 C174.763682,15.4270605 175.491674,16.1950528 176.019677,17.1710577 C176.54768,18.1470626 176.811677,19.2350517 176.811677,20.4350577 Z M175.371677,20.4350577 C175.371677,19.4750529 175.171679,18.6110615 174.771677,17.8430577 C174.371675,17.0750539 173.81568,16.4710599 173.103677,16.0310577 C172.391673,15.5910555 171.603681,15.3710577 170.739677,15.3710577 C169.875673,15.3710577 169.09168,15.5910555 168.387677,16.0310577 C167.683673,16.4710599 167.127679,17.0750539 166.719677,17.8430577 C166.311675,18.6110615 166.107677,19.4750529 166.107677,20.4350577 C166.107677,21.3790624 166.311675,22.2350539 166.719677,23.0030577 C167.127679,23.7710615 167.683673,24.3750555 168.387677,24.8150577 C169.09168,25.2550599 169.875673,25.4750577 170.739677,25.4750577 C171.603681,25.4750577 172.391673,25.2590599 173.103677,24.8270577 C173.81568,24.3950555 174.371675,23.7950615 174.771677,23.0270577 C175.171679,22.2590539 175.371677,21.3950625 175.371677,20.4350577 Z M185.547677,14.0270577 C187.035684,14.0270577 188.127673,14.4630533 188.823677,15.3350577 C189.51968,16.2070621 189.867677,17.3630505 189.867677,18.8030577 L189.867677,25.8590577 C189.867677,26.0670587 189.795678,26.239057 189.651677,26.3750577 C189.507676,26.5110584 189.339678,26.5790577 189.147677,26.5790577 C188.939676,26.5790577 188.767678,26.5110584 188.631677,26.3750577 C188.495676,26.239057 188.427677,26.0670587 188.427677,25.8590577 L188.427677,18.8750577 C188.427677,17.8350525 188.16768,16.9910609 187.647677,16.3430577 C187.127674,15.6950545 186.323682,15.3710577 185.235677,15.3710577 C184.547673,15.3710577 183.89568,15.5310561 183.279677,15.8510577 C182.663674,16.1710593 182.163679,16.599055 181.779677,17.1350577 C181.395675,17.6710604 181.203677,18.2510546 181.203677,18.8750577 L181.203677,25.8590577 C181.203677,26.0670587 181.135678,26.239057 180.999677,26.3750577 C180.863676,26.5110584 180.691678,26.5790577 180.483677,26.5790577 C180.275676,26.5790577 180.103678,26.5110584 179.967677,26.3750577 C179.831676,26.239057 179.763677,26.0670587 179.763677,25.8590577 L179.763677,15.1070577 C179.763677,14.8990567 179.831676,14.7270584 179.967677,14.5910577 C180.103678,14.455057 180.275676,14.3870577 180.483677,14.3870577 C180.691678,14.3870577 180.863676,14.455057 180.999677,14.5910577 C181.135678,14.7270584 181.203677,14.8990567 181.203677,15.1070577 L181.203677,16.4270577 C181.635679,15.7390543 182.255673,15.16706 183.063677,14.7110577 C183.871681,14.2550554 184.699673,14.0270577 185.547677,14.0270577 Z M204.003677,19.7390577 C204.003677,19.9310587 203.931678,20.095057 203.787677,20.2310577 C203.643676,20.3670584 203.475678,20.4350577 203.283677,20.4350577 L194.211677,20.4350577 C194.211677,21.3950625 194.407675,22.2550539 194.799677,23.0150577 C195.191679,23.7750615 195.751673,24.3750555 196.479677,24.8150577 C197.207681,25.2550599 198.067672,25.4750577 199.059677,25.4750577 C199.827681,25.4750577 200.515674,25.3150593 201.123677,24.9950577 C201.73168,24.6750561 202.219675,24.2670602 202.587677,23.7710577 C202.763678,23.627057 202.931676,23.5550577 203.091677,23.5550577 C203.251678,23.5550577 203.395676,23.6190571 203.523677,23.7470577 C203.651678,23.8750583 203.715677,24.0190569 203.715677,24.1790577 C203.715677,24.3550586 203.635678,24.5230569 203.475677,24.6830577 C202.963674,25.3070608 202.319681,25.8190557 201.543677,26.2190577 C200.767673,26.6190597 199.947681,26.8190577 199.083677,26.8190577 C197.851671,26.8190577 196.763682,26.5550603 195.819677,26.0270577 C194.875672,25.4990551 194.13968,24.7590625 193.611677,23.8070577 C193.083674,22.8550529 192.819677,21.7550639 192.819677,20.5070577 C192.819677,19.1950511 193.079674,18.0470626 193.599677,17.0630577 C194.11968,16.0790528 194.811673,15.3270603 195.675677,14.8070577 C196.539681,14.2870551 197.459672,14.0270577 198.435677,14.0270577 C199.395682,14.0270577 200.295673,14.2510555 201.135677,14.6990577 C201.975681,15.1470599 202.659674,15.8030534 203.187677,16.6670577 C203.71568,17.531062 203.987677,18.5550518 204.003677,19.7390577 Z M198.435677,15.4190577 C197.507672,15.4190577 196.647681,15.7390545 195.855677,16.3790577 C195.063673,17.0190609 194.555678,17.9390517 194.331677,19.1390577 L202.515677,19.1390577 L202.515677,18.9470577 C202.435677,18.2270541 202.195679,17.5990604 201.795677,17.0630577 C201.395675,16.527055 200.89568,16.1190591 200.295677,15.8390577 C199.695674,15.5590563 199.07568,15.4190577 198.435677,15.4190577 Z M209.379677,15.7070577 L209.379677,23.7470577 C209.379677,24.3550607 209.491676,24.7670566 209.715677,24.9830577 C209.939678,25.1990588 210.235675,25.3070577 210.603677,25.3070577 C210.699677,25.3070577 210.819676,25.2870579 210.963677,25.2470577 C211.107678,25.2070575 211.219677,25.1870577 211.299677,25.1870577 C211.443678,25.1870577 211.567676,25.2470571 211.671677,25.3670577 C211.775677,25.4870583 211.827677,25.6270569 211.827677,25.7870577 C211.827677,26.0110588 211.699678,26.1990569 211.443677,26.3510577 C211.187676,26.5030585 210.883679,26.5790577 210.531677,26.5790577 C210.099675,26.5790577 209.715679,26.5390581 209.379677,26.4590577 C209.043675,26.3790573 208.719678,26.1390597 208.407677,25.7390577 C208.095675,25.3390557 207.939677,24.6990621 207.939677,23.8190577 L207.939677,15.7070577 L206.187677,15.7070577 C205.995676,15.7070577 205.831678,15.6430583 205.695677,15.5150577 C205.559676,15.3870571 205.491677,15.2270587 205.491677,15.0350577 C205.491677,14.8430567 205.559676,14.6830583 205.695677,14.5550577 C205.831678,14.4270571 205.995676,14.3630577 206.187677,14.3630577 L207.939677,14.3630577 L207.939677,11.6990577 C207.939677,11.4910567 208.007676,11.3190584 208.143677,11.1830577 C208.279678,11.047057 208.451676,10.9790577 208.659677,10.9790577 C208.867678,10.9790577 209.039676,11.047057 209.175677,11.1830577 C209.311678,11.3190584 209.379677,11.4910567 209.379677,11.6990577 L209.379677,14.3630577 L211.779677,14.3630577 C211.955678,14.3630577 212.111676,14.435057 212.247677,14.5790577 C212.383678,14.7230584 212.451677,14.8830568 212.451677,15.0590577 C212.451677,15.2510587 212.387678,15.4070571 212.259677,15.5270577 C212.131676,15.6470583 211.971678,15.7070577 211.779677,15.7070577 L209.379677,15.7070577 Z M225.075677,14.3150577 C225.283678,14.3150577 225.455676,14.387057 225.591677,14.5310577 C225.727678,14.6750584 225.795677,14.8510567 225.795677,15.0590577 L225.795677,25.8590577 C225.795677,26.0670587 225.727678,26.239057 225.591677,26.3750577 C225.455676,26.5110584 225.283678,26.5790577 225.075677,26.5790577 C224.867676,26.5790577 224.695678,26.5110584 224.559677,26.3750577 C224.423676,26.239057 224.355677,26.0670587 224.355677,25.8590577 L224.355677,24.2510577 C223.955675,24.9710613 223.355681,25.5790552 222.555677,26.0750577 C221.755673,26.5710602 220.883682,26.8190577 219.939677,26.8190577 C218.867672,26.8190577 217.903681,26.5390605 217.047677,25.9790577 C216.191673,25.4190549 215.519679,24.6510626 215.031677,23.6750577 C214.543674,22.6990528 214.299677,21.6030638 214.299677,20.3870577 C214.299677,19.1710516 214.547674,18.0790625 215.043677,17.1110577 C215.539679,16.1430529 216.215673,15.3870604 217.071677,14.8430577 C217.927681,14.299055 218.875672,14.0270577 219.915677,14.0270577 C220.875682,14.0270577 221.755673,14.2590554 222.555677,14.7230577 C223.355681,15.18706 223.955675,15.7950539 224.355677,16.5470577 L224.355677,15.0590577 C224.355677,14.8510567 224.423676,14.6750584 224.559677,14.5310577 C224.695678,14.387057 224.867676,14.3150577 225.075677,14.3150577 Z M220.083677,25.4750577 C220.915681,25.4750577 221.663674,25.2550599 222.327677,24.8150577 C222.99168,24.3750555 223.511675,23.7670616 223.887677,22.9910577 C224.263679,22.2150538 224.451677,21.3470625 224.451677,20.3870577 C224.451677,19.4590531 224.263679,18.6110615 223.887677,17.8430577 C223.511675,17.0750539 222.99168,16.4710599 222.327677,16.0310577 C221.663674,15.5910555 220.915681,15.3710577 220.083677,15.3710577 C219.251673,15.3710577 218.50368,15.5870555 217.839677,16.0190577 C217.175674,16.4510599 216.655679,17.0470539 216.279677,17.8070577 C215.903675,18.5670615 215.715677,19.4270529 215.715677,20.3870577 C215.715677,21.3470625 215.899675,22.2150538 216.267677,22.9910577 C216.635679,23.7670616 217.151674,24.3750555 217.815677,24.8150577 C218.47968,25.2550599 219.235673,25.4750577 220.083677,25.4750577 Z M235.299677,14.0270577 C235.619679,14.0270577 235.907676,14.0910571 236.163677,14.2190577 C236.419678,14.3470583 236.547677,14.5390564 236.547677,14.7950577 C236.547677,15.0190588 236.483678,15.199057 236.355677,15.3350577 C236.227676,15.4710584 236.075678,15.5390577 235.899677,15.5390577 C235.819677,15.5390577 235.663678,15.4990581 235.431677,15.4190577 C235.199676,15.3390573 234.979678,15.2990577 234.771677,15.2990577 C234.179674,15.2990577 233.59168,15.5270554 233.007677,15.9830577 C232.423674,16.43906 231.943679,17.0270541 231.567677,17.7470577 C231.191675,18.4670613 231.003677,19.195054 231.003677,19.9310577 L231.003677,25.8590577 C231.003677,26.0670587 230.935678,26.239057 230.799677,26.3750577 C230.663676,26.5110584 230.491678,26.5790577 230.283677,26.5790577 C230.075676,26.5790577 229.903678,26.5110584 229.767677,26.3750577 C229.631676,26.239057 229.563677,26.0670587 229.563677,25.8590577 L229.563677,15.1070577 C229.563677,14.8990567 229.631676,14.7270584 229.767677,14.5910577 C229.903678,14.455057 230.075676,14.3870577 230.283677,14.3870577 C230.491678,14.3870577 230.663676,14.455057 230.799677,14.5910577 C230.935678,14.7270584 231.003677,14.8990567 231.003677,15.1070577 L231.003677,17.2190577 C231.371679,16.3070531 231.927673,15.5510607 232.671677,14.9510577 C233.415681,14.3510547 234.291672,14.0430578 235.299677,14.0270577 Z M247.947677,14.0990577 C248.155678,14.0990577 248.327676,14.167057 248.463677,14.3030577 C248.599678,14.4390584 248.667677,14.6110567 248.667677,14.8190577 L248.667677,25.4030577 C248.667677,26.667064 248.419679,27.7470532 247.923677,28.6430577 C247.427674,29.5390622 246.739681,30.2190554 245.859677,30.6830577 C244.979673,31.14706 243.987682,31.3790577 242.883677,31.3790577 C242.211674,31.3790577 241.58368,31.3070584 240.999677,31.1630577 C240.415674,31.019057 239.931679,30.8270589 239.547677,30.5870577 C239.211675,30.3790567 239.043677,30.147059 239.043677,29.8910577 C239.043677,29.8590575 239.059677,29.7790583 239.091677,29.6510577 C239.139677,29.4910569 239.219676,29.3710581 239.331677,29.2910577 C239.443677,29.2110573 239.563676,29.1710577 239.691677,29.1710577 C239.787677,29.1710577 239.883676,29.1950575 239.979677,29.2430577 C241.003682,29.8030605 241.979672,30.0830577 242.907677,30.0830577 C244.235684,30.0830577 245.287673,29.6670619 246.063677,28.8350577 C246.839681,28.0030535 247.227677,26.8670649 247.227677,25.4270577 L247.227677,24.5870577 C246.827675,25.2590611 246.251681,25.7990557 245.499677,26.2070577 C244.747673,26.6150597 243.931681,26.8190577 243.051677,26.8190577 C241.65967,26.8190577 240.603681,26.4030619 239.883677,25.5710577 C239.163673,24.7390535 238.803677,23.6110648 238.803677,22.1870577 L238.803677,14.8190577 C238.803677,14.6110567 238.871676,14.4390584 239.007677,14.3030577 C239.143678,14.167057 239.315676,14.0990577 239.523677,14.0990577 C239.731678,14.0990577 239.903676,14.167057 240.039677,14.3030577 C240.175678,14.4390584 240.243677,14.6110567 240.243677,14.8190577 L240.243677,21.9710577 C240.243677,23.1230635 240.495674,23.9950547 240.999677,24.5870577 C241.503679,25.1790607 242.291672,25.4750577 243.363677,25.4750577 C244.01968,25.4750577 244.647674,25.3110593 245.247677,24.9830577 C245.84768,24.6550561 246.327675,24.2230604 246.687677,23.6870577 C247.047679,23.151055 247.227677,22.5790607 247.227677,21.9710577 L247.227677,14.8190577 C247.227677,14.6110567 247.295676,14.4390584 247.431677,14.3030577 C247.567678,14.167057 247.739676,14.0990577 247.947677,14.0990577 Z M264.675677,9.77905771 C264.883678,9.77905771 265.055676,9.84705703 265.191677,9.98305771 C265.327678,10.1190584 265.395677,10.2910567 265.395677,10.4990577 L265.395677,20.4350577 C265.395677,21.6030635 265.11568,22.6750528 264.555677,23.6510577 C263.995674,24.6270626 263.235682,25.3950549 262.275677,25.9550577 C261.315672,26.5150605 260.259683,26.7950577 259.107677,26.7950577 C257.939671,26.7950577 256.875682,26.5150605 255.915677,25.9550577 C254.955672,25.3950549 254.19568,24.6270626 253.635677,23.6510577 C253.075674,22.6750528 252.795677,21.6030635 252.795677,20.4350577 L252.795677,10.4990577 C252.795677,10.2910567 252.863676,10.1190584 252.999677,9.98305771 C253.135678,9.84705703 253.323676,9.77905771 253.563677,9.77905771 C253.755678,9.77905771 253.923676,9.84705703 254.067677,9.98305771 C254.211678,10.1190584 254.283677,10.2910567 254.283677,10.4990577 L254.283677,20.4350577 C254.283677,21.3310622 254.499675,22.1550539 254.931677,22.9070577 C255.363679,23.6590615 255.951673,24.2550555 256.695677,24.6950577 C257.439681,25.1350599 258.243673,25.3550577 259.107677,25.3550577 C259.987681,25.3550577 260.799673,25.1350599 261.543677,24.6950577 C262.287681,24.2550555 262.879675,23.6590615 263.319677,22.9070577 C263.759679,22.1550539 263.979677,21.3310622 263.979677,20.4350577 L263.979677,10.4990577 C263.979677,10.2910567 264.043676,10.1190584 264.171677,9.98305771 C264.299678,9.84705703 264.467676,9.77905771 264.675677,9.77905771 Z M275.331677,14.0270577 C276.819684,14.0270577 277.911673,14.4630533 278.607677,15.3350577 C279.30368,16.2070621 279.651677,17.3630505 279.651677,18.8030577 L279.651677,25.8590577 C279.651677,26.0670587 279.579678,26.239057 279.435677,26.3750577 C279.291676,26.5110584 279.123678,26.5790577 278.931677,26.5790577 C278.723676,26.5790577 278.551678,26.5110584 278.415677,26.3750577 C278.279676,26.239057 278.211677,26.0670587 278.211677,25.8590577 L278.211677,18.8750577 C278.211677,17.8350525 277.95168,16.9910609 277.431677,16.3430577 C276.911674,15.6950545 276.107682,15.3710577 275.019677,15.3710577 C274.331673,15.3710577 273.67968,15.5310561 273.063677,15.8510577 C272.447674,16.1710593 271.947679,16.599055 271.563677,17.1350577 C271.179675,17.6710604 270.987677,18.2510546 270.987677,18.8750577 L270.987677,25.8590577 C270.987677,26.0670587 270.919678,26.239057 270.783677,26.3750577 C270.647676,26.5110584 270.475678,26.5790577 270.267677,26.5790577 C270.059676,26.5790577 269.887678,26.5110584 269.751677,26.3750577 C269.615676,26.239057 269.547677,26.0670587 269.547677,25.8590577 L269.547677,15.1070577 C269.547677,14.8990567 269.615676,14.7270584 269.751677,14.5910577 C269.887678,14.455057 270.059676,14.3870577 270.267677,14.3870577 C270.475678,14.3870577 270.647676,14.455057 270.783677,14.5910577 C270.919678,14.7270584 270.987677,14.8990567 270.987677,15.1070577 L270.987677,16.4270577 C271.419679,15.7390543 272.039673,15.16706 272.847677,14.7110577 C273.655681,14.2550554 274.483673,14.0270577 275.331677,14.0270577 Z M284.811677,25.8590577 C284.811677,26.0670587 284.743678,26.239057 284.607677,26.3750577 C284.471676,26.5110584 284.299678,26.5790577 284.091677,26.5790577 C283.883676,26.5790577 283.711678,26.5110584 283.575677,26.3750577 C283.439676,26.239057 283.371677,26.0670587 283.371677,25.8590577 L283.371677,14.8190577 C283.371677,14.6110567 283.439676,14.4390584 283.575677,14.3030577 C283.711678,14.167057 283.883676,14.0990577 284.091677,14.0990577 C284.299678,14.0990577 284.471676,14.167057 284.607677,14.3030577 C284.743678,14.4390584 284.811677,14.6110567 284.811677,14.8190577 L284.811677,25.8590577 Z M284.091677,12.4910577 C283.771675,12.4910577 283.523678,12.4150585 283.347677,12.2630577 C283.171676,12.1110569 283.083677,11.8910591 283.083677,11.6030577 L283.083677,11.3630577 C283.083677,11.0750563 283.175676,10.8550585 283.359677,10.7030577 C283.543678,10.5510569 283.795675,10.4750577 284.115677,10.4750577 C284.75568,10.4750577 285.075677,10.7710547 285.075677,11.3630577 L285.075677,11.6030577 C285.075677,11.8910591 284.991678,12.1110569 284.823677,12.2630577 C284.655676,12.4150585 284.411679,12.4910577 284.091677,12.4910577 Z M290.955677,15.7070577 L290.955677,23.7470577 C290.955677,24.3550607 291.067676,24.7670566 291.291677,24.9830577 C291.515678,25.1990588 291.811675,25.3070577 292.179677,25.3070577 C292.275677,25.3070577 292.395676,25.2870579 292.539677,25.2470577 C292.683678,25.2070575 292.795677,25.1870577 292.875677,25.1870577 C293.019678,25.1870577 293.143676,25.2470571 293.247677,25.3670577 C293.351677,25.4870583 293.403677,25.6270569 293.403677,25.7870577 C293.403677,26.0110588 293.275678,26.1990569 293.019677,26.3510577 C292.763676,26.5030585 292.459679,26.5790577 292.107677,26.5790577 C291.675675,26.5790577 291.291679,26.5390581 290.955677,26.4590577 C290.619675,26.3790573 290.295678,26.1390597 289.983677,25.7390577 C289.671675,25.3390557 289.515677,24.6990621 289.515677,23.8190577 L289.515677,15.7070577 L287.763677,15.7070577 C287.571676,15.7070577 287.407678,15.6430583 287.271677,15.5150577 C287.135676,15.3870571 287.067677,15.2270587 287.067677,15.0350577 C287.067677,14.8430567 287.135676,14.6830583 287.271677,14.5550577 C287.407678,14.4270571 287.571676,14.3630577 287.763677,14.3630577 L289.515677,14.3630577 L289.515677,11.6990577 C289.515677,11.4910567 289.583676,11.3190584 289.719677,11.1830577 C289.855678,11.047057 290.027676,10.9790577 290.235677,10.9790577 C290.443678,10.9790577 290.615676,11.047057 290.751677,11.1830577 C290.887678,11.3190584 290.955677,11.4910567 290.955677,11.6990577 L290.955677,14.3630577 L293.355677,14.3630577 C293.531678,14.3630577 293.687676,14.435057 293.823677,14.5790577 C293.959678,14.7230584 294.027677,14.8830568 294.027677,15.0590577 C294.027677,15.2510587 293.963678,15.4070571 293.835677,15.5270577 C293.707676,15.6470583 293.547678,15.7070577 293.355677,15.7070577 L290.955677,15.7070577 Z" id="MonetaryUnit"></path>
            </g>
        </g>
    </g>
</svg>