<?xml version="1.0" encoding="UTF-8"?>
<svg width="296px" height="112px" viewBox="0 0 296 112" version="1.1" xmlns="http://www.w3.org/2000/svg" xmlns:xlink="http://www.w3.org/1999/xlink">
    <!-- Generator: Sketch 50.2 (55047) - http://www.bohemiancoding.com/sketch -->
    <title>MUE Logo on black</title>
    <desc>Created with Sketch.</desc>
    <defs></defs>
    <g id="Branding" stroke="none" stroke-width="1" fill="none" fill-rule="evenodd">
        <g id="09" transform="translate(-952.000000, -697.000000)" fill="#FE9518">
            <g id="MUE-Logo-on-black" transform="translate(952.000000, 697.264688)">
                <path d="M49.5236029,111.017955 C23.4328699,107.977907 3.04633866,87.3765041 0.296770667,61.272318 C-2.40818063,35.5917069 13.6281302,10.849109 38.1846569,2.81469283 C72.0556662,-8.26724258 107.330081,14.5908385 111.064073,50.0410948 C113.940927,77.3537148 95.8107792,103.105163 69.0811542,109.672236 C62.9417825,111.180574 55.3829505,111.70069 49.5236029,111.017955 Z M36.8129259,77.1090139 L43.1639517,54.0726304 L55.5287505,67.8662615 L67.6107926,54.0678085 L74.2374363,77.1081848 L83.6481088,77.1086613 L73.5480741,32.6521583 L55.5283812,53.2743947 L37.4102569,32.6419833 L27.3224763,77.1100359 L36.8129259,77.1090139 Z M58.7530498,37.2425055 C62.5284991,33.5663478 65.8981124,30.8612726 70.4956758,27.8157045 C72.6105184,26.4147647 73.0889281,25.8773037 72.2210968,25.8773037 C71.0208153,25.8773037 62.372953,31.7094353 57.4908581,35.8114003 L54.6854859,38.1684901 L53.3217417,36.7047848 C52.571682,35.8997499 50.6303341,33.7935385 49.007633,32.0243132 C47.3849319,30.2550927 45.7433435,28.6018569 45.3596562,28.3504568 C44.7292119,27.9373736 44.5903613,27.9403301 43.9175588,28.3811677 C43.508092,28.6494611 43.1730738,29.1383531 43.1730738,29.4675966 C43.1730738,31.4741089 48.3785467,38.1925185 51.4951613,40.2084411 C53.8904283,41.7577753 54.2788375,41.5990511 58.7530498,37.2425055 Z" id="path3666" fill-rule="nonzero"></path>
                <path d="M161.764957,9.86959401 C161.956958,9.86959401 162.120957,9.93759333 162.256957,10.073594 C162.392958,10.2095947 162.460957,10.381593 162.460957,10.589594 L162.460957,25.949594 C162.460957,26.1575951 162.388958,26.3295933 162.244957,26.465594 C162.100957,26.6015947 161.924958,26.669594 161.716957,26.669594 C161.492956,26.669594 161.308958,26.6015947 161.164957,26.465594 C161.020957,26.3295933 160.948957,26.1575951 160.948957,25.949594 L160.948957,12.749594 L155.308957,21.293594 C155.148957,21.5015951 154.964958,21.5975941 154.756957,21.581594 L154.708957,21.581594 C154.516956,21.581594 154.340958,21.485595 154.180957,21.293594 L148.540957,12.701594 L148.540957,25.949594 C148.540957,26.1575951 148.472958,26.3295933 148.336957,26.465594 C148.200957,26.6015947 148.028958,26.669594 147.820957,26.669594 C147.612956,26.669594 147.444958,26.6015947 147.316957,26.465594 C147.188957,26.3295933 147.124957,26.1575951 147.124957,25.949594 L147.124957,10.589594 C147.124957,10.3975931 147.192957,10.2295947 147.328957,10.085594 C147.464958,9.94159329 147.636956,9.86959401 147.844957,9.86959401 C147.956958,9.86959401 148.076957,9.89759373 148.204957,9.95359401 C148.332958,10.0095943 148.428957,10.0855935 148.492957,10.181594 L154.780957,19.613594 L161.116957,10.181594 C161.292958,9.94159281 161.508956,9.83759385 161.764957,9.86959401 Z M177.940957,20.525594 C177.940957,21.7256 177.67696,22.8135891 177.148957,23.789594 C176.620955,24.7655989 175.892962,25.5295913 174.964957,26.081594 C174.036953,26.6335968 173.004963,26.909594 171.868957,26.909594 C170.732952,26.909594 169.700962,26.6335968 168.772957,26.081594 C167.844953,25.5295913 167.11696,24.7655989 166.588957,23.789594 C166.060955,22.8135891 165.796957,21.7256 165.796957,20.525594 C165.796957,19.325588 166.060955,18.2375989 166.588957,17.261594 C167.11696,16.2855891 167.844953,15.5175968 168.772957,14.957594 C169.700962,14.3975912 170.732952,14.117594 171.868957,14.117594 C173.004963,14.117594 174.036953,14.3975912 174.964957,14.957594 C175.892962,15.5175968 176.620955,16.2855891 177.148957,17.261594 C177.67696,18.2375989 177.940957,19.325588 177.940957,20.525594 Z M176.500957,20.525594 C176.500957,19.5655892 176.300959,18.7015979 175.900957,17.933594 C175.500955,17.1655902 174.944961,16.5615962 174.232957,16.121594 C173.520954,15.6815918 172.732962,15.461594 171.868957,15.461594 C171.004953,15.461594 170.220961,15.6815918 169.516957,16.121594 C168.812954,16.5615962 168.256959,17.1655902 167.848957,17.933594 C167.440955,18.7015979 167.236957,19.5655892 167.236957,20.525594 C167.236957,21.4695987 167.440955,22.3255902 167.848957,23.093594 C168.256959,23.8615979 168.812954,24.4655918 169.516957,24.905594 C170.220961,25.3455962 171.004953,25.565594 171.868957,25.565594 C172.732962,25.565594 173.520954,25.3495962 174.232957,24.917594 C174.944961,24.4855919 175.500955,23.8855979 175.900957,23.117594 C176.300959,22.3495902 176.500957,21.4855988 176.500957,20.525594 Z M186.676957,14.117594 C188.164965,14.117594 189.256954,14.5535897 189.952957,15.425594 C190.648961,16.2975984 190.996957,17.4535868 190.996957,18.893594 L190.996957,25.949594 C190.996957,26.1575951 190.924958,26.3295933 190.780957,26.465594 C190.636957,26.6015947 190.468958,26.669594 190.276957,26.669594 C190.068956,26.669594 189.896958,26.6015947 189.760957,26.465594 C189.624957,26.3295933 189.556957,26.1575951 189.556957,25.949594 L189.556957,18.965594 C189.556957,17.9255888 189.29696,17.0815973 188.776957,16.433594 C188.256955,15.7855908 187.452963,15.461594 186.364957,15.461594 C185.676954,15.461594 185.02496,15.6215924 184.408957,15.941594 C183.792954,16.2615956 183.292959,16.6895913 182.908957,17.225594 C182.524955,17.7615967 182.332957,18.3415909 182.332957,18.965594 L182.332957,25.949594 C182.332957,26.1575951 182.264958,26.3295933 182.128957,26.465594 C181.992957,26.6015947 181.820958,26.669594 181.612957,26.669594 C181.404956,26.669594 181.232958,26.6015947 181.096957,26.465594 C180.960957,26.3295933 180.892957,26.1575951 180.892957,25.949594 L180.892957,15.197594 C180.892957,14.989593 180.960957,14.8175947 181.096957,14.681594 C181.232958,14.5455933 181.404956,14.477594 181.612957,14.477594 C181.820958,14.477594 181.992957,14.5455933 182.128957,14.681594 C182.264958,14.8175947 182.332957,14.989593 182.332957,15.197594 L182.332957,16.517594 C182.764959,15.8295906 183.384953,15.2575963 184.192957,14.801594 C185.000961,14.3455917 185.828953,14.117594 186.676957,14.117594 Z M205.132957,19.829594 C205.132957,20.021595 205.060958,20.1855933 204.916957,20.321594 C204.772957,20.4575947 204.604958,20.525594 204.412957,20.525594 L195.340957,20.525594 C195.340957,21.4855988 195.536955,22.3455902 195.928957,23.105594 C196.320959,23.8655978 196.880954,24.4655918 197.608957,24.905594 C198.336961,25.3455962 199.196952,25.565594 200.188957,25.565594 C200.956961,25.565594 201.644954,25.4055956 202.252957,25.085594 C202.86096,24.7655924 203.348955,24.3575965 203.716957,23.861594 C203.892958,23.7175933 204.060957,23.645594 204.220957,23.645594 C204.380958,23.645594 204.524957,23.7095934 204.652957,23.837594 C204.780958,23.9655947 204.844957,24.1095932 204.844957,24.269594 C204.844957,24.4455949 204.764958,24.6135932 204.604957,24.773594 C204.092955,25.3975971 203.448961,25.909592 202.672957,26.309594 C201.896953,26.709596 201.076962,26.909594 200.212957,26.909594 C198.980951,26.909594 197.892962,26.6455967 196.948957,26.117594 C196.004953,25.5895914 195.26896,24.8495988 194.740957,23.897594 C194.212955,22.9455893 193.948957,21.8456003 193.948957,20.597594 C193.948957,19.2855875 194.208955,18.1375989 194.728957,17.153594 C195.24896,16.1695891 195.940953,15.4175966 196.804957,14.897594 C197.668962,14.3775914 198.588952,14.117594 199.564957,14.117594 C200.524962,14.117594 201.424953,14.3415918 202.264957,14.789594 C203.104962,15.2375963 203.788955,15.8935897 204.316957,16.757594 C204.84496,17.6215983 205.116957,18.6455881 205.132957,19.829594 Z M199.564957,15.509594 C198.636953,15.509594 197.776961,15.8295908 196.984957,16.469594 C196.192953,17.1095972 195.684958,18.029588 195.460957,19.229594 L203.644957,19.229594 L203.644957,19.037594 C203.564957,18.3175904 203.324959,17.6895967 202.924957,17.153594 C202.524955,16.6175913 202.02496,16.2095954 201.424957,15.929594 C200.824954,15.6495926 200.204961,15.509594 199.564957,15.509594 Z M210.508957,15.797594 L210.508957,23.837594 C210.508957,24.4455971 210.620956,24.8575929 210.844957,25.073594 C211.068958,25.2895951 211.364955,25.397594 211.732957,25.397594 C211.828958,25.397594 211.948957,25.3775942 212.092957,25.337594 C212.236958,25.2975938 212.348957,25.277594 212.428957,25.277594 C212.572958,25.277594 212.696957,25.3375934 212.800957,25.457594 C212.904958,25.5775946 212.956957,25.7175932 212.956957,25.877594 C212.956957,26.1015951 212.828959,26.2895933 212.572957,26.441594 C212.316956,26.5935948 212.012959,26.669594 211.660957,26.669594 C211.228955,26.669594 210.844959,26.6295944 210.508957,26.549594 C210.172956,26.4695936 209.848959,26.229596 209.536957,25.829594 C209.224956,25.429592 209.068957,24.7895984 209.068957,23.909594 L209.068957,15.797594 L207.316957,15.797594 C207.124956,15.797594 206.960958,15.7335947 206.824957,15.605594 C206.688957,15.4775934 206.620957,15.317595 206.620957,15.125594 C206.620957,14.9335931 206.688957,14.7735947 206.824957,14.645594 C206.960958,14.5175934 207.124956,14.453594 207.316957,14.453594 L209.068957,14.453594 L209.068957,11.789594 C209.068957,11.581593 209.136957,11.4095947 209.272957,11.273594 C209.408958,11.1375933 209.580956,11.069594 209.788957,11.069594 C209.996958,11.069594 210.168957,11.1375933 210.304957,11.273594 C210.440958,11.4095947 210.508957,11.581593 210.508957,11.789594 L210.508957,14.453594 L212.908957,14.453594 C213.084958,14.453594 213.240957,14.5255933 213.376957,14.669594 C213.512958,14.8135947 213.580957,14.9735931 213.580957,15.149594 C213.580957,15.341595 213.516958,15.4975934 213.388957,15.617594 C213.260957,15.7375946 213.100958,15.797594 212.908957,15.797594 L210.508957,15.797594 Z M226.204957,14.405594 C226.412958,14.405594 226.584957,14.4775933 226.720957,14.621594 C226.856958,14.7655947 226.924957,14.941593 226.924957,15.149594 L226.924957,25.949594 C226.924957,26.1575951 226.856958,26.3295933 226.720957,26.465594 C226.584957,26.6015947 226.412958,26.669594 226.204957,26.669594 C225.996956,26.669594 225.824958,26.6015947 225.688957,26.465594 C225.552957,26.3295933 225.484957,26.1575951 225.484957,25.949594 L225.484957,24.341594 C225.084955,25.0615976 224.484961,25.6695915 223.684957,26.165594 C222.884953,26.6615965 222.012962,26.909594 221.068957,26.909594 C219.996952,26.909594 219.032962,26.6295968 218.176957,26.069594 C217.320953,25.5095912 216.64896,24.7415989 216.160957,23.765594 C215.672955,22.7895891 215.428957,21.6936001 215.428957,20.477594 C215.428957,19.2615879 215.676955,18.1695989 216.172957,17.201594 C216.66896,16.2335892 217.344953,15.4775967 218.200957,14.933594 C219.056962,14.3895913 220.004952,14.117594 221.044957,14.117594 C222.004962,14.117594 222.884953,14.3495917 223.684957,14.813594 C224.484961,15.2775963 225.084955,15.8855903 225.484957,16.637594 L225.484957,15.149594 C225.484957,14.941593 225.552957,14.7655947 225.688957,14.621594 C225.824958,14.4775933 225.996956,14.405594 226.204957,14.405594 Z M221.212957,25.565594 C222.044961,25.565594 222.792954,25.3455962 223.456957,24.905594 C224.120961,24.4655918 224.640955,23.8575979 225.016957,23.081594 C225.392959,22.3055901 225.580957,21.4375988 225.580957,20.477594 C225.580957,19.5495894 225.392959,18.7015979 225.016957,17.933594 C224.640955,17.1655902 224.120961,16.5615962 223.456957,16.121594 C222.792954,15.6815918 222.044961,15.461594 221.212957,15.461594 C220.380953,15.461594 219.632961,15.6775919 218.968957,16.109594 C218.304954,16.5415962 217.784959,17.1375902 217.408957,17.897594 C217.032955,18.6575978 216.844957,19.5175892 216.844957,20.477594 C216.844957,21.4375988 217.028955,22.3055901 217.396957,23.081594 C217.764959,23.8575979 218.280954,24.4655918 218.944957,24.905594 C219.608961,25.3455962 220.364953,25.565594 221.212957,25.565594 Z M236.428957,14.117594 C236.748959,14.117594 237.036956,14.1815934 237.292957,14.309594 C237.548959,14.4375947 237.676957,14.6295927 237.676957,14.885594 C237.676957,15.1095951 237.612958,15.2895933 237.484957,15.425594 C237.356957,15.5615947 237.204958,15.629594 237.028957,15.629594 C236.948957,15.629594 236.792958,15.5895944 236.560957,15.509594 C236.328956,15.4295936 236.108958,15.389594 235.900957,15.389594 C235.308954,15.389594 234.72096,15.6175917 234.136957,16.073594 C233.552954,16.5295963 233.072959,17.1175904 232.696957,17.837594 C232.320955,18.5575976 232.132957,19.2855903 232.132957,20.021594 L232.132957,25.949594 C232.132957,26.1575951 232.064958,26.3295933 231.928957,26.465594 C231.792957,26.6015947 231.620958,26.669594 231.412957,26.669594 C231.204956,26.669594 231.032958,26.6015947 230.896957,26.465594 C230.760957,26.3295933 230.692957,26.1575951 230.692957,25.949594 L230.692957,15.197594 C230.692957,14.989593 230.760957,14.8175947 230.896957,14.681594 C231.032958,14.5455933 231.204956,14.477594 231.412957,14.477594 C231.620958,14.477594 231.792957,14.5455933 231.928957,14.681594 C232.064958,14.8175947 232.132957,14.989593 232.132957,15.197594 L232.132957,17.309594 C232.500959,16.3975895 233.056954,15.641597 233.800957,15.041594 C234.544961,14.441591 235.420952,14.1335941 236.428957,14.117594 Z M249.076957,14.189594 C249.284958,14.189594 249.456957,14.2575933 249.592957,14.393594 C249.728958,14.5295947 249.796957,14.701593 249.796957,14.909594 L249.796957,25.493594 C249.796957,26.7576003 249.54896,27.8375895 249.052957,28.733594 C248.556955,29.6295985 247.868962,30.3095917 246.988957,30.773594 C246.108953,31.2375963 245.116963,31.469594 244.012957,31.469594 C243.340954,31.469594 242.71296,31.3975947 242.128957,31.253594 C241.544954,31.1095933 241.060959,30.9175952 240.676957,30.677594 C240.340956,30.469593 240.172957,30.2375953 240.172957,29.981594 C240.172957,29.9495939 240.188957,29.8695947 240.220957,29.741594 C240.268958,29.5815932 240.348957,29.4615944 240.460957,29.381594 C240.572958,29.3015936 240.692957,29.261594 240.820957,29.261594 C240.916958,29.261594 241.012957,29.2855938 241.108957,29.333594 C242.132962,29.8935968 243.108953,30.173594 244.036957,30.173594 C245.364964,30.173594 246.416953,29.7575982 247.192957,28.925594 C247.968961,28.0935899 248.356957,26.9576012 248.356957,25.517594 L248.356957,24.677594 C247.956955,25.3495974 247.380961,25.889592 246.628957,26.297594 C245.876954,26.7055961 245.060962,26.909594 244.180957,26.909594 C242.78895,26.909594 241.732961,26.4935982 241.012957,25.661594 C240.292954,24.8295899 239.932957,23.7016011 239.932957,22.277594 L239.932957,14.909594 C239.932957,14.701593 240.000957,14.5295947 240.136957,14.393594 C240.272958,14.2575933 240.444956,14.189594 240.652957,14.189594 C240.860958,14.189594 241.032957,14.2575933 241.168957,14.393594 C241.304958,14.5295947 241.372957,14.701593 241.372957,14.909594 L241.372957,22.061594 C241.372957,23.2135998 241.624955,24.0855911 242.128957,24.677594 C242.63296,25.269597 243.420952,25.565594 244.492957,25.565594 C245.148961,25.565594 245.776954,25.4015957 246.376957,25.073594 C246.97696,24.7455924 247.456956,24.3135967 247.816957,23.777594 C248.176959,23.2415913 248.356957,22.6695971 248.356957,22.061594 L248.356957,14.909594 C248.356957,14.701593 248.424957,14.5295947 248.560957,14.393594 C248.696958,14.2575933 248.868956,14.189594 249.076957,14.189594 Z M265.804957,9.86959401 C266.012958,9.86959401 266.184957,9.93759333 266.320957,10.073594 C266.456958,10.2095947 266.524957,10.381593 266.524957,10.589594 L266.524957,20.525594 C266.524957,21.6935999 266.24496,22.7655891 265.684957,23.741594 C265.124955,24.7175989 264.364962,25.4855912 263.404957,26.045594 C262.444953,26.6055968 261.388963,26.885594 260.236957,26.885594 C259.068951,26.885594 258.004962,26.6055968 257.044957,26.045594 C256.084953,25.4855912 255.32496,24.7175989 254.764957,23.741594 C254.204955,22.7655891 253.924957,21.6935999 253.924957,20.525594 L253.924957,10.589594 C253.924957,10.381593 253.992957,10.2095947 254.128957,10.073594 C254.264958,9.93759333 254.452956,9.86959401 254.692957,9.86959401 C254.884958,9.86959401 255.052957,9.93759333 255.196957,10.073594 C255.340958,10.2095947 255.412957,10.381593 255.412957,10.589594 L255.412957,20.525594 C255.412957,21.4215985 255.628955,22.2455903 256.060957,22.997594 C256.492959,23.7495978 257.080954,24.3455918 257.824957,24.785594 C258.568961,25.2255962 259.372953,25.445594 260.236957,25.445594 C261.116962,25.445594 261.928954,25.2255962 262.672957,24.785594 C263.416961,24.3455918 264.008955,23.7495978 264.448957,22.997594 C264.88896,22.2455903 265.108957,21.4215985 265.108957,20.525594 L265.108957,10.589594 C265.108957,10.381593 265.172957,10.2095947 265.300957,10.073594 C265.428958,9.93759333 265.596956,9.86959401 265.804957,9.86959401 Z M276.460957,14.117594 C277.948965,14.117594 279.040954,14.5535897 279.736957,15.425594 C280.432961,16.2975984 280.780957,17.4535868 280.780957,18.893594 L280.780957,25.949594 C280.780957,26.1575951 280.708958,26.3295933 280.564957,26.465594 C280.420957,26.6015947 280.252958,26.669594 280.060957,26.669594 C279.852956,26.669594 279.680958,26.6015947 279.544957,26.465594 C279.408957,26.3295933 279.340957,26.1575951 279.340957,25.949594 L279.340957,18.965594 C279.340957,17.9255888 279.08096,17.0815973 278.560957,16.433594 C278.040955,15.7855908 277.236963,15.461594 276.148957,15.461594 C275.460954,15.461594 274.80896,15.6215924 274.192957,15.941594 C273.576954,16.2615956 273.076959,16.6895913 272.692957,17.225594 C272.308955,17.7615967 272.116957,18.3415909 272.116957,18.965594 L272.116957,25.949594 C272.116957,26.1575951 272.048958,26.3295933 271.912957,26.465594 C271.776957,26.6015947 271.604958,26.669594 271.396957,26.669594 C271.188956,26.669594 271.016958,26.6015947 270.880957,26.465594 C270.744957,26.3295933 270.676957,26.1575951 270.676957,25.949594 L270.676957,15.197594 C270.676957,14.989593 270.744957,14.8175947 270.880957,14.681594 C271.016958,14.5455933 271.188956,14.477594 271.396957,14.477594 C271.604958,14.477594 271.776957,14.5455933 271.912957,14.681594 C272.048958,14.8175947 272.116957,14.989593 272.116957,15.197594 L272.116957,16.517594 C272.548959,15.8295906 273.168953,15.2575963 273.976957,14.801594 C274.784961,14.3455917 275.612953,14.117594 276.460957,14.117594 Z M285.940957,25.949594 C285.940957,26.1575951 285.872958,26.3295933 285.736957,26.465594 C285.600957,26.6015947 285.428958,26.669594 285.220957,26.669594 C285.012956,26.669594 284.840958,26.6015947 284.704957,26.465594 C284.568957,26.3295933 284.500957,26.1575951 284.500957,25.949594 L284.500957,14.909594 C284.500957,14.701593 284.568957,14.5295947 284.704957,14.393594 C284.840958,14.2575933 285.012956,14.189594 285.220957,14.189594 C285.428958,14.189594 285.600957,14.2575933 285.736957,14.393594 C285.872958,14.5295947 285.940957,14.701593 285.940957,14.909594 L285.940957,25.949594 Z M285.220957,12.581594 C284.900956,12.581594 284.652958,12.5055948 284.476957,12.353594 C284.300956,12.2015933 284.212957,11.9815955 284.212957,11.693594 L284.212957,11.453594 C284.212957,11.1655926 284.304956,10.9455948 284.488957,10.793594 C284.672958,10.6415933 284.924956,10.565594 285.244957,10.565594 C285.884961,10.565594 286.204957,10.8615911 286.204957,11.453594 L286.204957,11.693594 C286.204957,11.9815955 286.120958,12.2015933 285.952957,12.353594 C285.784956,12.5055948 285.540959,12.581594 285.220957,12.581594 Z M292.084957,15.797594 L292.084957,23.837594 C292.084957,24.4455971 292.196956,24.8575929 292.420957,25.073594 C292.644958,25.2895951 292.940955,25.397594 293.308957,25.397594 C293.404958,25.397594 293.524957,25.3775942 293.668957,25.337594 C293.812958,25.2975938 293.924957,25.277594 294.004957,25.277594 C294.148958,25.277594 294.272957,25.3375934 294.376957,25.457594 C294.480958,25.5775946 294.532957,25.7175932 294.532957,25.877594 C294.532957,26.1015951 294.404959,26.2895933 294.148957,26.441594 C293.892956,26.5935948 293.588959,26.669594 293.236957,26.669594 C292.804955,26.669594 292.420959,26.6295944 292.084957,26.549594 C291.748956,26.4695936 291.424959,26.229596 291.112957,25.829594 C290.800956,25.429592 290.644957,24.7895984 290.644957,23.909594 L290.644957,15.797594 L288.892957,15.797594 C288.700956,15.797594 288.536958,15.7335947 288.400957,15.605594 C288.264957,15.4775934 288.196957,15.317595 288.196957,15.125594 C288.196957,14.9335931 288.264957,14.7735947 288.400957,14.645594 C288.536958,14.5175934 288.700956,14.453594 288.892957,14.453594 L290.644957,14.453594 L290.644957,11.789594 C290.644957,11.581593 290.712957,11.4095947 290.848957,11.273594 C290.984958,11.1375933 291.156956,11.069594 291.364957,11.069594 C291.572958,11.069594 291.744957,11.1375933 291.880957,11.273594 C292.016958,11.4095947 292.084957,11.581593 292.084957,11.789594 L292.084957,14.453594 L294.484957,14.453594 C294.660958,14.453594 294.816957,14.5255933 294.952957,14.669594 C295.088958,14.8135947 295.156957,14.9735931 295.156957,15.149594 C295.156957,15.341595 295.092958,15.4975934 294.964957,15.617594 C294.836957,15.7375946 294.676958,15.797594 294.484957,15.797594 L292.084957,15.797594 Z" id="MonetaryUnit"></path>
            </g>
        </g>
    </g>
</svg>