<!-- Generator: Adobe Illustrator 19.0.0, SVG Export Plug-In  -->
<svg version="1.1" xmlns="http://www.w3.org/2000/svg" xmlns:xlink="http://www.w3.org/1999/xlink" xmlns:a="http://ns.adobe.com/AdobeSVGViewerExtensions/3.0/" x="0px" y="0px" width="413.327px" height="411.885px" viewBox="0 0 413.327 411.885" style="enable-background:new 0 0 413.327 411.885;" xml:space="preserve">
<style type="text/css">
	.st0{fill:none;}
	.st1{fill:#FE9518;}
</style>
<defs>
</defs>
<g id="XMLID_15_">
	<path id="XMLID_184_" class="st0" d="M413.327,96.416v-42.79c-48.374,0.112-95.301,9.634-139.491,28.325   c-42.938,18.161-81.5,44.161-114.616,77.276c-33.116,33.116-59.115,71.678-77.276,114.616   c-18.504,43.748-28.01,90.18-28.308,138.04h42.793C97.41,237.614,238.873,96.617,413.327,96.416z"/>
	<path id="XMLID_183_" class="st0" d="M229.689,229.695c49.066-49.066,114.268-76.118,183.638-76.215v-11.806   c-72.528,0.097-140.692,28.379-191.991,79.678c-50.947,50.947-79.182,118.557-79.651,190.534h11.806   C153.961,343.057,180.966,278.418,229.689,229.695z"/>
	<polygon id="XMLID_182_" class="st1" points="212.557,54.353 211.595,52.637 209.874,53.608 210.844,55.319  "/>
	<polygon id="XMLID_181_" class="st1" points="215.998,52.445 215.052,50.719 213.321,51.673 214.274,53.395  "/>
	<polygon id="XMLID_180_" class="st1" points="209.135,56.293 208.156,54.587 206.445,55.573 207.432,57.276  "/>
	<polygon id="XMLID_179_" class="st1" points="202.35,60.273 201.338,58.585 199.646,59.603 200.664,61.287  "/>
	<polygon id="XMLID_178_" class="st1" points="205.733,58.267 204.738,56.569 203.036,57.573 204.039,59.266  "/>
	<path id="XMLID_177_" class="st1" d="M198.986,62.31l-1.028-1.678c-0.561,0.343-1.123,0.689-1.682,1.036l1.037,1.673   C197.869,62.996,198.427,62.653,198.986,62.31z"/>
	<path id="XMLID_176_" class="st1" d="M195.642,64.38l-1.043-1.668c-0.558,0.349-1.116,0.7-1.672,1.052l1.052,1.663   C194.531,65.076,195.086,64.727,195.642,64.38z"/>
	<path id="XMLID_175_" class="st1" d="M226.428,46.918l-0.896-1.753c-0.587,0.3-1.173,0.602-1.759,0.905l0.905,1.748   C225.261,47.516,225.844,47.216,226.428,46.918z"/>
	<polygon id="XMLID_174_" class="st1" points="222.933,48.726 222.02,46.983 220.272,47.904 221.192,49.643  "/>
	<polygon id="XMLID_173_" class="st1" points="244.161,38.377 243.349,36.584 241.549,37.404 242.369,39.193  "/>
	<path id="XMLID_172_" class="st1" d="M233.47,43.4l-0.862-1.769c-0.593,0.289-1.185,0.579-1.776,0.871l0.872,1.764   C232.292,43.976,232.88,43.687,233.47,43.4z"/>
	<polygon id="XMLID_171_" class="st1" points="229.941,45.142 229.062,43.381 227.295,44.269 228.182,46.026  "/>
	<polygon id="XMLID_170_" class="st1" points="247.756,36.771 246.962,34.97 245.154,35.773 245.956,37.57  "/>
	<path id="XMLID_169_" class="st1" d="M240.581,40.017l-0.828-1.785c-0.598,0.278-1.196,0.556-1.793,0.837l0.838,1.78   C239.391,40.57,239.985,40.292,240.581,40.017z"/>
	<path id="XMLID_168_" class="st1" d="M237.017,41.691l-0.844-1.777c-0.596,0.283-1.191,0.568-1.785,0.855l0.855,1.772   C235.833,42.256,236.425,41.973,237.017,41.691z"/>
	<polygon id="XMLID_167_" class="st1" points="219.458,50.569 218.527,48.834 216.788,49.772 217.725,51.503  "/>
	<polygon id="XMLID_166_" class="st1" points="142.116,104.223 140.818,102.745 139.339,104.05 140.644,105.522  "/>
	<polygon id="XMLID_165_" class="st1" points="145.079,101.646 143.796,100.155 142.304,101.446 143.594,102.931  "/>
	<polygon id="XMLID_164_" class="st1" points="148.067,99.097 146.797,97.594 145.293,98.871 146.57,100.368  "/>
	<polygon id="XMLID_163_" class="st1" points="139.178,106.828 137.865,105.362 136.399,106.681 137.719,108.141  "/>
	<polygon id="XMLID_162_" class="st1" points="151.078,96.576 149.822,95.061 148.307,96.323 149.568,97.833  "/>
	<polygon id="XMLID_161_" class="st1" points="122.086,123.027 120.692,121.638 119.304,123.038 120.704,124.42  "/>
	<path id="XMLID_160_" class="st1" d="M124.869,120.261l-1.38-1.403c-0.469,0.461-0.936,0.923-1.402,1.386l1.387,1.396   C123.938,121.18,124.404,120.72,124.869,120.261z"/>
	<path id="XMLID_159_" class="st1" d="M127.68,117.521l-1.367-1.415c-0.473,0.456-0.945,0.915-1.416,1.374l1.375,1.408   C126.74,118.431,127.209,117.975,127.68,117.521z"/>
	<path id="XMLID_158_" class="st1" d="M133.378,112.121l-1.34-1.441c-0.481,0.448-0.962,0.897-1.441,1.347l1.347,1.433   C132.421,113.013,132.899,112.566,133.378,112.121z"/>
	<path id="XMLID_157_" class="st1" d="M136.265,109.461l-1.326-1.454c-0.486,0.443-0.971,0.887-1.454,1.333l1.334,1.447   C135.3,110.344,135.782,109.902,136.265,109.461z"/>
	<polygon id="XMLID_156_" class="st1" points="192.318,66.481 191.259,64.823 189.597,65.89 190.664,67.543  "/>
	<path id="XMLID_155_" class="st1" d="M130.517,114.807l-1.354-1.429c-0.478,0.453-0.954,0.906-1.428,1.361l1.361,1.421   C129.568,115.708,130.042,115.257,130.517,114.807z"/>
	<path id="XMLID_154_" class="st1" d="M179.231,75.198l-1.121-1.617c-0.541,0.375-1.081,0.752-1.62,1.13l1.13,1.611   C178.156,75.946,178.693,75.571,179.231,75.198z"/>
	<path id="XMLID_153_" class="st1" d="M182.472,72.972l-1.107-1.628c-0.544,0.37-1.088,0.742-1.631,1.115l1.115,1.622   C181.389,73.71,181.93,73.34,182.472,72.972z"/>
	<polygon id="XMLID_152_" class="st1" points="176.014,77.454 174.876,75.848 173.268,76.993 174.413,78.594  "/>
	<polygon id="XMLID_151_" class="st1" points="189.015,68.614 187.94,66.966 186.289,68.049 187.371,69.692  "/>
	<polygon id="XMLID_150_" class="st1" points="157.173,91.62 155.947,90.081 154.407,91.315 155.64,92.848  "/>
	<polygon id="XMLID_149_" class="st1" points="185.733,70.778 184.642,69.14 183.001,70.239 184.099,71.871  "/>
	<polygon id="XMLID_148_" class="st1" points="163.362,86.78 162.165,85.218 160.601,86.423 161.806,87.979  "/>
	<polygon id="XMLID_147_" class="st1" points="160.256,89.185 159.043,87.635 157.492,88.854 158.711,90.399  "/>
	<path id="XMLID_146_" class="st1" d="M172.817,79.74l-1.152-1.595c-0.534,0.386-1.066,0.772-1.598,1.161l1.161,1.589   C171.756,80.508,172.286,80.123,172.817,79.74z"/>
	<path id="XMLID_145_" class="st1" d="M169.643,82.057l-1.167-1.583c-0.53,0.391-1.059,0.782-1.587,1.176l1.176,1.578   C168.59,82.835,169.116,82.445,169.643,82.057z"/>
	<polygon id="XMLID_144_" class="st1" points="166.491,84.404 165.308,82.831 163.733,84.021 164.924,85.588  "/>
	<polygon id="XMLID_143_" class="st1" points="154.114,94.083 152.872,92.556 151.345,93.804 152.593,95.325  "/>
	<polygon id="XMLID_142_" class="st1" points="251.368,35.199 250.591,33.391 248.775,34.176 249.56,35.981  "/>
	<polygon id="XMLID_141_" class="st1" points="345.49,7.587 345.166,5.646 343.222,5.975 343.554,7.915  "/>
	<polygon id="XMLID_140_" class="st1" points="353.246,6.37 352.959,4.423 351.01,4.715 351.304,6.66  "/>
	<polygon id="XMLID_139_" class="st1" points="357.133,5.817 356.865,3.868 354.912,4.141 355.189,6.089  "/>
	<polygon id="XMLID_138_" class="st1" points="330.054,10.465 329.656,8.538 327.725,8.941 328.132,10.867  "/>
	<path id="XMLID_137_" class="st1" d="M333.902,9.691l-0.379-1.931c-0.646,0.127-1.29,0.255-1.936,0.385l0.389,1.929   C332.618,9.944,333.26,9.816,333.902,9.691z"/>
	<polygon id="XMLID_136_" class="st1" points="326.213,11.277 325.797,9.354 323.871,9.775 324.294,11.697  "/>
	<polygon id="XMLID_135_" class="st1" points="341.62,8.251 341.279,6.313 339.338,6.661 339.688,8.597  "/>
	<path id="XMLID_134_" class="st1" d="M337.758,8.952l-0.36-1.934c-0.647,0.12-1.293,0.242-1.939,0.366l0.371,1.932   C336.471,9.193,337.114,9.072,337.758,8.952z"/>
	<polygon id="XMLID_133_" class="st1" points="361.025,5.301 360.776,3.349 358.82,3.604 359.078,5.554  "/>
	<path id="XMLID_132_" class="st1" d="M392.3,2.51l-0.101-1.965c-0.657,0.034-1.313,0.069-1.969,0.106l0.111,1.965   C390.993,2.579,391.646,2.544,392.3,2.51z"/>
	<polygon id="XMLID_131_" class="st1" points="388.38,2.73 388.261,0.766 386.293,0.89 386.422,2.854  "/>
	<polygon id="XMLID_130_" class="st1" points="384.464,2.986 384.325,1.023 382.359,1.166 382.506,3.128  "/>
	<path id="XMLID_129_" class="st1" d="M396.221,2.328l-0.082-1.966c-0.657,0.027-1.314,0.056-1.971,0.087l0.092,1.966   C394.914,2.384,395.568,2.355,396.221,2.328z"/>
	<polygon id="XMLID_128_" class="st1" points="364.922,4.823 364.691,2.868 362.733,3.104 362.973,5.057  "/>
	<path id="XMLID_127_" class="st1" d="M372.727,3.977l-0.193-1.958c-0.655,0.064-1.309,0.131-1.963,0.199l0.205,1.957   C371.426,4.106,372.076,4.041,372.727,3.977z"/>
	<path id="XMLID_126_" class="st1" d="M380.548,3.279l-0.156-1.961c-0.656,0.052-1.312,0.106-1.966,0.161l0.166,1.961   C379.243,3.384,379.895,3.331,380.548,3.279z"/>
	<path id="XMLID_125_" class="st1" d="M368.822,4.381l-0.211-1.956c-0.654,0.071-1.308,0.143-1.961,0.217l0.222,1.955   C367.521,4.523,368.172,4.452,368.822,4.381z"/>
	<path id="XMLID_124_" class="st1" d="M376.635,3.609l-0.174-1.96c-0.655,0.058-1.31,0.119-1.964,0.18l0.185,1.959   C375.333,3.727,375.984,3.667,376.635,3.609z"/>
	<polygon id="XMLID_123_" class="st1" points="349.365,6.96 349.06,5.016 347.113,5.326 347.426,7.269  "/>
	<path id="XMLID_122_" class="st1" d="M273.347,26.504l-0.671-1.85c-0.621,0.225-1.241,0.452-1.861,0.68l0.68,1.847   C272.113,26.953,272.729,26.727,273.347,26.504z"/>
	<polygon id="XMLID_121_" class="st1" points="269.649,27.864 268.96,26.021 267.107,26.718 267.804,28.558  "/>
	<polygon id="XMLID_120_" class="st1" points="284.523,22.634 283.906,20.765 282.027,21.391 282.652,23.257  "/>
	<path id="XMLID_119_" class="st1" d="M280.785,23.888l-0.634-1.863c-0.625,0.213-1.25,0.428-1.874,0.644l0.645,1.859   C279.541,24.313,280.163,24.1,280.785,23.888z"/>
	<polygon id="XMLID_118_" class="st1" points="322.38,12.125 321.945,10.207 320.023,10.647 320.466,12.563  "/>
	<polygon id="XMLID_117_" class="st1" points="265.963,29.261 265.257,27.425 263.411,28.14 264.126,29.973  "/>
	<path id="XMLID_116_" class="st1" d="M258.636,32.16l-0.741-1.823c-0.612,0.248-1.222,0.499-1.832,0.75l0.751,1.819   C257.42,32.656,258.028,32.408,258.636,32.16z"/>
	<path id="XMLID_115_" class="st1" d="M254.995,33.662l-0.76-1.815c-0.609,0.255-1.217,0.51-1.823,0.768l0.769,1.811   C253.784,34.17,254.389,33.916,254.995,33.662z"/>
	<path id="XMLID_114_" class="st1" d="M262.292,30.693l-0.724-1.829c-0.614,0.243-1.227,0.487-1.839,0.733l0.733,1.826   C261.072,31.177,261.682,30.934,262.292,30.693z"/>
	<polygon id="XMLID_113_" class="st1" points="277.06,25.178 276.407,23.321 274.54,23.983 275.202,25.836  "/>
	<path id="XMLID_112_" class="st1" d="M310.932,14.891l-0.49-1.905c-0.637,0.163-1.274,0.329-1.909,0.495l0.5,1.903L310.932,14.891z   "/>
	<polygon id="XMLID_111_" class="st1" points="307.135,15.886 306.626,13.986 304.723,14.499 305.239,16.398  "/>
	<polygon id="XMLID_110_" class="st1" points="314.739,13.933 314.268,12.023 312.354,12.499 312.834,14.408  "/>
	<path id="XMLID_109_" class="st1" d="M288.273,21.416l-0.599-1.875c-0.629,0.201-1.258,0.403-1.886,0.607l0.608,1.872   C287.022,21.817,287.647,21.616,288.273,21.416z"/>
	<path id="XMLID_108_" class="st1" d="M318.554,13.011l-0.452-1.915c-0.64,0.151-1.28,0.304-1.919,0.459l0.463,1.912   C317.281,13.314,317.918,13.161,318.554,13.011z"/>
	<polygon id="XMLID_107_" class="st1" points="292.036,20.234 291.455,18.354 289.563,18.943 290.153,20.82  "/>
	<path id="XMLID_106_" class="st1" d="M295.802,19.091l-0.562-1.886c-0.63,0.188-1.26,0.378-1.889,0.569l0.573,1.883   C294.548,19.466,295.174,19.278,295.802,19.091z"/>
	<polygon id="XMLID_105_" class="st1" points="299.569,17.986 299.024,16.095 297.131,16.645 297.684,18.534  "/>
	<path id="XMLID_104_" class="st1" d="M303.346,16.919l-0.525-1.897c-0.634,0.176-1.268,0.353-1.9,0.533l0.536,1.893   C302.086,17.27,302.716,17.093,303.346,16.919z"/>
	<polygon id="XMLID_103_" class="st1" points="63.773,196.609 62.103,195.569 61.068,197.242 62.743,198.273  "/>
	<polygon id="XMLID_102_" class="st1" points="10.345,330.6 8.418,330.205 8.027,332.138 9.956,332.524  "/>
	<polygon id="XMLID_101_" class="st1" points="11.152,326.757 9.229,326.344 8.818,328.272 10.744,328.678  "/>
	<path id="XMLID_100_" class="st1" d="M11.996,322.924l-1.92-0.432c-0.145,0.642-0.288,1.284-0.429,1.925l1.922,0.423   C11.71,324.2,11.852,323.562,11.996,322.924z"/>
	<polygon id="XMLID_99_" class="st1" points="14.746,311.473 12.84,310.985 12.356,312.897 14.264,313.375  "/>
	<polygon id="XMLID_98_" class="st1" points="12.877,319.097 10.961,318.647 10.514,320.568 12.432,321.01  "/>
	<polygon id="XMLID_97_" class="st1" points="13.793,315.281 11.882,314.812 11.417,316.729 13.33,317.188  "/>
	<polygon id="XMLID_96_" class="st1" points="8.147,342.169 6.209,341.831 5.873,343.773 7.813,344.104  "/>
	<polygon id="XMLID_95_" class="st1" points="7.489,346.04 5.547,345.719 5.23,347.665 7.172,347.977  "/>
	<polygon id="XMLID_94_" class="st1" points="9.576,334.449 7.645,334.073 7.271,336.009 9.204,336.378  "/>
	<polygon id="XMLID_93_" class="st1" points="8.843,338.306 6.908,337.949 6.554,339.888 8.49,340.238  "/>
	<path id="XMLID_92_" class="st1" d="M17.826,300.105l-1.892-0.542c-0.181,0.632-0.361,1.264-0.539,1.898l1.895,0.532   C17.467,301.363,17.646,300.733,17.826,300.105z"/>
	<polygon id="XMLID_91_" class="st1" points="23.683,281.372 21.819,280.74 21.19,282.609 23.056,283.233  "/>
	<path id="XMLID_90_" class="st1" d="M27.625,270.275l-1.844-0.686c-0.229,0.616-0.457,1.233-0.683,1.851l1.848,0.676   C27.171,271.502,27.398,270.888,27.625,270.275z"/>
	<polygon id="XMLID_89_" class="st1" points="22.439,285.096 20.57,284.482 19.959,286.357 21.831,286.962  "/>
	<polygon id="XMLID_88_" class="st1" points="15.736,307.673 13.834,307.168 13.332,309.075 15.236,309.573  "/>
	<polygon id="XMLID_87_" class="st1" points="26.275,273.962 24.424,273.294 23.76,275.15 25.614,275.81  "/>
	<polygon id="XMLID_86_" class="st1" points="24.96,277.661 23.103,277.011 22.456,278.874 24.316,279.515  "/>
	<polygon id="XMLID_85_" class="st1" points="16.763,303.884 14.866,303.361 14.346,305.262 16.245,305.777  "/>
	<path id="XMLID_84_" class="st1" d="M6.867,349.916l-1.945-0.304c-0.101,0.649-0.201,1.3-0.298,1.951l1.946,0.292   C6.667,351.209,6.766,350.562,6.867,349.916z"/>
	<polygon id="XMLID_83_" class="st1" points="18.925,296.336 17.038,295.776 16.482,297.668 18.371,298.22  "/>
	<path id="XMLID_82_" class="st1" d="M20.061,292.578L18.18,292c-0.193,0.628-0.385,1.257-0.575,1.887l1.884,0.569   C19.678,293.829,19.868,293.202,20.061,292.578z"/>
	<polygon id="XMLID_81_" class="st1" points="21.232,288.832 19.356,288.236 18.764,290.116 20.641,290.704  "/>
	<path id="XMLID_80_" class="st1" d="M1.987,408.522l-1.968-0.025c-0.008,0.657-0.015,1.314-0.019,1.971l1.968,0.013   C1.972,409.829,1.979,409.175,1.987,408.522z"/>
	<polygon id="XMLID_79_" class="st1" points="2.157,400.689 0.19,400.627 0.134,402.592 2.1,402.646  "/>
	<polygon id="XMLID_78_" class="st1" points="2.296,396.778 0.33,396.7 0.255,398.661 2.221,398.732  "/>
	<path id="XMLID_77_" class="st1" d="M2.054,404.603l-1.968-0.043c-0.014,0.655-0.027,1.311-0.038,1.968l1.968,0.033   C2.027,405.908,2.039,405.255,2.054,404.603z"/>
	<polygon id="XMLID_76_" class="st1" points="119.329,125.82 117.921,124.444 116.547,125.857 117.959,127.226  "/>
	<path id="XMLID_75_" class="st1" d="M2.687,388.937l-1.964-0.117c-0.039,0.656-0.077,1.313-0.112,1.97l1.965,0.106   C2.612,390.243,2.649,389.59,2.687,388.937z"/>
	<polygon id="XMLID_74_" class="st1" points="3.913,373.282 1.955,373.092 1.768,375.054 3.727,375.236  "/>
	<polygon id="XMLID_73_" class="st1" points="4.313,369.376 2.357,369.167 2.151,371.127 4.108,371.329  "/>
	<polygon id="XMLID_72_" class="st1" points="4.749,365.475 2.795,365.248 2.571,367.206 4.526,367.425  "/>
	<polygon id="XMLID_71_" class="st1" points="5.223,361.578 3.271,361.332 3.029,363.288 4.982,363.526  "/>
	<polygon id="XMLID_70_" class="st1" points="5.733,357.685 3.784,357.42 3.522,359.375 5.473,359.631  "/>
	<path id="XMLID_69_" class="st1" d="M2.473,392.857l-1.965-0.098c-0.033,0.656-0.064,1.312-0.093,1.97l1.966,0.088   C2.41,394.163,2.441,393.51,2.473,392.857z"/>
	<polygon id="XMLID_68_" class="st1" points="3.552,377.191 1.592,377.02 1.423,378.984 3.385,379.149  "/>
	<path id="XMLID_67_" class="st1" d="M2.939,385.02l-1.963-0.136c-0.046,0.656-0.089,1.312-0.131,1.969l1.964,0.124   C2.85,386.325,2.893,385.672,2.939,385.02z"/>
	<polygon id="XMLID_66_" class="st1" points="6.281,353.798 4.334,353.514 4.053,355.467 6.002,355.742  "/>
	<path id="XMLID_65_" class="st1" d="M3.227,381.104l-1.962-0.154c-0.052,0.654-0.101,1.311-0.149,1.967l1.962,0.144   C3.126,382.409,3.176,381.756,3.227,381.104z"/>
	<path id="XMLID_64_" class="st1" d="M81.316,170.648l-1.587-1.163c-0.388,0.529-0.774,1.059-1.16,1.591l1.593,1.155   C80.545,171.702,80.93,171.174,81.316,170.648z"/>
	<polygon id="XMLID_63_" class="st1" points="83.647,167.497 82.07,166.319 80.896,167.899 82.478,169.069  "/>
	<polygon id="XMLID_62_" class="st1" points="90.819,158.178 89.277,156.955 88.057,158.502 89.605,159.717  "/>
	<polygon id="XMLID_61_" class="st1" points="67.971,189.997 66.321,188.926 65.254,190.579 66.91,191.643  "/>
	<path id="XMLID_60_" class="st1" d="M79.015,173.82l-1.598-1.148c-0.384,0.533-0.765,1.067-1.145,1.603l1.605,1.14   C78.255,174.882,78.635,174.35,79.015,173.82z"/>
	<path id="XMLID_59_" class="st1" d="M88.399,161.262l-1.554-1.208c-0.403,0.518-0.805,1.038-1.205,1.558l1.56,1.199   C87.598,162.294,87.998,161.777,88.399,161.262z"/>
	<path id="XMLID_58_" class="st1" d="M76.746,177.014l-1.609-1.133c-0.378,0.537-0.754,1.075-1.129,1.614l1.615,1.123   C75.995,178.082,76.37,177.547,76.746,177.014z"/>
	<polygon id="XMLID_57_" class="st1" points="70.118,186.721 68.477,185.635 67.395,187.277 69.041,188.356  "/>
	<polygon id="XMLID_56_" class="st1" points="72.297,183.465 70.666,182.363 69.568,183.996 71.204,185.09  "/>
	<path id="XMLID_55_" class="st1" d="M74.505,180.229l-1.62-1.117c-0.372,0.54-0.744,1.081-1.114,1.623l1.626,1.109   C73.766,181.304,74.135,180.766,74.505,180.229z"/>
	<path id="XMLID_54_" class="st1" d="M86.008,164.368l-1.565-1.192c-0.398,0.522-0.794,1.045-1.19,1.569l1.572,1.185   C85.217,165.408,85.612,164.888,86.008,164.368z"/>
	<polygon id="XMLID_53_" class="st1" points="93.269,155.117 91.738,153.879 90.504,155.414 92.04,156.644  "/>
	<path id="XMLID_52_" class="st1" d="M105.949,140.163l-1.47-1.309c-0.437,0.491-0.873,0.983-1.307,1.477l1.477,1.3   C105.081,141.141,105.514,140.651,105.949,140.163z"/>
	<polygon id="XMLID_51_" class="st1" points="108.57,137.244 107.112,135.923 105.792,137.386 107.255,138.701  "/>
	<path id="XMLID_50_" class="st1" d="M116.598,128.638l-1.419-1.363c-0.455,0.474-0.909,0.949-1.362,1.425l1.426,1.356   C115.693,129.583,116.145,129.109,116.598,128.638z"/>
	<polygon id="XMLID_49_" class="st1" points="113.894,131.482 112.462,130.133 111.114,131.571 112.553,132.913  "/>
	<polygon id="XMLID_48_" class="st1" points="111.219,134.35 109.773,133.015 108.439,134.465 109.89,135.794  "/>
	<polygon id="XMLID_47_" class="st1" points="103.356,143.106 101.874,141.812 100.582,143.299 102.07,144.586  "/>
	<polygon id="XMLID_46_" class="st1" points="95.747,152.079 94.229,150.828 92.98,152.351 94.504,153.595  "/>
	<path id="XMLID_45_" class="st1" d="M98.254,149.064l-1.507-1.265c-0.422,0.503-0.844,1.006-1.264,1.512l1.513,1.258   C97.415,150.066,97.834,149.565,98.254,149.064z"/>
	<path id="XMLID_44_" class="st1" d="M29.011,266.602l-1.838-0.703c-0.235,0.614-0.468,1.229-0.7,1.845l1.842,0.693   C28.545,267.824,28.777,267.213,29.011,266.602z"/>
	<polygon id="XMLID_43_" class="st1" points="100.791,146.073 99.296,144.793 98.019,146.292 99.519,147.565  "/>
	<polygon id="XMLID_42_" class="st1" points="44.721,230.776 42.959,229.901 42.089,231.662 43.855,232.53  "/>
	<path id="XMLID_41_" class="st1" d="M38.032,244.913l-1.794-0.808c-0.269,0.597-0.536,1.195-0.802,1.794l1.799,0.797   C37.499,246.101,37.765,245.507,38.032,244.913z"/>
	<polygon id="XMLID_40_" class="st1" points="41.309,237.813 39.531,236.972 38.695,238.75 40.477,239.583  "/>
	<polygon id="XMLID_39_" class="st1" points="65.857,193.292 64.196,192.238 63.145,193.901 64.811,194.948  "/>
	<polygon id="XMLID_38_" class="st1" points="42.998,234.287 41.227,233.428 40.375,235.198 42.148,236.049  "/>
	<path id="XMLID_37_" class="st1" d="M39.653,241.356l-1.786-0.825c-0.275,0.595-0.548,1.19-0.819,1.787l1.791,0.815   C39.109,242.539,39.38,241.947,39.653,241.356z"/>
	<polygon id="XMLID_36_" class="st1" points="34.892,252.072 33.083,251.299 32.315,253.107 34.128,253.871  "/>
	<polygon id="XMLID_35_" class="st1" points="31.887,259.296 30.063,258.558 29.327,260.387 31.155,261.118  "/>
	<polygon id="XMLID_34_" class="st1" points="30.432,262.942 28.601,262.221 27.883,264.058 29.717,264.77  "/>
	<path id="XMLID_33_" class="st1" d="M33.374,255.673l-1.817-0.756c-0.251,0.604-0.501,1.209-0.75,1.815l1.821,0.746   C32.875,256.875,33.124,256.273,33.374,255.673z"/>
	<path id="XMLID_32_" class="st1" d="M36.445,248.486l-1.803-0.79c-0.263,0.6-0.524,1.2-0.784,1.801l1.806,0.78   C35.923,249.679,36.183,249.082,36.445,248.486z"/>
	<path id="XMLID_31_" class="st1" d="M46.478,227.282l-1.753-0.893c-0.297,0.584-0.593,1.168-0.887,1.754l1.758,0.883   C45.888,228.444,46.182,227.862,46.478,227.282z"/>
	<polygon id="XMLID_30_" class="st1" points="59.702,203.297 58.012,202.29 57.009,203.983 58.705,204.982  "/>
	<polygon id="XMLID_29_" class="st1" points="57.716,206.67 56.015,205.679 55.029,207.38 56.734,208.363  "/>
	<path id="XMLID_28_" class="st1" d="M400.145,2.183l-0.063-1.967c-0.657,0.021-1.315,0.044-1.972,0.069l0.074,1.966   C398.837,2.227,399.49,2.204,400.145,2.183z"/>
	<polygon id="XMLID_27_" class="st1" points="61.722,199.944 60.042,198.92 59.023,200.603 60.709,201.618  "/>
	<polygon id="XMLID_26_" class="st1" points="55.76,210.061 54.051,209.086 53.081,210.797 54.795,211.763  "/>
	<polygon id="XMLID_25_" class="st1" points="53.838,213.47 52.119,212.512 51.165,214.232 52.889,215.182  "/>
	<polygon id="XMLID_24_" class="st1" points="50.092,220.342 48.355,219.417 47.435,221.154 49.176,222.07  "/>
	<polygon id="XMLID_23_" class="st1" points="48.269,223.803 46.523,222.894 45.62,224.639 47.368,225.541  "/>
	<polygon id="XMLID_22_" class="st1" points="51.948,216.897 50.22,215.955 49.283,217.683 51.016,218.617  "/>
	<path id="XMLID_21_" class="st1" d="M404.069,2.074l-0.044-1.967c-0.658,0.015-1.315,0.032-1.973,0.05l0.055,1.967   C402.761,2.106,403.415,2.089,404.069,2.074z"/>
	<polygon id="XMLID_20_" class="st1" points="407.996,2.003 407.968,0.035 405.996,0.067 406.032,2.034  "/>
	<polygon id="XMLID_19_" class="st1" points="411.921,1.968 411.913,0 409.941,0.013 409.958,1.981  "/>
	<path id="XMLID_18_" class="st1" d="M96.429,411.885h45.257c0.469-71.977,28.703-139.586,79.651-190.534   c51.299-51.299,119.463-79.581,191.991-79.678V96.416C238.873,96.617,97.41,237.614,96.429,411.885z"/>
	<path id="XMLID_17_" class="st1" d="M413.327,153.48c-69.37,0.097-134.572,27.149-183.638,76.215   c-48.723,48.724-75.728,113.362-76.197,182.19h259.835V153.48z"/>
	<path id="XMLID_16_" class="st1" d="M81.943,273.845c18.161-42.938,44.16-81.501,77.276-114.616   c33.116-33.116,71.678-59.115,114.616-77.276c44.19-18.691,91.118-28.213,139.491-28.325v-2.952   c-48.771,0.112-96.085,9.713-140.641,28.558c-43.29,18.31-82.167,44.522-115.553,77.908   c-33.386,33.386-59.598,72.263-77.908,115.553c-18.658,44.114-28.242,90.933-28.541,139.19h2.952   C53.933,364.025,63.439,317.593,81.943,273.845z"/>
</g>
</svg>