<?xml version="1.0" encoding="UTF-8"?>
<svg width="72px" height="72px" viewBox="0 0 72 72" version="1.1" xmlns="http://www.w3.org/2000/svg" xmlns:xlink="http://www.w3.org/1999/xlink">
    <!-- Generator: Sketch 50.2 (55047) - http://www.bohemiancoding.com/sketch -->
    <title>bitcoin</title>
    <desc>Created with Sketch.</desc>
    <defs/>
    <g id="Website" stroke="none" stroke-width="1" fill="none" fill-rule="evenodd">
        <g id="5.footer" transform="translate(-517.000000, -234.000000)">
            <g id="Group" transform="translate(98.000000, 233.627857)">
                <g id="bitcoin" transform="translate(419.641953, 0.565018)">
                    <circle id="Oval-Copy" fill="#FE9518" cx="35.667242" cy="35.4292774" r="35.4292774"/>
                    <g id="001-bitcoin-logo" transform="translate(18.838335, 12.400247)" fill="#FFFFFF" fill-rule="nonzero">
                        <path d="M31.7902842,23.9623876 C30.7291498,22.5902295 29.1278821,21.6477361 26.9865771,21.1354842 C29.7133952,19.7445782 30.9117261,17.383874 30.5827235,14.0529871 C30.4727355,12.8451381 30.1389257,11.7983291 29.5805251,10.911022 C29.0217398,10.0235226 28.2676874,9.31004269 27.3154835,8.77029384 C26.3640488,8.22987199 25.3292578,7.81847454 24.213514,7.53485161 C23.0974819,7.25122869 21.8161792,7.0452896 20.3704715,6.91732278 L20.3704715,0 L16.1436246,0 L16.1436246,6.7251322 C15.4116852,6.7251322 14.2954607,6.74339944 12.7950474,6.78003006 L12.7950474,0 L8.56762363,0 L8.56762363,6.91732278 C7.96355487,6.93568616 7.07615162,6.94501207 5.9050293,6.94501207 L0.0858560244,6.91732278 L0.0858560244,11.4191397 L3.1325431,11.4191397 C4.52335301,11.4191397 5.3376873,12.0414757 5.57554599,13.285667 L5.57554599,21.1638465 C5.75879524,21.1638465 5.9050293,21.1732686 6.01492116,21.1915358 L5.57554599,21.1915358 L5.57554599,32.2258136 C5.42931193,33.1588849 4.8986967,33.6258533 3.98360416,33.6258533 L0.937109373,33.6258533 L0.0860483111,38.6492479 L5.5760267,38.6492479 C5.92377725,38.6492479 6.42670319,38.6538628 7.08576596,38.6621311 C7.74444415,38.6713609 8.23833261,38.6759758 8.56781592,38.6759758 L8.56781592,45.6755011 L12.7959127,45.6755011 L12.7959127,38.7582745 C13.5642904,38.7770224 14.6805149,38.7859638 16.1444899,38.7859638 L16.1444899,45.6755011 L20.3714329,45.6755011 L20.3714329,38.6759758 C21.872327,38.6029068 23.203528,38.4663832 24.365036,38.264386 C25.5271208,38.0623888 26.639115,37.7472309 27.7002493,37.3168932 C28.7612875,36.8871323 29.6486907,36.3515176 30.3622668,35.7110106 C31.0762274,35.0710803 31.6658746,34.2563615 32.1333237,33.2680077 C32.5992344,32.2796539 32.8969904,31.1359324 33.0246688,29.8363626 C33.2635851,27.2933706 32.8516108,25.3351225 31.7902842,23.9623876 Z M12.8772499,11.7202607 C13.005409,11.7202607 13.366812,11.7156458 13.9615548,11.706416 C14.5565861,11.696994 15.0504745,11.6879565 15.4438932,11.6787268 C15.837408,11.6696893 16.3681194,11.6925714 17.0363157,11.7474693 C17.7042237,11.8023671 18.2668547,11.8757245 18.7242086,11.9670607 C19.1815626,12.0583969 19.6852577,12.2094381 20.2337556,12.419896 C20.7832149,12.6301615 21.2221094,12.8864797 21.551112,13.1883699 C21.8807876,13.49026 22.1597956,13.8747373 22.3881361,14.3414172 C22.6171496,14.808001 22.7315602,15.3432311 22.7315602,15.9470114 C22.7315602,16.4594556 22.6493576,16.9262316 22.4848563,17.3473395 C22.3206435,17.768159 22.0729782,18.1205245 21.7439756,18.4041474 C21.4148768,18.6878665 21.0756831,18.9351472 20.7279325,19.1454127 C20.3805665,19.3556783 19.9363842,19.5250829 19.3967315,19.6530497 C18.8571749,19.7812088 18.3859763,19.8818709 17.9836163,19.9549399 C17.5809679,20.0282011 17.0778497,20.0786764 16.4738771,20.1059811 C15.8698083,20.1332858 15.4121659,20.1519376 15.1012382,20.1609751 C14.7900222,20.1700126 14.3646839,20.1700126 13.8246467,20.1609751 C13.2845132,20.1519376 12.9692591,20.1471304 12.8775384,20.1471304 L12.8775384,11.7201645 L12.8772499,11.7201645 L12.8772499,11.7202607 Z M24.4202223,30.4131266 C24.2459144,30.8342345 24.0220926,31.2004446 23.7477956,31.5117568 C23.4730178,31.8222999 23.1114227,32.0970776 22.6632984,32.3346479 C22.2152704,32.5728911 21.7802216,32.7646972 21.3596906,32.9111235 C20.9385826,33.0581267 20.4305611,33.1855167 19.8363951,33.295697 C19.2408831,33.4055888 18.7196899,33.4828881 18.2708927,33.5289408 C17.8227685,33.5748011 17.2877306,33.6112395 16.6652985,33.6389288 C16.0433471,33.6658489 15.5581115,33.6797897 15.2105533,33.6797897 C14.8628027,33.6797897 14.4235237,33.6747902 13.8928123,33.6658489 C13.3618125,33.6572921 13.0235801,33.6526773 12.8770577,33.6526773 L12.8770577,24.3743619 C13.0232917,24.3743619 13.4579559,24.3654206 14.180954,24.3467687 C14.9040482,24.3283092 15.4938877,24.3197525 15.951434,24.3197525 C16.4088841,24.3197525 17.0404499,24.3467687 17.845939,24.4020512 C18.650659,24.4565645 19.3277967,24.5385748 19.877256,24.6483705 C20.4260423,24.7583585 21.0249194,24.9273785 21.6750408,25.156392 C22.3244892,25.3850209 22.8508741,25.664029 23.2536187,25.9934161 C23.6562671,26.3233802 23.9945956,26.7436228 24.2689888,27.2561631 C24.5440549,27.7684149 24.6812515,28.3541203 24.6812515,29.0130869 C24.6811554,29.5260118 24.5943379,29.9919225 24.4202223,30.4131266 Z" id="Shape"/>
                    </g>
                </g>
            </g>
        </g>
    </g>
</svg>