<?xml version="1.0" encoding="UTF-8"?>
<svg width="133px" height="45px" viewBox="0 0 133 45" version="1.1" xmlns="http://www.w3.org/2000/svg" xmlns:xlink="http://www.w3.org/1999/xlink">
    <!-- Generator: Sketch 50.2 (55047) - http://www.bohemiancoding.com/sketch -->
    <title>Cryptophi-footer</title>
    <desc>Created with Sketch.</desc>
    <defs>
        <radialGradient cx="50%" cy="0%" fx="50%" fy="0%" r="100.044468%" gradientTransform="translate(0.500000,0.000000),scale(1.000000,0.999556),rotate(90.000000),translate(-0.500000,-0.000000)" id="radialGradient-1">
            <stop stop-color="#EC1C24" offset="0%"/>
            <stop stop-color="#9B0D0D" offset="100%"/>
        </radialGradient>
    </defs>
    <g id="Website" stroke="none" stroke-width="1" fill="none" fill-rule="evenodd">
        <g id="5.footer" transform="translate(-1207.000000, -774.000000)" fill-rule="nonzero">
            <g id="Cryptophi-footer" transform="translate(1207.500000, 773.911353)">
                <g id="XMLID_14_">
                    <g id="XMLID_423_">
                        <path d="M39.9684883,18.5532982 C38.8308419,8.56334041 30.3695964,0.813124018 20.1130027,0.813124018 C16.8067178,0.813124018 13.67819,1.61303167 10.9229526,3.05286545 C11.5095515,2.73290239 12.1139262,2.44849078 12.7360766,2.19963062 C5.32359898,5.13262536 0.0975356291,12.3851214 0.0975356291,20.8463668 C0.0975356291,31.4762508 8.75431403,40.8796097 20.1307785,40.861834 L20.1307785,34.835863 C21.8372481,34.8003115 23.4903906,34.5158999 25.0546545,34.0004038 L25.0546545,40.2930107 C33.5514513,37.8221849 40.1284698,30.427483 40.1284698,21.1130027 C40.1284698,20.2419922 40.0751427,19.3887573 39.9684883,18.5532982 Z" id="XMLID_426_" fill="url(#radialGradient-1)"/>
                        <polygon id="XMLID_429_" fill="#000000" points="25.0546545 23.690483 25.0546545 23.690483 22.6016043 20.8285911 22.6016043 37.4844461 25.0546545 40.275235"/>
                        <path d="M22.6016043,20.8285911 L25.0546545,23.690483 C29.9785305,21.0418998 33.4981242,15.0514803 29.9252033,7.95896574 C31.756103,15.069256 26.8500028,19.993132 22.6016043,20.8285911 Z" id="XMLID_428_" fill="#000000"/>
                        <path d="M17.891037,30.6407917 L20.1307785,33.1649447 C11.1895884,33.1649447 4.09707391,25.7346914 5.07473882,16.1535753 C5.67911349,25.0769896 11.545103,29.5031453 17.891037,30.6407917 Z" id="XMLID_425_" fill="#000000"/>
                    </g>
                </g>
                <g id="XMLID_16_" transform="translate(43.505858, 25.841346)" fill="#EC1C24">
                    <path d="M11.3053615,12.7274196 C11.3764644,12.7274196 11.4297916,12.7451953 11.4831188,12.7985225 L11.8919605,13.2251399 C11.5897731,13.545103 11.2698101,13.8295146 10.9320713,14.0783747 C10.5765568,14.3272349 10.2032665,14.5405436 9.79442484,14.7183009 C9.38558315,14.8960581 8.94119001,15.0382639 8.44346969,15.1271425 C7.94574937,15.2160212 7.4124776,15.2693484 6.82587866,15.2693484 C5.84821375,15.2693484 4.94165174,15.0915911 4.12396836,14.7538523 C3.30628497,14.4161135 2.61303167,13.9183932 2.02643273,13.2962428 C1.43983378,12.6740924 0.977664912,11.9097362 0.65770185,11.0031742 C0.337738788,10.1143879 0.159981531,9.11894727 0.159981531,8.01685228 C0.159981531,6.95030874 0.319963062,5.9548681 0.65770185,5.06608182 C0.995440638,4.17729553 1.47538523,3.41293933 2.0797599,2.7730132 C2.68413458,2.13308708 3.41293933,1.63536676 4.26617416,1.29762797 C5.11940899,0.942113461 6.06152245,0.764356204 7.09251454,0.764356204 C7.60801059,0.764356204 8.07017945,0.799907655 8.49679687,0.871010558 C8.92341429,0.942113461 9.31448025,1.06654354 9.68777049,1.20874935 C10.0610607,1.35095515 10.3987995,1.52871241 10.7365383,1.74202112 C11.0565014,1.95532982 11.3764644,2.20418998 11.6964275,2.48860159 L11.3942402,2.93299474 C11.340913,3.02187336 11.2520343,3.05742482 11.14538,3.05742482 C11.0920528,3.05742482 11.0031742,3.02187336 10.9142956,2.95077046 C10.8254169,2.87966756 10.7009869,2.79078893 10.558781,2.68413458 C10.4165752,2.57748022 10.238818,2.47082587 10.043285,2.34639579 C9.84775202,2.22196571 9.59889186,2.11531135 9.31448025,2.008657 C9.03006864,1.90200265 8.71010558,1.81312402 8.33681534,1.74202112 C7.9635251,1.67091821 7.55468341,1.63536676 7.09251454,1.63536676 C6.23927971,1.63536676 5.43937206,1.77757257 4.7105673,2.0797599 C3.98176255,2.38194724 3.37738788,2.80856466 2.84411611,3.35961215 C2.32862006,3.91065965 1.91977837,4.58613722 1.63536676,5.36826915 C1.35095515,6.15040108 1.19097362,7.03918737 1.19097362,7.99907655 C1.19097362,8.99451719 1.33317943,9.9010792 1.61759104,10.6832111 C1.90200265,11.4653431 2.29306861,12.1408206 2.80856466,12.6740924 C3.3240607,13.2251399 3.91065965,13.6339816 4.60391295,13.9183932 C5.29716625,14.2028048 6.04374673,14.3627863 6.84365438,14.3627863 C7.35915043,14.3627863 7.80354357,14.3272349 8.19460953,14.256132 C8.5856755,14.1850291 8.95896574,14.0961505 9.29670453,13.9539447 C9.63444331,13.8117388 9.93663065,13.6517573 10.2210423,13.4562243 C10.5054539,13.2606914 10.7898655,13.0296069 11.0742771,12.7807468 C11.1098285,12.762971 11.14538,12.7274196 11.1631557,12.7096439 C11.2342586,12.7274196 11.2698101,12.7274196 11.3053615,12.7274196 Z" id="XMLID_18_"/>
                    <path d="M14.6294222,15.1093668 L14.6294222,5.13718472 L15.1271425,5.13718472 C15.2337969,5.13718472 15.3226755,5.15496044 15.3760027,5.20828762 C15.4293299,5.2616148 15.4471056,5.3327177 15.4648813,5.45714778 L15.55376,7.55468341 C15.873723,6.75477575 16.3003404,6.11484963 16.8336122,5.65268076 C17.366884,5.1905119 18.0245858,4.95942746 18.8067178,4.95942746 C19.1089051,4.95942746 19.375541,4.99497891 19.6421769,5.04830609 C19.891037,5.11940899 20.1398972,5.20828762 20.3709816,5.31494198 L20.2465515,5.97264383 C20.2287758,6.07929818 20.1576729,6.13262536 20.0510186,6.13262536 C20.0154671,6.13262536 19.9621399,6.11484963 19.8732613,6.09707391 C19.8021584,6.07929818 19.7132798,6.04374673 19.6066254,6.00819528 C19.4999711,5.97264383 19.3577653,5.93709237 19.1977837,5.91931665 C19.0378022,5.90154092 18.8600449,5.8837652 18.6467362,5.8837652 C17.9001558,5.8837652 17.2780054,6.11484963 16.780285,6.5770185 C16.3003404,7.03918737 15.9092745,7.71466494 15.6070871,8.60345122 L15.6070871,15.1093668 L14.6294222,15.1093668 Z" id="XMLID_20_"/>
                    <path d="M24.7438101,18.3089974 C24.7082587,18.3978761 24.6549315,18.4867547 24.5838286,18.5400819 C24.5127257,18.5934091 24.4238471,18.6289605 24.3171927,18.6289605 L23.6417151,18.6289605 L25.401512,14.7360766 L21.188665,5.13718472 L21.9885727,5.13718472 C22.095227,5.13718472 22.1663299,5.15496044 22.2196571,5.20828762 C22.2729843,5.2616148 22.3263114,5.31494198 22.3440872,5.36826915 L25.7036993,13.1184855 C25.7392508,13.2251399 25.7748022,13.3140185 25.8103537,13.4206729 C25.8459051,13.5273272 25.8636809,13.6339816 25.8992323,13.7406359 C25.9347838,13.6339816 25.9703352,13.5273272 26.0058867,13.4206729 C26.0414381,13.3140185 26.0769896,13.2073642 26.112541,13.1184855 L29.418826,5.36826915 C29.4543774,5.29716625 29.5077046,5.24383907 29.5610318,5.1905119 C29.614359,5.15496044 29.6854619,5.11940899 29.7565648,5.11940899 L30.4853695,5.11940899 L24.7438101,18.3089974 Z" id="XMLID_22_"/>
                    <path d="M32.334045,18.6289605 L32.334045,5.13718472 L32.849541,5.13718472 C32.9384197,5.13718472 33.0095226,5.15496044 33.0628497,5.1905119 C33.1161769,5.22606335 33.1517284,5.29716625 33.1517284,5.38604488 L33.240607,6.93253301 C33.6850001,6.32815834 34.2004962,5.84821375 34.7870951,5.49269923 C35.3736941,5.13718472 36.0491717,4.95942746 36.7779764,4.95942746 C38.0045015,4.95942746 38.9643907,5.38604488 39.6398682,6.23927971 C40.3153458,7.09251454 40.6530846,8.35459107 40.6530846,10.0610607 C40.6530846,10.7898655 40.564206,11.4653431 40.368673,12.1052692 C40.17314,12.7274196 39.9065041,13.2784671 39.5332139,13.7406359 C39.1599237,14.2028048 38.7155305,14.576095 38.1822587,14.8427309 C37.648987,15.1093668 37.0268366,15.2515726 36.3158075,15.2515726 C35.64033,15.2515726 35.053731,15.1271425 34.5560107,14.8782824 C34.0582904,14.6294222 33.631673,14.256132 33.2761585,13.7761874 L33.2761585,18.6467362 L32.334045,18.6467362 L32.334045,18.6289605 Z M36.5113405,5.74155939 C35.8536387,5.74155939 35.249264,5.91931665 34.7159922,6.25705544 C34.1827205,6.59479422 33.7027759,7.07473882 33.2939342,7.69688922 L33.2939342,12.9229526 C33.6672244,13.4917758 34.0938418,13.9006175 34.5560107,14.1317019 C35.0181796,14.3627863 35.5514513,14.4872164 36.1380503,14.4872164 C36.7246492,14.4872164 37.2401453,14.3805621 37.6845384,14.1672534 C38.1289316,13.9539447 38.5022218,13.6517573 38.7866334,13.2606914 C39.0888207,12.8696254 39.3021295,12.4074565 39.462111,11.856409 C39.6043168,11.3053615 39.6931954,10.7187626 39.6931954,10.0610607 C39.6931954,8.5856755 39.4265595,7.48358051 38.875512,6.79032721 C38.3244645,6.09707391 37.5245569,5.74155939 36.5113405,5.74155939 Z" id="XMLID_24_"/>
                    <path d="M45.7547179,15.2693484 C45.0792403,15.2693484 44.5637443,15.0738154 44.190454,14.7005251 C43.8171638,14.3272349 43.6216308,13.7406359 43.6216308,12.9762797 L43.6216308,6.16817681 L42.181797,6.16817681 C42.1106941,6.16817681 42.0395912,6.15040108 42.0040398,6.11484963 C41.9507126,6.07929818 41.9329369,6.025971 41.9329369,5.93709237 L41.9329369,5.56380213 L43.6394065,5.43937206 L43.870491,1.8664512 C43.870491,1.81312402 43.9060424,1.75979684 43.9415939,1.70646966 C43.9771453,1.65314249 44.0482482,1.63536676 44.1193511,1.63536676 L44.5637443,1.63536676 L44.5637443,5.43937206 L47.692272,5.43937206 L47.692272,6.15040108 L44.5637443,6.15040108 L44.5637443,12.9051768 C44.5637443,13.1718127 44.5992957,13.4206729 44.6703986,13.6162059 C44.7415015,13.8117388 44.8303801,13.9717204 44.9548102,14.0961505 C45.0792403,14.2205805 45.2214461,14.3094592 45.3992034,14.3805621 C45.5591849,14.4338892 45.7547179,14.4694407 45.9324751,14.4694407 C46.1813353,14.4694407 46.3768683,14.4338892 46.5546255,14.3627863 C46.7323828,14.2916834 46.8745886,14.2205805 46.9990187,14.1317019 C47.1234488,14.0428233 47.2301031,13.9717204 47.301206,13.9006175 C47.3900846,13.8295146 47.4434118,13.7939631 47.496739,13.7939631 C47.5500662,13.7939631 47.6033933,13.8295146 47.6567205,13.9006175 L47.9233564,14.3272349 C47.6744962,14.6116465 47.3545332,14.8249552 46.9634672,15.0027125 C46.590177,15.1804697 46.1813353,15.2693484 45.7547179,15.2693484 Z" id="XMLID_27_"/>
                    <path d="M53.9848789,4.97720319 C54.6959079,4.97720319 55.335834,5.10163327 55.9046572,5.35049343 C56.4734805,5.59935359 56.9356493,5.93709237 57.3267153,6.38148552 C57.7177813,6.82587866 58.0021929,7.35915043 58.2155016,7.99907655 C58.4110346,8.62122695 58.5176889,9.33225598 58.5176889,10.1143879 C58.5176889,10.8965198 58.4110346,11.6075489 58.2155016,12.2296993 C58.0199686,12.8518497 57.7177813,13.4028972 57.3267153,13.8472903 C56.9356493,14.2916834 56.4557047,14.647198 55.9046572,14.8782824 C55.335834,15.1271425 54.6959079,15.2337969 53.9848789,15.2337969 C53.2738498,15.2337969 52.6339237,15.1093668 52.0651005,14.8782824 C51.4962773,14.6294222 51.0163327,14.2916834 50.6252667,13.8472903 C50.2342007,13.4028972 49.9320134,12.8696254 49.7364804,12.2296993 C49.5409474,11.6075489 49.4342931,10.8965198 49.4342931,10.1143879 C49.4342931,9.33225598 49.5409474,8.62122695 49.7364804,7.99907655 C49.9320134,7.37692615 50.2342007,6.82587866 50.6252667,6.38148552 C51.0163327,5.93709237 51.4962773,5.58157786 52.0651005,5.35049343 C52.6339237,5.10163327 53.2560741,4.97720319 53.9848789,4.97720319 Z M53.9848789,14.4872164 C54.5714778,14.4872164 55.1047496,14.3805621 55.5491427,14.1850291 C55.9935359,13.9894961 56.3668261,13.6873088 56.6690134,13.3140185 C56.9712008,12.9407283 57.1845095,12.4785594 57.3267153,11.9452877 C57.4689211,11.4120159 57.540024,10.8076412 57.540024,10.1321636 C57.540024,9.47446178 57.4689211,8.87008711 57.3267153,8.33681534 C57.1845095,7.80354357 56.953425,7.3413747 56.6690134,6.95030874 C56.3668261,6.55924277 55.9935359,6.27483116 55.5491427,6.06152245 C55.1047496,5.84821375 54.5892535,5.75933512 53.9848789,5.75933512 C53.3982799,5.75933512 52.8650081,5.86598947 52.420615,6.06152245 C51.9762219,6.27483116 51.6029316,6.55924277 51.3007443,6.95030874 C50.9985569,7.3413747 50.7852482,7.80354357 50.6252667,8.33681534 C50.4830609,8.87008711 50.3941823,9.47446178 50.3941823,10.1321636 C50.3941823,10.8076412 50.4652852,11.3942402 50.6252667,11.9452877 C50.7674725,12.4785594 50.9985569,12.9407283 51.3007443,13.3140185 C51.6029316,13.6873088 51.9762219,13.9894961 52.420615,14.1850291 C52.8650081,14.3805621 53.3805042,14.4872164 53.9848789,14.4872164 Z" id="XMLID_29_"/>
                    <path d="M63.9748367,10.238818 L63.9748367,15.1093668 L60.5974488,15.1093668 L60.5974488,0.515496044 L65.7524093,0.515496044 C66.7834013,0.515496044 67.6544119,0.639926124 68.4009924,0.888786284 C69.1297971,1.13764644 69.7519475,1.47538523 70.2318921,1.90200265 C70.7118367,2.32862006 71.0673512,2.82634038 71.2806599,3.41293933 C71.5117444,3.99953828 71.6183987,4.62168867 71.6183987,5.29716625 C71.6183987,6.025971 71.4939686,6.70144858 71.2628842,7.30582325 C71.0317998,7.91019792 70.6762853,8.42569397 70.1963407,8.87008711 C69.7163961,9.29670453 69.1120214,9.63444331 68.3654409,9.88330347 C67.6188605,10.1321636 66.7478499,10.2565937 65.7524093,10.2565937 L63.9748367,10.2565937 L63.9748367,10.238818 Z M63.9748367,7.67911349 L65.7346335,7.67911349 C66.6234198,7.67911349 67.2455702,7.46580478 67.6366362,7.05696309 C68.0277021,6.6481214 68.2232351,6.04374673 68.2232351,5.29716625 C68.2232351,4.95942746 68.1699079,4.65724013 68.0810293,4.39060424 C67.974375,4.12396836 67.8321692,3.8751082 67.6188605,3.67957521 C67.4233275,3.48404223 67.1566916,3.3240607 66.8545042,3.21740635 C66.5523169,3.11075199 66.1790267,3.05742482 65.7524093,3.05742482 L63.9926124,3.05742482 L63.9926124,7.67911349 L63.9748367,7.67911349 Z" id="XMLID_32_"/>
                    <path d="M73.3781956,15.1093668 L73.3781956,0.12443008 L76.4889476,0.12443008 L76.4889476,5.63490504 C76.8622378,5.31494198 77.2710795,5.04830609 77.6976969,4.85277311 C78.14209,4.65724013 78.6575861,4.55058577 79.2619608,4.55058577 C79.830784,4.55058577 80.3285043,4.65724013 80.7728974,4.85277311 C81.2172906,5.04830609 81.5728051,5.31494198 81.8749924,5.67045649 C82.1771798,6.025971 82.4082642,6.43481269 82.55047,6.91475729 C82.7104515,7.39470188 82.7815544,7.92797365 82.7815544,8.49679687 L82.7815544,15.1093668 L79.6708025,15.1093668 L79.6708025,8.5145726 C79.6708025,7.99907655 79.5463724,7.60801059 79.3152879,7.32359898 C79.0842035,7.03918737 78.7464647,6.89698156 78.2842959,6.89698156 C77.9465571,6.89698156 77.626594,6.96808446 77.3244067,7.11029027 C77.0222193,7.25249607 76.7378077,7.44802906 76.4711718,7.69688922 L76.4711718,15.1093668 L73.3781956,15.1093668 Z" id="XMLID_35_"/>
                    <path d="M88.5586653,1.88422692 C88.5586653,2.13308708 88.5053381,2.36417151 88.4164595,2.57748022 C88.3098051,2.79078893 88.1853751,2.98632191 88.0076178,3.14630344 C87.8298605,3.30628497 87.6343276,3.44849078 87.4032431,3.53736941 C87.1721587,3.62624804 86.9232985,3.67957521 86.6744384,3.67957521 C86.4255782,3.67957521 86.1767181,3.62624804 85.9634093,3.53736941 C85.7501006,3.44849078 85.5545677,3.30628497 85.3768104,3.14630344 C85.1990531,2.98632191 85.0746231,2.79078893 84.9679687,2.57748022 C84.8790901,2.36417151 84.8257629,2.13308708 84.8257629,1.88422692 C84.8257629,1.63536676 84.8790901,1.3865066 84.9679687,1.17319789 C85.0568473,0.959889186 85.1990531,0.764356204 85.3768104,0.586598947 C85.5545677,0.426617416 85.7501006,0.284411611 85.9634093,0.195532982 C86.1767181,0.106654354 86.4255782,0.053327177 86.6744384,0.053327177 C86.9410743,0.053327177 87.1721587,0.106654354 87.4032431,0.195532982 C87.6343276,0.284411611 87.8298605,0.426617416 88.0076178,0.586598947 C88.1853751,0.746580478 88.3098051,0.942113461 88.4164595,1.17319789 C88.5053381,1.3865066 88.5586653,1.63536676 88.5586653,1.88422692 Z M88.2031508,4.72834303 L88.2031508,15.1093668 L85.0923988,15.1093668 L85.0923988,4.72834303 L88.2031508,4.72834303 Z" id="XMLID_37_"/>
                </g>
            </g>
        </g>
    </g>
</svg>