<?xml version="1.0" encoding="UTF-8"?>
<svg width="72px" height="72px" viewBox="0 0 72 72" version="1.1" xmlns="http://www.w3.org/2000/svg" xmlns:xlink="http://www.w3.org/1999/xlink">
    <!-- Generator: Sketch 50.2 (55047) - http://www.bohemiancoding.com/sketch -->
    <title>discord</title>
    <desc>Created with Sketch.</desc>
    <defs/>
    <g id="Website" stroke="none" stroke-width="1" fill="none" fill-rule="evenodd">
        <g id="5.footer" transform="translate(-717.000000, -234.000000)" fill="#FE9518" fill-rule="nonzero">
            <g id="Group" transform="translate(98.000000, 233.627857)">
                <g id="discord" transform="translate(619.175344, 1.000000)">
                    <path d="M35.474966,70.949932 C15.8826833,70.949932 0,55.0672487 0,35.474966 C0,15.8826833 15.8826833,0 35.474966,0 C55.0672487,0 70.949932,15.8826833 70.949932,35.474966 C70.949932,55.0672487 55.0672487,70.949932 35.474966,70.949932 Z M57.8995789,15.8212805 L57.7244213,15.377012 C57.719294,15.3642632 57.7094553,15.3537316 57.696845,15.34805 L57.2619995,15.150582 C53.6823537,13.5246922 48.6331298,13.1235202 44.1657784,12.9457297 L39.1341533,12.9457297 C39.077338,12.9457297 39.0600162,13.0224997 39.11115,13.0470273 L49.4465597,18.0020209 C49.5048993,18.0298743 49.4726116,18.1166217 49.4099761,18.10027 C44.7617855,16.886361 40.0660641,16.2719235 35.4292366,16.2719235 C30.8073751,16.2719235 26.1268967,16.8826195 21.4929793,18.0887683 C21.4299281,18.1051201 21.3979175,18.0174027 21.4570886,17.9901036 L32.1551466,13.0475816 C32.2069733,13.0236083 32.1900673,12.9460068 32.1328362,12.9460068 L26.6928333,12.9460068 C22.2256205,13.1237974 17.1761194,13.5249694 13.5966122,15.1508591 L13.1617667,15.3483272 C13.1491564,15.3540087 13.1391791,15.3644018 13.1341904,15.3772892 L12.9590328,15.8215577 C9.29568826,25.1040814 8.25471973,40.8625879 9.36483673,50.7347444 L9.42303785,51.2524571 L9.83488003,51.5718704 C15.5577126,56.0095669 23.2099122,58.2911893 28.0238374,58.8966195 L28.6463122,58.9749138 C28.8486304,59.0004114 29.0419412,58.8834549 29.1134454,58.6924998 L32.2466055,50.321655 C32.3443003,50.06072 32.1780114,49.7758117 31.9028032,49.7325766 L30.9413762,49.5815308 C27.5888534,49.0548107 22.8389494,47.6585382 18.8248739,44.018197 C18.7392351,43.9404569 18.8218252,43.8007742 18.9301902,43.8409607 C19.2563936,43.9622131 19.6161319,44.1027272 19.9865404,44.2473985 C20.8942007,44.6020096 21.8329015,44.9686766 22.445399,45.1141794 C26.7500644,46.1376876 31.1152867,46.6567862 35.4289594,46.6567862 L35.4289594,46.5800161 L35.4379667,46.5800161 L35.438521,46.6567862 C39.7434636,46.6567862 44.1085473,46.1378262 48.412797,45.1141794 C49.0255716,44.9685381 49.9642724,44.6020096 50.8720713,44.24726 C51.2422027,44.1025886 51.6018024,43.9620745 51.9278672,43.8409607 C52.0362322,43.8007742 52.1188223,43.9405955 52.0331835,44.018197 C48.0325497,47.6424636 43.2766871,49.0351332 39.9166812,49.5614376 L38.9555313,49.711929 C38.6803232,49.7550256 38.5137571,50.0396567 38.6113133,50.3005918 L41.7450277,58.6920841 C41.8163933,58.8831778 42.0098428,59.0002729 42.2121609,58.9747752 L42.83519,58.8964809 C47.648838,58.2910507 55.3004833,56.0094284 61.0234545,51.5717318 L61.4352967,51.2523186 L61.4934978,50.7346058 C62.6037534,40.8625879 61.5627849,25.1039428 57.8995789,15.8212805 Z M25.2030233,38.6114519 C21.3114473,38.9584414 18.064795,35.7120663 18.4113688,31.8204902 C18.6771539,28.8374059 21.0791971,26.4350855 24.06242,26.1690233 C27.9539961,25.8220338 31.2006483,29.0684089 30.8540745,32.9599849 C30.5881509,35.9430693 28.1861077,38.3453896 25.2030233,38.6114519 Z M46.7964688,38.6114519 C42.9048928,38.9584414 39.6582405,35.7120663 40.0048143,31.8204902 C40.2705994,28.8374059 42.6726426,26.4350855 45.6558655,26.1690233 C49.547303,25.8220338 52.7940939,29.0684089 52.4475201,32.9599849 C52.1815964,35.9430693 49.7795532,38.3453896 46.7964688,38.6114519 Z" id="Combined-Shape"/>
                </g>
            </g>
        </g>
    </g>
</svg>