<?xml version="1.0" encoding="UTF-8"?>
<svg width="71px" height="71px" viewBox="0 0 71 71" version="1.1" xmlns="http://www.w3.org/2000/svg" xmlns:xlink="http://www.w3.org/1999/xlink">
    <!-- Generator: Sketch 50.2 (55047) - http://www.bohemiancoding.com/sketch -->
    <title>facebook</title>
    <desc>Created with Sketch.</desc>
    <defs/>
    <g id="Website" stroke="none" stroke-width="1" fill="none" fill-rule="evenodd">
        <g id="5.footer" transform="translate(-203.000000, -234.000000)" fill="#FE9518" fill-rule="nonzero">
            <g id="Group" transform="translate(98.000000, 233.627857)">
                <g id="facebook" transform="translate(105.507895, 0.565018)">
                    <path d="M35.1826896,0 C15.7830345,0 0,15.7830345 0,35.1826896 C0,54.5809276 15.7830345,70.3653792 35.1826896,70.3653792 C54.5809276,70.3653792 70.3653792,54.5809276 70.3653792,35.1826896 C70.3653792,15.7830345 54.5837619,0 35.1826896,0 Z M43.932304,36.4212972 L38.2083499,36.4212972 C38.2083499,45.5663022 38.2083499,56.8228923 38.2083499,56.8228923 L29.7265809,56.8228923 C29.7265809,56.8228923 29.7265809,45.6754244 29.7265809,36.4212972 L25.6947291,36.4212972 L25.6947291,29.2107306 L29.7265809,29.2107306 L29.7265809,24.5468205 C29.7265809,21.2065483 31.3138125,15.9871071 38.2862943,15.9871071 L44.5714481,16.011199 L44.5714481,23.0106071 C44.5714481,23.0106071 40.752172,23.0106071 40.0095744,23.0106071 C39.2669767,23.0106071 38.2111843,23.3819059 38.2111843,24.9748062 L38.2111843,29.2121478 L44.6734845,29.2121478 L43.932304,36.4212972 Z" id="Shape"/>
                </g>
            </g>
        </g>
    </g>
</svg>