<?xml version="1.0" encoding="UTF-8"?>
<svg width="72px" height="72px" viewBox="0 0 72 72" version="1.1" xmlns="http://www.w3.org/2000/svg" xmlns:xlink="http://www.w3.org/1999/xlink">
    <!-- Generator: Sketch 50.2 (55047) - http://www.bohemiancoding.com/sketch -->
    <title>feature-6</title>
    <desc>Created with Sketch.</desc>
    <defs/>
    <g id="Website" stroke="none" stroke-width="1" fill="none" fill-rule="evenodd">
        <g id="2.about" transform="translate(-766.000000, -1699.000000)">
            <g id="feature-6" transform="translate(766.534836, 1699.492171)">
                <circle id="Oval-Copy-2" fill="#FFFFFF" cx="35.5" cy="35.9" r="35.5"/>
                <g id="shield" transform="translate(17.500000, 17.900000)" fill="#FE9518" fill-rule="nonzero">
                    <path d="M17.5155175,2.71969952e-15 L16.6835304,0.394099144 L1.35745261,6.83105183 L5.55111512e-17,7.40030615 L5.55111512e-17,8.75775876 C5.55111512e-17,16.0266985 2.93384918,22.4198624 6.43695269,27.1052634 C8.18850444,29.4260694 10.0714226,31.3527764 11.9105519,32.710229 C13.7496813,34.0676816 15.5450218,35.031035 17.5155175,35.031035 C19.529802,35.031035 21.2813538,34.0676816 23.1204831,32.710229 C24.9596125,31.3527764 26.8425306,29.4260694 28.5940823,27.1052634 C32.0971858,22.4198624 35.031035,16.0266985 35.031035,8.75775876 L35.031035,7.40030615 L33.6735824,6.83105183 L18.3475046,0.394099144 L17.5155175,2.71969952e-15 Z M17.5155175,4.77297852 L17.5155175,30.6521557 C17.3403623,30.6521557 16.0704873,30.3456341 14.6254571,29.294703 C13.1804269,28.243772 11.5164528,26.536009 9.98384498,24.5217245 C7.18136218,20.7996771 4.99192249,15.6325994 4.64161214,10.1590002 L17.5155175,4.81676732 L17.5155175,4.77297852 Z" id="Shape"/>
                </g>
            </g>
        </g>
    </g>
</svg>