<?xml version="1.0" encoding="UTF-8"?>
<svg width="72px" height="72px" viewBox="0 0 72 72" version="1.1" xmlns="http://www.w3.org/2000/svg" xmlns:xlink="http://www.w3.org/1999/xlink">
    <!-- Generator: Sketch 50.2 (55047) - http://www.bohemiancoding.com/sketch -->
    <title>feature-4</title>
    <desc>Created with Sketch.</desc>
    <defs/>
    <g id="Website" stroke="none" stroke-width="1" fill="none" fill-rule="evenodd">
        <g id="2.about" transform="translate(-766.000000, -1188.000000)">
            <g id="feature-4" transform="translate(766.534836, 1187.891702)">
                <circle id="Oval-Copy" fill="#FFFFFF" cx="35.5" cy="35.7" r="35.5"/>
                <g id="people" transform="translate(19.500000, 19.700000)" fill="#FE9518" fill-rule="nonzero">
                    <path d="M21.4819391,0 C19.4899775,0 17.7714223,1.36703249 16.7168544,3.43711026 C18.4744676,5.54624609 19.5290355,8.43654335 19.5290355,11.7564794 C19.5290355,12.8891635 19.4118613,13.9046733 19.1775129,14.9201832 C19.9196163,15.3498219 20.6617196,15.6622865 21.4819391,15.6622865 C24.723759,15.6622865 27.3406498,12.1470601 27.3406498,7.85067229 C27.3406498,3.55428447 24.723759,0.0390580711 21.4819391,0.0390580711 L21.4819391,0 Z M9.76451777,3.90580711 C6.52269787,3.90580711 3.90580711,7.42103351 3.90580711,11.7174213 C3.90580711,16.0138091 6.52269787,19.5290355 9.76451777,19.5290355 C13.0063377,19.5290355 15.6232284,16.0138091 15.6232284,11.7174213 C15.6232284,7.42103351 13.0063377,3.90580711 9.76451777,3.90580711 Z M28.3171015,16.2481576 C26.6376045,18.2401192 24.3331783,19.4509194 21.7162875,19.5290355 C22.7708554,21.0132422 23.4348426,22.8099135 23.4348426,24.7628171 L23.4348426,27.3406498 L31.2464569,27.3406498 L31.2464569,20.85701 C31.2464569,18.8259903 30.0356567,17.0683771 28.3171015,16.2090995 L28.3171015,16.2481576 Z M2.92935533,20.1539647 C1.2108002,21.0132422 0,22.7708554 0,24.8018751 L0,31.2855149 L19.5290355,31.2855149 L19.5290355,24.8018751 C19.5290355,22.7708554 18.3182353,21.0132422 16.5996802,20.1539647 C14.842067,22.2240424 12.4595247,23.4348426 9.76451777,23.4348426 C7.06951087,23.4348426 4.68696853,22.1849844 2.92935533,20.1539647 Z" id="Shape"/>
                </g>
            </g>
        </g>
    </g>
</svg>