<?xml version="1.0" encoding="UTF-8"?>
<svg width="146px" height="146px" viewBox="0 0 146 146" version="1.1" xmlns="http://www.w3.org/2000/svg" xmlns:xlink="http://www.w3.org/1999/xlink">
    <!-- Generator: Sketch 50.2 (55047) - http://www.bohemiancoding.com/sketch -->
    <title>get-started-4</title>
    <desc>Created with Sketch.</desc>
    <defs/>
    <g id="Website" stroke="none" stroke-width="1" fill="none" fill-rule="evenodd">
        <g id="4.get-started" transform="translate(-1112.000000, -207.000000)" fill="#4A4A4A" fill-rule="nonzero">
            <g id="get-started-4" transform="translate(1112.389807, 207.736198)">
                <path d="M98.465769,48.2433454 C97.1345316,44.4777333 93.0025128,42.5043802 89.237202,43.835919 C87.1776711,44.5639112 85.5577679,46.1841158 84.8297756,48.2433454 L74.7439496,48.2433454 L74.7439496,43.2799812 C86.6521668,41.9535649 95.2304824,31.2247193 93.9040661,19.3165022 C92.5776498,7.40828507 81.8488042,-1.17003054 69.9405871,0.156385746 C59.8604862,1.27910885 51.9031937,9.23609998 50.7804706,19.3165022 L43.4065362,19.3165022 C42.0752987,19.3165022 40.9959659,20.395835 40.9959659,21.7270725 L40.9959659,62.706767 L36.1748254,62.706767 L36.1748254,36.1904941 C36.1748254,35.5510903 35.9205102,34.9382028 35.4685283,34.4862209 L24.1216727,23.1396666 L24.1216727,12.0847914 L19.3005322,12.0847914 L19.3005322,24.1376427 C19.3005322,24.7770465 19.5548473,25.389934 20.0068293,25.8419159 L31.3533835,37.1884702 L31.3533835,62.706767 L26.532243,62.706767 L26.532243,43.4222049 C26.532243,42.4579768 25.9576233,41.5868569 25.0714374,41.2068908 L9.6582511,34.6019283 L9.6582511,14.0518167 C13.4238632,12.7205793 15.3972163,8.58856054 14.0656775,4.82324978 C12.7341388,1.05793903 8.60272264,-0.91571538 4.83711056,0.41552205 C1.07149848,1.74675948 -0.901854601,5.87877824 0.42968415,9.64439032 C1.15767637,11.7039213 2.77788091,13.3238245 4.83711056,14.0518167 L4.83711056,36.1904941 C4.83711056,37.1547222 5.41173025,38.025842 6.29791614,38.4058081 L21.7111024,45.0107707 L21.7111024,62.706767 L19.3005322,62.706767 C18.4411639,62.7085749 17.6474836,63.1677886 17.2177995,63.9120521 L0.343807584,92.8388953 L0.377555568,92.8581799 C0.153071212,93.2140403 0.0283242006,93.623536 0.015970028,94.0441805 L0.015970028,142.255586 C0.015970028,143.586823 1.09530287,144.666156 2.4265403,144.666156 L50.6379456,144.666156 C51.487069,144.658924 52.2680938,144.199409 52.6869304,143.460871 L52.7206784,143.480156 L69.5946702,114.553312 C69.8113202,114.181783 69.9243157,113.758728 69.9225078,113.328743 L69.9225078,65.1173373 C69.9225078,63.7860998 68.8431749,62.706767 67.5119375,62.706767 L45.8168051,62.706767 L45.8168051,24.1376427 L50.7801693,24.1376427 C51.920369,34.1996643 59.8604862,42.1397815 69.9225078,43.2799812 L69.9225078,50.6539157 C69.9225078,51.9851531 71.0018406,53.0644859 72.333078,53.0644859 L84.8294743,53.0644859 C86.1607117,56.830098 90.2927305,58.8034511 94.0580413,57.4719123 C97.8236533,56.1406749 99.7970064,52.0089575 98.465769,48.2433454 Z M7.24768083,9.67422113 C5.9164434,9.67422113 4.83711056,8.59488829 4.83711056,7.26365086 C4.83711056,5.93241343 5.9164434,4.85308059 7.24768083,4.85308059 C8.57891826,4.85308059 9.6582511,5.93241343 9.6582511,7.26365086 C9.6582511,8.59488829 8.57891826,9.67422113 7.24768083,9.67422113 Z M48.2273754,139.845016 L4.83711056,139.845016 L4.83711056,96.4547507 L48.2273754,96.4547507 L48.2273754,139.845016 Z M65.1013672,112.677889 L53.0485159,133.336476 L53.0485159,94.6950345 L65.1013672,74.0364473 L65.1013672,112.677889 Z M63.3151347,67.5279075 L49.2542783,91.6336102 L6.62334313,91.6336102 L20.6841995,67.5279075 L63.3151347,67.5279075 Z M55.4590862,21.7270725 C55.4696324,12.4123276 63.0183332,4.86362684 72.333078,4.85308059 C81.6523427,4.85308059 89.2070699,12.4078078 89.2070699,21.7270725 C89.2070699,31.0463371 81.6523427,38.6010643 72.333078,38.6010643 C63.0138134,38.6010643 55.4590862,31.0463371 55.4590862,21.7270725 Z M91.6176402,53.0644859 C90.2864028,53.0644859 89.2070699,51.9851531 89.2070699,50.6539157 C89.2070699,49.3226782 90.2864028,48.2433454 91.6176402,48.2433454 C92.9488776,48.2433454 94.0282105,49.3226782 94.0282105,50.6539157 C94.0282105,51.9851531 92.9488776,53.0644859 91.6176402,53.0644859 Z" id="Shape"/>
                <path d="M40.0314365,108.064057 L42.7047589,105.390735 L39.2962125,101.982188 L36.618069,104.65069 C30.6491957,100.14443 22.4152903,100.14443 16.446417,104.65069 L13.7730945,101.982188 L10.3645482,105.390735 L13.0330495,108.064057 C8.52678968,114.03293 8.52678968,122.266836 13.0330495,128.235709 L10.3645482,130.909032 L13.7730945,134.317578 L16.446417,131.649077 C22.4152903,136.155336 30.6491957,136.155336 36.618069,131.649077 L39.2889808,134.319989 L42.6975272,130.911442 L40.0314365,128.235709 C44.5376963,122.266836 44.5376963,114.03293 40.0314365,108.064057 Z M26.532243,106.097032 C28.8939992,106.097634 31.2027229,106.796097 33.1685429,108.105037 L29.6298258,111.641343 C27.6781678,110.673801 25.3863181,110.673801 23.4346602,111.641343 L19.895943,108.102626 C21.8620644,106.794591 24.1707881,106.09673 26.532243,106.097032 Z M28.9428132,118.149883 C28.9428132,119.481121 27.8634804,120.560453 26.532243,120.560453 C25.2010055,120.560453 24.1216727,119.481121 24.1216727,118.149883 C24.1216727,116.818646 25.2010055,115.739313 26.532243,115.739313 C27.8634804,115.739313 28.9428132,116.818646 28.9428132,118.149883 Z M14.4793916,118.149883 C14.4799943,115.788127 15.178457,113.479403 16.4873967,111.513583 L20.0237032,115.0523 C19.0561606,117.003958 19.0561606,119.295808 20.0237032,121.247466 L16.4873967,124.786183 C15.178457,122.820363 14.4799943,120.511639 14.4793916,118.149883 Z M26.532243,130.202734 C24.1704867,130.202132 21.8617631,129.503669 19.895943,128.194729 L23.4346602,124.658423 C25.3863181,125.625966 27.6781678,125.625966 29.6298258,124.658423 L33.1685429,128.19714 C31.2024215,129.505176 28.8936979,130.203036 26.532243,130.202734 Z M36.5770893,124.786183 L33.0407827,121.247466 C34.0083253,119.295808 34.0083253,117.003958 33.0407827,115.0523 L36.5794998,111.513583 C37.8875355,113.479705 38.5853956,115.788428 38.5850943,118.149883 C38.5844917,120.511639 37.8860289,122.820363 36.5770893,124.786183 Z" id="Shape"/>
                <path d="M142.239616,62.706767 L139.829046,62.706767 L139.829046,55.0315113 C143.594658,53.7002738 145.568011,49.5682551 144.236472,45.8029443 C142.904933,42.0376336 138.773216,40.0639792 135.007905,41.3955179 C131.242594,42.7270567 129.26894,46.8587741 130.600479,50.6240849 C131.328471,52.6836158 132.948675,54.3035191 135.007905,55.0315113 L135.007905,62.706767 L122.955054,62.706767 L122.955054,39.5990404 L131.891038,30.6630564 C132.34302,30.2110745 132.597335,29.598187 132.597335,28.9587833 L132.597335,14.0518167 C136.362947,12.7205793 138.3363,8.58856054 137.004761,4.82324978 C135.673222,1.05793903 131.541806,-0.91571538 127.776194,0.41552205 C124.010582,1.74675948 122.037229,5.87877824 123.368768,9.644089 C124.09676,11.70362 125.716965,13.3235232 127.776194,14.0515154 L127.776194,27.9605059 L118.84021,36.8964898 C118.388228,37.3484718 118.133913,37.9613592 118.133913,38.600763 L118.133913,62.7064657 L110.902202,62.7064657 L110.902202,28.5152383 C114.667814,27.1840009 116.641167,23.0519821 115.309629,19.2866714 C113.97809,15.5213606 109.846373,13.5477062 106.081062,14.879245 C102.31545,16.2104824 100.342097,20.3425012 101.673635,24.1078119 C102.401628,26.1673429 104.021832,27.7872461 106.081062,28.5152383 L106.081062,62.706767 L94.0282105,62.706767 C93.1688422,62.7085749 92.3751619,63.1677886 91.9454777,63.9120521 L75.0714859,92.8388953 L75.1052339,92.8581799 C74.8807495,93.2140403 74.7560025,93.623536 74.7436483,94.0441805 L74.7436483,142.255586 C74.7436483,143.586823 75.8229811,144.666156 77.1542186,144.666156 L125.365624,144.666156 C126.214747,144.658924 126.995772,144.199409 127.414609,143.460871 L127.448357,143.480156 L144.322349,114.553312 C144.538999,114.181783 144.651994,113.758728 144.650186,113.328743 L144.650186,65.1173373 C144.650186,63.7860998 143.570853,62.706767 142.239616,62.706767 Z M130.186764,4.85308059 C131.518002,4.85308059 132.597335,5.93241343 132.597335,7.26365086 C132.597335,8.59488829 131.518002,9.67422113 130.186764,9.67422113 C128.855527,9.67422113 127.776194,8.59488829 127.776194,7.26365086 C127.776194,5.93241343 128.855527,4.85308059 130.186764,4.85308059 Z M137.418475,45.8327751 C138.749713,45.8327751 139.829046,46.912108 139.829046,48.2433454 C139.829046,49.5745828 138.749713,50.6539157 137.418475,50.6539157 C136.087238,50.6539157 135.007905,49.5745828 135.007905,48.2433454 C135.007905,46.912108 136.087238,45.8327751 137.418475,45.8327751 Z M108.491632,19.3165022 C109.822869,19.3165022 110.902202,20.395835 110.902202,21.7270725 C110.902202,23.0583099 109.822869,24.1376427 108.491632,24.1376427 C107.160395,24.1376427 106.081062,23.0583099 106.081062,21.7270725 C106.081062,20.395835 107.160395,19.3165022 108.491632,19.3165022 Z M122.955054,139.845016 L79.5647888,139.845016 L79.5647888,96.4547507 L122.955054,96.4547507 L122.955054,139.845016 Z M123.981957,91.6336102 L81.3510214,91.6336102 L95.4118778,67.5279075 L138.042813,67.5279075 L123.981957,91.6336102 Z M139.829046,112.677889 L127.776194,133.336476 L127.776194,94.6950345 L139.829046,74.0364473 L139.829046,112.677889 Z" id="Shape"/>
                <path d="M114.759115,108.064057 L117.432437,105.390735 L114.023891,101.982188 L111.345747,104.65069 C105.376874,100.14443 97.1429686,100.14443 91.1740953,104.65069 L88.5007728,101.977367 L85.0922265,105.385914 L87.7607278,108.064057 C83.254468,114.03293 83.254468,122.266836 87.7607278,128.235709 L85.0874053,130.909032 L88.4959517,134.317578 L91.1740953,131.649077 C97.1429686,136.155336 105.376874,136.155336 111.345747,131.649077 L114.016659,134.319989 L117.425205,130.911442 L114.759115,128.235709 C119.265375,122.266836 119.265375,114.03293 114.759115,108.064057 Z M101.259921,106.097032 C103.621677,106.097634 105.930401,106.796097 107.896221,108.105037 L104.357504,111.641343 C102.405846,110.673801 100.113996,110.673801 98.1623385,111.641343 L94.6236213,108.102626 C96.5897427,106.794591 98.8984664,106.09673 101.259921,106.097032 Z M103.670492,118.149883 C103.670492,119.481121 102.591159,120.560453 101.259921,120.560453 C99.9286838,120.560453 98.849351,119.481121 98.849351,118.149883 C98.849351,116.818646 99.9286838,115.739313 101.259921,115.739313 C102.591159,115.739313 103.670492,116.818646 103.670492,118.149883 Z M89.2070699,118.149883 C89.2076726,115.788127 89.9061353,113.479403 91.2150749,111.513583 L94.7513815,115.0523 C93.7838389,117.003958 93.7838389,119.295808 94.7513815,121.247466 L91.2126644,124.786183 C89.9046287,122.820062 89.2067686,120.511338 89.2070699,118.149883 Z M101.259921,130.202734 C98.898165,130.202132 96.5894414,129.503669 94.6236213,128.194729 L98.1623385,124.658423 C100.113996,125.625966 102.405846,125.625966 104.357504,124.658423 L107.896221,128.19714 C105.9301,129.505176 103.621376,130.203036 101.259921,130.202734 Z M111.304768,124.786183 L107.768461,121.247466 C108.736004,119.295808 108.736004,117.003958 107.768461,115.0523 L111.307178,111.513583 C112.615214,113.479705 113.313074,115.788428 113.312773,118.149883 C113.31217,120.511639 112.613707,122.820363 111.304768,124.786183 Z" id="Shape"/>
                <path d="M72.333078,9.67422113 C65.6765896,9.67422113 60.2802267,15.070584 60.2802267,21.7270725 C60.2880611,28.3802464 65.6799041,33.7720894 72.333078,33.7799238 C78.9895665,33.7799238 84.3859294,28.3835609 84.3859294,21.7270725 C84.3859294,15.070584 78.9895665,9.67422113 72.333078,9.67422113 Z M72.333078,28.9587833 C68.3390644,28.9587833 65.1013672,25.7210861 65.1013672,21.7270725 C65.1013672,17.7330588 68.3390644,14.4953617 72.333078,14.4953617 C76.3270917,14.4953617 79.5647888,17.7330588 79.5647888,21.7270725 C79.5647888,25.7210861 76.3270917,28.9587833 72.333078,28.9587833 Z" id="Shape"/>
            </g>
        </g>
    </g>
</svg>