<?xml version="1.0" encoding="UTF-8"?>
<svg width="131px" height="146px" viewBox="0 0 131 146" version="1.1" xmlns="http://www.w3.org/2000/svg" xmlns:xlink="http://www.w3.org/1999/xlink">
    <!-- Generator: Sketch 50.2 (55047) - http://www.bohemiancoding.com/sketch -->
    <title>get-started-1</title>
    <desc>Created with Sketch.</desc>
    <defs/>
    <g id="Website" stroke="none" stroke-width="1" fill="none" fill-rule="evenodd">
        <g id="4.get-started" transform="translate(-190.000000, -207.000000)" fill="#4A4A4A" fill-rule="nonzero">
            <g id="get-started-1" transform="translate(190.500000, 207.736198)">
                <path d="M118.170478,67.526289 C119.121871,67.5232744 119.982225,66.9610603 120.367484,66.0913617 L120.384366,66.0527755 L130.011642,44.3914033 C130.152121,44.0830146 130.225977,43.7487006 130.22869,43.4098649 L130.22869,2.41194387 C130.244667,1.09609148 129.191081,0.0162785863 127.875229,0.000301455301 C127.855936,-8.91065108e-16 127.836341,-8.91065108e-16 127.817048,0.000301455301 L84.4074844,0.000301455301 C83.4889501,-0.00482328482 82.6475884,0.512474012 82.2370062,1.33393971 L72.5904366,20.627079 L72.614553,20.627079 C72.4415177,20.9601871 72.3507796,21.3297713 72.3492723,21.7050832 L72.3492723,40.9982225 L57.8794179,40.9982225 L57.8794179,2.41194387 C57.895395,1.09609148 56.8418087,0.0162785863 55.5259563,0.000301455301 C55.5066632,-8.91065108e-16 55.4870686,-8.91065108e-16 55.4677755,0.000301455301 L12.0582121,0.000301455301 C11.1441996,-8.91065108e-16 10.308264,0.516392931 9.8997921,1.33393971 L0.253222453,20.627079 L0.277338877,20.627079 C0.10008316,20.9592827 0.00512474012,21.3288669 0,21.7050832 L0,65.1146466 C0,66.4464761 1.07981289,67.526289 2.41164241,67.526289 L21.7047817,67.526289 L21.7047817,77.1728586 L12.0582121,77.1728586 C11.1441996,77.1725572 10.308264,77.6889501 9.8997921,78.5064969 L0.253222453,97.7996362 L0.277338877,97.7996362 C0.10008316,98.1318399 0.00512474012,98.5014241 0,98.8776403 L0,142.287204 C0,143.619033 1.07981289,144.698846 2.41164241,144.698846 L45.8212058,144.698846 C46.7725988,144.695832 47.6329522,144.133617 48.0182121,143.263919 L48.0350936,143.225333 L57.035343,122.994064 L72.3492723,122.994064 L72.3492723,142.287204 C72.3492723,143.619033 73.4290852,144.698846 74.7609148,144.698846 L118.170478,144.698846 C119.121871,144.695832 119.982225,144.133617 120.367484,143.263919 L120.384366,143.225333 L130.011642,121.56396 C130.152121,121.255572 130.225977,120.921258 130.22869,120.582422 L130.22869,79.584501 C130.244667,78.2686486 129.191081,77.1888358 127.875229,77.1728586 C127.855936,77.1725572 127.836341,77.1725572 127.817048,77.1728586 L98.8773389,77.1728586 L98.8773389,67.526289 L118.170478,67.526289 Z M125.405405,42.8985967 L120.582121,53.7509875 L120.582121,22.2742308 L125.405405,12.6276611 L125.405405,42.8985967 Z M85.8978794,4.82358628 L123.91501,4.82358628 L116.680083,19.2934407 L78.6629522,19.2934407 L85.8978794,4.82358628 Z M48.2328482,40.9982225 L48.2328482,22.2742308 L53.0561331,12.6276611 L53.0561331,40.9982225 L48.2328482,40.9982225 Z M51.7562578,45.8215073 L48.2328482,53.7509875 L48.2328482,45.8215073 L51.7562578,45.8215073 Z M13.5486071,4.82358628 L51.565738,4.82358628 L44.3308108,19.2934407 L6.31367983,19.2934407 L13.5486071,4.82358628 Z M4.82328482,62.7030042 L4.82328482,24.1167256 L43.4095634,24.1167256 L43.4095634,40.9982225 L21.7047817,40.9982225 L21.7047817,45.8215073 L43.4095634,45.8215073 L43.4095634,62.7030042 L4.82328482,62.7030042 Z M13.5486071,81.9961435 L21.7047817,81.9961435 L21.7047817,96.4659979 L6.31367983,96.4659979 L13.5486071,81.9961435 Z M43.4095634,139.875561 L4.82328482,139.875561 L4.82328482,101.289283 L21.7047817,101.289283 L21.7047817,122.994064 L26.5280665,122.994064 L26.5280665,101.289283 L43.4095634,101.289283 L43.4095634,139.875561 Z M44.3308108,96.4659979 L26.5280665,96.4659979 L26.5280665,81.9961435 L51.565738,81.9961435 L44.3308108,96.4659979 Z M48.2328482,130.923545 L48.2328482,122.994064 L51.7562578,122.994064 L48.2328482,130.923545 Z M53.0561331,118.17078 L48.2328482,118.17078 L48.2328482,99.4467879 L53.0561331,89.8002183 L53.0561331,118.17078 Z M72.5904366,97.7996362 L72.614553,97.7996362 C72.4415177,98.1327443 72.3507796,98.5023285 72.3492723,98.8776403 L72.3492723,118.17078 L57.8794179,118.17078 L57.8794179,79.584501 C57.895395,78.2686486 56.8418087,77.1888358 55.5259563,77.1728586 C55.5066632,77.1725572 55.4870686,77.1725572 55.4677755,77.1728586 L26.5280665,77.1728586 L26.5280665,67.526289 L45.8212058,67.526289 C46.7725988,67.5232744 47.6329522,66.9610603 48.0182121,66.0913617 L48.0350936,66.0527755 L57.035343,45.8215073 L72.3492723,45.8215073 L72.3492723,65.1146466 C72.3492723,66.4464761 73.4290852,67.526289 74.7609148,67.526289 L94.0540541,67.526289 L94.0540541,77.1728586 L84.4074844,77.1728586 C83.4889501,77.1677339 82.6475884,77.6850312 82.2370062,78.5064969 L72.5904366,97.7996362 Z M94.0540541,81.9961435 L94.0540541,96.4659979 L78.6629522,96.4659979 L85.8978794,81.9961435 L94.0540541,81.9961435 Z M115.758836,139.875561 L77.1725572,139.875561 L77.1725572,122.994064 L98.8773389,122.994064 L98.8773389,118.17078 L77.1725572,118.17078 L77.1725572,101.289283 L115.758836,101.289283 L115.758836,139.875561 Z M125.405405,120.071154 L120.582121,130.923545 L120.582121,99.4467879 L125.405405,89.8002183 L125.405405,120.071154 Z M123.91501,81.9961435 L116.680083,96.4659979 L98.8773389,96.4659979 L98.8773389,81.9961435 L123.91501,81.9961435 Z M94.0540541,40.9982225 L94.0540541,62.7030042 L77.1725572,62.7030042 L77.1725572,24.1167256 L115.758836,24.1167256 L115.758836,62.7030042 L98.8773389,62.7030042 L98.8773389,40.9982225 L94.0540541,40.9982225 Z" id="Shape"/>
            </g>
        </g>
    </g>
</svg>