<?xml version="1.0" encoding="UTF-8"?>
<svg width="160px" height="145px" viewBox="0 0 160 145" version="1.1" xmlns="http://www.w3.org/2000/svg" xmlns:xlink="http://www.w3.org/1999/xlink">
    <!-- Generator: Sketch 50.2 (55047) - http://www.bohemiancoding.com/sketch -->
    <title>get-started-3</title>
    <desc>Created with Sketch.</desc>
    <defs/>
    <g id="Website" stroke="none" stroke-width="1" fill="none" fill-rule="evenodd">
        <g id="4.get-started" transform="translate(-795.000000, -207.000000)" fill="#4A4A4A">
            <g id="get-started-3" transform="translate(795.619720, 207.736198)">
                <path d="M158.475384,23.6175206 C158.359575,23.2580185 158.344093,23.2233379 158.328611,23.1892765 C158.14375,22.8576429 158.120217,22.8251298 158.096993,22.7929263 C157.986965,22.6579195 155.194347,19.7087227 149.71914,13.9453359 L149.71914,7.12067999 C149.71914,3.27917903 146.593856,0.153585722 142.752046,0.153585722 L15.7964154,0.153585722 C11.9546048,0.153585722 8.82932115,3.27917903 8.82932115,7.12067999 L8.82932115,13.9366657 L0.63911478,22.5541872 C0.354547686,22.9229787 0.335039822,22.9558015 0.315841607,22.9883146 C0.152656777,23.3279991 0.140270831,23.3636087 0.127884886,23.399528 C0.0340613497,23.7667712 0.0284876743,23.8064063 0.0232236475,23.8457316 C0.0445894033,28.8902175 3.9449236,32.6688598 8.73487831,32.6688598 C8.75490226,32.6688598 8.78493818,60.2788867 8.82498607,115.49894 C8.91788066,117.542312 9.62542778,119.178495 10.8683574,120.424831 C12.1843641,121.740838 13.9338789,122.465415 15.7948672,122.465415 L60.6236288,122.465415 L55.8383189,139.497329 L51.4056987,139.497329 C50.123134,139.497329 49.0833339,140.536819 49.0833339,141.819694 C49.0833339,143.102568 50.123134,144.142058 51.4056987,144.142058 L57.5903108,144.142058 C57.5979488,144.142471 72.0309813,144.142471 100.889408,144.142058 C100.896221,144.142471 102.980569,144.142471 107.142453,144.142058 C108.425017,144.142058 109.464818,143.102568 109.464818,141.819694 C109.464818,140.536819 108.425017,139.497329 107.142453,139.497329 L102.657812,139.497329 L97.8728113,122.465415 L133.057915,122.465415 C134.339861,122.465415 135.38028,121.424996 135.38028,120.143051 C135.38028,118.864202 134.339861,117.820686 133.057915,117.820686 L83.6456951,117.820686 C85.2273803,116.542456 86.24117,114.588264 86.24117,112.401216 C86.24117,110.214787 85.2279996,108.262142 83.6478627,106.983603 L145.073791,106.983603 L145.073791,115.486245 C145.070075,116.77717 144.029656,117.817589 142.750807,117.820686 L131.470307,117.820686 C130.191458,117.820686 129.147943,118.864202 129.147943,120.143051 C129.147943,121.424996 130.191458,122.465415 131.470307,122.465415 L142.750807,122.465415 C144.611795,122.465415 146.36131,121.740838 147.677317,120.424831 C148.936039,119.1658 149.646063,117.50887 149.706135,115.738299 C149.711502,115.685865 149.715527,87.9954327 149.718211,32.6670019 C154.594867,32.6691695 158.495202,28.8902175 158.537623,24.2300056 C158.492415,23.690288 158.484054,23.6540591 158.475384,23.6175206 Z M13.4740507,7.12037034 C13.4740507,5.83966359 14.5157087,4.79800558 15.7964154,4.79800558 L142.751736,4.79800558 C144.032443,4.79800558 145.074101,5.83966359 145.074101,7.12037034 L145.074101,12.5407697 L13.4740507,12.5407697 L13.4740507,7.12037034 Z M15.7951768,117.820686 C14.5194244,117.817589 13.4759085,116.77717 13.4728121,115.498321 C13.4728121,115.478504 13.4703349,115.458686 13.4697156,115.438869 L13.4697156,106.983603 L74.9005984,106.983603 C73.3201518,108.262142 72.3072911,110.214787 72.3072911,112.401216 C72.3072911,114.588264 73.3210807,116.542456 74.9027659,117.820686 L15.7951768,117.820686 Z M93.0484855,122.465415 L97.8334859,139.497329 L60.6629542,139.497329 L65.4482642,122.465415 L93.0484855,122.465415 Z M76.9520206,112.401525 C76.9520206,111.120818 77.9936786,110.07916 79.2743854,110.07916 C80.5550921,110.07916 81.5967501,111.120818 81.5967501,112.401525 C81.5967501,113.682232 80.5550921,114.72389 79.2743854,114.72389 C77.9936786,114.72389 76.9520206,113.682232 76.9520206,112.401525 Z M13.4697156,102.338874 L13.4697156,31.3042383 C14.0865357,30.9143907 14.6504058,30.4523949 15.1473919,29.9284694 C16.7442499,31.6123387 19.0272893,32.6694791 21.5595958,32.6694791 C24.0919023,32.6694791 26.3749417,31.6126483 27.9717997,29.9287791 C29.5686577,31.6126483 31.8516971,32.6694791 34.3840036,32.6694791 C36.9163101,32.6694791 39.1993495,31.6126483 40.7965172,29.9284694 C42.3933752,31.6123387 44.6764145,32.6694791 47.2087211,32.6694791 C49.7410276,32.6694791 52.024067,31.6126483 53.620925,29.9287791 C55.217783,31.6126483 57.5008224,32.6694791 60.0331289,32.6694791 C62.5654354,32.6694791 64.8484748,31.6126483 66.4453328,29.9284694 C68.0421908,31.6123387 70.3255398,32.6694791 72.8578464,32.6694791 C75.3901529,32.6694791 77.6728826,31.6126483 79.2700503,29.9287791 C80.8669083,31.6126483 83.1499477,32.6694791 85.6819445,32.6694791 C88.2142511,32.6694791 90.4976001,31.6126483 92.0944581,29.9284694 C93.6913161,31.6123387 95.9743555,32.6694791 98.506662,32.6694791 C101.038969,32.6694791 103.321698,31.6126483 104.918556,29.9287791 C106.515414,31.6126483 108.798454,32.6694791 111.33076,32.6694791 C113.863067,32.6694791 116.146106,31.6126483 117.742964,29.9284694 C119.339822,31.6123387 121.622861,32.6694791 124.155168,32.6694791 C126.687475,32.6694791 128.970514,31.6126483 130.567372,29.9287791 C132.16423,31.6126483 134.447269,32.6694791 136.979576,32.6694791 C139.511882,32.6694791 141.794922,31.6126483 143.392089,29.9284694 C143.890004,30.4533238 144.455423,30.9162486 145.073481,31.3064058 L145.073481,102.338874 L13.4697156,102.338874 Z M149.804913,28.0241303 C147.552219,28.0241303 145.719409,26.2916462 145.715073,24.160954 C145.715073,24.1584768 145.715073,24.1559996 145.715073,24.1559996 C145.715073,22.8706481 144.675273,21.830848 143.392709,21.830848 C143.392399,21.830848 143.392399,21.830848 143.392399,21.830848 C142.109525,21.830848 141.070034,22.8703385 141.070034,24.1532127 C141.070034,24.1532127 141.070034,24.1584768 141.070034,24.1606443 C141.065699,26.2913366 139.232889,28.0238207 136.980195,28.0238207 C134.730598,28.0238207 132.900574,26.2969102 132.890666,24.1705531 C132.890666,24.1643601 132.891285,24.1590961 132.891285,24.1532127 C132.891285,22.8703385 131.851485,21.830848 130.56892,21.830848 C130.568611,21.830848 130.568301,21.830848 130.567991,21.830848 C130.567991,21.830848 130.567682,21.830848 130.567372,21.830848 C129.284807,21.830848 128.245007,22.8703385 128.245007,24.1532127 C128.245007,24.1590961 128.245626,24.1643601 128.245626,24.1705531 C128.235718,26.2969102 126.405694,28.0238207 124.156097,28.0238207 C121.903403,28.0238207 120.070593,26.2913366 120.066258,24.1606443 C120.066258,24.1581671 120.066258,24.1556899 120.066258,24.1556899 C120.066258,22.8703385 119.026458,21.8305383 117.743893,21.8305383 C117.743893,21.8305383 117.743893,21.8305383 117.743583,21.8305383 C117.743583,21.8305383 117.743583,21.8305383 117.743274,21.8305383 C116.460709,21.8305383 115.420909,22.8700288 115.420909,24.1529031 C115.420909,24.1529031 115.421219,24.1581671 115.421219,24.1603347 C115.416884,26.2910269 113.584073,28.023511 111.331379,28.023511 C109.081163,28.023511 107.25052,26.295362 107.24154,24.1680759 C107.24154,24.1628118 107.24185,24.1581671 107.24185,24.1529031 C107.24185,22.8700288 106.20205,21.8305383 104.919485,21.8305383 L104.919176,21.8305383 C104.918866,21.8305383 104.918556,21.8305383 104.918556,21.8305383 C103.635682,21.8305383 102.596192,22.8700288 102.596192,24.1529031 C102.596192,24.1581671 102.596501,24.1628118 102.596501,24.1680759 C102.587831,26.295362 100.756879,28.023511 98.5069717,28.023511 C96.2542778,28.023511 94.4214676,26.2910269 94.4171325,24.1603347 C94.4171325,24.1578575 94.4174422,24.1553803 94.4174422,24.1553803 C94.4174422,22.8700288 93.377642,21.8302287 92.0950774,21.8302287 C92.0947678,21.8302287 92.0947678,21.8302287 92.0947678,21.8302287 C92.0944581,21.8302287 92.0944581,21.8302287 92.0944581,21.8302287 C90.8115838,21.8302287 89.7720933,22.8697192 89.7720933,24.1525934 C89.7720933,24.1525934 89.7720933,24.1578575 89.7720933,24.160025 C89.7677583,26.2907173 87.934948,28.0232014 85.6822542,28.0232014 C83.4323472,28.0232014 81.6017045,26.2950523 81.5927247,24.1677662 C81.5927247,24.1625022 81.593344,24.1578575 81.593344,24.1525934 C81.593344,22.8697192 80.5535439,21.8302287 79.2709792,21.8302287 L79.2703599,21.8302287 C79.2703599,21.8302287 79.2700503,21.8302287 79.2697406,21.8302287 C77.987176,21.8302287 76.9473759,22.8697192 76.9473759,24.1525934 C76.9473759,24.1578575 76.9476855,24.1625022 76.9476855,24.1677662 C76.9387057,26.2950523 75.108063,28.0232014 72.858156,28.0232014 C70.6054622,28.0232014 68.7726519,26.2907173 68.7683169,24.160025 C68.7683169,24.1575478 68.7686265,24.1550706 68.7686265,24.1550706 C68.7686265,22.8697192 67.7288264,21.829919 66.4462618,21.829919 C66.4459521,21.829919 66.4459521,21.829919 66.4459521,21.829919 C66.4456425,21.829919 66.4456425,21.829919 66.4456425,21.829919 C65.1627682,21.829919 64.1232777,22.8694095 64.1232777,24.1522838 C64.1232777,24.1522838 64.1232777,24.1575478 64.1232777,24.1597154 C64.1189426,26.2904076 62.2861324,28.0228917 60.0334385,28.0228917 C57.7835316,28.0228917 55.9525792,26.2947427 55.943909,24.1674566 C55.943909,24.1621926 55.9442187,24.1575478 55.9442187,24.1522838 C55.9442187,22.8694095 54.9044186,21.829919 53.6218539,21.829919 C53.6215443,21.829919 53.6215443,21.829919 53.6215443,21.829919 C53.6212346,21.829919 53.620925,21.829919 53.620925,21.829919 C52.3380507,21.829919 51.2982506,22.8694095 51.2982506,24.1522838 C51.2982506,24.1575478 51.2988699,24.1621926 51.2988699,24.1674566 C51.2901997,26.2947427 49.4592473,28.0228917 47.2090307,28.0228917 C44.9563369,28.0228917 43.1235266,26.2904076 43.1191916,24.1597154 C43.1191916,24.1572382 43.1195012,24.154761 43.1195012,24.154761 C43.1195012,22.8694095 42.0797011,21.8296094 40.7971365,21.8296094 L40.7968268,21.8296094 L40.7965172,21.8296094 C39.5139525,21.8296094 38.4741524,22.8690999 38.4741524,24.1519741 C38.4741524,24.1519741 38.4744621,24.1572382 38.4744621,24.1594057 C38.470127,26.290098 36.6373167,28.0225821 34.3846229,28.0225821 C32.1350256,28.0225821 30.3050022,26.2956716 30.2950934,24.1693145 C30.2950934,24.1631215 30.295403,24.1578575 30.295403,24.1519741 C30.295403,22.8690999 29.2556029,21.8296094 27.9730383,21.8296094 C27.9727286,21.8296094 27.9727286,21.8296094 27.972419,21.8296094 C27.9721093,21.8296094 27.9717997,21.8296094 27.9717997,21.8296094 C26.6889254,21.8296094 25.6491253,22.8690999 25.6491253,24.1519741 C25.6491253,24.1578575 25.6497446,24.1631215 25.6497446,24.1693145 C25.6398358,26.2956716 23.8098124,28.0225821 21.5602151,28.0225821 C19.3075213,28.0225821 17.474711,26.290098 17.4703759,24.1594057 C17.4703759,24.1569285 17.4703759,24.1544513 17.4703759,24.1544513 C17.4703759,22.8690999 16.4305758,21.8292997 15.1480112,21.8292997 C15.1477015,21.8292997 15.1477015,21.8292997 15.1477015,21.8292997 C13.8648272,21.8292997 12.8253368,22.8687902 12.8253368,24.1516645 C12.8253368,24.1516645 12.8253368,24.1569285 12.8253368,24.1590961 C12.8210017,26.2897883 10.9881914,28.0222724 8.73549761,28.0222724 C6.78006649,28.0222724 5.14264451,26.7161745 4.74133988,24.9781167 L12.1490642,17.1854992 L146.390727,17.1854992 L153.79938,24.9802842 C153.397766,26.718342 151.760344,28.0241303 149.804913,28.0241303 Z" id="Shape" fill-rule="nonzero"/>
                <path d="M79.2700503,40.4085274 L35.9204801,40.4085274 C34.6379155,40.4085274 33.5981154,41.4480179 33.5981154,42.7308922 C33.5981154,44.0137665 34.6379155,45.0532569 35.9204801,45.0532569 L64.1158461,45.0532569 C60.1210691,47.7583474 56.8843119,51.5013801 54.7932547,55.8912688 L42.1131432,55.8912688 C40.8305785,55.8912688 39.7907784,56.9307592 39.7907784,58.2136335 C39.7907784,59.4965078 40.8305785,60.5359983 42.1131432,60.5359983 L53.0852329,60.5359983 C52.492875,62.7602044 52.1754852,65.0949551 52.1754852,67.5027829 C52.1754852,69.9109203 52.492875,72.2462903 53.0855425,74.4708061 L20.4383581,74.4708061 C19.1557934,74.4708061 18.1159933,75.5106062 18.1159933,76.7931709 C18.1159933,78.0760451 19.1557934,79.1155356 20.4383581,79.1155356 L54.793874,79.1155356 C56.8849312,83.504805 60.1213788,87.2472184 64.1158461,89.9523089 L54.4993982,89.9523089 C53.2168335,89.9523089 52.1770334,90.9917993 52.1770334,92.2746736 C52.1770334,93.5575479 53.2168335,94.5970384 54.4993982,94.5970384 L79.2700503,94.5970384 C94.2099776,94.5970384 106.364306,82.4427102 106.364306,67.5027829 C106.364306,52.5628556 94.2099776,40.4085274 79.2700503,40.4085274 Z M79.2700503,89.9523089 C66.8912268,89.9523089 56.8205243,79.8816063 56.8205243,67.5027829 C56.8205243,55.1239595 66.8912268,45.0532569 79.2700503,45.0532569 C91.6488737,45.0532569 101.719576,55.1239595 101.719576,67.5027829 C101.719576,79.881916 91.6488737,89.9523089 79.2700503,89.9523089 Z" id="Shape" fill-rule="nonzero"/>
                <polygon id="path3666-path" points="70.9490768 77.4104846 73.7792868 67.1447727 79.2894165 73.2916335 84.6735412 67.142624 87.6265749 77.4101151 91.8202562 77.4103275 87.3193741 57.59916 79.2892519 66.7890547 71.2152657 57.5946257 66.7198444 77.41094"/>
            </g>
        </g>
    </g>
</svg>