<?xml version="1.0" encoding="UTF-8"?>
<svg width="112px" height="146px" viewBox="0 0 112 146" version="1.1" xmlns="http://www.w3.org/2000/svg" xmlns:xlink="http://www.w3.org/1999/xlink">
    <!-- Generator: Sketch 50.2 (55047) - http://www.bohemiancoding.com/sketch -->
    <title>get-started-2</title>
    <desc>Created with Sketch.</desc>
    <defs/>
    <g id="Website" stroke="none" stroke-width="1" fill="none" fill-rule="evenodd">
        <g id="4.get-started" transform="translate(-510.000000, -207.000000)" fill="#4A4A4A">
            <g id="get-started-2" transform="translate(510.129936, 207.736198)">
                <path d="M98.9014553,38.6345114 L94.5170894,38.6345114 C86.676237,26.4367256 70.4314137,22.9048753 58.2339293,30.7460291 C57.9746778,30.9127339 57.7181393,31.0839605 57.4646154,31.2597089 C60.0752183,16.8432121 50.5046154,3.03987526 36.0881185,0.429272349 C21.6713202,-2.18163202 7.86798337,7.38927235 5.25738046,21.8057692 C4.16942827,27.8137734 5.18744283,34.0132017 8.13929314,39.3580042 C3.29972973,41.0271622 0.0449168399,45.573711 0.0241164241,50.6927235 L0.0241164241,132.688565 C0.031954262,139.344699 5.42619543,144.73894 12.0823285,144.746778 L98.9014553,144.746778 C105.557588,144.73894 110.95183,139.344699 110.959667,132.688565 L110.959667,50.6927235 C110.951528,44.036289 105.557588,38.6423493 98.9014553,38.6345114 Z M72.3393243,31.394158 C80.1005925,31.3872245 87.2743243,35.5277131 91.1504366,42.2516736 C93.062869,45.5489917 94.0727443,49.2921622 94.0781705,53.1040644 C94.0814865,55.5693659 93.6597505,58.0168815 92.8313514,60.3389917 L87.6077339,60.3389917 C91.2333368,52.7591996 88.7113617,43.6664033 81.69921,39.0369543 C76.0276299,35.3537734 68.7191476,35.3537734 63.0475676,39.0369543 C56.0354158,43.6664033 53.5134407,52.7591996 57.1390437,60.3389917 L51.9154262,60.3389917 C51.087027,58.0168815 50.6652911,55.5693659 50.6686071,53.1040644 C50.6577547,41.1251351 60.3600936,31.4050104 72.3393243,31.394158 Z M82.4857069,59.5696778 C82.3132744,59.8331497 82.1305925,60.0899896 81.9376611,60.3389917 L62.8085135,60.3389917 C61.2080873,58.2649792 60.3320582,55.723711 60.3148753,53.1040644 C60.3130665,49.0600416 62.3412578,45.2852183 65.7145426,43.0547505 C69.7642931,40.4260603 74.9818815,40.4260603 79.031632,43.0547505 C84.5461538,46.6616632 86.0926195,54.0554574 82.4857069,59.5696778 Z M31.3754678,4.87151767 C43.3628378,4.87151767 53.0802495,14.5889293 53.0802495,26.5762994 C53.0802495,38.563368 43.3628378,48.2810811 31.3754678,48.2810811 C19.3883992,48.2810811 9.67068607,38.563368 9.67068607,26.5762994 C9.68515593,14.5949584 19.3941268,4.88598753 31.3754678,4.87151767 Z M4.84740125,50.6927235 C4.86156965,47.1159563 7.48754678,44.0860291 11.0260291,43.5639085 C19.7561746,54.0602807 35.0387526,56.1921726 46.3083576,48.4860707 C46.0165489,50.0087214 45.8616008,51.5542827 45.8453222,53.1043659 C45.8531601,55.5527859 46.2031497,57.9879418 46.8847401,60.3392931 L12.0823285,60.3392931 C8.08653846,60.3392931 4.84740125,57.1001559 4.84740125,53.1043659 L4.84740125,50.6927235 Z M36.1987526,106.160499 C34.8669231,106.160499 33.7871102,105.080686 33.7871102,103.748857 C33.7871102,102.417027 34.8669231,101.337214 36.1987526,101.337214 C37.5305821,101.337214 38.610395,102.417027 38.610395,103.748857 C38.610395,105.080686 37.5305821,106.160499 36.1987526,106.160499 Z M106.136383,103.748857 L65.1384615,103.748857 C61.1426715,103.748857 57.9035343,100.509719 57.9035343,96.5139293 C57.9035343,92.5181393 61.1426715,89.2790021 65.1384615,89.2790021 L106.136383,89.2790021 L106.136383,103.748857 Z M106.136383,84.4557173 L65.1384615,84.4557173 C58.4790125,84.4557173 53.0802495,89.8544802 53.0802495,96.5139293 C53.0802495,103.173378 58.4790125,108.572141 65.1384615,108.572141 L106.136383,108.572141 L106.136383,132.688565 C106.136383,136.684356 102.897245,139.923493 98.9014553,139.923493 L50.6686071,139.923493 L50.6686071,129.071102 L58.7066112,123.041996 L63.1705613,123.041996 C64.5023909,126.809283 68.6362474,128.783514 72.4032328,127.451383 C76.1705198,126.119553 78.1447505,121.985696 76.8126195,118.218711 C75.4804886,114.451726 71.3469335,112.477193 67.579948,113.809324 C65.519501,114.53764 63.8988773,116.158565 63.1705613,118.218711 L57.9035343,118.218711 C57.3817152,118.218711 56.8740644,118.387827 56.4565489,118.70104 L46.8099792,125.935967 C46.2028482,126.391466 45.8453222,127.106216 45.8453222,127.865281 L45.8453222,139.923493 L38.610395,139.923493 L38.610395,110.540042 C42.3776819,109.208212 44.3519127,105.074356 43.0197817,101.30737 C41.6876507,97.5403846 37.5540956,95.5658524 33.7871102,96.8979834 C30.0198233,98.2298129 28.0455925,102.363669 29.3777235,106.130655 C30.1060395,108.191102 31.7269647,109.811726 33.7871102,110.540042 L33.7871102,139.923493 L26.552183,139.923493 L26.552183,120.630353 C26.552183,119.990665 26.2977547,119.377505 25.8455717,118.925322 L19.3172557,112.397006 L19.3172557,100.893472 C23.0845426,99.5616424 25.0587734,95.4277859 23.7266424,91.6608004 C22.3948129,87.8935135 18.2609563,85.9192827 14.4939709,87.2514137 C10.7269854,88.5835447 8.75245322,92.7170998 10.0845842,96.4840852 C10.8129002,98.5445322 12.4338254,100.165156 14.4939709,100.893472 L14.4939709,113.395426 C14.4939709,114.035114 14.7483992,114.648274 15.2005821,115.100457 L21.7288981,121.628773 L21.7288981,139.923493 L12.0823285,139.923493 C8.08653846,139.923493 4.84740125,136.684356 4.84740125,132.688565 L4.84740125,62.6882328 C6.92231809,64.2841372 9.46449064,65.1538358 12.0823285,65.162578 L98.9014553,65.162578 C101.519293,65.1538358 104.061466,64.2841372 106.136383,62.6882328 L106.136383,84.4557173 Z M67.550104,120.630353 C67.550104,119.298524 68.6299168,118.218711 69.9617464,118.218711 C71.2935759,118.218711 72.3733888,119.298524 72.3733888,120.630353 C72.3733888,121.962183 71.2935759,123.041996 69.9617464,123.041996 C68.6299168,123.041996 67.550104,121.962183 67.550104,120.630353 Z M16.9056133,96.5139293 C15.5737838,96.5139293 14.4939709,95.4341164 14.4939709,94.1022869 C14.4939709,92.7704574 15.5737838,91.6906445 16.9056133,91.6906445 C18.2374428,91.6906445 19.3172557,92.7704574 19.3172557,94.1022869 C19.3172557,95.4341164 18.2374428,96.5139293 16.9056133,96.5139293 Z M106.136383,53.1043659 C106.136383,57.1001559 102.897245,60.3392931 98.9014553,60.3392931 L97.8620374,60.3392931 C99.4889917,54.7792516 99.1995946,48.8333472 97.0396674,43.4577963 L98.9014553,43.4577963 C102.897245,43.4577963 106.136383,46.6969335 106.136383,50.6927235 L106.136383,53.1043659 Z" id="Shape" fill-rule="nonzero"/>
                <path d="M31.3754678,9.69480249 C22.0520582,9.69480249 14.4939709,17.2528898 14.4939709,26.5762994 C14.5045218,35.8951871 22.05658,43.4472453 31.3754678,43.4577963 C40.6988773,43.4577963 48.2569647,35.8997089 48.2569647,26.5762994 C48.2569647,17.2528898 40.6988773,9.69480249 31.3754678,9.69480249 Z M31.3754678,38.6345114 C24.7160187,38.6345114 19.3172557,33.2357484 19.3172557,26.5762994 C19.3250936,19.9201663 24.7193347,14.5259252 31.3754678,14.5180873 C38.0349168,14.5180873 43.4336798,19.9168503 43.4336798,26.5762994 C43.4336798,33.2357484 38.0349168,38.6345114 31.3754678,38.6345114 Z" id="Shape" fill-rule="nonzero"/>
                <polygon id="path3666-path" points="26.8246313 31.9949359 28.3725058 26.3804995 31.3860594 29.7422887 34.3306994 26.3793243 35.9457476 31.9947339 38.2393204 31.99485 35.777736 21.1598936 31.3859694 26.1859532 26.970213 21.1574138 24.5116151 31.995185"/>
                <rect id="Rectangle-path" fill-rule="nonzero" x="62.7268191" y="0.0482328482" width="4.82328482" height="4.82328482"/>
                <rect id="Rectangle-path" fill-rule="nonzero" x="62.7268191" y="9.69480249" width="4.82328482" height="12.0582121"/>
                <rect id="Rectangle-path" fill-rule="nonzero" x="72.3733888" y="0.0482328482" width="4.82328482" height="4.82328482"/>
                <rect id="Rectangle-path" fill-rule="nonzero" x="72.3733888" y="9.69480249" width="4.82328482" height="12.0582121"/>
            </g>
        </g>
    </g>
</svg>