<?xml version="1.0" encoding="UTF-8"?>
<svg width="72px" height="69px" viewBox="0 0 72 69" version="1.1" xmlns="http://www.w3.org/2000/svg" xmlns:xlink="http://www.w3.org/1999/xlink">
    <!-- Generator: Sketch 50.2 (55047) - http://www.bohemiancoding.com/sketch -->
    <title>github</title>
    <desc>Created with Sketch.</desc>
    <defs/>
    <g id="Website" stroke="none" stroke-width="1" fill="none" fill-rule="evenodd">
        <g id="5.footer" transform="translate(-412.000000, -234.000000)" fill="#FE9518" fill-rule="nonzero">
            <g id="Group" transform="translate(98.000000, 233.627857)">
                <g id="github" transform="translate(314.930600, 0.565018)">
                    <path d="M65.6841776,17.5914189 C62.5362074,12.1977424 58.2661868,7.92756129 52.872992,4.77991216 C47.4789944,1.63210247 41.5903572,0.058598997 35.2029059,0.058598997 C28.8162574,0.058598997 22.9256936,1.63258411 17.5328199,4.77991216 C12.1391435,7.92740075 7.86928339,12.1977424 4.72131316,17.5914189 C1.57382457,22.9849348 0,28.8746959 0,35.2605417 C0,42.9313912 2.23800005,49.8292156 6.71512396,55.9557809 C11.1917662,62.0828278 16.9749253,66.3225053 24.0641196,68.6752952 C24.8893219,68.8284553 25.5001964,68.7207295 25.8973852,68.354847 C26.2947346,67.9884828 26.4931684,67.5296447 26.4931684,66.980259 C26.4931684,66.8885877 26.4853017,66.063867 26.4700499,64.5051337 C26.4543165,62.9464004 26.4469314,61.5865826 26.4469314,60.4263224 L25.3926311,60.6087018 C24.7204284,60.7318399 23.8724286,60.7840171 22.8486319,60.769247 C21.8253168,60.7549584 20.7629893,60.6477142 19.6630941,60.4483171 C18.5627173,60.250686 17.5392417,59.7923294 16.5918645,59.0742108 C15.6449689,58.3560921 14.9727662,57.4161 14.5754168,56.2556793 L14.1170603,55.2008973 C13.8115428,54.4986726 13.3305494,53.7185835 12.6734379,52.8635198 C12.0163264,52.0076534 11.3518298,51.427443 10.6796271,51.1219255 L10.3586972,50.8921853 C10.144851,50.7395068 9.94641715,50.5553615 9.76291399,50.3416759 C9.57957137,50.1279902 9.44230523,49.914144 9.35063392,49.6999767 C9.25880207,49.4856489 9.33490049,49.3098519 9.57973192,49.1719435 C9.82456334,49.0340352 10.2670259,48.9670879 10.9090461,48.9670879 L11.8254381,49.1040329 C12.4366337,49.2265289 13.192641,49.5924114 14.0944234,50.2039281 C14.9957241,50.8149631 15.7366402,51.6093407 16.3173322,52.5867399 C17.0205202,53.8399557 17.8677172,54.7948785 18.8613314,55.45199 C19.8541429,56.1091015 20.8551422,56.4370954 21.863366,56.4370954 C22.8715899,56.4370954 23.742387,56.3606758 24.4760786,56.2086395 C25.2089674,56.0558005 25.8965825,55.8260603 26.5386027,55.5207034 C26.8136167,53.4724677 27.5623995,51.8989643 28.784309,50.7990691 C27.0427147,50.6160476 25.4769173,50.3403915 24.0861143,49.9738668 C22.696114,49.6068605 21.2597161,49.0112378 19.7778839,48.1853933 C18.295249,47.3606726 17.0653123,46.3365548 16.0877526,45.1148059 C15.1100323,43.8924147 14.3076274,42.2876049 13.6816617,40.3018214 C13.0553749,38.3152351 12.7421512,36.023613 12.7421512,33.4263128 C12.7421512,29.7281542 13.9494511,26.5811472 16.3635692,23.9835259 C15.2326889,21.2032042 15.3394514,18.0863797 16.684178,14.6333736 C17.5703875,14.3580386 18.8846105,14.5646603 20.6262048,15.2519543 C22.3681201,15.9395694 23.6434912,16.5286097 24.4536023,17.0169882 C25.2637133,17.5052061 25.9127976,17.9189311 26.4018182,18.2544706 C29.2442709,17.4602535 32.1775922,17.0630646 35.2025848,17.0630646 C38.2275775,17.0630646 41.1615409,17.4602535 44.0041542,18.2544706 L45.745909,17.1548965 C46.9369939,16.421205 48.3435303,15.7488417 49.962147,15.1376461 C51.581727,14.5267716 52.8201726,14.3585203 53.6761996,14.6338553 C55.0507876,18.0870219 55.1732836,21.2036858 54.0420821,23.9840076 C56.4560397,26.5816288 57.6638212,29.7294385 57.6638212,33.4267944 C57.6638212,36.0240946 57.3494737,38.3229413 56.7241502,40.3247794 C56.0980239,42.3269385 55.2887156,43.9301429 54.2959041,45.1377638 C53.3019687,46.3452243 52.0641653,47.3613148 50.5823331,48.1858749 C49.1001798,49.0110773 47.6633003,49.6066999 46.2733,49.9737063 C44.8826575,50.3407126 43.3168602,50.6165292 41.5752659,50.7998718 C43.1637001,52.1744598 43.9580777,54.3442282 43.9580777,57.3082136 L43.9580777,66.9789746 C43.9580777,67.5283603 44.1491265,67.9870379 44.5315452,68.3535626 C44.9134822,68.7194451 45.5166505,68.8271709 46.3418528,68.6738503 C53.4320104,66.3213815 59.2151694,62.0815434 63.6916512,55.9544965 C68.1676513,49.8279312 70.4064541,42.9301068 70.4064541,35.2592573 C70.4048486,28.8742143 68.8302213,22.9849348 65.6841776,17.5914189 Z" id="Shape"/>
                </g>
            </g>
        </g>
    </g>
</svg>