<?xml version="1.0" encoding="UTF-8"?>
<svg width="130px" height="131px" viewBox="0 0 130 131" version="1.1" xmlns="http://www.w3.org/2000/svg" xmlns:xlink="http://www.w3.org/1999/xlink">
    <!-- Generator: Sketch 50.2 (55047) - http://www.bohemiancoding.com/sketch -->
    <title>MUE-emblem-white</title>
    <desc>Created with Sketch.</desc>
    <defs/>
    <g id="Design" stroke="none" stroke-width="1" fill="none" fill-rule="evenodd">
        <g id="09" transform="translate(-1111.000000, -687.000000)" fill="#FFFFFF" fill-rule="nonzero">
            <path d="M1168.81154,817.411275 C1138.35444,813.862464 1114.55615,789.813346 1111.34643,759.340534 C1108.1888,729.362185 1126.90884,700.478828 1155.57499,691.099825 C1195.11442,678.163289 1236.29213,704.846749 1240.65102,746.229727 C1244.00933,778.113208 1222.84504,808.174249 1191.64212,815.840345 C1184.4753,817.601109 1175.65147,818.208267 1168.81154,817.411275 Z M1153.97369,777.827556 L1161.38758,750.935954 L1175.82167,767.037997 L1189.92569,750.930325 L1197.66132,777.826588 L1208.6469,777.827144 L1196.85659,725.930692 L1175.82124,750.004131 L1154.67099,725.918815 L1142.89498,777.828749 L1153.97369,777.827556 Z M1179.58557,731.28925 C1183.99285,726.997875 1187.92638,723.840096 1193.29336,720.284841 C1195.76213,718.64945 1196.32061,718.022043 1195.30754,718.022043 C1193.90639,718.022043 1183.81128,724.830201 1178.11215,729.618644 L1174.83728,732.370201 L1173.24531,730.66154 C1172.36973,729.72178 1170.10349,727.263086 1168.20922,725.197775 C1166.31496,723.13247 1164.39864,721.202559 1163.95075,720.909086 C1163.21479,720.426872 1163.05271,720.430324 1162.26731,720.944937 C1161.78932,721.25813 1161.39823,721.82884 1161.39823,722.213183 C1161.39823,724.555492 1167.47486,732.398251 1171.11305,734.751545 C1173.90917,736.560166 1174.36258,736.374878 1179.58557,731.28925 Z" id="MUE-emblem-white"/>
        </g>
    </g>
</svg>