<!-- Generator: Adobe Illustrator 19.0.0, SVG Export Plug-In  -->
<svg version="1.1" xmlns="http://www.w3.org/2000/svg" xmlns:xlink="http://www.w3.org/1999/xlink" xmlns:a="http://ns.adobe.com/AdobeSVGViewerExtensions/3.0/" x="0px" y="0px" width="448.094px" height="448.095px" viewBox="0 0 448.094 448.095" style="enable-background:new 0 0 448.094 448.095;" xml:space="preserve">
<style type="text/css">
	.st0{fill:#FE9518;}
	.st1{fill-rule:evenodd;clip-rule:evenodd;fill:#FE9518;}
</style>
<defs>
</defs>
<g id="XMLID_687_">
	<path id="XMLID_695_" class="st0" d="M224.048,448.095h-0.201v-1.066l1.264-0.003l0.005,1.066L224.048,448.095z M222.778,448.091   l-1.067-0.008l0.011-1.066l1.062,0.008L222.778,448.091z M226.183,448.085l-0.009-1.066c0.354-0.003,0.708-0.007,1.062-0.012   l0.016,1.066C226.896,448.078,226.54,448.082,226.183,448.085z M220.644,448.069l-1.066-0.018l0.02-1.066l1.061,0.018   L220.644,448.069z M228.32,448.055l-0.02-1.066l1.063-0.022l0.025,1.066L228.32,448.055z M218.513,448.028   c-0.355-0.008-0.711-0.018-1.065-0.028l0.031-1.066c0.353,0.01,0.706,0.02,1.059,0.028L218.513,448.028z M230.455,448.005   l-0.03-1.066c0.354-0.01,0.708-0.021,1.062-0.032l0.036,1.065C231.167,447.984,230.811,447.995,230.455,448.005z M216.383,447.966   l-1.063-0.038l0.041-1.065l1.058,0.038L216.383,447.966z M232.59,447.935l-0.041-1.065l1.062-0.043l0.045,1.065L232.59,447.935z    M214.257,447.885c-0.356-0.015-0.712-0.031-1.067-0.048l0.052-1.065c0.354,0.017,0.707,0.033,1.061,0.048L214.257,447.885z    M234.724,447.845l-0.05-1.065l1.062-0.053l0.055,1.065L234.724,447.845z M212.123,447.784l-1.066-0.059l0.061-1.064l1.062,0.058   L212.123,447.784z M236.857,447.734l-0.059-1.064c0.354-0.02,0.707-0.041,1.06-0.062l0.066,1.064   C237.569,447.694,237.213,447.714,236.857,447.734z M209.991,447.661l-1.066-0.068l0.07-1.064l1.061,0.068L209.991,447.661z    M238.99,447.605l-0.07-1.064c0.354-0.023,0.707-0.047,1.06-0.072l0.076,1.062C239.701,447.557,239.345,447.581,238.99,447.605z    M207.86,447.518c-0.355-0.025-0.711-0.051-1.066-0.078l0.081-1.062c0.353,0.027,0.706,0.053,1.06,0.078L207.86,447.518z    M241.12,447.454l-0.08-1.062c0.353-0.027,0.706-0.054,1.059-0.083l0.086,1.062C241.831,447.4,241.476,447.428,241.12,447.454z    M205.729,447.357l-1.064-0.089l0.091-1.061l1.06,0.088L205.729,447.357z M243.25,447.283l-0.091-1.061l1.059-0.093l0.095,1.061   L243.25,447.283z M203.602,447.174c-0.355-0.032-0.71-0.065-1.064-0.099l0.101-1.06c0.353,0.033,0.705,0.066,1.058,0.098   L203.602,447.174z M245.377,447.093l-0.1-1.061c0.353-0.033,0.705-0.068,1.057-0.103l0.106,1.06   C246.087,447.024,245.732,447.059,245.377,447.093z M201.475,446.972c-0.355-0.035-0.709-0.071-1.063-0.109l0.111-1.059   c0.352,0.036,0.704,0.073,1.057,0.108L201.475,446.972z M247.503,446.881l-0.111-1.059l1.057-0.113l0.116,1.059L247.503,446.881z    M199.35,446.749c-0.354-0.038-0.708-0.078-1.062-0.119l0.122-1.058c0.352,0.04,0.704,0.08,1.056,0.118L199.35,446.749z    M249.627,446.65l-0.12-1.058l1.056-0.123l0.125,1.058L249.627,446.65z M197.228,446.506l-1.06-0.129l0.131-1.057l1.055,0.128   L197.228,446.506z M251.749,446.399l-0.131-1.057l1.055-0.133l0.136,1.057L251.749,446.399z M195.108,446.242l-1.059-0.139   l0.14-1.056l1.054,0.138L195.108,446.242z M253.867,446.127l-0.14-1.056l1.054-0.143l0.145,1.055L253.867,446.127z M192.99,445.959   l-1.057-0.149l0.151-1.055l1.053,0.149L192.99,445.959z M255.983,445.836l-0.15-1.055c0.351-0.05,0.701-0.1,1.051-0.152   l0.156,1.054C256.689,445.735,256.336,445.786,255.983,445.836z M190.876,445.655l-1.056-0.159l0.161-1.053l1.051,0.158   L190.876,445.655z M258.097,445.524l-0.161-1.053l1.051-0.163l0.165,1.053L258.097,445.524z M188.764,445.332l-1.054-0.169   l0.172-1.052l1.05,0.169L188.764,445.332z M260.207,445.192l-0.17-1.052c0.35-0.057,0.699-0.114,1.048-0.173l0.176,1.051   C260.91,445.077,260.559,445.135,260.207,445.192z M186.656,444.988l-1.053-0.18l0.181-1.05l1.048,0.178L186.656,444.988z    M262.314,444.84l-0.181-1.05l1.047-0.183l0.186,1.049L262.314,444.84z M184.551,444.624c-0.351-0.062-0.701-0.125-1.052-0.189   l0.192-1.048c0.348,0.063,0.697,0.126,1.046,0.188L184.551,444.624z M264.418,444.467l-0.19-1.048   c0.349-0.063,0.697-0.127,1.045-0.193l0.197,1.047C265.119,444.339,264.769,444.404,264.418,444.467z M182.45,444.24   c-0.35-0.066-0.7-0.132-1.05-0.2l0.201-1.046c0.348,0.067,0.695,0.134,1.044,0.198L182.45,444.24z M266.518,444.075l-0.201-1.047   l1.044-0.203l0.206,1.046L266.518,444.075z M180.352,443.836c-0.349-0.069-0.699-0.139-1.048-0.21l0.212-1.045   c0.347,0.071,0.694,0.14,1.042,0.209L180.352,443.836z M268.614,443.662l-0.211-1.045l1.042-0.213l0.215,1.044L268.614,443.662z    M178.258,443.412l-1.045-0.22l0.222-1.043l1.04,0.219L178.258,443.412z M270.707,443.23l-0.222-1.043l1.04-0.223l0.226,1.042   L270.707,443.23z M176.169,442.967l-1.043-0.229l0.231-1.041l1.038,0.228L176.169,442.967z M272.794,442.777l-0.231-1.041   c0.346-0.077,0.691-0.154,1.037-0.233l0.237,1.039C273.489,442.622,273.141,442.699,272.794,442.777z M174.084,442.503   c-0.348-0.079-0.695-0.159-1.042-0.24l0.242-1.038c0.345,0.08,0.69,0.16,1.035,0.238L174.084,442.503z M274.877,442.304   l-0.24-1.039c0.345-0.08,0.69-0.161,1.034-0.242l0.247,1.036C275.571,442.142,275.224,442.223,274.877,442.304z M172.004,442.018   c-0.347-0.082-0.693-0.165-1.039-0.25l0.251-1.035c0.344,0.083,0.688,0.167,1.033,0.248L172.004,442.018z M276.956,441.811   l-0.251-1.035l1.033-0.253l0.256,1.034L276.956,441.811z M169.927,441.514l-1.036-0.259l0.261-1.033l1.031,0.258L169.927,441.514z    M279.03,441.299l-0.261-1.033l1.03-0.263l0.265,1.032L279.03,441.299z M167.857,440.989c-0.345-0.089-0.69-0.178-1.034-0.27   l0.272-1.03c0.342,0.09,0.685,0.18,1.028,0.267L167.857,440.989z M281.098,440.766l-0.27-1.031c0.343-0.089,0.685-0.18,1.027-0.272   l0.276,1.029C281.788,440.584,281.443,440.675,281.098,440.766z M165.791,440.446c-0.344-0.092-0.688-0.185-1.032-0.279   l0.281-1.028c0.341,0.094,0.683,0.186,1.025,0.278L165.791,440.446z M283.162,440.214l-0.281-1.028l1.025-0.282l0.286,1.026   L283.162,440.214z M163.73,439.882l-1.028-0.289l0.29-1.025l1.023,0.287L163.73,439.882z M285.22,439.641l-0.29-1.025l1.022-0.292   l0.295,1.024L285.22,439.641z M161.675,439.298c-0.342-0.099-0.684-0.198-1.026-0.299l0.301-1.022c0.34,0.1,0.68,0.199,1.02,0.297   L161.675,439.298z M287.273,439.049l-0.3-1.023c0.34-0.099,0.679-0.2,1.018-0.302l0.306,1.021   C287.956,438.848,287.614,438.949,287.273,439.049z M159.626,438.695c-0.341-0.101-0.682-0.205-1.023-0.309l0.311-1.02   c0.339,0.104,0.678,0.206,1.017,0.307L159.626,438.695z M289.32,438.438l-0.311-1.02l1.021-0.313l0.315,1.018L289.32,438.438z    M157.583,438.071l-1.019-0.318l0.32-1.017l1.015,0.317L157.583,438.071z M291.37,437.804l-0.32-1.017   c0.34-0.107,0.678-0.214,1.017-0.323l0.326,1.015C292.053,437.588,291.712,437.696,291.37,437.804z M155.545,437.429   c-0.339-0.108-0.678-0.218-1.017-0.329l0.331-1.013c0.337,0.11,0.674,0.219,1.011,0.327L155.545,437.429z M293.414,437.15   l-0.329-1.014l1.015-0.332l0.334,1.012L293.414,437.15z M153.513,436.766l-1.013-0.339l0.34-1.009l1.008,0.337L153.513,436.766z    M295.451,436.476l-0.339-1.01c0.337-0.113,0.674-0.227,1.01-0.342l0.345,1.008C296.129,436.247,295.79,436.362,295.451,436.476z    M151.489,436.085l-1.01-0.349l0.35-1.006l1.005,0.347L151.489,436.085z M297.482,435.783l-0.35-1.006l1.008-0.353l0.354,1.005   L297.482,435.783z M149.471,435.383l-1.006-0.358l0.359-1.003l1.002,0.357L149.471,435.383z M299.505,435.07l-0.359-1.003   c0.335-0.12,0.669-0.24,1.003-0.362l0.365,1.001C300.179,434.829,299.842,434.95,299.505,435.07z M147.46,434.663l-1.002-0.367   l0.368-1l0.999,0.366L147.46,434.663z M301.521,434.338l-0.368-1l1.001-0.372l0.372,0.999L301.521,434.338z M145.456,433.924   l-0.999-0.378l0.379-0.996l0.995,0.376L145.456,433.924z M303.529,433.588l-0.378-0.996l0.997-0.381l0.382,0.995L303.529,433.588z    M143.459,433.164l-0.996-0.387l0.389-0.992l0.991,0.385L143.459,433.164z M305.53,432.816l-0.387-0.993l0.993-0.39l0.392,0.991   L305.53,432.816z M141.469,432.386l-0.992-0.396l0.398-0.989l0.987,0.394L141.469,432.386z M307.524,432.027l-0.396-0.989   c0.33-0.133,0.66-0.266,0.989-0.4l0.402,0.987C308.187,431.76,307.855,431.894,307.524,432.027z M139.488,431.589   c-0.33-0.135-0.659-0.27-0.988-0.406l0.407-0.984c0.327,0.135,0.655,0.27,0.983,0.404L139.488,431.589z M309.51,431.218   l-0.407-0.984l0.985-0.41l0.411,0.983L309.51,431.218z M137.518,430.774l-0.98-0.414l0.417-0.98l0.975,0.412L137.518,430.774z    M311.487,430.39l-0.417-0.98l0.981-0.419l0.42,0.979L311.487,430.39z M135.561,429.944l-0.976-0.424l0.426-0.976l0.971,0.421   L135.561,429.944z M313.456,429.544l-0.426-0.977l0.977-0.428l0.43,0.975L313.456,429.544z M133.611,429.094l-0.972-0.432   l0.436-0.973l0.967,0.43L133.611,429.094z M315.416,428.678l-0.436-0.973l0.973-0.438l0.439,0.971L315.416,428.678z    M131.67,428.224l-0.967-0.441l0.444-0.969l0.964,0.439L131.67,428.224z M317.368,427.794l-0.445-0.968l0.968-0.447l0.449,0.967   L317.368,427.794z M129.736,427.337l-0.963-0.45l0.453-0.965l0.959,0.449L129.736,427.337z M319.311,426.892l-0.453-0.965   l0.963-0.456l0.458,0.963L319.311,426.892z M127.811,426.431l-0.959-0.459l0.463-0.961l0.955,0.458L127.811,426.431z    M321.245,425.971l-0.463-0.96l0.959-0.465l0.467,0.957L321.245,425.971z M125.895,425.507c-0.319-0.156-0.638-0.312-0.956-0.469   l0.472-0.955c0.316,0.156,0.633,0.312,0.95,0.467L125.895,425.507z M323.17,425.031l-0.472-0.955l0.954-0.475l0.477,0.953   L323.17,425.031z M123.987,424.564l-0.951-0.478l0.481-0.951l0.946,0.476L123.987,424.564z M325.086,424.073l-0.481-0.951   l0.95-0.483l0.484,0.949L325.086,424.073z M122.087,423.603l-0.946-0.487l0.49-0.946l0.942,0.485L122.087,423.603z    M326.992,423.096l-0.491-0.946l0.945-0.493l0.495,0.944L326.992,423.096z M120.197,422.624l-0.942-0.497l0.5-0.941l0.937,0.494   L120.197,422.624z M328.889,422.102l-0.5-0.941l0.941-0.502l0.503,0.94L328.889,422.102z M118.316,421.626l-0.937-0.505   l0.508-0.937l0.933,0.503L118.316,421.626z M330.775,421.09l-0.508-0.937c0.312-0.169,0.624-0.34,0.935-0.51l0.513,0.935   C331.402,420.749,331.088,420.92,330.775,421.09z M116.444,420.612l-0.932-0.515l0.517-0.932l0.928,0.512L116.444,420.612z    M332.651,420.059l-0.517-0.931l0.931-0.52l0.521,0.93L332.651,420.059z M114.582,419.579l-0.927-0.523l0.526-0.927l0.923,0.521   L114.582,419.579z M334.518,419.011l-0.527-0.926l0.925-0.528l0.53,0.924L334.518,419.011z M112.729,418.527l-0.922-0.532   l0.534-0.922l0.918,0.53L112.729,418.527z M336.374,417.946l-0.534-0.922l0.92-0.536l0.539,0.919L336.374,417.946z    M110.887,417.459l-0.918-0.541l0.543-0.917l0.913,0.539L110.887,417.459z M338.22,416.862l-0.544-0.917l0.914-0.545l0.548,0.914   L338.22,416.862z M109.055,416.373c-0.305-0.183-0.609-0.366-0.912-0.549l0.553-0.912c0.302,0.184,0.605,0.366,0.908,0.547   L109.055,416.373z M340.055,415.761l-0.553-0.911l0.91-0.555l0.556,0.909L340.055,415.761z M107.232,415.269l-0.907-0.558   l0.56-0.906l0.904,0.556L107.232,415.269z M341.88,414.643l-0.561-0.906c0.302-0.187,0.603-0.374,0.903-0.562l0.566,0.903   C342.486,414.267,342.183,414.455,341.88,414.643z M105.421,414.148c-0.302-0.188-0.602-0.377-0.903-0.567l0.57-0.9   c0.299,0.189,0.598,0.377,0.898,0.564L105.421,414.148z M343.693,413.507l-0.57-0.9l0.899-0.572l0.574,0.898L343.693,413.507z    M103.619,413.01l-0.897-0.575l0.578-0.896l0.893,0.573L103.619,413.01z M345.496,412.355l-0.579-0.895   c0.298-0.193,0.595-0.386,0.892-0.58l0.583,0.892C346.095,411.967,345.795,412.161,345.496,412.355z M101.829,411.855   c-0.298-0.194-0.595-0.389-0.892-0.584l0.587-0.89c0.295,0.195,0.59,0.388,0.887,0.581L101.829,411.855z M347.287,411.185   l-0.587-0.889l0.888-0.589l0.591,0.887L347.287,411.185z M100.049,410.682c-0.296-0.197-0.592-0.394-0.886-0.593l0.595-0.885   c0.293,0.197,0.587,0.394,0.881,0.59L100.049,410.682z M349.067,409.998l-0.595-0.883c0.294-0.198,0.588-0.397,0.881-0.597   l0.6,0.88C349.658,409.599,349.362,409.798,349.067,409.998z M98.28,409.491l-0.88-0.6l0.603-0.879l0.876,0.598L98.28,409.491z    M350.835,408.795l-0.604-0.878c0.292-0.201,0.584-0.403,0.875-0.605l0.608,0.875C351.422,408.39,351.128,408.593,350.835,408.795z    M96.523,408.286c-0.292-0.202-0.584-0.406-0.875-0.61l0.611-0.873c0.29,0.203,0.58,0.405,0.87,0.607L96.523,408.286z    M352.592,407.574l-0.612-0.872l0.87-0.614l0.616,0.869L352.592,407.574z M94.776,407.062l-0.869-0.618l0.619-0.867l0.865,0.615   L94.776,407.062z M354.336,406.337l-0.621-0.866l0.864-0.622l0.625,0.863L354.336,406.337z M93.042,405.822l-0.863-0.625   l0.628-0.862l0.859,0.623L93.042,405.822z M356.069,405.085l-0.629-0.861c0.286-0.209,0.572-0.419,0.857-0.63l0.633,0.858   C356.644,404.664,356.357,404.875,356.069,405.085z M91.319,404.565l-0.857-0.634l0.636-0.855l0.853,0.632L91.319,404.565z    M357.789,403.815l-0.636-0.854c0.284-0.212,0.568-0.425,0.851-0.638l0.641,0.851C358.36,403.388,358.075,403.602,357.789,403.815z    M89.608,403.293c-0.284-0.213-0.568-0.428-0.852-0.643l0.644-0.849c0.282,0.214,0.564,0.427,0.847,0.639L89.608,403.293z    M359.497,402.53l-0.644-0.849c0.282-0.214,0.564-0.429,0.845-0.645l0.649,0.845C360.064,402.098,359.781,402.315,359.497,402.53z    M87.909,402.003c-0.282-0.216-0.564-0.433-0.845-0.65l0.652-0.843c0.28,0.216,0.56,0.432,0.841,0.647L87.909,402.003z    M361.194,401.228l-0.654-0.842l0.84-0.654l0.657,0.839L361.194,401.228z M86.221,400.698l-0.839-0.659l0.66-0.837l0.835,0.656   L86.221,400.698z M362.877,399.91l-0.661-0.836l0.833-0.662l0.665,0.832L362.877,399.91z M84.547,399.377l-0.833-0.667l0.668-0.83   l0.829,0.663L84.547,399.377z M364.547,398.577l-0.669-0.829l0.827-0.67l0.672,0.826L364.547,398.577z M82.884,398.04l-0.826-0.674   l0.675-0.824l0.823,0.671L82.884,398.04z M366.205,397.228l-0.677-0.823l0.821-0.677l0.68,0.82L366.205,397.228z M81.235,396.686   l-0.82-0.682l0.683-0.818l0.816,0.68L81.235,396.686z M367.85,395.864l-0.685-0.817l0.814-0.685l0.688,0.814L367.85,395.864z    M79.598,395.318l-0.813-0.689l0.691-0.812l0.81,0.687L79.598,395.318z M369.481,394.483l-0.692-0.811l0.807-0.693l0.696,0.808   L369.481,394.483z M77.974,393.934l-0.807-0.698l0.698-0.804l0.804,0.695L77.974,393.934z M371.099,393.088l-0.699-0.804   c0.267-0.232,0.534-0.466,0.8-0.7l0.703,0.8C371.636,392.619,371.368,392.853,371.099,393.088z M76.363,392.534l-0.801-0.706   l0.707-0.798l0.797,0.702L76.363,392.534z M372.704,391.677l-0.707-0.797c0.265-0.235,0.529-0.47,0.793-0.708l0.712,0.793   C373.236,391.204,372.97,391.441,372.704,391.677z M74.766,391.119c-0.265-0.237-0.53-0.475-0.794-0.713l0.714-0.791   c0.263,0.237,0.526,0.474,0.79,0.709L74.766,391.119z M374.295,390.251l-0.715-0.79c0.263-0.237,0.525-0.476,0.786-0.715   l0.719,0.787C374.822,389.773,374.559,390.012,374.295,390.251z M73.181,389.689c-0.263-0.239-0.526-0.48-0.788-0.721l0.722-0.784   c0.26,0.239,0.521,0.479,0.783,0.717L73.181,389.689z M375.872,388.811l-0.723-0.784c0.261-0.24,0.521-0.481,0.78-0.722   l0.726,0.779C376.396,388.327,376.134,388.57,375.872,388.811z M71.61,388.244c-0.261-0.242-0.522-0.485-0.781-0.728l0.729-0.777   c0.258,0.242,0.516,0.484,0.776,0.724L71.61,388.244z M377.436,387.356l-0.729-0.777c0.258-0.242,0.516-0.485,0.773-0.73   l0.734,0.773C377.954,386.867,377.696,387.112,377.436,387.356z M70.052,386.783l-0.773-0.736l0.736-0.77l0.77,0.733   L70.052,386.783z M378.986,385.886l-0.737-0.77l0.766-0.736l0.74,0.766L378.986,385.886z M68.509,385.308l-0.766-0.743l0.743-0.764   l0.763,0.74L68.509,385.308z M380.521,384.401l-0.745-0.763l0.759-0.744l0.748,0.76L380.521,384.401z M66.98,383.819   c-0.254-0.249-0.507-0.5-0.76-0.75l0.751-0.757c0.251,0.25,0.503,0.499,0.756,0.747L66.98,383.819z M382.042,382.902l-0.751-0.755   c0.251-0.25,0.502-0.5,0.751-0.751l0.756,0.751C382.547,382.4,382.295,382.651,382.042,382.902z M65.464,382.314l-0.752-0.758   l0.758-0.749l0.75,0.754L65.464,382.314z M383.55,381.389l-0.759-0.748l0.745-0.759l0.761,0.746L383.55,381.389z M63.962,380.796   l-0.745-0.765l0.765-0.742l0.742,0.762L63.962,380.796z M385.042,379.862l-0.765-0.741c0.246-0.254,0.492-0.509,0.737-0.765   l0.77,0.737C385.536,379.351,385.289,379.607,385.042,379.862z M62.475,379.263l-0.738-0.772l0.772-0.735l0.735,0.769   L62.475,379.263z M386.52,378.321l-0.773-0.734l0.73-0.772l0.775,0.731L386.52,378.321z M61.003,377.716l-0.731-0.779l0.779-0.727   l0.727,0.776L61.003,377.716z M387.982,376.766l-0.779-0.726l0.723-0.779l0.783,0.723L387.982,376.766z M59.544,376.155   l-0.723-0.786l0.786-0.72l0.72,0.783L59.544,376.155z M389.43,375.197l-0.786-0.719c0.239-0.261,0.477-0.523,0.715-0.785   l0.79,0.715C389.91,374.672,389.67,374.935,389.43,375.197z M58.102,374.58c-0.24-0.264-0.478-0.528-0.716-0.793l0.792-0.712   c0.237,0.263,0.474,0.527,0.713,0.788L58.102,374.58z M390.863,373.616l-0.793-0.712l0.708-0.792l0.796,0.709L390.863,373.616z    M56.673,372.991l-0.708-0.8l0.799-0.704l0.705,0.796L56.673,372.991z M392.281,372.02l-0.8-0.703l0.7-0.799l0.803,0.7   L392.281,372.02z M55.259,371.389l-0.7-0.806l0.805-0.697l0.698,0.803L55.259,371.389z M393.684,370.411l-0.807-0.696l0.692-0.805   l0.81,0.693L393.684,370.411z M53.862,369.773c-0.232-0.271-0.463-0.542-0.694-0.814l0.813-0.689c0.229,0.27,0.459,0.54,0.69,0.809   L53.862,369.773z M395.07,368.79l-0.813-0.689c0.229-0.27,0.457-0.54,0.684-0.812l0.816,0.685   C395.53,368.247,395.3,368.519,395.07,368.79z M52.479,368.144c-0.229-0.272-0.458-0.545-0.686-0.82l0.819-0.682   c0.227,0.272,0.454,0.544,0.682,0.815L52.479,368.144z M396.442,367.156l-0.819-0.682c0.226-0.272,0.452-0.544,0.676-0.817   l0.823,0.676C396.896,366.608,396.67,366.883,396.442,367.156z M51.111,366.501l-0.677-0.826l0.825-0.674l0.675,0.823   L51.111,366.501z M397.798,365.508l-0.826-0.673c0.223-0.274,0.446-0.548,0.669-0.824l0.829,0.669   C398.247,364.957,398.022,365.233,397.798,365.508z M49.759,364.846l-0.67-0.833l0.831-0.666l0.667,0.829L49.759,364.846z    M399.138,363.848l-0.832-0.666c0.221-0.276,0.441-0.553,0.661-0.83l0.836,0.662C399.582,363.292,399.36,363.57,399.138,363.848z    M48.423,363.178l-0.662-0.839l0.838-0.659l0.66,0.836L48.423,363.178z M400.462,362.176l-0.838-0.658   c0.218-0.278,0.436-0.557,0.653-0.837l0.842,0.654C400.9,361.616,400.681,361.896,400.462,362.176z M47.102,361.497l-0.654-0.845   l0.844-0.65l0.651,0.842L47.102,361.497z M401.77,360.49l-0.844-0.649c0.216-0.28,0.43-0.561,0.645-0.843l0.848,0.645   C402.203,359.926,401.987,360.209,401.77,360.49z M45.798,359.803l-0.646-0.851l0.85-0.643l0.644,0.848L45.798,359.803z    M403.063,358.794l-0.851-0.641l0.637-0.849l0.854,0.637L403.063,358.794z M44.51,358.097c-0.214-0.286-0.427-0.571-0.639-0.858   l0.856-0.634c0.211,0.285,0.423,0.569,0.635,0.853L44.51,358.097z M404.338,357.085l-0.857-0.634   c0.21-0.284,0.42-0.569,0.629-0.854l0.86,0.629C404.76,356.513,404.55,356.799,404.338,357.085z M43.237,356.379l-0.63-0.864   l0.862-0.626l0.627,0.86L43.237,356.379z M405.598,355.364l-0.863-0.625l0.62-0.861l0.866,0.621L405.598,355.364z M41.981,354.649   c-0.208-0.29-0.415-0.58-0.622-0.871l0.868-0.617c0.206,0.289,0.412,0.578,0.619,0.865L41.981,354.649z M406.84,353.631   l-0.868-0.617c0.205-0.288,0.408-0.577,0.612-0.866l0.872,0.613C407.251,353.052,407.046,353.342,406.84,353.631z M40.741,352.906   c-0.205-0.291-0.41-0.583-0.614-0.876l0.874-0.609c0.203,0.291,0.406,0.581,0.611,0.871L40.741,352.906z M408.067,351.888   l-0.875-0.609l0.604-0.872l0.878,0.605L408.067,351.888z M39.518,351.151l-0.605-0.881l0.88-0.601l0.603,0.878L39.518,351.151z    M409.276,350.132l-0.88-0.6l0.596-0.878l0.883,0.596L409.276,350.132z M38.312,349.386c-0.2-0.296-0.399-0.591-0.597-0.888   l0.886-0.592c0.197,0.295,0.395,0.589,0.594,0.882L38.312,349.386z M410.469,348.365l-0.886-0.592   c0.196-0.293,0.392-0.588,0.587-0.883l0.889,0.587C410.863,347.774,410.667,348.07,410.469,348.365z M37.123,347.608   c-0.197-0.297-0.393-0.595-0.589-0.893l0.891-0.584c0.195,0.297,0.39,0.593,0.586,0.888L37.123,347.608z M411.645,346.588   l-0.892-0.584l0.579-0.889l0.894,0.58L411.645,346.588z M35.949,345.818l-0.58-0.898l0.897-0.577l0.578,0.895L35.949,345.818z    M412.803,344.799l-0.897-0.576c0.191-0.297,0.381-0.595,0.57-0.894l0.9,0.57C413.186,344.201,412.995,344.5,412.803,344.799z    M34.793,344.018l-0.571-0.904l0.902-0.567l0.569,0.9L34.793,344.018z M413.945,342.999l-0.903-0.566l0.562-0.9l0.905,0.563   L413.945,342.999z M33.655,342.207l-0.563-0.91L34,340.738l0.56,0.905L33.655,342.207z M415.069,341.189l-0.908-0.558l0.553-0.905   l0.911,0.554L415.069,341.189z M32.534,340.384l-0.554-0.915l0.913-0.549l0.552,0.911L32.534,340.384z M416.176,339.369   l-0.913-0.549c0.182-0.302,0.363-0.606,0.544-0.91l0.916,0.544C416.542,338.76,416.359,339.064,416.176,339.369z M31.429,338.551   l-0.545-0.92l0.918-0.541l0.543,0.916L31.429,338.551z M417.266,337.538l-0.919-0.54l0.536-0.915l0.921,0.536L417.266,337.538z    M30.343,336.707c-0.18-0.307-0.359-0.617-0.537-0.926l0.924-0.532c0.177,0.308,0.355,0.615,0.534,0.921L30.343,336.707z    M418.337,335.697l-0.924-0.532l0.527-0.92l0.926,0.528L418.337,335.697z M29.274,334.853l-0.528-0.931l0.928-0.523l0.525,0.927   L29.274,334.853z M419.391,333.847l-0.928-0.523l0.518-0.925l0.931,0.518L419.391,333.847z M28.222,332.988l-0.519-0.936   l0.933-0.515l0.517,0.932L28.222,332.988z M420.428,331.986l-0.933-0.514l0.509-0.93l0.936,0.51L420.428,331.986z M27.189,331.113   l-0.51-0.941l0.938-0.506l0.507,0.937L27.189,331.113z M421.446,330.116l-0.938-0.505l0.5-0.935l0.941,0.501L421.446,330.116z    M26.174,329.228c-0.168-0.315-0.335-0.63-0.501-0.946l0.943-0.496c0.166,0.314,0.332,0.629,0.498,0.941L26.174,329.228z    M422.446,328.237l-0.943-0.496c0.164-0.312,0.328-0.625,0.491-0.939l0.946,0.491C422.776,327.608,422.612,327.923,422.446,328.237   z M25.176,327.334c-0.165-0.316-0.329-0.633-0.492-0.951l0.948-0.487c0.163,0.316,0.326,0.632,0.49,0.946L25.176,327.334z    M423.428,326.348l-0.948-0.487l0.483-0.944l0.95,0.484L423.428,326.348z M24.197,325.43c-0.162-0.318-0.323-0.637-0.483-0.956   l0.953-0.478c0.159,0.317,0.319,0.634,0.48,0.95L24.197,325.43z M424.393,324.451l-0.953-0.478l0.474-0.949l0.954,0.476   L424.393,324.451z M23.235,323.516l-0.474-0.961l0.957-0.469l0.472,0.956L23.235,323.516z M425.339,322.545l-0.956-0.469   c0.155-0.317,0.31-0.634,0.464-0.951l0.959,0.464C425.651,321.908,425.495,322.227,425.339,322.545z M22.292,321.592   c-0.156-0.322-0.311-0.644-0.465-0.966l0.962-0.46c0.153,0.321,0.308,0.641,0.462,0.961L22.292,321.592z M426.266,320.629   l-0.961-0.46c0.152-0.318,0.304-0.637,0.454-0.956l0.964,0.455C426.572,319.989,426.42,320.309,426.266,320.629z M21.367,319.659   l-0.455-0.97l0.966-0.451l0.453,0.965L21.367,319.659z M427.176,318.705l-0.966-0.451l0.445-0.961l0.968,0.446L427.176,318.705z    M20.461,317.719c-0.15-0.325-0.298-0.649-0.446-0.975l0.97-0.441c0.147,0.323,0.295,0.647,0.444,0.969L20.461,317.719z    M428.066,316.773l-0.97-0.441l0.436-0.965l0.972,0.437L428.066,316.773z M19.574,315.768c-0.146-0.326-0.292-0.652-0.437-0.979   l0.974-0.432c0.144,0.325,0.289,0.649,0.435,0.974L19.574,315.768z M428.938,314.833l-0.974-0.432l0.427-0.969l0.976,0.429   L428.938,314.833z M18.705,313.809c-0.143-0.327-0.286-0.655-0.427-0.983l0.978-0.423c0.141,0.326,0.283,0.652,0.425,0.978   L18.705,313.809z M429.792,312.885l-0.978-0.423l0.418-0.972l0.98,0.418L429.792,312.885z M17.855,311.842   c-0.14-0.329-0.28-0.658-0.418-0.987l0.982-0.413c0.138,0.327,0.276,0.655,0.416,0.982L17.855,311.842z M430.626,310.929   l-0.982-0.413l0.408-0.977l0.984,0.41L430.626,310.929z M17.024,309.865l-0.408-0.991l0.986-0.404l0.407,0.987L17.024,309.865z    M431.442,308.966l-0.986-0.404c0.134-0.328,0.268-0.656,0.401-0.984l0.988,0.399C431.712,308.306,431.577,308.636,431.442,308.966   z M16.212,307.882c-0.134-0.331-0.267-0.663-0.399-0.995l0.99-0.394c0.132,0.331,0.264,0.661,0.397,0.99L16.212,307.882z    M432.243,306.986l-0.99-0.395c0.131-0.329,0.262-0.658,0.391-0.988l0.992,0.39C432.506,306.324,432.375,306.655,432.243,306.986z    M15.419,305.89l-0.389-0.999l0.994-0.385l0.388,0.994L15.419,305.89z M433.025,304.997l-0.994-0.385l0.382-0.992l0.995,0.381   L433.025,304.997z M14.645,303.891c-0.127-0.334-0.254-0.668-0.38-1.003l0.997-0.375c0.125,0.333,0.251,0.665,0.378,0.998   L14.645,303.891z M433.787,303.001l-0.997-0.376l0.372-0.995l0.999,0.37L433.787,303.001z M13.89,301.882l-0.37-1.006l1.001-0.365   l0.368,1.002L13.89,301.882z M434.53,300.999l-1.001-0.366c0.121-0.332,0.242-0.665,0.362-0.999l1.003,0.361   C434.774,300.329,434.653,300.664,434.53,300.999z M13.154,299.868l-0.36-1.01l1.004-0.356l0.359,1.006L13.154,299.868z    M435.254,298.989l-1.004-0.356c0.118-0.334,0.236-0.668,0.353-1.003l1.006,0.351C435.492,298.317,435.373,298.653,435.254,298.989   z M12.438,297.846c-0.118-0.338-0.235-0.676-0.351-1.015l1.008-0.346c0.116,0.337,0.232,0.673,0.349,1.008L12.438,297.846z    M435.959,296.972l-1.008-0.347c0.115-0.335,0.23-0.67,0.343-1.006l1.009,0.341C436.19,296.298,436.075,296.636,435.959,296.972z    M11.742,295.816l-0.341-1.017l1.011-0.336l0.34,1.013L11.742,295.816z M436.644,294.949l-1.011-0.337   c0.112-0.336,0.223-0.672,0.334-1.009l1.013,0.332C436.869,294.273,436.757,294.611,436.644,294.949z M11.065,293.781   c-0.112-0.34-0.222-0.681-0.331-1.021l1.015-0.326c0.109,0.339,0.219,0.677,0.329,1.015L11.065,293.781z M437.31,292.919   l-1.014-0.328l0.324-1.012l1.016,0.323L437.31,292.919z M10.407,291.737l-0.321-1.023l1.017-0.316l0.32,1.019L10.407,291.737z    M437.957,290.883l-1.017-0.318c0.106-0.338,0.21-0.676,0.314-1.015l1.019,0.312C438.168,290.203,438.063,290.544,437.957,290.883z    M9.769,289.689l-0.311-1.027l1.02-0.307l0.31,1.022L9.769,289.689z M438.583,288.841l-1.02-0.308   c0.102-0.339,0.204-0.678,0.304-1.018l1.022,0.303C438.788,288.159,438.686,288.5,438.583,288.841z M9.153,287.638l-0.3-1.025   l1.023-0.298l0.299,1.02L9.153,287.638z M439.19,286.792l-1.023-0.299c0.099-0.34,0.197-0.68,0.295-1.021l1.025,0.292   C439.388,286.108,439.29,286.45,439.19,286.792z M8.557,285.587c-0.097-0.342-0.194-0.685-0.29-1.028l1.026-0.287   c0.095,0.342,0.192,0.683,0.289,1.023L8.557,285.587z M439.778,284.738l-1.026-0.288l0.285-1.024l1.027,0.283L439.778,284.738z    M7.982,283.53c-0.094-0.343-0.188-0.687-0.28-1.031l1.029-0.277c0.092,0.342,0.185,0.684,0.279,1.025L7.982,283.53z    M440.345,282.678l-1.029-0.278l0.275-1.027l1.03,0.274L440.345,282.678z M7.426,281.466l-0.27-1.033l1.031-0.267l0.269,1.029   L7.426,281.466z M440.893,280.614l-1.031-0.268c0.089-0.342,0.178-0.685,0.265-1.029l1.033,0.263   C441.072,279.924,440.983,280.269,440.893,280.614z M6.889,279.398l-0.26-1.036l1.034-0.257l0.259,1.031L6.889,279.398z    M441.421,278.543l-1.034-0.258l0.255-1.032l1.035,0.254L441.421,278.543z M6.373,277.325c-0.085-0.346-0.168-0.692-0.251-1.039   l1.036-0.248c0.082,0.344,0.165,0.689,0.249,1.033L6.373,277.325z M441.929,276.468l-1.036-0.248l0.246-1.035l1.038,0.245   L441.929,276.468z M5.877,275.247l-0.241-1.04l1.039-0.238l0.24,1.036L5.877,275.247z M442.417,274.389l-1.039-0.238l0.235-1.037   l1.04,0.234L442.417,274.389z M5.401,273.164l-0.231-1.042l1.041-0.228l0.229,1.038L5.401,273.164z M442.885,272.305l-1.041-0.229   c0.076-0.346,0.151-0.692,0.225-1.039l1.042,0.223C443.037,271.609,442.961,271.957,442.885,272.305z M4.945,271.078l-0.221-1.045   l1.043-0.217l0.22,1.04L4.945,271.078z M443.333,270.216l-1.043-0.219c0.073-0.347,0.145-0.693,0.215-1.041l1.044,0.212   C443.478,269.518,443.406,269.867,443.333,270.216z M4.508,268.986l-0.21-1.047l1.045-0.207l0.209,1.042L4.508,268.986z    M443.761,268.123l-1.045-0.208l0.206-1.043l1.046,0.204L443.761,268.123z M4.092,266.891c-0.068-0.349-0.135-0.699-0.201-1.049   l1.047-0.198c0.066,0.348,0.132,0.697,0.199,1.044L4.092,266.891z M444.169,266.026l-1.047-0.199l0.196-1.045l1.048,0.194   L444.169,266.026z M3.696,264.792c-0.065-0.35-0.128-0.7-0.19-1.051l1.049-0.187c0.062,0.349,0.125,0.697,0.189,1.046   L3.696,264.792z M444.556,263.925l-1.049-0.188l0.186-1.047l1.049,0.184L444.556,263.925z M3.32,262.689l-0.18-1.053l1.051-0.177   l0.179,1.047L3.32,262.689z M444.924,261.821l-1.051-0.178l0.176-1.049l1.051,0.174L444.924,261.821z M2.964,260.582l-0.17-1.054   l1.053-0.168l0.169,1.049L2.964,260.582z M445.272,259.713l-1.052-0.169l0.165-1.05l1.053,0.163L445.272,259.713z M2.628,258.472   l-0.16-1.055l1.054-0.158l0.159,1.052L2.628,258.472z M445.599,257.602l-1.054-0.158c0.053-0.35,0.105-0.701,0.155-1.052   l1.055,0.153C445.704,256.898,445.652,257.25,445.599,257.602z M2.313,256.36l-0.15-1.057l1.055-0.148l0.149,1.053L2.313,256.36z    M445.906,255.488l-1.055-0.148c0.049-0.351,0.098-0.701,0.145-1.053l1.056,0.143C446.005,254.783,445.956,255.136,445.906,255.488   z M2.018,254.245l-0.14-1.059l1.057-0.137l0.139,1.055L2.018,254.245z M446.193,253.372l-1.057-0.138l0.136-1.054l1.057,0.133   L446.193,253.372z M1.743,252.127l-0.13-1.06l1.058-0.127l0.129,1.055L1.743,252.127z M446.46,251.252l-1.058-0.128l0.125-1.056   l1.058,0.124L446.46,251.252z M1.487,250.005l-0.12-1.061l1.059-0.117l0.119,1.056L1.487,250.005z M446.706,249.13l-1.059-0.118   l0.115-1.057l1.059,0.113L446.706,249.13z M1.253,247.883c-0.038-0.354-0.074-0.709-0.11-1.063l1.06-0.107   c0.035,0.352,0.072,0.705,0.109,1.057L1.253,247.883z M446.933,247.006l-1.06-0.107l0.106-1.059l1.06,0.104L446.933,247.006z    M1.039,245.758c-0.035-0.354-0.068-0.709-0.1-1.064L2,244.597c0.032,0.353,0.065,0.706,0.099,1.058L1.039,245.758z    M447.139,244.88l-1.061-0.098l0.095-1.059l1.061,0.094L447.139,244.88z M0.844,243.63c-0.031-0.355-0.061-0.71-0.09-1.065   l1.062-0.086c0.029,0.353,0.059,0.706,0.089,1.059L0.844,243.63z M447.325,242.752l-1.062-0.087l0.085-1.059l1.062,0.082   L447.325,242.752z M0.67,241.5c-0.027-0.355-0.054-0.71-0.08-1.065l1.063-0.076c0.025,0.353,0.052,0.707,0.079,1.059L0.67,241.5z    M447.491,240.622l-1.062-0.078c0.026-0.353,0.051-0.707,0.075-1.06l1.063,0.073C447.542,239.912,447.517,240.267,447.491,240.622z    M0.516,239.37l-0.07-1.066l1.064-0.067l0.069,1.061L0.516,239.37z M447.637,238.491l-1.064-0.068   c0.023-0.353,0.044-0.707,0.065-1.061l1.064,0.062C447.681,237.781,447.66,238.136,447.637,238.491z M0.382,237.237l-0.059-1.066   l1.064-0.057l0.059,1.062L0.382,237.237z M447.763,236.359l-1.064-0.058c0.019-0.353,0.038-0.707,0.055-1.061l1.065,0.052   C447.8,235.647,447.782,236.003,447.763,236.359z M0.268,235.105c-0.017-0.356-0.034-0.711-0.049-1.067l1.065-0.047   c0.016,0.354,0.032,0.708,0.049,1.062L0.268,235.105z M447.868,234.225l-1.065-0.048c0.016-0.354,0.031-0.708,0.045-1.062   l1.065,0.042C447.899,233.513,447.884,233.869,447.868,234.225z M0.175,232.971c-0.014-0.356-0.027-0.712-0.04-1.068l1.065-0.036   c0.012,0.354,0.025,0.708,0.039,1.063L0.175,232.971z M447.953,232.094l-1.065-0.037l0.035-1.059l1.065,0.033L447.953,232.094z    M0.101,230.836c-0.011-0.355-0.021-0.711-0.029-1.068l1.065-0.027c0.009,0.355,0.018,0.708,0.029,1.062L0.101,230.836z    M448.018,229.965l-1.065-0.027l0.025-1.061l1.065,0.024L448.018,229.965z M0.047,228.701c-0.007-0.356-0.014-0.712-0.019-1.068   l1.066-0.017c0.005,0.354,0.012,0.709,0.019,1.063L0.047,228.701z M448.064,227.835l-1.066-0.018   c0.006-0.354,0.011-0.708,0.015-1.061l1.066,0.012C448.075,227.124,448.07,227.479,448.064,227.835z M0.014,226.565l-0.009-1.068   l1.066-0.007l0.009,1.064L0.014,226.565z M448.089,225.701l-1.066-0.008c0.003-0.354,0.004-0.708,0.005-1.062l1.066,0.002   C448.093,224.99,448.091,225.345,448.089,225.701z M0,224.429l0-0.381l0.001-0.687l1.066,0.004l-0.001,0.683l0,0.379L0,224.429z    M447.029,223.568c-0.001-0.354-0.002-0.709-0.005-1.062l1.066-0.008c0.003,0.355,0.004,0.712,0.005,1.068L447.029,223.568z    M1.073,222.301l-1.066-0.007c0.002-0.356,0.006-0.712,0.01-1.068l1.066,0.014C1.079,221.593,1.075,221.947,1.073,222.301z    M447.014,221.441l-0.015-1.063l1.066-0.017l0.015,1.068L447.014,221.441z M1.099,220.177l-1.066-0.018   c0.006-0.355,0.013-0.711,0.021-1.066l1.066,0.023C1.111,219.47,1.105,219.823,1.099,220.177z M446.98,219.315   c-0.007-0.354-0.015-0.709-0.024-1.062l1.065-0.027c0.009,0.355,0.018,0.711,0.025,1.068L446.98,219.315z M1.144,218.057   l-1.065-0.029l0.031-1.064l1.065,0.033L1.144,218.057z M446.926,217.19c-0.011-0.354-0.022-0.708-0.035-1.062l1.065-0.038   c0.013,0.356,0.024,0.712,0.035,1.068L446.926,217.19z M1.21,215.937l-1.065-0.039l0.041-1.062l1.065,0.043L1.21,215.937z    M446.852,215.065c-0.014-0.354-0.029-0.708-0.045-1.062l1.065-0.048c0.016,0.356,0.031,0.712,0.045,1.068L446.852,215.065z    M1.296,213.817l-1.065-0.048c0.016-0.356,0.033-0.711,0.05-1.067l1.064,0.053C1.329,213.109,1.312,213.463,1.296,213.817z    M446.758,212.941c-0.017-0.354-0.035-0.708-0.055-1.061l1.064-0.058c0.019,0.355,0.037,0.711,0.055,1.067L446.758,212.941z    M1.402,211.693l-1.064-0.057c0.019-0.355,0.039-0.711,0.061-1.067l1.064,0.063C1.442,210.986,1.421,211.34,1.402,211.693z    M446.643,210.819l-0.065-1.061l1.064-0.067l0.065,1.066L446.643,210.819z M1.528,209.571l-1.064-0.067   c0.022-0.355,0.046-0.711,0.071-1.066l1.063,0.074C1.574,208.865,1.551,209.218,1.528,209.571z M446.509,208.697l-0.075-1.061   l1.063-0.077l0.075,1.065L446.509,208.697z M1.674,207.45l-1.063-0.078c0.026-0.355,0.053-0.711,0.081-1.065l1.063,0.083   C1.727,206.744,1.7,207.097,1.674,207.45z M446.355,206.576l-0.085-1.06l1.062-0.087l0.085,1.065L446.355,206.576z M1.84,205.332   l-1.062-0.089l0.091-1.064l1.061,0.093L1.84,205.332z M446.181,204.457c-0.031-0.353-0.062-0.706-0.095-1.059l1.061-0.098   c0.033,0.355,0.065,0.71,0.095,1.065L446.181,204.457z M2.026,203.213l-1.061-0.099l0.101-1.062l1.06,0.103L2.026,203.213z    M445.986,202.34c-0.034-0.353-0.069-0.705-0.105-1.057l1.06-0.108c0.036,0.354,0.071,0.708,0.105,1.063L445.986,202.34z    M2.232,201.097l-1.06-0.109l0.111-1.061l1.059,0.113L2.232,201.097z M445.772,200.224c-0.037-0.352-0.075-0.705-0.114-1.057   l1.059-0.118c0.04,0.353,0.078,0.708,0.116,1.062L445.772,200.224z M2.458,198.983l-1.059-0.119l0.121-1.06l1.058,0.123   L2.458,198.983z M445.537,198.112l-0.125-1.056l1.058-0.127l0.125,1.06L445.537,198.112z M2.705,196.871l-1.058-0.129l0.131-1.059   l1.057,0.133L2.705,196.871z M445.282,196.001l-0.135-1.055l1.057-0.137l0.135,1.06L445.282,196.001z M2.971,194.762l-1.057-0.138   l0.142-1.059l1.056,0.144L2.971,194.762z M445.008,193.892l-0.145-1.053l1.055-0.148l0.145,1.058L445.008,193.892z M3.257,192.656   l-1.055-0.149l0.152-1.058l1.055,0.154L3.257,192.656z M444.713,191.787l-0.155-1.051l1.054-0.158l0.156,1.056L444.713,191.787z    M3.565,190.551l-1.054-0.158c0.053-0.353,0.107-0.705,0.162-1.057l1.053,0.164C3.671,189.85,3.618,190.201,3.565,190.551z    M444.398,189.684l-0.165-1.051l1.053-0.167l0.165,1.055L444.398,189.684z M3.891,188.451l-1.052-0.169l0.172-1.054l1.051,0.174   L3.891,188.451z M444.063,187.585l-0.175-1.049l1.051-0.177l0.176,1.053L444.063,187.585z M4.238,186.353l-1.051-0.18l0.182-1.052   l1.049,0.183L4.238,186.353z M443.708,185.488l-0.185-1.047l1.049-0.187l0.186,1.051L443.708,185.488z M4.605,184.26l-1.048-0.189   l0.192-1.051l1.048,0.194L4.605,184.26z M443.333,183.396l-0.195-1.045l1.047-0.198l0.196,1.05L443.333,183.396z M4.992,182.169   l-1.047-0.2l0.202-1.048l1.046,0.204L4.992,182.169z M442.938,181.307c-0.067-0.348-0.136-0.695-0.205-1.043l1.045-0.208   c0.07,0.349,0.138,0.698,0.206,1.048L442.938,181.307z M5.399,180.082l-1.045-0.209l0.212-1.047l1.044,0.214L5.399,180.082z    M442.522,179.222l-0.215-1.041l1.043-0.219l0.216,1.046L442.522,179.222z M5.825,177.999l-1.043-0.22l0.222-1.044l1.042,0.224   L5.825,177.999z M442.087,177.141l-0.225-1.039l1.041-0.228l0.226,1.044L442.087,177.141z M6.273,175.92l-1.041-0.229   c0.076-0.348,0.154-0.695,0.232-1.043l1.04,0.234C6.426,175.228,6.349,175.574,6.273,175.92z M441.632,175.064l-0.235-1.037   l1.039-0.237l0.236,1.041L441.632,175.064z M6.74,173.846l-1.039-0.239l0.242-1.04l1.038,0.244L6.74,173.846z M441.158,172.992   l-0.245-1.035l1.036-0.248l0.246,1.039L441.158,172.992z M7.226,171.777l-1.036-0.249l0.252-1.038l1.035,0.254L7.226,171.777z    M440.662,170.924c-0.084-0.344-0.169-0.688-0.255-1.032l1.034-0.258c0.086,0.345,0.172,0.691,0.256,1.037L440.662,170.924z    M7.732,169.712l-1.033-0.259l0.262-1.035l1.032,0.264L7.732,169.712z M440.148,168.862l-0.265-1.029l1.031-0.268l0.266,1.034   L440.148,168.862z M8.258,167.652l-1.031-0.27l0.272-1.033l1.03,0.274L8.258,167.652z M439.613,166.804l-0.275-1.027l1.029-0.277   l0.276,1.031L439.613,166.804z M8.804,165.597l-1.028-0.279l0.282-1.03l1.027,0.283L8.804,165.597z M439.059,164.751   c-0.094-0.342-0.189-0.683-0.284-1.024l1.026-0.288c0.096,0.343,0.191,0.686,0.286,1.029L439.059,164.751z M9.371,163.548   l-1.026-0.288c0.096-0.343,0.194-0.685,0.292-1.028l1.025,0.293C9.563,162.865,9.466,163.207,9.371,163.548z M438.485,162.704   c-0.097-0.341-0.196-0.682-0.294-1.021l1.023-0.298c0.099,0.342,0.198,0.684,0.296,1.027L438.485,162.704z M9.956,161.504   l-1.023-0.299l0.301-1.025l1.022,0.303L9.956,161.504z M437.892,160.663l-0.304-1.019l1.02-0.307l0.306,1.023L437.892,160.663z    M10.561,159.466l-1.02-0.308c0.103-0.341,0.207-0.682,0.311-1.022l1.019,0.313C10.767,158.787,10.664,159.126,10.561,159.466z    M437.277,158.622l-0.315-1.021l1.017-0.317l0.317,1.025L437.277,158.622z M11.185,157.434l-1.017-0.318l0.321-1.018l1.016,0.323   L11.185,157.434z M436.642,156.583l-0.325-1.017l1.015-0.327l0.327,1.022L436.642,156.583z M11.83,155.408l-1.014-0.328   l0.331-1.015l1.013,0.332L11.83,155.408z M435.986,154.55l-0.335-1.014l1.011-0.337l0.336,1.019L435.986,154.55z M12.493,153.388   l-1.01-0.338l0.34-1.012l1.009,0.342L12.493,153.388z M435.311,152.524l-0.345-1.011l1.008-0.346l0.346,1.015L435.311,152.524z    M13.176,151.375l-1.007-0.347l0.35-1.009l1.006,0.352L13.176,151.375z M434.617,150.505l-0.354-1.007l1.004-0.356l0.356,1.012   L434.617,150.505z M13.878,149.368l-1.004-0.357l0.36-1.005l1.002,0.362L13.878,149.368z M433.904,148.493l-0.364-1.004   l1.001-0.366l0.366,1.008L433.904,148.493z M14.6,147.368l-1.001-0.366c0.122-0.334,0.246-0.669,0.37-1.002l0.999,0.372   C14.844,146.703,14.722,147.035,14.6,147.368z M433.171,146.488l-0.374-1l0.997-0.376l0.375,1.004L433.171,146.488z    M15.341,145.375L14.344,145c0.126-0.334,0.252-0.667,0.379-0.999l0.995,0.381C15.592,144.712,15.466,145.043,15.341,145.375z    M432.419,144.491c-0.127-0.332-0.254-0.664-0.383-0.996l0.993-0.386c0.13,0.333,0.258,0.667,0.385,1.001L432.419,144.491z    M16.1,143.389l-0.993-0.386l0.389-0.995l0.992,0.39L16.1,143.389z M431.648,142.501c-0.13-0.331-0.261-0.662-0.393-0.992   l0.99-0.395c0.133,0.332,0.264,0.664,0.395,0.997L431.648,142.501z M16.879,141.411l-0.99-0.395l0.399-0.991l0.988,0.4   L16.879,141.411z M430.858,140.519l-0.402-0.988l0.986-0.404l0.404,0.992L430.858,140.519z M17.677,139.44l-0.986-0.404   c0.134-0.328,0.27-0.656,0.406-0.983l0.984,0.41C17.945,138.788,17.811,139.114,17.677,139.44z M430.049,138.545l-0.412-0.984   l0.982-0.413l0.413,0.988L430.049,138.545z M18.489,137.487l-0.982-0.414l0.415-0.979l0.98,0.419L18.489,137.487z M429.221,136.579   l-0.421-0.98l0.978-0.423l0.424,0.985L429.221,136.579z M19.321,135.54l-0.978-0.423c0.14-0.326,0.282-0.651,0.425-0.975   l0.976,0.428C19.602,134.893,19.461,135.217,19.321,135.54z M428.373,134.622c-0.143-0.326-0.286-0.651-0.431-0.975l0.974-0.433   c0.145,0.326,0.289,0.653,0.433,0.981L428.373,134.622z M20.172,133.602l-0.974-0.432c0.144-0.324,0.289-0.648,0.434-0.971   l0.971,0.438C20.459,132.957,20.315,133.279,20.172,133.602z M427.508,132.673c-0.146-0.324-0.292-0.648-0.44-0.971l0.969-0.442   c0.148,0.325,0.296,0.65,0.442,0.976L427.508,132.673z M21.04,131.671l-0.97-0.441c0.147-0.323,0.295-0.645,0.444-0.968   l0.967,0.447C21.334,131.029,21.187,131.35,21.04,131.671z M426.624,130.732l-0.449-0.967l0.966-0.451l0.451,0.972L426.624,130.732   z M21.928,129.749l-0.965-0.451l0.453-0.963l0.963,0.455L21.928,129.749z M425.722,128.8l-0.458-0.962l0.961-0.46l0.46,0.967   L425.722,128.8z M22.833,127.835l-0.961-0.461l0.462-0.958l0.959,0.465L22.833,127.835z M424.8,126.877   c-0.155-0.319-0.311-0.639-0.467-0.958l0.956-0.47c0.158,0.321,0.314,0.641,0.47,0.963L424.8,126.877z M23.757,125.93l-0.956-0.47   l0.471-0.954l0.954,0.474L23.757,125.93z M423.861,124.964l-0.477-0.953l0.952-0.479l0.479,0.958L423.861,124.964z M24.699,124.032   l-0.952-0.478c0.159-0.317,0.319-0.634,0.481-0.95l0.95,0.483C25.017,123.402,24.858,123.717,24.699,124.032z M422.904,123.06   l-0.486-0.949l0.948-0.487l0.487,0.953L422.904,123.06z M25.66,122.145l-0.947-0.489l0.489-0.945l0.945,0.492L25.66,122.145z    M421.928,121.165l-0.494-0.944l0.943-0.497l0.497,0.949L421.928,121.165z M26.639,120.265l-0.943-0.496l0.498-0.941l0.94,0.501   L26.639,120.265z M420.934,119.279l-0.504-0.939l0.938-0.506l0.506,0.943L420.934,119.279z M27.635,118.395l-0.938-0.506   l0.507-0.936l0.936,0.51L27.635,118.395z M419.923,117.404l-0.512-0.934l0.933-0.515l0.515,0.938L419.923,117.404z M28.649,116.535   l-0.933-0.514l0.516-0.931l0.931,0.519L28.649,116.535z M418.893,115.539l-0.521-0.929l0.928-0.523l0.523,0.933L418.893,115.539z    M29.682,114.683l-0.928-0.523l0.525-0.926l0.926,0.528L29.682,114.683z M417.846,113.683l-0.53-0.924l0.924-0.532l0.532,0.928   L417.846,113.683z M30.731,112.842l-0.923-0.532l0.534-0.921l0.921,0.536L30.731,112.842z M416.781,111.838   c-0.179-0.307-0.358-0.613-0.539-0.918l0.918-0.542c0.181,0.307,0.362,0.615,0.541,0.924L416.781,111.838z M31.799,111.011   l-0.918-0.541l0.543-0.917l0.916,0.545L31.799,111.011z M415.699,110.004l-0.548-0.914l0.913-0.55l0.55,0.918L415.699,110.004z    M32.884,109.189l-0.913-0.549l0.552-0.911l0.91,0.554L32.884,109.189z M414.599,108.18l-0.556-0.908l0.907-0.558l0.559,0.912   L414.599,108.18z M33.986,107.378l-0.907-0.558l0.56-0.906l0.905,0.563L33.986,107.378z M413.483,106.366l-0.565-0.903l0.902-0.568   l0.567,0.907L413.483,106.366z M35.106,105.577l-0.902-0.567l0.569-0.901l0.9,0.571L35.106,105.577z M412.349,104.564l-0.573-0.897   l0.897-0.576l0.576,0.901L412.349,104.564z M36.242,103.787l-0.897-0.576l0.578-0.895l0.894,0.58L36.242,103.787z M411.198,102.772   c-0.193-0.297-0.387-0.595-0.582-0.891l0.891-0.585c0.196,0.298,0.391,0.596,0.585,0.896L411.198,102.772z M37.396,102.007   l-0.891-0.584l0.586-0.89l0.889,0.588L37.396,102.007z M410.029,100.992c-0.196-0.296-0.392-0.591-0.59-0.886l0.885-0.593   c0.198,0.296,0.396,0.593,0.593,0.891L410.029,100.992z M38.568,100.238l-0.886-0.592l0.594-0.885l0.883,0.597L38.568,100.238z    M408.845,99.224l-0.599-0.88l0.88-0.601l0.601,0.884L408.845,99.224z M39.756,98.48l-0.88-0.6c0.2-0.294,0.401-0.587,0.603-0.879   l0.877,0.605C40.155,97.896,39.955,98.188,39.756,98.48z M407.643,97.466c-0.202-0.292-0.404-0.583-0.607-0.874l0.874-0.61   c0.204,0.292,0.407,0.585,0.61,0.878L407.643,97.466z M40.961,96.733l-0.875-0.608c0.203-0.292,0.407-0.583,0.611-0.874   l0.872,0.613C41.366,96.153,41.163,96.443,40.961,96.733z M406.425,95.721l-0.616-0.869l0.868-0.618l0.618,0.872L406.425,95.721z    M42.182,94.998l-0.869-0.617c0.206-0.29,0.412-0.579,0.62-0.868l0.865,0.622C42.592,94.422,42.387,94.71,42.182,94.998z    M405.19,93.987c-0.207-0.288-0.415-0.576-0.623-0.862l0.862-0.626c0.209,0.288,0.418,0.577,0.626,0.867L405.19,93.987z    M43.419,93.274l-0.863-0.625c0.209-0.288,0.418-0.575,0.628-0.862l0.86,0.63C43.835,92.702,43.627,92.988,43.419,93.274z    M403.94,92.265c-0.21-0.286-0.42-0.571-0.632-0.856l0.856-0.635c0.212,0.286,0.424,0.573,0.635,0.86L403.94,92.265z    M44.673,91.562l-0.857-0.634l0.636-0.856l0.854,0.638L44.673,91.562z M402.673,90.556c-0.212-0.284-0.425-0.567-0.639-0.85   l0.85-0.643c0.215,0.284,0.429,0.569,0.643,0.855L402.673,90.556z M45.944,89.862l-0.851-0.642c0.214-0.284,0.429-0.567,0.644-0.85   l0.848,0.646C46.371,89.298,46.157,89.58,45.944,89.862z M401.389,88.858l-0.648-0.844l0.844-0.65l0.651,0.848L401.389,88.858z    M47.231,88.173l-0.845-0.649c0.217-0.282,0.434-0.563,0.652-0.844l0.841,0.654C47.663,87.613,47.446,87.893,47.231,88.173z    M400.09,87.173c-0.218-0.28-0.436-0.559-0.655-0.838l0.837-0.659c0.22,0.28,0.44,0.561,0.659,0.842L400.09,87.173z M48.533,86.497   l-0.838-0.658l0.661-0.837l0.835,0.662L48.533,86.497z M398.775,85.501l-0.663-0.832l0.831-0.666l0.667,0.835L398.775,85.501z    M49.851,84.833l-0.831-0.667l0.668-0.831l0.829,0.67L49.851,84.833z M397.444,83.841l-0.671-0.825l0.825-0.674l0.674,0.829   L397.444,83.841z M51.186,83.182l-0.826-0.674l0.677-0.825l0.822,0.677L51.186,83.182z M396.098,82.195l-0.679-0.819l0.819-0.682   l0.682,0.822L396.098,82.195z M52.536,81.543l-0.82-0.681c0.227-0.274,0.456-0.547,0.684-0.819l0.816,0.685   C52.99,80.999,52.763,81.271,52.536,81.543z M394.737,80.56l-0.687-0.812l0.812-0.69l0.69,0.816L394.737,80.56z M53.902,79.917   l-0.813-0.689l0.692-0.812l0.81,0.693L53.902,79.917z M393.359,78.94l-0.694-0.806l0.806-0.697l0.698,0.809L393.359,78.94z    M55.284,78.303l-0.806-0.697l0.7-0.805l0.803,0.701L55.284,78.303z M391.967,77.332l-0.702-0.799l0.799-0.705l0.705,0.803   L391.967,77.332z M56.68,76.703l-0.8-0.704c0.235-0.267,0.471-0.534,0.708-0.8l0.796,0.709   C57.149,76.172,56.914,76.437,56.68,76.703z M390.56,75.738l-0.71-0.792l0.792-0.713l0.712,0.796L390.56,75.738z M58.092,75.116   l-0.792-0.712l0.715-0.792l0.79,0.715L58.092,75.116z M389.138,74.158c-0.238-0.263-0.477-0.524-0.716-0.785l0.785-0.721   c0.241,0.263,0.481,0.526,0.72,0.789L389.138,74.158z M59.519,73.542l-0.786-0.72l0.722-0.786l0.783,0.723L59.519,73.542z    M387.7,72.591c-0.241-0.26-0.482-0.52-0.724-0.778l0.778-0.728c0.243,0.26,0.486,0.521,0.728,0.782L387.7,72.591z M60.961,71.982   l-0.779-0.727l0.73-0.779l0.776,0.731L60.961,71.982z M386.248,71.038c-0.243-0.258-0.487-0.515-0.731-0.771l0.771-0.735   c0.246,0.258,0.491,0.516,0.735,0.775L386.248,71.038z M62.417,70.434L61.645,69.7c0.245-0.258,0.491-0.515,0.738-0.772   l0.769,0.738C62.906,69.922,62.661,70.178,62.417,70.434z M384.782,69.498c-0.246-0.255-0.492-0.51-0.738-0.764l0.764-0.743   c0.248,0.255,0.496,0.511,0.742,0.768L384.782,69.498z M63.889,68.902l-0.765-0.742l0.745-0.765l0.762,0.745L63.889,68.902z    M383.302,67.973c-0.248-0.253-0.496-0.505-0.746-0.757l0.758-0.75c0.25,0.253,0.5,0.507,0.749,0.761L383.302,67.973z    M65.375,67.382l-0.758-0.749l0.752-0.758l0.755,0.752L65.375,67.382z M381.807,66.462l-0.753-0.75l0.75-0.757l0.757,0.754   L381.807,66.462z M66.875,65.877l-0.751-0.756c0.253-0.251,0.505-0.501,0.759-0.751l0.747,0.76   C67.378,65.378,67.127,65.627,66.875,65.877z M380.298,64.966l-0.76-0.743l0.744-0.764l0.763,0.746L380.298,64.966z M68.39,64.386   l-0.745-0.762c0.255-0.249,0.51-0.497,0.767-0.744l0.74,0.766C68.898,63.892,68.644,64.139,68.39,64.386z M378.775,63.484   c-0.255-0.246-0.51-0.491-0.766-0.735l0.736-0.771c0.258,0.246,0.514,0.492,0.771,0.739L378.775,63.484z M69.92,62.909   l-0.737-0.769c0.257-0.246,0.515-0.492,0.773-0.737l0.733,0.774C70.432,62.42,70.175,62.664,69.92,62.909z M377.237,62.016   c-0.257-0.243-0.515-0.486-0.773-0.728l0.728-0.778c0.26,0.244,0.519,0.487,0.778,0.732L377.237,62.016z M71.462,61.447   l-0.729-0.776c0.259-0.244,0.52-0.487,0.78-0.729l0.726,0.78C71.979,60.963,71.72,61.204,71.462,61.447z M375.687,60.564   c-0.259-0.241-0.52-0.481-0.78-0.721l0.721-0.785c0.262,0.241,0.524,0.482,0.784,0.724L375.687,60.564z M73.019,59.999   l-0.722-0.784c0.262-0.241,0.524-0.482,0.788-0.722l0.718,0.787C73.54,59.52,73.279,59.759,73.019,59.999z M374.123,59.127   l-0.788-0.713l0.714-0.791l0.791,0.716L374.123,59.127z M74.589,58.566l-0.714-0.791l0.794-0.714l0.711,0.793L74.589,58.566z    M372.545,57.703c-0.264-0.236-0.528-0.471-0.793-0.705l0.706-0.799c0.267,0.236,0.533,0.472,0.798,0.709L372.545,57.703z    M76.173,57.148l-0.707-0.797l0.801-0.707l0.703,0.801L76.173,57.148z M370.955,56.296l-0.8-0.698l0.699-0.804l0.804,0.701   L370.955,56.296z M77.771,55.745l-0.699-0.804l0.808-0.699l0.695,0.808L77.771,55.745z M369.351,54.903l-0.807-0.69l0.691-0.811   l0.81,0.694L369.351,54.903z M79.383,54.356l-0.692-0.811l0.814-0.692l0.688,0.814L79.383,54.356z M367.734,53.526l-0.813-0.683   l0.684-0.817l0.817,0.686L367.734,53.526z M81.006,52.984l-0.683-0.817l0.821-0.684l0.68,0.821L81.006,52.984z M366.104,52.165   l-0.82-0.675l0.676-0.824l0.823,0.678L366.104,52.165z M82.644,51.626l-0.676-0.824l0.827-0.676l0.672,0.827L82.644,51.626z    M364.462,50.819l-0.826-0.668l0.668-0.83l0.829,0.67L364.462,50.819z M84.295,50.284l-0.668-0.83l0.834-0.668l0.664,0.833   L84.295,50.284z M362.807,49.489l-0.832-0.659l0.66-0.837l0.836,0.662L362.807,49.489z M85.958,48.958l-0.66-0.837l0.84-0.66   l0.657,0.839L85.958,48.958z M361.139,48.174l-0.838-0.651l0.651-0.843l0.842,0.654L361.139,48.174z M87.634,47.647l-0.652-0.842   l0.847-0.652l0.648,0.846L87.634,47.647z M359.46,46.876c-0.281-0.215-0.562-0.429-0.844-0.643l0.643-0.85   c0.284,0.215,0.566,0.43,0.849,0.646L359.46,46.876z M89.322,46.353l-0.645-0.849l0.853-0.645l0.641,0.852L89.322,46.353z    M357.768,45.594c-0.283-0.212-0.566-0.424-0.85-0.635l0.635-0.855c0.285,0.212,0.57,0.425,0.854,0.638L357.768,45.594z    M91.023,45.074l-0.637-0.854c0.286-0.213,0.572-0.425,0.859-0.637l0.632,0.857C91.593,44.651,91.308,44.862,91.023,45.074z    M356.064,44.328l-0.856-0.627l0.628-0.861l0.86,0.63L356.064,44.328z M92.736,43.81l-0.629-0.86   c0.288-0.21,0.576-0.42,0.865-0.629l0.624,0.864C93.31,43.393,93.023,43.601,92.736,43.81z M354.349,43.078   c-0.287-0.207-0.574-0.413-0.862-0.618l0.619-0.867c0.289,0.206,0.578,0.414,0.866,0.622L354.349,43.078z M94.461,42.565   l-0.62-0.867l0.871-0.62l0.616,0.869L94.461,42.565z M352.622,41.845l-0.868-0.61l0.611-0.873l0.872,0.613L352.622,41.845z    M96.198,41.335l-0.612-0.873c0.292-0.205,0.584-0.409,0.877-0.612l0.607,0.876C96.779,40.928,96.488,41.131,96.198,41.335z    M350.884,40.628l-0.874-0.602l0.603-0.879l0.878,0.605L350.884,40.628z M97.947,40.121l-0.604-0.878   c0.294-0.202,0.588-0.403,0.883-0.604l0.599,0.881C98.532,39.72,98.239,39.92,97.947,40.121z M349.134,39.428   c-0.292-0.199-0.585-0.396-0.879-0.593l0.594-0.885c0.295,0.198,0.59,0.397,0.884,0.597L349.134,39.428z M99.707,38.924   l-0.595-0.884l0.889-0.595l0.591,0.887L99.707,38.924z M347.373,38.245l-0.885-0.585l0.586-0.89l0.889,0.588L347.373,38.245z    M101.479,37.744l-0.586-0.89l0.894-0.586l0.582,0.892L101.479,37.744z M345.602,37.079l-0.89-0.577l0.578-0.895l0.894,0.579   L345.602,37.079z M103.262,36.58l-0.578-0.895l0.9-0.578l0.574,0.898L103.262,36.58z M343.819,35.929l-0.895-0.568l0.569-0.901   l0.9,0.571L343.819,35.929z M105.057,35.434l-0.57-0.901c0.301-0.19,0.603-0.38,0.906-0.569l0.565,0.903   C105.657,35.055,105.357,35.244,105.057,35.434z M342.026,34.797l-0.901-0.56l0.56-0.906l0.905,0.562L342.026,34.797z    M106.863,34.304l-0.561-0.906c0.303-0.188,0.607-0.375,0.911-0.561l0.556,0.908C107.466,33.932,107.164,34.118,106.863,34.304z    M340.222,33.682l-0.906-0.551l0.552-0.912l0.91,0.554L340.222,33.682z M108.678,33.192l-0.552-0.912l0.916-0.552l0.548,0.914   L108.678,33.192z M338.408,32.585l-0.911-0.543l0.544-0.916l0.915,0.545L338.408,32.585z M110.505,32.098l-0.543-0.917l0.921-0.543   l0.539,0.919L110.505,32.098z M336.583,31.504l-0.916-0.534l0.534-0.922l0.92,0.536L336.583,31.504z M112.343,31.02l-0.534-0.922   l0.927-0.534l0.53,0.924L112.343,31.02z M334.749,30.442l-0.921-0.525l0.526-0.927l0.925,0.527L334.749,30.442z M114.191,29.96   l-0.526-0.927l0.932-0.526l0.521,0.929L114.191,29.96z M332.905,29.397l-0.926-0.516l0.517-0.932l0.93,0.518L332.905,29.397z    M116.048,28.918l-0.516-0.932l0.937-0.517l0.513,0.935L116.048,28.918z M331.051,28.369l-0.931-0.507l0.508-0.937l0.935,0.509   L331.051,28.369z M117.917,27.893l-0.507-0.937l0.942-0.508l0.504,0.939L117.917,27.893z M329.188,27.36l-0.935-0.498l0.498-0.942   l0.94,0.501L329.188,27.36z M119.795,26.886l-0.498-0.942l0.947-0.499l0.495,0.944L119.795,26.886z M327.315,26.368l-0.94-0.489   l0.49-0.946l0.944,0.492L327.315,26.368z M121.683,25.898l-0.49-0.946c0.317-0.164,0.635-0.327,0.952-0.49l0.485,0.949   C122.314,25.572,121.998,25.734,121.683,25.898z M325.434,25.395l-0.945-0.481l0.481-0.951l0.948,0.482L325.434,25.395z    M123.58,24.927l-0.481-0.951l0.957-0.481l0.476,0.953L123.58,24.927z M323.544,24.439l-0.949-0.471l0.471-0.956l0.953,0.473   L323.544,24.439z M125.487,23.974l-0.472-0.955c0.32-0.158,0.641-0.315,0.962-0.472l0.467,0.958   C126.125,23.661,125.806,23.817,125.487,23.974z M321.644,23.502l-0.953-0.462l0.463-0.96l0.958,0.464L321.644,23.502z    M127.404,23.04l-0.463-0.959c0.322-0.155,0.644-0.31,0.967-0.463l0.457,0.963C128.044,22.732,127.724,22.886,127.404,23.04z    M319.736,22.583l-0.957-0.453l0.454-0.964l0.962,0.455L319.736,22.583z M129.329,22.124l-0.454-0.964   c0.323-0.152,0.647-0.303,0.971-0.453l0.449,0.967C129.972,21.822,129.651,21.973,129.329,22.124z M317.82,21.682l-0.962-0.444   l0.444-0.968l0.966,0.445L317.82,21.682z M131.263,21.227l-0.444-0.969l0.975-0.444l0.44,0.971L131.263,21.227z M315.895,20.8   c-0.321-0.145-0.643-0.29-0.965-0.434l0.434-0.973c0.324,0.144,0.648,0.29,0.97,0.436L315.895,20.8z M133.206,20.348l-0.434-0.973   l0.979-0.435l0.43,0.975L133.206,20.348z M313.962,19.936c-0.323-0.142-0.645-0.284-0.969-0.425l0.425-0.977   c0.325,0.141,0.65,0.284,0.975,0.427L313.962,19.936z M135.158,19.487l-0.425-0.977l0.983-0.425l0.421,0.979L135.158,19.487z    M312.022,19.091c-0.324-0.139-0.648-0.278-0.973-0.415l0.415-0.981c0.327,0.138,0.653,0.278,0.978,0.418L312.022,19.091z    M137.118,18.646l-0.416-0.981c0.329-0.14,0.658-0.278,0.988-0.416l0.412,0.983C137.773,18.369,137.445,18.507,137.118,18.646z    M310.073,18.265c-0.325-0.136-0.65-0.272-0.976-0.406l0.406-0.985c0.328,0.135,0.656,0.271,0.982,0.408L310.073,18.265z    M139.086,17.823l-0.407-0.985c0.33-0.136,0.661-0.272,0.992-0.406l0.401,0.987C139.744,17.552,139.414,17.687,139.086,17.823z    M308.113,17.455c-0.328-0.134-0.656-0.267-0.986-0.399l0.397-0.989c0.331,0.133,0.661,0.266,0.991,0.401L308.113,17.455z    M141.062,17.019l-0.397-0.989c0.332-0.133,0.664-0.266,0.996-0.397l0.392,0.991C141.722,16.754,141.392,16.886,141.062,17.019z    M306.14,16.663c-0.329-0.131-0.659-0.26-0.989-0.389l0.387-0.993c0.332,0.129,0.663,0.26,0.994,0.391L306.14,16.663z    M143.046,16.234l-0.387-0.993l1-0.387l0.382,0.994L143.046,16.234z M304.16,15.889c-0.331-0.127-0.662-0.254-0.993-0.38   l0.378-0.996c0.333,0.126,0.665,0.254,0.998,0.382L304.16,15.889z M145.038,15.468l-0.377-0.996l1.003-0.377l0.373,0.998   L145.038,15.468z M302.172,15.134l-0.996-0.37l0.369-1l1.001,0.372L302.172,15.134z M147.037,14.721l-0.368-1   c0.335-0.124,0.671-0.246,1.008-0.368l0.363,1.002C147.705,14.476,147.371,14.598,147.037,14.721z M300.177,14.399l-1-0.361   l0.359-1.003l1.005,0.362L300.177,14.399z M149.044,13.994l-0.359-1.004l1.011-0.358l0.353,1.005L149.044,13.994z M298.175,13.682   c-0.334-0.118-0.668-0.235-1.003-0.351l0.349-1.007c0.336,0.117,0.673,0.234,1.008,0.353L298.175,13.682z M151.058,13.285   l-0.349-1.007c0.338-0.117,0.676-0.233,1.015-0.349l0.343,1.009C151.731,13.053,151.394,13.169,151.058,13.285z M296.167,12.986   l-1.007-0.341l0.34-1.01l1.011,0.343L296.167,12.986z M153.079,12.597l-0.339-1.01l1.018-0.339l0.334,1.012L153.079,12.597z    M294.152,12.308c-0.336-0.111-0.673-0.222-1.009-0.331l0.329-1.014c0.339,0.11,0.677,0.221,1.015,0.333L294.152,12.308z    M155.107,11.927l-0.329-1.014c0.34-0.111,0.681-0.22,1.021-0.329l0.324,1.015C155.784,11.708,155.445,11.817,155.107,11.927z    M292.13,11.65l-1.013-0.322l0.321-1.016l1.017,0.323L292.13,11.65z M157.141,11.277l-0.319-1.017l1.025-0.319l0.315,1.018   L157.141,11.277z M290.102,11.011c-0.338-0.105-0.677-0.209-1.016-0.312l0.31-1.019c0.341,0.104,0.681,0.208,1.021,0.313   L290.102,11.011z M159.182,10.647l-0.31-1.02c0.341-0.104,0.682-0.206,1.023-0.308l0.304,1.021   C159.86,10.442,159.521,10.544,159.182,10.647z M288.068,10.392l-1.02-0.303l0.301-1.022l1.023,0.304L288.068,10.392z    M161.219,10.039l-0.299-1.023l1.025-0.298l0.295,1.024L161.219,10.039z M286.029,9.793c-0.34-0.098-0.681-0.196-1.022-0.292   l0.29-1.026c0.343,0.097,0.685,0.195,1.027,0.294L286.029,9.793z M163.262,9.451l-0.29-1.025c0.342-0.097,0.686-0.193,1.029-0.289   l0.285,1.027C163.944,9.259,163.603,9.354,163.262,9.451z M283.984,9.213l-1.025-0.283l0.281-1.028l1.03,0.284L283.984,9.213z    M165.311,8.882l-0.279-1.028l1.031-0.278l0.275,1.029L165.311,8.882z M281.933,8.652l-1.028-0.273l0.272-1.03l1.032,0.274   L281.933,8.652z M167.365,8.334l-0.271-1.031c0.344-0.09,0.689-0.18,1.034-0.268l0.265,1.032L167.365,8.334z M279.876,8.112   c-0.343-0.088-0.687-0.176-1.03-0.263l0.261-1.033c0.345,0.087,0.69,0.175,1.035,0.264L279.876,8.112z M169.424,7.804l-0.26-1.033   l1.036-0.258l0.255,1.035L169.424,7.804z M277.815,7.591l-1.033-0.253l0.251-1.035l1.037,0.254L277.815,7.591z M171.488,7.295   l-0.251-1.035c0.346-0.084,0.692-0.167,1.039-0.248l0.245,1.037C172.177,7.129,171.832,7.212,171.488,7.295z M275.749,7.09   l-1.035-0.243l0.242-1.038l1.04,0.244L275.749,7.09z M173.557,6.806l-0.24-1.038l1.041-0.238l0.236,1.039L173.557,6.806z    M273.679,6.609l-1.038-0.233l0.232-1.04l1.042,0.234L273.679,6.609z M175.63,6.336l-0.229-1.041l1.043-0.228l0.225,1.042   L175.63,6.336z M271.603,6.147c-0.346-0.075-0.693-0.15-1.039-0.223l0.221-1.042c0.348,0.074,0.696,0.149,1.044,0.224   L271.603,6.147z M177.708,5.887l-0.22-1.043l1.046-0.218l0.215,1.044L177.708,5.887z M269.523,5.706l-1.041-0.213l0.211-1.044   l1.046,0.214L269.523,5.706z M179.791,5.457l-0.211-1.045c0.349-0.07,0.699-0.14,1.048-0.208l0.205,1.046   C180.486,5.318,180.138,5.387,179.791,5.457z M267.439,5.285l-1.044-0.203l0.201-1.046l1.048,0.204L267.439,5.285z M181.877,5.047   l-0.201-1.046c0.35-0.067,0.7-0.133,1.05-0.198l0.195,1.047C182.573,4.915,182.225,4.981,181.877,5.047z M265.351,4.883   l-1.046-0.194l0.192-1.048l1.05,0.194L265.351,4.883z M183.967,4.657l-0.19-1.048l1.052-0.188l0.185,1.049L183.967,4.657z    M263.26,4.502l-1.048-0.183l0.182-1.05l1.051,0.184L263.26,4.502z M186.06,4.288l-0.18-1.051l1.053-0.178l0.176,1.051   L186.06,4.288z M261.165,4.141l-1.049-0.174l0.172-1.052l1.054,0.174L261.165,4.141z M188.157,3.938l-0.169-1.052l1.054-0.168   l0.165,1.053L188.157,3.938z M259.066,3.799l-1.05-0.163l0.161-1.053l1.055,0.164L259.066,3.799z M190.257,3.609l-0.159-1.054   l1.056-0.158l0.155,1.054L190.257,3.609z M256.965,3.478c-0.35-0.052-0.701-0.103-1.052-0.153l0.15-1.055   c0.353,0.05,0.705,0.102,1.057,0.154L256.965,3.478z M192.361,3.299l-0.15-1.055l1.058-0.148l0.145,1.056L192.361,3.299z    M254.86,3.177l-1.053-0.143l0.141-1.056l1.059,0.144L254.86,3.177z M194.468,3.01l-0.14-1.056l1.059-0.138l0.135,1.057   L194.468,3.01z M252.753,2.896l-1.055-0.133l0.131-1.057l1.06,0.134L252.753,2.896z M196.577,2.741l-0.13-1.058l1.06-0.127   l0.125,1.058L196.577,2.741z M250.643,2.635l-1.056-0.123l0.121-1.059l1.061,0.124L250.643,2.635z M198.688,2.492l-0.12-1.059   c0.354-0.04,0.708-0.079,1.062-0.118l0.114,1.059C199.392,2.413,199.04,2.452,198.688,2.492z M248.53,2.394l-1.057-0.113   l0.111-1.06l1.062,0.113L248.53,2.394z M200.802,2.263l-0.111-1.06c0.354-0.037,0.709-0.073,1.063-0.108l0.105,1.06   C201.507,2.19,201.155,2.226,200.802,2.263z M246.416,2.173l-1.059-0.103l0.101-1.061l1.063,0.104L246.416,2.173z M202.918,2.053   l-0.1-1.061c0.354-0.033,0.709-0.066,1.064-0.098l0.094,1.061C203.623,1.988,203.27,2.02,202.918,2.053z M244.299,1.973   L243.24,1.88l0.091-1.061l1.064,0.093L244.299,1.973z M205.035,1.865l-0.09-1.062c0.355-0.03,0.709-0.059,1.065-0.087l0.084,1.062   C205.741,1.806,205.388,1.835,205.035,1.865z M242.181,1.792l-1.06-0.082l0.08-1.063l1.065,0.083L242.181,1.792z M207.155,1.696   l-0.08-1.063l1.065-0.078l0.075,1.063L207.155,1.696z M240.06,1.631c-0.353-0.025-0.707-0.049-1.06-0.073l0.07-1.063   c0.356,0.023,0.711,0.048,1.066,0.073L240.06,1.631z M209.276,1.547l-0.07-1.064l1.066-0.067l0.065,1.064L209.276,1.547z    M237.939,1.491c-0.353-0.022-0.707-0.043-1.061-0.062l0.059-1.064c0.356,0.02,0.712,0.041,1.067,0.063L237.939,1.491z    M211.398,1.418l-0.06-1.064c0.355-0.02,0.711-0.039,1.067-0.057l0.055,1.064C212.105,1.379,211.751,1.398,211.398,1.418z    M235.816,1.371c-0.354-0.018-0.708-0.036-1.061-0.053l0.05-1.065c0.356,0.017,0.712,0.035,1.067,0.053L235.816,1.371z    M213.521,1.31l-0.05-1.065c0.356-0.017,0.711-0.032,1.067-0.047l0.044,1.065C214.229,1.277,213.875,1.293,213.521,1.31z    M233.692,1.27c-0.353-0.015-0.705-0.029-1.058-0.042l0.04-1.065c0.354,0.014,0.709,0.028,1.063,0.043L233.692,1.27z    M215.645,1.221l-0.04-1.065c0.356-0.014,0.712-0.026,1.068-0.037l0.034,1.065C216.353,1.195,215.999,1.208,215.645,1.221z    M231.576,1.19l-1.059-0.033l0.031-1.065l1.064,0.033L231.576,1.19z M217.77,1.152l-0.03-1.065c0.356-0.01,0.712-0.019,1.068-0.027   l0.024,1.065C218.478,1.133,218.124,1.142,217.77,1.152z M229.457,1.129l-1.061-0.023l0.021-1.066l1.065,0.023L229.457,1.129z    M219.896,1.104l-0.019-1.066l1.068-0.017l0.015,1.066L219.896,1.104z M227.335,1.089c-0.354-0.005-0.707-0.01-1.061-0.013   l0.009-1.066c0.356,0.003,0.712,0.008,1.067,0.013L227.335,1.089z M222.022,1.074l-0.009-1.066l1.068-0.007l0.005,1.066   L222.022,1.074z M225.211,1.068c-0.354-0.002-0.708-0.003-1.063-0.003V0c0.356,0,0.712,0.001,1.068,0.003L225.211,1.068z"/>
	<path id="XMLID_692_" class="st1" d="M224.048,52.214c-94.899,0-171.832,76.933-171.832,171.832s76.933,171.832,171.832,171.832   S395.88,318.945,395.88,224.046S318.947,52.214,224.048,52.214z M328.218,328.221c-27.823,27.823-64.822,43.147-104.17,43.147   c-39.354,0-76.347-15.324-104.175-43.147C92.049,300.393,76.726,263.4,76.726,224.046c0-39.348,15.324-76.347,43.147-104.17   c27.829-27.829,64.822-43.152,104.175-43.152c39.348,0,76.347,15.324,104.17,43.152c27.829,27.823,43.152,64.822,43.152,104.17   C371.371,263.4,356.047,300.393,328.218,328.221z"/>
	<g id="XMLID_688_">
		<path id="XMLID_689_" class="st0" d="M224.314,421.188c-26.577,0-52.36-5.205-76.633-15.472    c-23.444-9.916-44.498-24.111-62.578-42.191s-32.275-39.135-42.192-62.578c-10.266-24.273-15.472-50.055-15.472-76.633    s5.205-52.36,15.472-76.633c9.916-23.444,24.111-44.498,42.192-62.578s39.135-32.275,62.578-42.192    c24.272-10.266,50.055-15.472,76.633-15.472s52.36,5.205,76.633,15.472c23.444,9.916,44.498,24.111,62.578,42.192    s32.275,39.135,42.192,62.578c10.266,24.272,15.472,50.055,15.472,76.633s-5.205,52.36-15.472,76.633    c-9.916,23.444-24.111,44.498-42.192,62.578s-39.135,32.275-62.578,42.191C276.674,415.982,250.891,421.188,224.314,421.188z     M224.314,29.038c-26.362,0-51.936,5.163-76.01,15.345c-23.253,9.835-44.137,23.915-62.071,41.849s-32.014,38.818-41.849,62.071    c-10.182,24.074-15.345,49.648-15.345,76.01s5.163,51.936,15.345,76.01c9.835,23.253,23.915,44.137,41.849,62.071    c17.934,17.934,38.818,32.014,62.071,41.849c24.074,10.182,49.647,15.345,76.01,15.345s51.936-5.163,76.01-15.345    c23.253-9.835,44.137-23.915,62.071-41.849c17.934-17.935,32.014-38.818,41.849-62.071c10.182-24.074,15.345-49.648,15.345-76.01    s-5.163-51.936-15.345-76.01c-9.835-23.253-23.915-44.137-41.849-62.071s-38.818-32.014-62.071-41.849    C276.25,34.201,250.676,29.038,224.314,29.038z"/>
	</g>
</g>
<g id="XMLID_682_">
	<path id="XMLID_683_" class="st0" d="M224.047,83.935c-77.382,0-140.112,62.73-140.112,140.112s62.73,140.112,140.112,140.112   s140.112-62.73,140.112-140.112S301.429,83.935,224.047,83.935z M194.876,156.413c1.668-1.093,2.013-1.1,3.576-0.076   c0.951,0.623,5.022,4.723,9.046,9.11c4.024,4.387,8.838,9.61,10.697,11.606l3.382,3.629l6.956-5.845   c12.106-10.171,33.549-24.633,36.526-24.633c2.152,0,0.966,1.333-4.278,4.807c-11.4,7.552-19.756,14.26-29.118,23.375v0   c-11.094,10.803-12.057,11.196-17.997,7.354c-7.728-4.999-20.636-21.658-20.636-26.633   C193.03,158.291,193.861,157.079,194.876,156.413z M270.059,277.239l-16.432-57.132l-29.959,34.215l-30.66-34.203l-15.748,57.122   l-23.533,0.003l25.014-110.265l44.926,51.161l44.682-51.136l25.044,110.236L270.059,277.239z"/>
</g>
</svg>