<!-- Generator: Adobe Illustrator 19.0.0, SVG Export Plug-In  -->
<svg version="1.1" xmlns="http://www.w3.org/2000/svg" xmlns:xlink="http://www.w3.org/1999/xlink" xmlns:a="http://ns.adobe.com/AdobeSVGViewerExtensions/3.0/" x="0px" y="0px" width="598.348px" height="58.115px" viewBox="0 0 598.348 58.115" style="enable-background:new 0 0 598.348 58.115;" xml:space="preserve">
<style type="text/css">
	.st0{fill:#FFFFFF;}
</style>
<defs>
</defs>
<g id="XMLID_15_">
	<g id="XMLID_24_">
		<g id="XMLID_49_">
			<g id="XMLID_59_">
				<path id="XMLID_60_" class="st0" d="M106.562,0C91.056,0,78.487,12.57,78.487,28.075c0,15.505,12.57,28.075,28.075,28.075      c15.505,0,28.075-12.57,28.075-28.075C134.637,12.57,122.067,0,106.562,0z M118.872,40.236c0,1.227-1.064,2.249-2.29,2.249      c-1.268,0-2.25-1.023-2.25-2.249V23.017l-5.889,8.18c-0.45,0.614-1.104,0.94-1.841,0.94h-0.041h-0.041      c-0.736,0-1.431-0.327-1.881-0.94l-5.849-8.18v17.219c0,1.227-1.022,2.249-2.29,2.249c-1.227,0-2.25-1.023-2.25-2.249v-24.13      c0-1.227,1.023-2.25,2.25-2.25c0.041,0,0.041,0,0.123,0c0.654,0,1.391,0.327,1.8,0.941l8.139,11.288l8.139-11.288      c0.45-0.614,1.104-0.941,1.841-0.941c0,0,0,0,0.041,0c1.227,0.041,2.29,1.023,2.29,2.25V40.236z"/>
			</g>
			<path id="XMLID_56_" class="st0" d="M141.424,32.966c0.048-6.522,5.131-11.988,11.701-11.988c6.234,0,11.173,4.652,11.557,11.125     c0,0.048,0,0.144,0,0.24c0,0.096,0,0.335-0.048,0.431c-0.144,1.151-1.151,1.918-2.494,1.918h-15.25     c0.24,1.103,0.767,2.35,1.63,3.165c1.007,1.151,2.925,2.014,4.604,2.158c1.726,0.144,3.788-0.288,4.987-1.199     c1.007-1.055,2.973-0.911,3.597-0.144c0.624,0.671,1.103,2.11,0,3.117c-2.35,2.158-5.179,3.165-8.584,3.165     C146.554,44.907,141.472,39.488,141.424,32.966z M146.65,30.616h13.571c-0.479-1.918-2.925-4.747-7.097-5.083     C149.048,25.725,147.034,28.65,146.65,30.616z"/>
			<path id="XMLID_54_" class="st0" d="M177.462,49.271c2.206-0.719,3.357-2.206,3.261-4.316c-1.391-0.384-2.733-1.535-2.733-3.261     V41.31c0-1.822,1.294-3.213,3.261-3.213c2.158,0,3.452,1.63,3.452,4.22v0.527c0,3.261-0.863,5.467-2.35,7.001     c-1.294,1.247-3.165,2.062-4.508,2.062c-1.007,0-1.487-0.624-1.487-1.343C176.359,49.894,176.839,49.415,177.462,49.271z"/>
			<g id="XMLID_50_">
				<path id="XMLID_51_" class="st0" d="M225.879,0c-15.505,0-28.075,12.57-28.075,28.075c0,15.505,12.57,28.075,28.075,28.075      c15.505,0,28.075-12.57,28.075-28.075C253.954,12.57,241.385,0,225.879,0z M237.699,30.666c0,6.503-5.276,11.82-11.82,11.82      c-6.585,0-11.82-5.317-11.82-11.82v-14.56c0-1.268,0.982-2.25,2.25-2.25c1.227,0,2.291,0.982,2.291,2.25v14.56      c0,4.008,3.271,7.28,7.279,7.28c4.049,0,7.28-3.272,7.28-7.28v-14.56c0-1.268,1.023-2.25,2.291-2.25      c1.268,0,2.249,0.982,2.249,2.25V30.666z"/>
			</g>
		</g>
		<path id="XMLID_47_" class="st0" d="M298.961,30.987c0.052,1.972-0.882,3.944-2.231,4.982c-0.259,0.104-0.415,0.207-0.57,0.311    c0.052,0.415,0.052,0.831,0.052,1.246c0,6.902-5.606,12.455-12.508,12.455c-6.902,0-12.455-5.553-12.455-12.455    c0-3.633,1.556-6.902,4.047-9.134c-0.935-1.505-1.453-3.218-1.453-5.086c0-5.346,4.36-9.653,9.653-9.653    c5.345,0,9.653,4.307,9.653,9.653c0,1.609-1.246,2.854-2.855,2.854c-1.557,0-2.907-1.245-2.907-2.854    c0-2.18-1.713-3.892-3.892-3.892c-2.127,0-3.892,1.713-3.892,3.892c0,1.349,0.674,2.491,1.661,3.166    c1.193,0.934,1.557,2.543,0.778,3.84c0,0,0,0-0.052,0c0,0.052-0.052,0.104-0.052,0.208c-0.156,0.207-0.363,0.363-0.57,0.57    c-0.052,0.052-0.104,0.104-0.156,0.104c-0.053,0.052-0.053,0.052-0.157,0.104c-0.104,0.052-0.156,0.104-0.259,0.156    c-2.231,1.09-3.788,3.425-3.788,6.072c0,3.736,2.958,6.695,6.695,6.695s6.747-2.958,6.747-6.695c0-0.052,0-0.207,0-0.311    c-2.699,0.052-3.684,0.674-3.944,0.986c-0.363,0.363-0.416,0.675-0.416,1.142c0,0.312,0.053,0.519,0.053,0.571    c0.415,1.505-0.416,3.114-1.973,3.581c-0.207,0.052-0.519,0.104-0.778,0.104c-1.298,0-2.388-0.778-2.751-2.076    c-0.104-0.156-0.311-0.986-0.311-2.18c-0.052-1.349,0.363-3.581,2.127-5.241c1.764-1.713,4.464-2.647,8.096-2.647    c0.57,0,1.142,0,1.713,0.052c0.052,0,0.156,0,0.207,0c0.207,0,0.364,0,0.572-0.052c0.104-0.052,0.104-0.052,0.156-0.104    c0,0,0-0.052,0-0.364c0-0.156,0-0.415-0.052-0.778c-0.416-1.557,0.57-3.062,2.127-3.425c1.557-0.363,3.114,0.623,3.425,2.18    C298.909,29.638,298.961,30.312,298.961,30.987z"/>
		<g id="XMLID_25_">
			<g id="XMLID_43_">
				<path id="XMLID_44_" class="st0" d="M345.983,1.966c-15.505,0-28.075,12.57-28.075,28.075c0,15.505,12.57,28.075,28.075,28.075      c15.505,0,28.075-12.57,28.075-28.075C374.058,14.535,361.488,1.966,345.983,1.966z M351.116,27.75      c1.227,0,2.249,1.064,2.249,2.25c0,1.268-1.022,2.291-2.249,2.291h-9.53v7.526h11.084c1.186,0,2.25,1.022,2.25,2.29      c0,1.227-1.064,2.25-2.25,2.25h-13.251c-0.082,0-0.082-0.041-0.082-0.041l-0.041,0.041c-1.268,0-2.249-1.023-2.249-2.25v-24.13      c0-1.268,0.981-2.25,2.249-2.25h0.041c0,0,0,0,0.082,0h13.251c1.186,0,2.25,0.982,2.25,2.25s-1.064,2.29-2.25,2.29h-11.084      v7.485H351.116z"/>
			</g>
			<path id="XMLID_41_" class="st0" d="M405.477,26.684l-7.865,18.606c-0.048,0.144-0.144,0.288-0.192,0.335     c0,0.048-0.048,0.048-0.048,0.048c-0.096,0.096-0.192,0.24-0.288,0.335c0,0.049-0.048,0.049-0.048,0.049     c-0.096,0.144-0.192,0.192-0.288,0.288c0,0-0.048,0-0.048,0.048c-0.096,0.096-0.192,0.192-0.335,0.24c0,0,0,0-0.096,0     c0,0,0,0,0,0.048c-0.144,0-0.288,0.048-0.384,0.096c-0.048,0-0.048,0-0.096,0c-0.192,0.048-0.336,0.048-0.48,0.048     c-0.096,0-0.24,0-0.431-0.048c-0.048,0-0.048,0-0.096,0c-0.144-0.048-0.24-0.096-0.384-0.096c0-0.048,0-0.048,0-0.048     c-0.096,0-0.096,0-0.096,0c-0.144-0.048-0.24-0.144-0.432-0.24c0-0.048-0.048-0.048-0.048-0.048     c-0.096-0.096-0.192-0.144-0.288-0.288c-0.048,0-0.048,0-0.096-0.049c-0.048-0.096-0.144-0.24-0.24-0.335     c-0.048,0-0.048,0-0.048-0.048c-0.096-0.048-0.144-0.192-0.192-0.335l-7.769-18.606c-0.576-1.295,0.048-2.686,1.391-3.261     c1.151-0.576,2.637,0.096,3.213,1.391l5.515,13.043l5.563-13.043c0.527-1.295,1.966-1.967,3.213-1.391     C405.429,23.998,406.052,25.389,405.477,26.684z"/>
			<path id="XMLID_38_" class="st0" d="M416.9,34.836c0.048-6.522,5.131-11.989,11.701-11.989c6.234,0,11.173,4.652,11.557,11.126     c0,0.048,0,0.144,0,0.24s0,0.335-0.048,0.431c-0.144,1.151-1.151,1.918-2.493,1.918h-15.25c0.24,1.103,0.767,2.35,1.63,3.165     c1.007,1.151,2.925,2.015,4.604,2.159c1.726,0.144,3.788-0.288,4.987-1.199c1.007-1.055,2.973-0.912,3.597-0.144     c0.624,0.671,1.103,2.11,0,3.117c-2.35,2.158-5.179,3.165-8.584,3.165C422.031,46.777,416.948,41.358,416.9,34.836z      M422.127,32.487h13.571c-0.479-1.919-2.925-4.747-7.097-5.084C424.525,27.595,422.511,30.52,422.127,32.487z"/>
			<path id="XMLID_36_" class="st0" d="M467.001,25.389c0,1.343-1.103,2.542-2.541,2.542c-1.103,0-2.062,0.288-2.877,0.91     c-0.911,0.576-1.63,1.391-2.206,2.302c-1.151,1.535-1.726,3.357-1.966,4.028v9.111c0,1.391-1.199,2.542-2.638,2.542     c-1.391,0-2.541-1.151-2.541-2.542V25.389c0-1.391,1.151-2.494,2.541-2.494c1.439,0,2.638,1.103,2.638,2.494v0.335     c0.288-0.335,0.671-0.719,1.007-0.958c1.582-1.055,3.645-1.919,6.042-1.871C465.898,22.895,467.001,23.998,467.001,25.389z"/>
			<path id="XMLID_34_" class="st0" d="M499.133,25.389v11.317v6.81c0,6.426-5.084,11.461-11.462,11.461     c-1.726,0-3.5-0.479-4.939-1.198c-1.343-0.576-1.822-2.063-1.247-3.406c0.624-1.15,2.254-1.678,3.405-1.054     c0.912,0.431,1.823,0.671,2.782,0.671c2.829-0.048,5.228-1.87,5.994-4.364c-1.343,0.768-2.973,1.151-4.556,1.151     c-5.514,0-10.022-4.556-10.022-10.071V25.389c0-1.439,1.198-2.542,2.493-2.542c1.487,0,2.542,1.103,2.542,2.542v11.317     c0,2.782,2.253,4.892,4.987,4.892c2.734,0,4.939-2.111,4.939-4.892V25.389c0-1.439,1.055-2.542,2.494-2.542     C497.933,22.847,499.133,23.95,499.133,25.389z"/>
			<path id="XMLID_31_" class="st0" d="M514.584,43.324c-2.062-2.111-3.309-5.084-3.309-8.441c0-3.261,1.247-6.09,3.309-8.392     c2.159-2.254,4.94-3.645,8.249-3.645c3.165,0,6.042,1.391,8.008,3.645c2.157,2.301,3.357,5.131,3.357,8.392     c0,3.357-1.199,6.33-3.357,8.441c-1.966,2.253-4.843,3.644-8.008,3.644C519.524,46.969,516.743,45.578,514.584,43.324z      M516.503,34.884c0,2.063,0.623,3.741,1.726,5.084c1.198,1.15,2.782,1.774,4.604,1.774c1.678,0,3.213-0.624,4.412-1.774     c1.198-1.343,1.87-3.021,1.87-5.084c0-1.966-0.672-3.692-1.87-4.987c-1.199-1.055-2.734-1.822-4.412-1.822     c-1.822,0-3.406,0.767-4.604,1.822C517.126,31.192,516.503,32.918,516.503,34.884z"/>
			<path id="XMLID_29_" class="st0" d="M565.79,32.822v11.461c0,1.391-1.103,2.542-2.494,2.542c-1.343,0-2.541-1.151-2.541-2.542     V32.822c0-2.686-2.254-4.843-4.988-4.843c-2.685,0-4.795,2.158-4.795,4.843v11.461c0,0.144,0,0.289-0.096,0.48     c-0.24,1.15-1.295,2.062-2.541,2.062c-1.439,0-2.542-1.151-2.542-2.542V32.822v-7.433c0-1.391,1.103-2.542,2.542-2.542     c1.006,0,1.918,0.576,2.349,1.487c1.439-0.91,3.213-1.487,5.083-1.487C561.33,22.847,565.79,27.403,565.79,32.822z"/>
			<path id="XMLID_26_" class="st0" d="M575.09,34.836c0.048-6.522,5.131-11.989,11.7-11.989c6.234,0,11.174,4.652,11.558,11.126     c0,0.048,0,0.144,0,0.24s0,0.335-0.048,0.431c-0.144,1.151-1.151,1.918-2.494,1.918h-15.25c0.241,1.103,0.768,2.35,1.63,3.165     c1.007,1.151,2.925,2.015,4.604,2.159c1.727,0.144,3.789-0.288,4.988-1.199c1.006-1.055,2.973-0.912,3.596-0.144     c0.623,0.671,1.103,2.11,0,3.117c-2.35,2.158-5.179,3.165-8.584,3.165C580.221,46.777,575.138,41.358,575.09,34.836z      M580.317,32.487h13.571c-0.479-1.919-2.925-4.747-7.098-5.084C582.715,27.595,580.7,30.52,580.317,32.487z"/>
		</g>
	</g>
	<g id="XMLID_16_">
		<path id="XMLID_22_" class="st0" d="M5.262,22.172v7.41h9.093c0.73,0,1.34,0.231,1.831,0.694c0.491,0.463,0.737,1.06,0.737,1.79    c0,0.618-0.246,1.165-0.737,1.642c-0.491,0.478-1.101,0.716-1.831,0.716H5.262v9.81c0,0.73-0.26,1.34-0.778,1.831    c-0.52,0.491-1.131,0.737-1.831,0.737c-0.786,0-1.426-0.238-1.916-0.716C0.245,45.608,0,44.99,0,44.233V19.899    c0-0.73,0.245-1.34,0.737-1.831c0.49-0.491,1.101-0.737,1.831-0.737H16.25c0.73,0,1.34,0.232,1.831,0.695    c0.491,0.463,0.738,1.06,0.738,1.789c0,0.618-0.247,1.165-0.738,1.642c-0.491,0.477-1.101,0.716-1.831,0.716H5.262z"/>
		<path id="XMLID_19_" class="st0" d="M42.731,41.601c-1.011,1.783-2.393,3.165-4.147,4.147c-1.755,0.983-3.684,1.474-5.789,1.474    c-2.133,0-4.07-0.491-5.81-1.474c-1.74-0.982-3.115-2.364-4.125-4.147c-1.01-1.782-1.516-3.796-1.516-6.041    c0-2.245,0.506-4.259,1.516-6.041c1.01-1.782,2.385-3.172,4.125-4.168c1.74-0.996,3.677-1.495,5.81-1.495    c2.105,0,4.034,0.499,5.789,1.495c1.754,0.997,3.136,2.386,4.147,4.168c1.01,1.782,1.515,3.796,1.515,6.041    C44.246,37.806,43.741,39.819,42.731,41.601z M38.331,31.876c-0.575-1.08-1.347-1.915-2.316-2.505    c-0.968-0.59-2.042-0.884-3.22-0.884c-1.179,0-2.252,0.295-3.221,0.884c-0.969,0.59-1.74,1.425-2.316,2.505    c-0.575,1.081-0.863,2.309-0.863,3.684c0,1.375,0.287,2.597,0.863,3.663c0.575,1.067,1.347,1.894,2.316,2.484    c0.969,0.59,2.042,0.884,3.221,0.884c1.178,0,2.252-0.295,3.22-0.884c0.969-0.59,1.74-1.417,2.316-2.484    c0.575-1.066,0.864-2.287,0.864-3.663C39.194,34.185,38.906,32.957,38.331,31.876z"/>
		<path id="XMLID_17_" class="st0" d="M62.286,24.572c0.575,0.477,0.864,1.039,0.864,1.684c0,0.87-0.225,1.523-0.674,1.957    c-0.449,0.435-0.982,0.653-1.599,0.653c-0.421,0-0.899-0.098-1.431-0.295c-0.084-0.028-0.274-0.084-0.569-0.169    c-0.294-0.084-0.61-0.126-0.947-0.126c-0.73,0-1.431,0.225-2.105,0.674c-0.674,0.449-1.228,1.13-1.662,2.042    c-0.436,0.913-0.653,2-0.653,3.263v9.978c0,0.73-0.239,1.34-0.715,1.831c-0.477,0.491-1.081,0.737-1.81,0.737    c-0.731,0-1.333-0.246-1.811-0.737s-0.715-1.101-0.715-1.831V26.845c0-0.729,0.238-1.34,0.715-1.831    c0.477-0.491,1.08-0.737,1.811-0.737c0.729,0,1.332,0.246,1.81,0.737c0.477,0.492,0.715,1.102,0.715,1.831v0.547    c0.645-1.15,1.572-2.027,2.778-2.631c1.207-0.603,2.498-0.905,3.874-0.905C61.002,23.856,61.71,24.095,62.286,24.572z"/>
	</g>
</g>
</svg>