<?xml version="1.0" encoding="UTF-8"?>
<svg width="45px" height="46px" viewBox="0 0 45 46" version="1.1" xmlns="http://www.w3.org/2000/svg" xmlns:xlink="http://www.w3.org/1999/xlink">
    <!-- Generator: Sketch 50.2 (55047) - http://www.bohemiancoding.com/sketch -->
    <title>team-twitter</title>
    <desc>Created with Sketch.</desc>
    <defs/>
    <g id="Website" stroke="none" stroke-width="1" fill="none" fill-rule="evenodd">
        <g id="4.get-started-copy" transform="translate(-136.000000, -1924.000000)" fill="#FE9518" fill-rule="nonzero">
            <g id="team-twitter" transform="translate(136.293676, 1924.979866)">
                <path d="M22.2547102,0 C9.98351355,0 0,9.98351355 0,22.2547102 C0,34.5250104 9.98351355,44.5094204 22.2547102,44.5094204 C34.5250104,44.5094204 44.5094204,34.5250104 44.5094204,22.2547102 C44.5094204,9.98351355 34.5268033,0 22.2547102,0 Z M32.1826452,17.1612089 C32.1925059,17.3817301 32.1978845,17.6040441 32.1978845,17.8263581 C32.1978845,24.5952825 27.0470118,32.3977879 17.6228691,32.3977879 C14.7300974,32.3977879 12.0372291,31.5524567 9.77106022,30.0984512 C10.1717633,30.1459619 10.5796379,30.1701654 10.992891,30.1701654 C13.3935239,30.1701654 15.601425,29.3508306 17.3548372,27.9775036 C15.1137684,27.936268 13.2214098,26.4553697 12.569707,24.4195827 C12.8816638,24.4787469 13.2034813,24.5119147 13.5324702,24.5119147 C13.9995089,24.5119147 14.4531013,24.4509577 14.8824901,24.3335257 C12.5392285,23.8637976 10.7741626,21.7939464 10.7741626,19.3108421 C10.7741626,19.2893279 10.7741626,19.2669172 10.7750591,19.2462994 C11.4653083,19.6290739 12.2550609,19.8603522 13.0941171,19.8863486 C11.7207901,18.9693032 10.8162947,17.400555 10.8162947,15.6238357 C10.8162947,14.6843796 11.0681909,13.8040877 11.5092332,13.0475029 C14.0344696,16.1473493 17.8102224,18.1858256 22.0664604,18.4009682 C21.9786105,18.025365 21.9346856,17.6354191 21.9346856,17.2329231 C21.9346856,14.4046942 24.2277472,12.1107361 27.0559761,12.1107361 C28.529703,12.1107361 29.859105,12.7328568 30.7949754,13.7278914 C31.9630205,13.498406 33.0566621,13.0734993 34.0490074,12.4845464 C33.6635435,13.6812772 32.8540695,14.6843796 31.7935957,15.3190503 C32.8307624,15.1953433 33.8204184,14.9210365 34.7356709,14.5131619 C34.0525931,15.538675 33.1839548,16.4413776 32.1826452,17.1612089 Z" id="Shape"/>
            </g>
        </g>
    </g>
</svg>