<?xml version="1.0" encoding="UTF-8"?>
<svg width="46px" height="46px" viewBox="0 0 46 46" version="1.1" xmlns="http://www.w3.org/2000/svg" xmlns:xlink="http://www.w3.org/1999/xlink">
    <!-- Generator: Sketch 50.2 (55047) - http://www.bohemiancoding.com/sketch -->
    <title>team-bitcoin</title>
    <desc>Created with Sketch.</desc>
    <defs/>
    <g id="Website" stroke="none" stroke-width="1" fill="none" fill-rule="evenodd">
        <g id="4.get-started-copy" transform="translate(-233.000000, -1924.000000)">
            <g id="team-bitcoin" transform="translate(233.130100, 1924.979866)">
                <path d="M22.5612124,44.8213772 C10.1841309,44.8213772 0.150523841,34.7877701 0.150523841,22.4106886 C0.150523841,10.033607 10.1841309,0 22.5612124,0 C34.938294,0 44.971901,10.033607 44.971901,22.4106886 C44.971901,34.7877701 34.938294,44.8213772 22.5612124,44.8213772 Z M32.0249891,23.0010811 C31.3537716,22.1331264 30.3408943,21.5369549 28.9864179,21.2129314 C30.7112589,20.3331177 31.4692597,18.839861 31.2611501,16.732918 C31.1915775,15.9688965 30.980427,15.3067405 30.6272123,14.7454769 C30.2737543,14.1840917 29.7967806,13.732782 29.1944667,13.3913654 C28.5926394,13.0495231 27.9380853,12.7892948 27.2323247,12.6098899 C26.5263818,12.4304851 25.7158974,12.3002189 24.8014191,12.2192738 L24.8014191,7.84374101 L22.1277391,7.84374101 L22.1277391,12.0977042 C21.6647529,12.0977042 20.9586883,12.1092591 20.0096061,12.1324297 L20.0096061,7.84374101 L17.3355613,7.84374101 L17.3355613,12.2192738 C16.9534593,12.2308896 16.3921349,12.2367886 15.6513448,12.2367886 L11.9704433,12.2192738 L11.9704433,15.0668853 L13.8976166,15.0668853 C14.7773694,15.0668853 15.2924743,15.4605422 15.4429311,16.2475518 L15.4429311,21.2308719 C15.5588449,21.2308719 15.6513448,21.2368318 15.7208566,21.2483867 L15.4429311,21.2483867 L15.4429311,28.2280877 C15.3504312,28.8182993 15.014792,29.1136788 14.4359528,29.1136788 L12.5089012,29.1136788 L11.970565,32.2912128 L15.4432352,32.2912128 C15.6632038,32.2912128 15.9813282,32.2941319 16.3982164,32.299362 C16.8148615,32.3052003 17.1272692,32.3081194 17.3356829,32.3081194 L17.3356829,36.7356493 L20.0101535,36.7356493 L20.0101535,32.3601772 C20.4961887,32.3720362 21.2022533,32.377692 22.1282865,32.377692 L22.1282865,36.7356493 L24.8020273,36.7356493 L24.8020273,32.3081194 C25.7514135,32.2618999 26.5934609,32.1755423 27.3281695,32.0477695 C28.063243,31.9199967 28.7666317,31.7206445 29.4378492,31.4484356 C30.1090059,31.1765916 30.6703303,30.83779 31.1217008,30.4326391 C31.5733145,30.0278531 31.9462942,29.512505 32.2419778,28.8873246 C32.5366883,28.2621442 32.725033,27.5386864 32.8057956,26.7166472 C32.9569214,25.1080849 32.6963282,23.8694007 32.0249891,23.0010811 Z M20.0616032,15.2573586 C20.1426698,15.2573586 20.3712742,15.2544394 20.7474771,15.2486012 C21.1238625,15.2426413 21.4362702,15.2369246 21.685126,15.2310864 C21.9340427,15.2253698 22.2697427,15.2398438 22.6924084,15.2745693 C23.1148917,15.3092947 23.4707823,15.3556967 23.7600802,15.4134712 C24.0493782,15.4712457 24.3679891,15.5667863 24.7149399,15.6999108 C25.0624988,15.8329137 25.3401203,15.9950471 25.5482299,16.1860068 C25.7567653,16.3769666 25.933251,16.6201666 26.0776871,16.9153637 C26.222549,17.2104999 26.2949191,17.5490582 26.2949191,17.9309777 C26.2949191,18.2551228 26.2429221,18.5503806 26.1388672,18.8167513 C26.0349949,19.0829394 25.8783349,19.3058272 25.6702252,19.4852321 C25.4620548,19.6646977 25.2474987,19.8211145 25.0275301,19.9541173 C24.8078047,20.0871202 24.5268384,20.1942766 24.1854826,20.2752217 C23.8441877,20.3562883 23.5461323,20.4199619 23.2916207,20.4661814 C23.0369266,20.5125226 22.7186806,20.5444506 22.3366394,20.5617221 C21.9545374,20.5789936 21.665057,20.5907918 21.4683806,20.5965084 C21.2715218,20.602225 21.0024753,20.602225 20.6608762,20.5965084 C20.3192164,20.5907918 20.1198033,20.587751 20.0617856,20.587751 L20.0617856,15.2572977 L20.0616032,15.2572977 L20.0616032,15.2573586 Z M27.3630774,27.0814777 C27.2528195,27.3478483 27.1112417,27.5794935 26.9377359,27.7764131 C26.763926,27.9728462 26.5352,28.1466561 26.2517403,28.2969305 C25.9683414,28.4476306 25.6931526,28.5689569 25.4271468,28.6615785 C25.1607762,28.754565 24.8394286,28.8351451 24.4635906,28.9048394 C24.0869012,28.9743511 23.7572219,29.0232466 23.4733365,29.0523771 C23.1898768,29.0813859 22.8514402,29.1044349 22.4577225,29.1219497 C22.0643089,29.1389779 21.7573745,29.1477961 21.5375275,29.1477961 C21.3175589,29.1477961 21.0396942,29.1446337 20.7039942,29.1389779 C20.3681118,29.1335654 20.1541639,29.1306462 20.0614815,29.1306462 L20.0614815,23.2616742 C20.1539815,23.2616742 20.428927,23.2560184 20.8862574,23.2442203 C21.3436486,23.2325438 21.7167499,23.2271312 22.0061695,23.2271312 C22.2955283,23.2271312 22.6950234,23.2442203 23.2045333,23.279189 C23.7135566,23.3136713 24.1418781,23.3655466 24.4894371,23.4349976 C24.8365703,23.5045702 25.2153883,23.6114833 25.6266207,23.7563452 C26.0374275,23.9009638 26.3703908,24.0774495 26.6251457,24.2858024 C26.8798398,24.4945202 27.0938485,24.7603435 27.2674151,25.0845494 C27.4414074,25.4085728 27.5281907,25.7790591 27.5281907,26.1958866 C27.5281299,26.5203357 27.4732138,26.8150462 27.3630774,27.0814777 Z" id="Combined-Shape" fill="#FE9518"/>
                <g id="001-bitcoin-logo" transform="translate(11.916135, 7.843741)"/>
            </g>
        </g>
    </g>
</svg>