<?xml version="1.0" encoding="UTF-8"?>
<svg width="45px" height="46px" viewBox="0 0 45 46" version="1.1" xmlns="http://www.w3.org/2000/svg" xmlns:xlink="http://www.w3.org/1999/xlink">
    <!-- Generator: Sketch 50.2 (55047) - http://www.bohemiancoding.com/sketch -->
    <title>team-linkedin</title>
    <desc>Created with Sketch.</desc>
    <defs/>
    <g id="Website" stroke="none" stroke-width="1" fill="none" fill-rule="evenodd">
        <g id="4.get-started-copy" transform="translate(-328.000000, -1924.000000)" fill="#FE9518" fill-rule="nonzero">
            <g id="team-linkedin" transform="translate(328.706324, 1924.959064)">
                <path d="M22.0893243,0 C34.2896424,0 44.1788002,9.89052266 44.1788002,22.0894759 C44.1788002,34.2884292 34.2896424,44.1788002 22.0893243,44.1788002 C9.88900615,44.1788002 0,34.2882775 0,22.0894759 C0,9.89067431 9.8891578,0 22.0893243,0 Z M12.4463889,30.3508192 L16.401725,30.3508192 L16.401725,17.1673325 L12.4463889,17.1673325 L12.4463889,30.3508192 Z M27.85574,16.7106743 C25.9361513,16.7106743 24.2185711,17.411686 23.0001391,18.9590163 L23.0001391,17.1239725 L19.0303013,17.1239725 L19.0303013,30.3509642 L23.0001391,30.3509642 L23.0001391,23.1981505 C23.0001391,21.6864943 24.3850505,20.2118174 26.1197427,20.2118174 C27.8544349,20.2118174 28.2822347,21.6864943 28.2822347,23.1611711 L28.2822347,30.349659 L32.2375708,30.349659 L32.2375708,22.8667868 C32.2374258,17.669091 29.7766339,16.7106743 27.85574,16.7106743 Z M14.4055673,15.8498539 C15.4987047,15.8498539 16.3859181,14.9626405 16.3859181,13.8695031 C16.3859181,12.7763657 15.4987047,11.8892973 14.4055673,11.8892973 C13.3124299,11.8892973 12.4252165,12.7765107 12.4252165,13.8696481 C12.4252165,14.9627855 13.3124299,15.8498539 14.4055673,15.8498539 Z" id="Combined-Shape"/>
            </g>
        </g>
    </g>
</svg>