<?xml version="1.0" encoding="UTF-8"?>
<svg width="72px" height="71px" viewBox="0 0 72 71" version="1.1" xmlns="http://www.w3.org/2000/svg" xmlns:xlink="http://www.w3.org/1999/xlink">
    <!-- Generator: Sketch 50.2 (55047) - http://www.bohemiancoding.com/sketch -->
    <title>twitter</title>
    <desc>Created with Sketch.</desc>
    <defs/>
    <g id="Website" stroke="none" stroke-width="1" fill="none" fill-rule="evenodd">
        <g id="5.footer" transform="translate(-98.000000, -234.000000)" fill="#FE9518" fill-rule="nonzero">
            <g id="Group" transform="translate(98.000000, 233.627857)">
                <g id="twitter" transform="translate(0.796542, 0.565018)">
                    <path d="M35.1826896,0 C15.7830345,0 0,15.7830345 0,35.1826896 C0,54.5809276 15.7830345,70.3653792 35.1826896,70.3653792 C54.5809276,70.3653792 70.3653792,54.5809276 70.3653792,35.1826896 C70.3653792,15.7830345 54.5837619,0 35.1826896,0 Z M50.8778595,27.1303235 C50.8934484,27.4789475 50.9019514,27.830406 50.9019514,28.1818644 C50.9019514,38.8829234 42.7588863,51.2179806 27.8601666,51.2179806 C23.2869554,51.2179806 19.0297735,49.8815882 15.4471649,47.5829367 C16.0806404,47.6580468 16.7254533,47.6963104 17.3787691,47.6963104 C21.1739533,47.6963104 24.6644458,46.401016 27.4364324,44.2299099 C23.8935047,44.16472 20.9018565,41.8235534 19.8715731,38.6051578 C20.3647486,38.6986911 20.8735131,38.7511264 21.3936149,38.7511264 C22.131961,38.7511264 22.8490496,38.6547588 23.5278745,38.4691094 C19.8233893,37.7265117 17.0329794,34.4542637 17.0329794,30.5286997 C17.0329794,30.4946876 17.0329794,30.4592584 17.0343966,30.4266634 C18.1256183,31.0317955 19.374146,31.3974256 20.7006182,31.4385236 C18.5295121,29.9887576 17.0995864,27.5087081 17.0995864,24.699875 C17.0995864,23.2146797 17.4978115,21.8230177 18.1950597,20.6269253 C22.1872307,25.5275029 28.1563553,28.75015 34.8850837,29.0902711 C34.7462009,28.4964764 34.6767595,27.880007 34.6767595,27.2436971 C34.6767595,22.7725223 38.3018832,19.1459815 42.773058,19.1459815 C45.1028873,19.1459815 47.204552,20.1294982 48.6840787,21.7025582 C50.5306526,21.3397624 52.2596013,20.6680233 53.8284097,19.7369419 C53.2190262,21.6288653 51.9393207,23.2146797 50.2628073,24.2180369 C51.9024742,24.0224672 53.4670311,23.5888129 54.9139628,22.944 C53.8340784,24.5652438 52.4608396,25.9923351 50.8778595,27.1303235 Z" id="Shape"/>
                </g>
            </g>
        </g>
    </g>
</svg>